<svg width="1318" height="904" viewBox="0 0 1318 904" fill="none" xmlns="http://www.w3.org/2000/svg">
<rect width="1318" height="903.551" fill="white"/>
<g clip-path="url(#clip0_678_24629)">
<path d="M191.175 176.917L166.454 175.975L166.702 169.602L168.933 169.689L168.772 173.83L189.03 174.598L189.749 156.411L169.479 155.642L169.169 163.527L166.95 163.44L167.334 153.336L192.068 154.266L191.175 176.917Z" fill="#DA192E"/>
<path d="M219.232 213.54C217.099 213.54 214.979 213.292 212.909 212.796C201.837 210.18 195.849 208.11 195.08 206.647L194.857 206.188C193.208 203.039 194.275 184.665 195.465 169.8C195.7 166.862 197.771 164.382 200.635 163.626L221.736 158.084C222.79 157.811 223.732 157.167 224.364 156.274C227.29 152.232 234.927 142.252 242.825 137.082L244.052 138.954C236.465 143.926 229.026 153.633 226.174 157.588C225.232 158.902 223.856 159.845 222.294 160.254L201.193 165.796C199.258 166.304 197.845 167.99 197.684 169.986C196.109 189.674 195.787 203.163 196.841 205.184L197.027 205.556C197.882 206.337 203.858 208.37 213.417 210.627C215.983 211.234 218.636 211.432 221.277 211.222L223.571 211.036L223.744 213.255L221.451 213.441C220.707 213.503 219.963 213.528 219.219 213.528L219.232 213.54Z" fill="#001080"/>
<path d="M194.795 156.596L170.074 155.654L170.52 144.223L195.242 145.153L194.795 156.596ZM172.392 153.509L192.663 154.277L192.936 147.297L172.665 146.541L172.392 153.509Z" fill="#DA192E"/>
<path d="M191.138 147.235L173.979 146.578L174.438 135.147L191.584 135.792L191.138 147.235ZM176.297 144.446L188.993 144.929L189.266 137.949L176.583 137.478L176.297 144.446Z" fill="#DA192E"/>
<path d="M223.732 158.79L222.715 158.319L221.624 158.071C221.922 156.571 224.464 137.54 223.261 134.639C222.034 131.663 220.459 130.994 211.136 127.461C206.412 125.663 202.023 124.398 201.986 124.386C200.932 124.076 200.647 124.212 199.259 124.832C198.725 125.068 198.081 125.365 197.238 125.688L196.419 123.605C197.213 123.295 197.833 123.022 198.341 122.787C199.854 122.105 200.771 121.696 202.606 122.229C202.643 122.229 207.119 123.53 211.929 125.365C221.438 128.961 223.695 129.816 225.319 133.771C226.918 137.664 223.782 158.629 223.72 158.765L223.732 158.79Z" fill="#001080"/>
<path d="M243.432 166.304H221.848V168.535H243.432V166.304Z" fill="#001080"/>
<path d="M163.862 225.392C162.722 225.392 161.767 224.587 161.581 223.458L157.688 199.716L153.312 193.418L153.051 199.233L147.745 223.545C147.509 224.599 146.567 225.355 145.489 225.355L140.517 225.33C139.835 225.33 139.203 225.02 138.756 224.512C138.31 224.004 138.137 223.31 138.248 222.64L142.253 199.047L142.55 171.784L142.476 151.984C142.451 148.5 144.769 145.649 148.526 144.545C151.96 143.541 156.746 144.161 159.139 147.905L168.35 162.374L181.244 163.638C181.889 163.7 182.484 164.047 182.868 164.568C183.253 165.089 183.389 165.771 183.253 166.403L182.62 169.23C182.385 170.284 181.443 171.015 180.339 171.015L165.412 170.68C164.147 170.68 162.536 169.453 160.837 167.643V177.636C160.837 178.441 161.048 179.359 161.383 179.942L161.457 180.103L167.309 195.228L170.904 222.727C170.991 223.384 170.793 224.041 170.359 224.537C169.925 225.033 169.293 225.318 168.636 225.33L163.887 225.368H163.862V225.392ZM151.613 146.356C150.758 146.356 149.915 146.479 149.158 146.703C146.356 147.521 144.695 149.505 144.707 151.997L144.782 171.808L144.472 199.357L140.455 223.037L145.501 223.148L150.857 198.861L151.216 190.43H151.241L147.472 185.025L149.307 183.748L159.833 198.861L163.813 223.099L168.648 223.124L165.139 195.675L159.436 181.008C158.928 180.09 158.618 178.813 158.63 177.648V165.039C155.692 161.295 152.903 156.695 151.688 154.65L153.609 153.522C157.862 160.737 163.627 168.473 165.449 168.473L180.401 168.808L181.083 165.944L167.061 164.506L157.267 149.12C156.002 147.137 153.77 146.356 151.626 146.356H151.613ZM152.32 142.227C151.874 142.227 151.402 142.202 150.931 142.153C148.204 141.731 145.427 139.772 144.249 137.491C143.133 135.346 142.922 130.523 143.183 128.614C143.282 127.796 143.542 127.027 143.951 126.308C144.274 125.75 144.695 125.229 145.216 124.783C147.175 123.072 150.435 122.403 153.733 123.035C156.535 123.568 158.754 124.944 159.672 126.73C160.093 127.56 160.341 128.54 160.403 129.631C160.713 134.763 159.821 138.26 157.676 140.305C156.324 141.595 154.527 142.239 152.32 142.239V142.227ZM151.316 125.031C149.444 125.031 147.745 125.539 146.691 126.469C146.356 126.754 146.096 127.077 145.898 127.411C145.637 127.87 145.476 128.366 145.402 128.899C145.166 130.685 145.451 134.962 146.245 136.462C147.088 138.111 149.27 139.623 151.229 139.933C153.386 140.169 155.01 139.76 156.151 138.681C157.775 137.144 158.457 134.131 158.196 129.767C158.147 128.986 157.986 128.304 157.701 127.759C157.105 126.606 155.432 125.639 153.336 125.242C152.667 125.118 151.985 125.056 151.328 125.056L151.316 125.031Z" fill="#001080"/>
<path d="M242.564 225.38C242.415 225.38 242.279 225.38 242.13 225.38C236.316 225.268 230.885 222.925 226.844 218.759C222.79 214.593 220.632 209.126 220.744 203.361C220.979 191.595 230.724 182.173 242.564 182.173C242.701 182.173 242.837 182.173 242.986 182.173H243.457L243.407 184.404H242.961C242.837 184.404 242.713 184.404 242.589 184.404C231.939 184.404 223.186 192.847 222.975 203.398C222.876 208.568 224.823 213.465 228.443 217.197C232.076 220.929 236.948 223.049 242.18 223.148C242.589 223.148 242.986 223.148 243.383 223.136L243.482 225.367C243.172 225.38 242.874 225.392 242.564 225.392V225.38Z" fill="#001080"/>
<path d="M242.639 215.735C236.043 215.735 230.675 210.366 230.675 203.771C230.675 197.175 236.043 191.807 242.639 191.807C242.912 191.807 243.184 191.831 243.457 191.844L243.333 194.075H243.284C243.06 194.051 242.85 194.038 242.626 194.038C237.258 194.038 232.894 198.402 232.894 203.771C232.894 209.139 237.258 213.503 242.626 213.503C242.85 213.503 243.06 213.491 243.284 213.466L243.494 215.685C243.172 215.71 242.899 215.735 242.626 215.735H242.639Z" fill="#001080"/>
<path d="M149.493 135.643H147.261C147.261 133.449 148.551 129.295 153.435 129.295C157.787 129.295 157.787 129.047 157.787 127.646H160.019C160.019 131.527 157.118 131.527 153.435 131.527C149.753 131.527 149.505 135.222 149.493 135.643Z" fill="#001080"/>
</g>
<g clip-path="url(#clip1_678_24629)">
<path d="M512.148 226.614H462.882C459.97 226.614 457.601 224.245 457.601 221.333V126.066C457.601 123.155 459.97 120.785 462.882 120.785H512.148C515.059 120.785 517.428 123.155 517.428 126.066V149.331H515.16V126.066C515.16 124.402 513.811 123.054 512.148 123.054H462.882C461.218 123.054 459.87 124.402 459.87 126.066V221.346C459.87 223.009 461.218 224.358 462.882 224.358H512.148C513.811 224.358 515.16 223.009 515.16 221.346V198.181H517.428V221.346C517.428 224.257 515.059 226.627 512.148 226.627V226.614Z" fill="#001080"/>
<path d="M516.281 138.026H458.987V140.295H516.281V138.026Z" fill="#001080"/>
<path d="M516.281 209.751H458.735V212.02H516.281V209.751Z" fill="#001080"/>
<path d="M494.05 215.914H481.005V218.183H494.05V215.914Z" fill="#DA192E"/>
<path d="M480.438 134.951C481.232 134.951 481.875 134.307 481.875 133.514C481.875 132.72 481.232 132.077 480.438 132.077C479.645 132.077 479.001 132.72 479.001 133.514C479.001 134.307 479.645 134.951 480.438 134.951Z" fill="#DA192E"/>
<path d="M496.028 132.38H484.294V134.648H496.028V132.38Z" fill="#DA192E"/>
<path d="M548.483 161.418V186.082C548.483 189.8 545.899 192.812 542.698 192.812H488.794C485.606 192.812 483.009 189.8 483.009 186.082V161.418C483.009 157.7 485.593 154.688 488.794 154.688H542.698C545.886 154.688 548.483 157.7 548.483 161.418Z" fill="#001080"/>
<path d="M511.076 166.132L508.694 166.661V174.551C508.694 176.92 510.497 178.848 512.715 178.848C514.933 178.848 516.735 176.92 516.735 174.551C516.735 172.181 514.933 170.253 512.715 170.253C512.148 170.253 511.593 170.379 511.089 170.618V166.119L511.076 166.132ZM510.988 174.563C510.988 173.467 511.681 172.572 512.715 172.572C513.748 172.572 514.441 173.467 514.441 174.563C514.441 175.66 513.748 176.555 512.715 176.555C511.681 176.555 510.988 175.66 510.988 174.563ZM498.914 166.132L496.621 166.661V178.76H498.927V166.119L498.914 166.132ZM494.075 166.132C490.899 166.132 489.487 168.01 489.475 170.341V178.773H491.781V172.471H494.68V170.354H491.781H491.768C491.768 169.194 492.537 168.249 494.075 168.249H495.902V166.144H494.075V166.132ZM535.01 172.874C535.022 173.908 535.779 174.614 537.329 175.03L537.455 175.067C538.992 175.534 539.635 175.723 539.635 176.315C539.635 176.492 539.572 176.668 539.434 176.794C539.169 177.033 538.829 177.16 538.476 177.147C538.362 177.147 537.304 177.122 537.215 176.202V176.113L534.922 176.643C535.3 178.168 536.913 178.848 538.451 178.848C539.623 178.848 540.669 178.47 541.324 177.815C541.778 177.361 542.042 176.731 542.017 176.088C542.005 174.311 540.341 173.92 538.866 173.58C537.858 173.328 537.404 173.051 537.392 172.673C537.392 172.332 537.694 171.98 538.388 171.98C539.207 171.98 539.345 172.408 539.408 172.736V172.824L541.677 172.295C541.299 170.795 539.786 170.253 538.4 170.253C536.434 170.253 535.01 171.349 535.01 172.874ZM531.683 170.883V174.853C531.683 175.95 531.166 176.555 530.158 176.555C529.149 176.555 528.633 175.95 528.633 174.853V170.354L526.326 170.883V174.853C526.326 177.223 527.864 178.861 530.158 178.861C530.674 178.861 531.204 178.735 531.683 178.533V179.995C531.683 181.369 530.901 181.734 530.221 181.734H529.666V184.041H530.233C532.552 184.041 534.002 182.491 534.002 179.983V170.341L531.683 170.871V170.883ZM522.923 170.883V174.853C522.923 175.95 522.407 176.555 521.398 176.555C520.39 176.555 519.873 175.95 519.873 174.853V170.354L517.567 170.883V174.853C517.567 177.223 519.105 178.861 521.398 178.861C523.692 178.861 525.23 177.223 525.23 174.853V170.354L522.923 170.883ZM505.317 170.883V174.853C505.317 175.95 504.8 176.555 503.792 176.555C502.784 176.555 502.267 175.95 502.267 174.853V170.354L499.96 170.883V174.853C499.96 177.223 501.498 178.861 503.792 178.861C504.321 178.861 504.838 178.735 505.317 178.533V179.995C505.317 181.369 504.523 181.734 503.855 181.734H503.288V184.041H503.855C506.174 184.041 507.623 182.491 507.623 179.983V170.341L505.317 170.871V170.883Z" fill="white"/>
</g>
<g clip-path="url(#clip2_678_24629)">
<path d="M847.54 207.53C846.683 207.53 845.837 207.395 845.017 207.138C843.682 206.709 842.273 206.599 840.791 206.476L840.497 206.452C836.614 206.146 833.135 204.235 830.943 201.21C828.971 198.478 826.509 196.922 823.9 195.269C820.997 193.432 818.008 191.533 815.644 187.956C814.603 186.376 813.146 185.298 811.553 184.919C804.902 183.314 797.969 186.548 791.269 189.671C786.002 192.133 781.017 194.461 776.081 194.644C773.852 194.718 771.696 193.934 770.042 192.403C768.364 190.847 767.397 188.728 767.311 186.438C767.176 182.898 765.939 178.635 764.739 174.52C762.693 167.501 760.574 160.238 763.526 155.387C765.057 152.888 767.703 151.308 771.61 150.549C772.725 150.328 773.889 149.973 775.285 149.398C776.204 149.018 777.22 148.699 778.2 148.393C781.017 147.511 783.675 146.666 784.618 144.535C783.736 140.958 786.774 139.072 787.803 138.435C789.346 137.48 790.804 136.242 792.237 134.65C794.601 132.041 797.663 131.012 800.027 132.041C801.669 132.752 803.494 132.151 804.192 130.657C804.474 130.057 804.694 129.469 804.902 128.918C806.335 125.133 807.879 122.855 815.963 125.672C817.42 126.174 819.025 126.382 820.752 126.284C822.798 126.162 824.133 126.603 824.831 127.619C825.994 129.322 824.868 131.784 823.545 134.638C823.422 134.895 823.3 135.165 823.177 135.434C826.141 138.031 830.833 141.166 832.352 140.762C832.425 140.738 832.523 140.713 832.597 140.517C834.581 127.056 836.161 124.263 838.194 124.006C840.803 123.675 842.591 127.999 845.874 135.826C846.462 137.222 847.075 138.704 847.736 140.235C848.912 142.967 850.663 145.417 852.966 147.523C861.124 155.007 873.544 169.841 864.982 185.225C863.255 188.336 861.883 191.643 860.781 194.461C858.588 200.034 855.943 203.635 852.182 206.134C850.798 207.052 849.169 207.53 847.54 207.53ZM807.817 182.261C809.226 182.261 810.635 182.408 812.043 182.751C814.174 183.265 816.098 184.674 817.457 186.719C819.564 189.904 822.234 191.594 825.064 193.383C827.734 195.073 830.49 196.825 832.719 199.899C834.532 202.398 837.423 203.978 840.668 204.235L840.962 204.259C842.518 204.382 844.123 204.504 845.703 205.019C847.442 205.582 849.414 205.313 850.957 204.284C854.313 202.042 856.714 198.76 858.723 193.64C859.862 190.749 861.259 187.356 863.059 184.135C867.162 176.761 868.485 164.708 851.484 149.128C848.961 146.813 847.013 144.106 845.715 141.093C845.053 139.55 844.429 138.067 843.841 136.659C841.93 132.102 839.566 126.431 838.439 126.174C837.998 126.382 836.626 128.232 834.752 140.921L834.716 141.081C834.434 141.999 833.785 142.636 832.915 142.869C829.093 143.886 821.169 136.573 821.083 136.5L820.507 135.961L820.826 135.238C821.058 134.711 821.291 134.197 821.524 133.682C822.332 131.919 823.447 129.493 822.981 128.82C822.822 128.587 822.185 128.366 820.862 128.44C818.841 128.55 816.955 128.305 815.228 127.705C808.577 125.378 808.075 126.713 806.96 129.653C806.727 130.253 806.482 130.89 806.188 131.539C804.976 134.123 801.889 135.214 799.145 134.013C797.345 133.229 795.177 134.638 793.878 136.083C792.298 137.835 790.694 139.194 788.967 140.272C786.958 141.509 786.345 142.648 786.848 144.216L786.958 144.559L786.835 144.902C785.647 148.307 782.046 149.434 778.874 150.439C777.894 150.745 776.975 151.039 776.142 151.382C774.611 152.006 773.313 152.411 772.051 152.656C768.781 153.293 766.613 154.542 765.425 156.477C762.975 160.495 764.959 167.281 766.87 173.846C768.107 178.096 769.393 182.494 769.54 186.303C769.601 188.005 770.324 189.573 771.561 190.725C772.786 191.852 774.354 192.452 776.008 192.378C780.491 192.207 785.28 189.977 790.351 187.613C796.046 184.956 801.914 182.212 807.854 182.212L807.817 182.261Z" fill="#001080"/>
<path d="M848.52 223.405C847.736 223.405 846.67 223.025 845.494 221.543C843.681 219.29 841.771 214.378 842.91 211.83C843.338 210.875 844.147 210.311 845.188 210.25H845.298H845.408C851.374 211.083 854.068 212.32 854.73 214.525C855.379 216.693 853.774 219.339 849.524 223.087L849.304 223.283L849.01 223.344C848.863 223.368 848.703 223.393 848.532 223.393L848.52 223.405ZM845.212 212.467C845.065 212.492 844.992 212.553 844.919 212.724C844.306 214.096 845.531 218.065 847.209 220.159C847.736 220.821 848.14 221.078 848.36 221.164C852.488 217.464 852.794 215.823 852.598 215.174C852.255 214.023 849.769 213.116 845.212 212.467Z" fill="#001080"/>
<path d="M797.553 160.789H797.504L795.017 162.137L794.638 160.655L797.773 158.977H799.427V173.308H797.553V160.777V160.789Z" fill="#DA192E"/>
<path d="M812.827 160.36C812.435 160.336 811.921 160.36 811.369 160.446C808.332 160.948 806.715 163.178 806.384 165.542H806.445C807.131 164.635 808.319 163.888 809.912 163.888C812.447 163.888 814.236 165.713 814.236 168.518C814.236 171.139 812.447 173.565 809.471 173.565C806.494 173.565 804.4 171.188 804.4 167.452C804.4 164.635 805.417 162.406 806.825 160.985C808.013 159.821 809.606 159.087 811.418 158.866C811.994 158.78 812.472 158.756 812.827 158.756V160.348V160.36ZM812.276 168.628C812.276 166.583 811.112 165.346 809.324 165.346C808.16 165.346 807.07 166.068 806.543 167.109C806.409 167.33 806.323 167.612 806.323 167.967C806.372 170.331 807.45 172.07 809.483 172.07C811.161 172.07 812.288 170.686 812.288 168.628H812.276Z" fill="#DA192E"/>
<path d="M824.512 160.618H819.049L818.498 164.305C818.829 164.256 819.135 164.219 819.662 164.219C820.764 164.219 821.867 164.464 822.748 164.991C823.875 165.628 824.794 166.865 824.794 168.677C824.794 171.482 822.565 173.577 819.454 173.577C817.886 173.577 816.563 173.136 815.877 172.695L816.367 171.213C816.967 171.568 818.131 172.009 819.429 172.009C821.254 172.009 822.822 170.821 822.822 168.898C822.797 167.048 821.56 165.726 818.694 165.726C817.873 165.726 817.237 165.811 816.71 165.885L817.641 159.001H824.5V160.63L824.512 160.618Z" fill="#DA192E"/>
<path d="M833.552 161.585V166.766H838.537V168.089H833.552V173.319H832.143V168.089H827.158V166.766H832.143V161.585H833.552Z" fill="#DA192E"/>
</g>
<g clip-path="url(#clip3_678_24629)">
<path d="M1175.97 225.348H1173.65V170.794H1113.22V168.469H1173.95C1175.82 168.469 1175.97 169.541 1175.97 169.877V225.361V225.348Z" fill="#001080"/>
<path d="M1079.66 224.896L1078.59 222.83C1083.82 220.105 1090.81 218.606 1098.27 218.606C1105.74 218.606 1112.71 220.105 1117.94 222.83L1116.87 224.896C1111.96 222.339 1105.36 220.944 1098.27 220.944C1091.18 220.944 1084.57 222.352 1079.66 224.896Z" fill="#001080"/>
<path d="M1099.44 201.171H1097.11V219.769H1099.44V201.171Z" fill="#001080"/>
<path d="M1084.53 193.021C1083.89 193.021 1083.37 192.505 1083.37 191.859V189.198L1079.89 175.301C1078.49 169.67 1077.78 163.858 1077.78 158.059V147.081C1077.78 146.436 1078.29 145.919 1078.94 145.919C1079.59 145.919 1080.1 146.436 1080.1 147.081V158.059C1080.1 163.678 1080.8 169.296 1082.16 174.746L1085.69 189.056V191.859C1085.69 192.505 1085.18 193.021 1084.53 193.021Z" fill="#001080"/>
<path d="M1112.31 201.416H1085.98C1084.54 201.416 1083.38 200.253 1083.38 198.82V190.502C1083.38 189.069 1084.54 187.906 1085.98 187.906H1100.15V190.231H1085.98C1085.82 190.231 1085.71 190.36 1085.71 190.502V198.82C1085.71 198.975 1085.84 199.091 1085.98 199.091H1112.31C1112.47 199.091 1112.58 198.962 1112.58 198.82V191.936H1114.91V198.82C1114.91 200.253 1113.75 201.416 1112.31 201.416Z" fill="#001080"/>
<path d="M1090.61 181.552C1089.97 181.552 1089.45 181.036 1089.45 180.39L1089.37 156.406C1089.35 152.273 1092.11 148.889 1096.57 147.585C1100.64 146.384 1106.28 147.107 1109.14 151.485L1115.45 158.317L1127.44 160.087C1128.11 160.151 1128.78 160.539 1129.22 161.133C1129.65 161.727 1129.8 162.489 1129.65 163.2L1128.88 166.622C1128.61 167.81 1127.59 168.65 1126.31 168.637L1112.11 168.004C1107.26 168.004 1101.24 160.513 1100.57 159.661C1100.17 159.157 1100.26 158.421 1100.77 158.033C1101.27 157.633 1102.01 157.723 1102.39 158.227C1104.02 160.306 1108.95 165.679 1112.14 165.679L1126.38 166.312C1126.47 166.312 1126.57 166.235 1126.6 166.118L1127.36 162.696C1127.38 162.605 1127.36 162.541 1127.32 162.502C1127.29 162.463 1127.23 162.412 1127.14 162.399L1114.29 160.5L1107.21 152.828C1105.02 149.38 1100.48 148.851 1097.2 149.819C1093.73 150.839 1091.66 153.306 1091.69 156.406L1091.76 180.39C1091.76 181.036 1091.25 181.552 1090.6 181.552H1090.61ZM1101.39 143.917C1100.86 143.917 1100.3 143.891 1099.72 143.826C1096.49 143.323 1093.17 140.998 1091.79 138.286C1090.49 135.767 1090.21 129.891 1090.51 127.656C1090.63 126.701 1090.94 125.771 1091.42 124.931C1091.79 124.272 1092.29 123.665 1092.9 123.136C1095.23 121.108 1099.13 120.307 1103.07 121.057C1106.4 121.689 1109.03 123.33 1110.12 125.435C1110.62 126.416 1110.92 127.579 1110.98 128.87C1111.36 135.018 1110.3 139.203 1107.74 141.631C1106.14 143.155 1104.01 143.917 1101.39 143.917ZM1100.16 123.11C1097.85 123.11 1095.74 123.743 1094.42 124.892C1094.01 125.254 1093.68 125.654 1093.43 126.081C1093.11 126.662 1092.89 127.282 1092.81 127.953C1092.51 130.136 1092.89 135.367 1093.84 137.227C1094.9 139.293 1097.56 141.14 1100.02 141.527C1102.69 141.825 1104.71 141.308 1106.13 139.952C1108.13 138.04 1108.98 134.359 1108.66 129.012C1108.61 128.044 1108.4 127.191 1108.04 126.507C1107.29 125.06 1105.21 123.846 1102.61 123.355C1101.79 123.201 1100.96 123.123 1100.15 123.123L1100.16 123.11Z" fill="#DA192E"/>
<path d="M1096.61 137.304C1095.96 137.304 1095.45 136.787 1095.45 136.142C1095.45 133.546 1096.97 128.651 1102.73 128.651C1108.04 128.651 1108.18 128.341 1108.18 126.468C1108.18 125.822 1108.7 125.306 1109.34 125.306C1109.99 125.306 1110.5 125.822 1110.5 126.468C1110.5 130.976 1107.24 130.976 1102.73 130.976C1097.95 130.976 1097.78 135.612 1097.77 136.142C1097.77 136.775 1097.24 137.304 1096.61 137.304Z" fill="#DA192E"/>
<path d="M1125.33 226.614C1124.85 226.614 1124.4 226.317 1124.23 225.826L1112 190.219H1099.88C1094.11 190.219 1089.41 185.53 1089.41 179.757C1089.41 179.111 1089.93 178.595 1090.58 178.595C1091.22 178.595 1091.74 179.111 1091.74 179.757C1091.74 184.239 1095.38 187.894 1099.88 187.894H1113.66L1126.43 225.077C1126.64 225.684 1126.31 226.343 1125.71 226.55C1125.58 226.588 1125.45 226.614 1125.33 226.614Z" fill="#DA192E"/>
<path d="M1131.96 224.664C1131.43 224.664 1130.95 224.302 1130.83 223.773L1121.08 182.857C1120.6 180.144 1118.33 178.233 1115.64 178.233H1102.76V162.063C1102.76 161.417 1103.27 160.9 1103.92 160.9C1104.56 160.9 1105.08 161.417 1105.08 162.063V175.895H1115.64C1119.45 175.895 1122.71 178.62 1123.36 182.379L1133.09 223.23C1133.25 223.85 1132.86 224.483 1132.23 224.625C1132.14 224.651 1132.05 224.664 1131.96 224.664Z" fill="#DA192E"/>
<path d="M1149.03 168.469H1130.27V166.144H1148.15L1153.64 146.745L1155.88 147.378L1150.15 167.629C1150.01 168.133 1149.56 168.482 1149.03 168.482V168.469Z" fill="#001080"/>
</g>
<g clip-path="url(#clip4_678_24629)">
<path d="M155.122 392.795L162.808 390.742L159.387 390.485L155.122 392.795Z" fill="white"/>
<path d="M213.077 373.684C212.991 374.197 212.869 374.698 212.686 375.175L229.083 365.754H226.896L213.077 373.684Z" fill="#001080"/>
<path d="M166.022 389.886L169.247 389.019L158.91 388.249L150.027 393.051L150.552 394.016L159.154 389.361L166.022 389.886Z" fill="#001080"/>
<path d="M242.366 362.406C242.366 362.406 242.366 362.406 242.353 362.394V364.312C242.744 365.057 242.964 365.9 242.94 366.805C242.879 368.735 241.73 370.36 240.117 371.167L214.922 390.021C211.403 391.915 207.456 392.843 203.46 392.721L166.033 389.899L162.808 390.754L203.411 393.821C207.59 393.955 211.745 392.978 215.423 390.998L240.679 372.12C242.671 371.081 243.954 369.077 244.027 366.853C244.076 365.204 243.49 363.628 242.353 362.43L242.366 362.406Z" fill="#001080"/>
<path d="M151.078 394.982L155.122 392.795L150.552 394.017L151.078 394.982Z" fill="#001080"/>
<path d="M212.686 375.175C212.442 375.822 212.124 376.433 211.733 376.995L231.296 365.754H229.084L212.686 375.175Z" fill="#001080"/>
<path d="M205.892 380.344L206.027 380.271C206.027 380.271 205.904 380.271 205.855 380.271L205.892 380.344Z" fill="#001080"/>
<path d="M159.154 389.361L150.552 394.017L155.122 392.795L159.387 390.485L162.808 390.742L166.022 389.887L159.154 389.361Z" fill="#001080"/>
<path d="M203.448 392.709C207.444 392.843 211.391 391.903 214.91 390.009L240.105 371.155C241.718 370.348 242.867 368.723 242.928 366.792C242.952 365.888 242.732 365.057 242.341 364.3V365.742H241.718C241.792 366.072 241.84 366.401 241.828 366.756C241.779 368.21 240.936 369.517 239.604 370.177L214.311 389.08C210.987 390.852 207.248 391.731 203.522 391.609L169.235 389.019L166.009 389.874L203.436 392.697L203.448 392.709Z" fill="#001080"/>
<path d="M235.975 363.066L235.132 363.554H240.154V363.383C239.519 362.931 238.774 362.687 237.992 362.65C237.43 362.626 236.77 362.76 235.988 363.066H235.975Z" fill="white"/>
<path d="M235.096 361.038L230.733 363.543H232.921L235.499 362.064C236.256 361.771 237.136 361.514 238.016 361.551C238.786 361.575 239.507 361.783 240.142 362.113V360.915C239.482 360.647 238.773 360.488 238.04 360.463C237.148 360.427 236.183 360.622 235.083 361.05L235.096 361.038Z" fill="#001080"/>
<path d="M235.499 362.064L232.92 363.543H235.132L235.975 363.054C236.757 362.761 237.417 362.626 237.979 362.639C238.773 362.663 239.519 362.92 240.142 363.372V362.101C239.494 361.771 238.786 361.563 238.016 361.539C237.136 361.514 236.256 361.759 235.499 362.052V362.064Z" fill="#001080"/>
<path d="M163.126 325.016H240.154V360.903C240.973 361.233 241.731 361.722 242.354 362.382V322.816H160.926V359.119C161.623 358.826 162.356 358.545 163.126 358.288V325.016Z" fill="#001080"/>
<path d="M205.562 364.544C206.979 364.593 208.311 365.008 209.484 365.741H226.896L230.733 363.542H193.624C195.188 363.97 196.874 364.263 198.78 364.324L205.55 364.544H205.562Z" fill="#001080"/>
<path d="M240.154 362.113C241.107 362.601 241.865 363.371 242.354 364.312V362.394C241.731 361.734 240.973 361.245 240.154 360.915V362.113Z" fill="#001080"/>
<path d="M226.909 365.741H229.096L232.92 363.542H230.733L226.909 365.741Z" fill="#001080"/>
<path d="M232.92 363.542L229.096 365.741H231.295L235.132 363.542H232.92Z" fill="#001080"/>
<path d="M240.154 362.112V363.383C240.374 363.542 240.582 363.713 240.765 363.909C241.254 364.434 241.572 365.069 241.731 365.754H242.354V364.312C241.865 363.371 241.107 362.601 240.154 362.112Z" fill="#001080"/>
<path d="M201.835 350.2C199.856 350.2 198.817 348.917 198.536 347.56L197.314 348.342C197.534 349.515 198.768 351.299 201.151 351.556V353.67H202.593V351.532C204.67 351.275 206.148 349.711 206.148 347.634C206.148 344.652 204.01 343.98 202.397 343.381C200.564 342.783 199.44 342.404 199.44 340.705C199.44 339.251 200.344 338.494 201.859 338.494C203.851 338.494 204.535 339.569 204.633 340.852L205.977 340.314C205.721 338.97 204.902 337.394 202.605 337.138V335.305H201.163V337.138C199.306 337.443 197.949 338.677 197.925 340.73C197.925 343.491 199.868 344.163 201.676 344.799C203.032 345.312 204.706 345.642 204.706 347.609C204.706 349.271 203.411 350.187 201.835 350.187V350.2Z" fill="#DA192E"/>
<path d="M201.676 357.079C208.947 357.079 214.861 351.165 214.861 343.894C214.861 336.624 208.947 330.71 201.676 330.71C194.406 330.71 188.492 336.624 188.492 343.894C188.492 351.165 194.406 357.079 201.676 357.079ZM201.676 332.909C207.737 332.909 212.661 337.834 212.661 343.894C212.661 349.955 207.737 354.879 201.676 354.879C195.616 354.879 190.692 349.955 190.692 343.894C190.692 337.834 195.616 332.909 201.676 332.909Z" fill="#DA192E"/>
<path d="M178.277 357.567C177.52 352.814 173.536 349.112 168.636 348.831V339.117C173.83 338.811 178.021 334.681 178.387 329.5H225.369C225.736 334.51 229.683 338.542 234.717 339.043V348.831C229.499 349.332 225.394 353.718 225.333 359.058H182.908C184.252 359.608 185.535 360.207 186.794 360.793C187.124 360.952 187.441 361.099 187.771 361.257H227.715L227.581 360.036C227.556 359.742 227.532 359.449 227.532 359.156C227.532 354.647 231.186 350.981 235.694 350.969H236.916V337.98L236.818 336.881H235.719C231.21 336.881 227.532 333.215 227.544 328.584L227.593 327.276H176.151L176.212 328.73C176.212 333.239 172.547 336.917 168.025 336.917C167.94 336.917 167.854 336.917 167.769 336.905L166.425 336.832V351.079L167.757 351.006C167.842 351.006 167.94 350.993 168.025 350.993C171.826 350.993 175.015 353.596 175.931 357.115C176.383 357.176 176.823 357.25 177.288 357.335C177.617 357.396 177.947 357.47 178.265 357.555L178.277 357.567Z" fill="#001080"/>
<path d="M210.132 375.37L205.416 378.083C206.808 378.083 208.153 377.545 209.191 376.568C209.57 376.213 209.875 375.81 210.132 375.37Z" fill="white"/>
<path d="M178.277 357.567C178.338 357.946 178.375 358.337 178.399 358.728C178.814 358.826 179.218 358.948 179.621 359.07H182.92C181.49 358.484 179.963 357.971 178.277 357.58V357.567Z" fill="#001080"/>
<path d="M156.747 362.406C157.908 361.783 159.301 361.025 160.926 360.329V359.119C159.081 359.889 157.517 360.744 156.222 361.441L138.211 371.179L139.262 373.11L140.667 372.352L138.736 372.145L156.747 362.406Z" fill="#001080"/>
<path d="M205.342 379.39L205.232 379.195C205.232 379.195 205.134 379.195 205.085 379.195L202.715 379.048L182.358 376.824L182.236 377.912L202.556 380.136L205.342 379.39Z" fill="#001080"/>
<path d="M213.187 372.682C213.26 370.58 212.503 368.576 211.061 367.037C210.584 366.536 210.059 366.108 209.484 365.754H206.454C209.741 366.316 212.197 369.224 212.087 372.645C212.063 373.269 211.953 373.867 211.782 374.429L213.089 373.684C213.138 373.354 213.187 373.024 213.199 372.682H213.187Z" fill="#001080"/>
<path d="M210.694 378.169C211.085 377.802 211.427 377.411 211.733 376.983L206.026 380.258C207.774 380.099 209.399 379.378 210.694 378.156V378.169Z" fill="#001080"/>
<path d="M205.061 380.295C205.147 380.295 205.232 380.295 205.318 380.295C205.501 380.295 205.672 380.283 205.855 380.27L205.342 379.391L202.556 380.136H202.642L205.049 380.295H205.061Z" fill="#001080"/>
<path d="M211.782 374.43C211.586 375.053 211.305 375.64 210.951 376.177L212.686 375.175C212.869 374.699 212.991 374.198 213.077 373.685L211.769 374.43H211.782Z" fill="#001080"/>
<path d="M205.232 379.195L205.342 379.39L205.696 379.183C205.537 379.183 205.379 379.183 205.22 379.183L205.232 379.195Z" fill="#001080"/>
<path d="M210.951 376.165C209.802 377.887 207.884 379.048 205.709 379.183L205.354 379.39L205.868 380.27C205.868 380.27 205.99 380.27 206.039 380.27L211.745 376.995C212.148 376.433 212.466 375.822 212.698 375.175L210.963 376.177L210.951 376.165Z" fill="#001080"/>
<path d="M187.771 361.27H185.193C186.867 362.052 188.504 362.858 190.227 363.554H193.636C191.547 362.98 189.665 362.162 187.771 361.27Z" fill="#001080"/>
<path d="M176.163 358.288C176.114 357.897 176.041 357.518 175.943 357.139C170.848 356.394 166.583 357.127 163.125 358.288V359.461C166.608 358.239 170.946 357.457 176.163 358.288Z" fill="#001080"/>
<path d="M163.126 359.461V358.288C162.356 358.545 161.623 358.826 160.926 359.119V360.329C161.623 360.023 162.356 359.742 163.126 359.461Z" fill="#001080"/>
<path d="M205.562 364.544L198.793 364.324C196.886 364.263 195.2 363.97 193.636 363.542H190.227C192.72 364.544 195.432 365.314 198.768 365.424C201.029 365.497 198.768 365.424 203.289 365.57L205.55 365.644C205.867 365.644 206.173 365.693 206.478 365.741H209.509C208.348 365.008 207.004 364.593 205.586 364.544H205.562Z" fill="#001080"/>
<path d="M182.908 359.07H179.609C181.625 359.669 183.433 360.451 185.181 361.27H187.759C187.429 361.123 187.111 360.964 186.781 360.805C185.523 360.207 184.252 359.608 182.896 359.07H182.908Z" fill="#001080"/>
<path d="M178.387 358.728C178.375 358.337 178.326 357.946 178.265 357.567C177.947 357.494 177.617 357.42 177.287 357.347C176.823 357.261 176.383 357.2 175.931 357.127C176.029 357.506 176.102 357.885 176.151 358.276C176.457 358.324 176.762 358.361 177.08 358.422C177.532 358.508 177.96 358.605 178.387 358.715V358.728Z" fill="#001080"/>
<path d="M178.412 359.071H179.609C179.206 358.948 178.803 358.838 178.387 358.729C178.387 358.838 178.412 358.948 178.412 359.071Z" fill="#001080"/>
<path d="M160.926 361.526V360.316C159.301 361.025 157.908 361.77 156.747 362.394L138.736 372.144L140.667 372.352L157.297 363.359C158.323 362.809 159.533 362.149 160.926 361.526Z" fill="#001080"/>
<path d="M182.444 361.27C183.617 361.759 184.741 362.272 185.853 362.797C186.378 363.054 186.916 363.298 187.466 363.543H190.227C188.504 362.846 186.867 362.04 185.193 361.258H182.456L182.444 361.27Z" fill="#001080"/>
<path d="M212.087 372.645C212.197 369.224 209.741 366.316 206.454 365.754H193.343C194.968 366.182 196.74 366.463 198.72 366.536L205.489 366.756C207.004 366.805 208.409 367.44 209.448 368.552C210.487 369.664 211.024 371.106 210.975 372.621C210.939 373.623 210.633 374.564 210.12 375.382L211.757 374.442C211.928 373.88 212.038 373.281 212.063 372.658L212.087 372.645Z" fill="#001080"/>
<path d="M205.098 379.195C205.098 379.195 205.196 379.195 205.245 379.195L204.805 378.437L205.428 378.083C205.342 378.083 205.257 378.107 205.171 378.095L202.85 377.948L182.493 375.725L182.371 376.812L202.727 379.036L205.098 379.183V379.195Z" fill="#001080"/>
<path d="M210.951 376.164C211.305 375.627 211.586 375.052 211.782 374.417L210.144 375.358C209.876 375.786 209.582 376.201 209.204 376.555C208.165 377.533 206.821 378.058 205.428 378.07L204.805 378.425L205.245 379.182C205.403 379.182 205.562 379.182 205.721 379.182L210.963 376.164H210.951Z" fill="#001080"/>
<path d="M210.95 376.165L205.708 379.183C207.896 379.061 209.802 377.9 210.95 376.165Z" fill="#001080"/>
<path d="M176.2 359.412C176.2 359.339 176.2 359.278 176.2 359.205C176.2 358.899 176.175 358.594 176.151 358.288C170.933 357.47 166.596 358.252 163.113 359.461V360.634C166.571 359.376 170.933 358.533 176.188 359.4L176.2 359.412Z" fill="#001080"/>
<path d="M205.538 365.644L203.277 365.57C198.756 365.424 201.017 365.497 198.756 365.424C195.42 365.314 192.72 364.544 190.215 363.542H187.454C189.286 364.385 191.193 365.179 193.343 365.741H206.454C206.149 365.693 205.843 365.656 205.526 365.644H205.538Z" fill="#001080"/>
<path d="M163.126 359.461C162.356 359.73 161.623 360.023 160.926 360.328V361.538C161.611 361.233 162.344 360.927 163.126 360.646V359.473V359.461Z" fill="#001080"/>
<path d="M179.609 359.07H178.411C178.411 358.96 178.399 358.85 178.387 358.728C177.959 358.618 177.532 358.52 177.08 358.435C176.762 358.374 176.469 358.337 176.151 358.288C176.188 358.581 176.2 358.887 176.2 359.205C176.2 359.278 176.2 359.339 176.2 359.412C176.42 359.449 176.64 359.473 176.872 359.522C178.912 359.913 180.721 360.549 182.444 361.27H185.181C183.433 360.451 181.625 359.669 179.609 359.07Z" fill="#001080"/>
</g>
<g clip-path="url(#clip5_678_24629)">
<path d="M511.997 390.793C509.796 390.793 508.638 390.412 507.162 389.674L506.793 389.521C505.393 388.948 504.184 388.465 501.69 388.465C499.196 388.465 497.733 389.076 496.13 389.712L495.977 389.763C495.608 389.852 495.265 389.979 494.908 390.106C493.992 390.424 492.949 390.793 491.371 390.793C486.383 390.793 482.744 385.92 479.804 382.014C472.933 371.554 471.508 357.99 476.432 350.419C479.448 345.393 484.678 342.25 490.035 342.25C492.554 342.25 494.667 342.962 496.715 343.637C497.135 343.777 497.542 343.917 497.911 344.057C499.298 344.553 500.291 344.909 501.678 344.909C503.065 344.909 504.261 344.655 505.915 343.993C508.027 343.28 510.152 342.581 513.333 342.581C518.245 342.581 522.826 344.935 525.892 349.032L526.707 350.113L525.498 350.737C521.286 352.913 518.932 357.01 519.174 361.693C519.441 366.579 522.52 370.854 527.05 372.61L528.17 373.043L527.686 374.137C526.287 377.267 525.231 379.011 523.615 381.594L523.118 382.293C520.383 386.073 516.985 390.793 511.997 390.793ZM501.678 386.162C504.617 386.162 506.157 386.785 507.645 387.396L508.091 387.574C509.389 388.223 510.228 388.49 511.997 388.49C515.814 388.49 518.83 384.304 521.261 380.945L521.693 380.347C523.055 378.171 524.009 376.606 525.116 374.252C520.37 371.936 517.189 367.177 516.896 361.807C516.616 356.654 518.97 352.111 523.233 349.388C520.637 346.5 517.087 344.858 513.321 344.858C510.508 344.858 508.651 345.482 506.691 346.131C504.833 346.869 503.37 347.187 501.665 347.187C499.884 347.187 498.611 346.729 497.135 346.194C496.766 346.067 496.397 345.927 495.99 345.787C494.03 345.138 492.173 344.515 490.022 344.515C485.454 344.515 480.988 347.238 478.354 351.615C474.486 357.57 474.677 370.053 481.662 380.69C484.245 384.138 487.515 388.49 491.358 388.49C492.542 388.49 493.318 388.223 494.132 387.93C494.527 387.79 494.908 387.65 495.328 387.549C497.046 386.862 498.84 386.162 501.678 386.162ZM500.393 338.903C500.125 338.903 499.858 338.903 499.578 338.865L498.713 338.789L498.56 337.936C497.937 334.539 498.993 331.09 501.767 327.388C504.363 324.41 508.32 322.298 511.883 321.942L512.939 321.84L513.13 322.883C513.969 327.502 511.488 331.689 509.923 333.763C507.951 336.397 504.299 338.916 500.393 338.916V338.903ZM510.992 324.397C508.307 324.983 505.419 326.675 503.535 328.826C501.474 331.574 500.532 334.144 500.698 336.6C503.688 336.46 506.564 334.412 508.091 332.376C509.287 330.772 511.145 327.731 511.005 324.397H510.992Z" fill="#001080"/>
<path d="M502.339 411.814C473.162 411.814 449.431 388.07 449.431 358.893C449.431 329.716 473.162 305.985 502.339 305.985C531.516 305.985 555.247 329.716 555.247 358.893C555.247 388.07 531.504 411.801 502.339 411.801V411.814ZM502.339 308.276C474.435 308.276 451.722 330.989 451.722 358.893C451.722 386.798 474.435 409.511 502.339 409.511C530.244 409.511 552.957 386.798 552.957 358.893C552.957 330.989 530.257 308.276 502.339 308.276Z" fill="#DA192E"/>
</g>
<g clip-path="url(#clip6_678_24629)">
<path d="M831.287 351.527C830.932 351.527 830.578 351.461 830.224 351.317C829.205 350.885 828.563 349.933 828.563 348.826V342.173C828.563 341.786 828.242 341.465 827.855 341.465H823.925C821.501 341.465 819.53 339.494 819.53 337.07V316.779C819.53 314.354 821.501 312.384 823.925 312.384H855.497C857.921 312.384 859.891 314.354 859.891 316.779V337.059C859.891 339.483 857.921 341.454 855.497 341.454H843.552C842.921 341.454 842.312 341.697 841.869 342.14L833.146 350.73C832.626 351.239 831.962 351.516 831.264 351.516L831.287 351.527ZM823.947 314.376C822.619 314.376 821.545 315.45 821.545 316.779V337.059C821.545 338.387 822.619 339.461 823.947 339.461H827.877C829.36 339.461 830.578 340.668 830.578 342.162V348.815C830.578 349.236 830.877 349.413 831.01 349.468C831.143 349.524 831.475 349.612 831.774 349.324L840.497 340.734C841.327 339.915 842.423 339.472 843.585 339.472H855.53C856.858 339.472 857.932 338.398 857.932 337.07V316.779C857.932 315.45 856.858 314.376 855.53 314.376H823.958H823.947Z" fill="#001080"/>
<path d="M855.275 392.12V390.128C856.736 390.128 857.921 388.943 857.921 387.482V346.767H859.913V387.482C859.913 390.039 857.832 392.12 855.275 392.12Z" fill="#001080"/>
<path d="M774.619 392.121C772.062 392.121 769.981 390.04 769.981 387.482V326.288C769.981 323.731 772.062 321.649 774.619 321.649H813.608V323.642H774.619C773.158 323.642 771.974 324.826 771.974 326.288V387.482C771.974 388.944 773.158 390.128 774.619 390.128V392.121Z" fill="#001080"/>
<path d="M860.589 405.416H769.317C765.31 405.416 762.044 402.04 762.044 397.877V390.283H796.394L802.671 392.785H827.312L833.733 390.283H867.873V397.888C867.862 402.039 864.596 405.416 860.589 405.416ZM764.037 392.287V397.888C764.037 400.944 766.406 403.434 769.317 403.434H860.589C863.5 403.434 865.869 400.955 865.869 397.899V392.287H834.109L827.689 394.789H802.294L796.018 392.287H764.037Z" fill="#001080"/>
<path d="M778.084 332.121H776.092C776.092 329.786 778.029 327.893 780.398 327.893H813.608V329.885H780.398C779.125 329.885 778.084 330.893 778.084 332.121Z" fill="#001080"/>
<path d="M849.497 386.176V384.183C850.77 384.183 851.81 383.176 851.81 381.947V346.767H853.803V381.947C853.803 384.283 851.866 386.176 849.497 386.176Z" fill="#001080"/>
<path d="M792.642 371.608H790.649V382.811H792.642V371.608Z" fill="#DA192E"/>
<path d="M811.261 383.807H784.372V373.401C784.372 373.114 784.394 372.837 784.438 372.549C784.693 370.966 787.283 357.073 800.435 357.073H801.475C806.136 357.073 809.977 358.833 812.899 362.287L813.076 362.309C813.807 362.387 814.549 362.121 815.058 361.568L817.316 359.11C819.597 356.63 822.53 357.162 824.312 358.701C826.327 360.45 826.504 363.627 824.7 365.785L820.814 370.545C819.641 371.874 818.025 372.615 816.254 372.593H811.25V383.807H811.261ZM786.365 381.815H809.268V370.612H816.265C817.449 370.59 818.534 370.125 819.298 369.261L823.161 364.523C824.135 363.35 824.301 361.335 823.006 360.206C821.977 359.32 820.261 358.856 818.789 360.461L816.53 362.918C815.6 363.937 814.228 364.446 812.855 364.28L811.87 364.169L811.615 363.848C809.069 360.671 805.66 359.055 801.486 359.055H800.446C788.944 359.055 786.641 371.442 786.409 372.859C786.376 373.036 786.365 373.213 786.365 373.401V381.815Z" fill="#DA192E"/>
<path d="M799.605 355.191C797.767 355.191 796.549 354.571 796.416 354.505C792.177 352.689 791.546 347.841 791.202 345.239L791.025 343.833C790.782 341.841 790.682 339.538 791.756 337.49C792.664 335.752 794.324 334.413 796.439 333.704C798.531 332.996 800.966 332.996 803.058 333.704C805.162 334.413 806.822 335.763 807.741 337.49C808.815 339.538 808.715 341.841 808.472 343.833L808.294 345.228C807.951 347.841 807.32 352.689 803.014 354.538C802.948 354.571 801.442 355.191 799.627 355.191H799.605ZM793.184 344.973C793.582 348.029 794.258 351.405 797.28 352.7C797.357 352.733 798.265 353.198 799.616 353.198C800.966 353.198 802.217 352.711 802.228 352.7C805.239 351.405 805.914 348.04 806.313 344.973L806.49 343.579C806.7 341.896 806.8 339.959 805.981 338.409C805.306 337.125 804.044 336.129 802.427 335.575C800.745 335.01 798.763 335.01 797.081 335.575C795.464 336.117 794.202 337.125 793.527 338.409C792.708 339.97 792.808 341.896 793.018 343.579L793.195 344.973H793.184Z" fill="#DA192E"/>
<path d="M805.494 343.944C803.623 343.944 802.527 342.904 801.929 341.697C800.7 342.848 798.387 343.944 794.003 343.944V341.952C799.626 341.952 801.243 339.992 801.309 338.963L803.302 338.996C803.302 339.295 803.379 341.952 805.494 341.952V343.944Z" fill="#DA192E"/>
</g>
<g clip-path="url(#clip7_678_24629)">
<path d="M1165.6 368.124H1134.08V370.608H1165.6V368.124Z" fill="#001080"/>
<path d="M1165.6 379.757H1134.08V382.241H1165.6V379.757Z" fill="#001080"/>
<path d="M1179.11 350.847H1076V353.331H1179.11V350.847Z" fill="#DA192E"/>
<path d="M1105.42 351.661C1105.09 351.661 1104.87 351.661 1104.82 351.661L1103.55 351.62L1103.62 350.35C1103.64 349.853 1104.32 338.193 1110.39 332.742C1112.47 330.865 1114.86 329.94 1117.26 330.092C1119.61 330.23 1121.84 331.376 1123.57 333.321C1127.17 337.378 1126.78 342.815 1122.63 346.541C1117.29 351.33 1107.91 351.661 1105.42 351.661ZM1116.81 332.562C1115.18 332.562 1113.55 333.252 1112.06 334.591C1107.85 338.372 1106.58 346.072 1106.22 349.163C1109.26 349.067 1116.78 348.459 1120.98 344.692C1124.14 341.849 1124.43 338.041 1121.71 334.964C1120.42 333.515 1118.79 332.673 1117.13 332.576C1117.01 332.576 1116.9 332.576 1116.79 332.576L1116.81 332.562Z" fill="#DA192E"/>
<path d="M1104.36 351.661C1102.11 351.661 1093.6 351.371 1089.06 347.121C1085.51 343.809 1085.18 338.979 1088.26 335.364C1089.75 333.611 1091.69 332.59 1093.72 332.466C1095.8 332.356 1097.86 333.17 1099.66 334.839C1104.77 339.614 1106.06 349.812 1106.1 350.254L1106.27 351.606L1104.91 351.647C1104.91 351.647 1104.68 351.647 1104.37 351.647L1104.36 351.661ZM1094.11 334.95C1094.02 334.95 1093.94 334.95 1093.86 334.95C1092.51 335.033 1091.18 335.75 1090.13 336.978C1087.9 339.6 1088.13 342.871 1090.74 345.3C1094.12 348.46 1100.55 349.053 1103.39 349.15C1102.87 346.307 1101.37 339.863 1097.94 336.661C1096.74 335.529 1095.42 334.95 1094.11 334.95Z" fill="#DA192E"/>
<path d="M1092.26 365.351L1091.65 362.936C1100.55 360.714 1103.53 347.522 1103.56 347.397L1105.99 347.922C1105.85 348.529 1102.65 362.743 1092.26 365.337V365.351Z" fill="#DA192E"/>
<path d="M1120.95 365.337C1108.87 362.163 1104.71 351.592 1104.54 351.151L1106.86 350.268C1106.9 350.364 1110.76 360.093 1121.58 362.936L1120.95 365.337Z" fill="#DA192E"/>
<path d="M1106.95 323.014H1104.47V394.123H1106.95V323.014Z" fill="#DA192E"/>
<path d="M1169.74 396.027H1084.01C1078.47 396.027 1073.96 391.528 1073.96 385.981V331.818C1073.96 326.27 1078.46 321.771 1084.01 321.771H1169.74C1175.28 321.771 1179.79 326.27 1179.79 331.818V385.995C1179.79 391.528 1175.29 396.041 1169.74 396.041V396.027ZM1084.01 324.255C1079.84 324.255 1076.44 327.65 1076.44 331.818V385.995C1076.44 390.162 1079.84 393.557 1084.01 393.557H1169.74C1173.91 393.557 1177.31 390.162 1177.31 385.995V331.818C1177.31 327.65 1173.91 324.255 1169.74 324.255H1084.01Z" fill="#001080"/>
</g>
<g clip-path="url(#clip8_678_24629)">
<path d="M229.061 573.981H226.752V546.37H174.479V544.062H229.061V573.981Z" fill="#001080"/>
<path d="M207.092 545.806H204.784V573.969H207.092V545.806Z" fill="#001080"/>
<path d="M185.123 545.806H182.815V554.206H185.123V545.806Z" fill="#001080"/>
<path d="M234.357 575.136H187.714V572.827H234.357C238.423 572.827 241.731 569.518 241.731 565.453V505.806C241.731 501.74 238.423 498.431 234.357 498.431H155.537C151.472 498.431 148.163 501.74 148.163 505.806V546.447H145.854V505.806C145.854 500.471 150.202 496.123 155.537 496.123H234.344C239.692 496.123 244.027 500.471 244.027 505.806V565.44C244.027 570.788 239.679 575.123 234.344 575.123L234.357 575.136Z" fill="#001080"/>
<path d="M242.886 529.686H147.009V531.994H242.886V529.686Z" fill="#001080"/>
<path d="M219.583 520.811H213.261V522.401H219.583V520.811Z" fill="#DA192E"/>
<path d="M210.991 520.811H204.668V522.401H210.991V520.811Z" fill="#DA192E"/>
<path d="M176.634 520.811H170.311V522.401H176.634V520.811Z" fill="#DA192E"/>
<path d="M185.226 520.811H178.903V522.401H185.226V520.811Z" fill="#DA192E"/>
<path d="M168.041 520.811H161.718V522.401H168.041V520.811Z" fill="#DA192E"/>
<path d="M193.805 520.811H187.483V522.401H193.805V520.811Z" fill="#DA192E"/>
<path d="M202.398 520.811H196.076V522.401H202.398V520.811Z" fill="#DA192E"/>
<path d="M228.176 520.811H221.853V522.401H228.176V520.811Z" fill="#DA192E"/>
<path d="M184.379 517.065C183.366 517.065 182.545 516.245 182.545 515.231C182.545 514.218 183.366 513.398 184.379 513.398C184.867 513.398 185.303 513.59 185.636 513.898L186.919 512.833C186.277 512.154 185.38 511.743 184.379 511.743C182.456 511.743 180.891 513.308 180.891 515.231C180.891 517.155 182.456 518.72 184.379 518.72C185.38 518.72 186.277 518.297 186.919 517.63L185.636 516.565C185.303 516.873 184.867 517.065 184.379 517.065Z" fill="#001080"/>
<path d="M201.347 516.065L200.051 511.923H198.435L197.14 516.065L196.063 511.923H194.242L196.204 518.54H197.974L199.243 514.065L200.513 518.54H202.283L204.245 511.923H202.437L201.347 516.065Z" fill="#001080"/>
<path d="M213.902 512.705V511.923H212.209V518.54H213.992V515.065C213.992 513.731 214.966 513.398 215.928 513.398V511.743C214.684 511.743 214.235 512.23 213.902 512.692" fill="#001080"/>
<path d="M222.738 511.923H220.545L218.621 514.282V509.422H216.839V518.54H218.621V515.898L220.558 518.54H222.751L219.955 515.039L222.738 511.923Z" fill="#001080"/>
<path d="M164.874 517.065C163.86 517.065 163.04 516.245 163.04 515.231C163.04 514.218 163.86 513.398 164.874 513.398C165.887 513.398 166.707 514.218 166.707 515.231C166.707 516.245 165.887 517.065 164.874 517.065ZM164.874 511.743C162.95 511.743 161.385 513.308 161.385 515.231C161.385 517.155 162.95 518.72 164.874 518.72C166.797 518.72 168.362 517.155 168.362 515.231C168.362 513.308 166.797 511.743 164.874 511.743Z" fill="#001080"/>
<path d="M207.9 517.065C206.887 517.065 206.066 516.245 206.066 515.231C206.066 514.218 206.887 513.398 207.9 513.398C208.913 513.398 209.734 514.218 209.734 515.231C209.734 516.245 208.913 517.065 207.9 517.065ZM207.9 511.743C205.976 511.743 204.412 513.308 204.412 515.231C204.412 517.155 205.976 518.72 207.9 518.72C209.824 518.72 211.388 517.155 211.388 515.231C211.388 513.308 209.824 511.743 207.9 511.743Z" fill="#001080"/>
<path d="M188.997 514.488C189.291 513.782 189.958 513.282 190.741 513.282C191.523 513.282 192.203 513.782 192.485 514.488H188.984H188.997ZM190.741 511.743C188.894 511.743 187.406 513.308 187.406 515.231C187.406 517.155 188.894 518.72 190.741 518.72C191.959 518.72 192.998 518.309 193.703 517.527L192.549 516.565C192.126 516.976 191.536 517.194 190.741 517.194C189.869 517.194 189.227 516.552 188.997 515.834H194.037C194.062 515.642 194.088 515.449 194.088 515.244C194.088 513.321 192.6 511.756 190.753 511.756" fill="#001080"/>
<path d="M226.432 514.513C226.342 514.488 226.265 514.462 226.175 514.449C225.508 514.282 224.944 514.128 224.97 513.667C224.97 513.397 225.226 513.115 225.752 513.115C226.585 513.115 227.034 513.744 227.137 513.91L228.253 512.987C227.919 512.423 227.214 511.756 225.739 511.756C224.264 511.756 223.264 512.577 223.225 513.692C223.187 515.154 224.559 515.552 225.559 515.834C226.419 516.065 226.778 516.193 226.778 516.591C226.778 516.732 226.727 516.886 226.611 517.001C226.432 517.181 226.149 517.283 225.79 517.283C224.97 517.283 224.521 516.86 224.303 516.578L223.097 517.578C223.418 518.001 224.187 518.732 225.765 518.732C227.778 518.732 228.509 517.488 228.509 516.642C228.509 515.295 227.445 514.847 226.432 514.526" fill="#001080"/>
<path d="M178.967 509.14C178.403 509.14 177.941 509.601 177.941 510.166C177.941 510.73 178.403 511.192 178.967 511.192C179.532 511.192 179.993 510.73 179.993 510.166C179.993 509.601 179.532 509.14 178.967 509.14Z" fill="#001080"/>
<path d="M179.852 511.923H178.07V518.54H179.852V511.923Z" fill="#001080"/>
<path d="M176.967 510.397L177.608 508.884C176.3 508.409 174.017 508.832 174.017 511.256V511.91H171.747V511.269C171.747 510.653 172.004 510.192 172.914 510.384L173.555 508.871C172.247 508.396 169.964 508.819 169.964 511.243V511.897H168.887V513.488H169.964V518.528H171.747V513.488H174.017V518.528H175.8V513.488H177.056V511.897H175.8V511.256C175.8 510.641 176.056 510.179 176.967 510.371" fill="#001080"/>
<path d="M173.325 571.275H158.307V553.949H160.616V568.967H173.325V571.275Z" fill="#001080"/>
<path d="M161.218 592.077C148.535 592.077 138.211 581.753 138.211 569.07C138.211 556.386 148.535 546.062 161.218 546.062C173.902 546.062 184.226 556.386 184.226 569.07C184.226 581.753 173.902 592.077 161.218 592.077ZM161.218 548.371C149.804 548.371 140.519 557.656 140.519 569.07C140.519 580.484 149.804 589.769 161.218 589.769C172.632 589.769 181.917 580.484 181.917 569.07C181.917 557.656 172.632 548.371 161.218 548.371Z" fill="#001080"/>
</g>
<g clip-path="url(#clip9_678_24629)">
<path d="M500.795 500.184H496.303V502.576H500.795V500.184Z" fill="#001080"/>
<path d="M467.061 554.294C462.688 554.294 459.113 550.732 459.113 546.346C459.113 541.96 462.675 538.397 467.061 538.397C471.448 538.397 475.01 541.96 475.01 546.346C475.01 550.732 471.448 554.294 467.061 554.294ZM467.061 540.803C464.004 540.803 461.505 543.289 461.505 546.359C461.505 549.43 463.991 551.902 467.061 551.902C470.132 551.902 472.617 549.416 472.617 546.359C472.617 543.302 470.132 540.803 467.061 540.803Z" fill="#001080"/>
<path d="M520.215 580.958L483.609 546.639L501.194 508.731L501.62 508.545C504.491 507.308 506.352 504.504 506.352 501.38C506.352 497.074 502.856 493.578 498.549 493.578C494.243 493.578 490.747 497.074 490.747 501.38C490.747 501.513 490.774 501.646 490.787 501.779L490.88 502.616L466.822 531.818L466.29 531.845C458.568 532.244 452.507 538.624 452.507 546.346C452.507 554.069 459.033 560.887 467.048 560.887H467.54L485.882 579.23L484.194 580.918L466.543 563.267C457.438 563.001 450.114 555.504 450.114 546.333C450.114 537.162 456.88 530.21 465.626 529.479L488.381 501.872C488.368 501.713 488.355 501.54 488.355 501.38C488.355 495.758 492.927 491.186 498.549 491.186C504.172 491.186 508.744 495.758 508.744 501.38C508.744 505.301 506.498 508.85 502.989 510.552L486.507 546.067L521.85 579.203L520.215 580.945V580.958Z" fill="#001080"/>
<path d="M544.711 597.015H465.865V595.818C465.865 586.009 472.989 578.885 482.798 578.885H491.797V581.277H482.798C474.77 581.277 468.842 586.82 468.297 594.622H542.279C541.734 586.82 535.793 581.277 527.778 581.277H505.288V578.885H527.778C537.587 578.885 544.711 586.009 544.711 595.818V597.015Z" fill="#001080"/>
<path d="M521.039 547.543H515.536L510.751 521.212L520.627 511.336L546.958 516.121V521.61H544.565V518.115L521.438 513.915L513.33 522.022L517.53 545.15H521.039V547.543Z" fill="#001080"/>
<path d="M555.956 556.541H526.582V527.166H555.956V556.541ZM528.974 554.148H553.564V529.559H528.974V554.148Z" fill="#DA192E"/>
<path d="M546.958 538.557H535.58V528.362H537.973V536.165H544.565V528.362H546.958V538.557Z" fill="#DA192E"/>
<path d="M506.137 505.027L504.445 506.719L515.686 517.96L517.377 516.268L506.137 505.027Z" fill="#001080"/>
</g>
<g clip-path="url(#clip10_678_24629)">
<path d="M805.449 514.689V510.031H805.177C802.854 510.031 800.951 508.288 800.951 506.15V495.066C800.951 492.928 802.842 491.186 805.177 491.186H822.465C824.789 491.186 826.692 492.928 826.692 495.066V506.138C826.692 508.276 824.801 510.018 822.465 510.018H812.023L805.449 514.677V514.689ZM805.19 493.41C804.09 493.41 803.188 494.151 803.188 495.066V506.138C803.188 507.052 804.09 507.794 805.19 507.794H807.661V510.377L811.319 507.794H822.478C823.578 507.794 824.48 507.052 824.48 506.138V495.066C824.48 494.151 823.578 493.41 822.478 493.41H805.19Z" fill="#DA192E"/>
<path d="M851.32 557.557H848.898V555.333H851.32C852.383 555.333 853.26 554.245 853.26 552.898V530.136C853.26 529.975 853.26 529.827 853.223 529.666C853.013 528.381 850.9 517.05 840.421 517.05H839.457C828.978 517.05 826.865 528.381 826.654 529.666C826.63 529.815 826.617 529.975 826.617 530.136V552.898C826.617 554.245 827.482 555.333 828.558 555.333H830.98V557.557H828.558C826.259 557.557 824.393 555.469 824.393 552.898V530.136C824.393 529.864 824.418 529.592 824.455 529.32C824.69 527.838 827.124 514.825 839.457 514.825H840.421C852.753 514.825 855.188 527.838 855.423 529.32C855.472 529.592 855.484 529.864 855.484 530.136V552.898C855.484 555.469 853.618 557.557 851.32 557.557Z" fill="#001080"/>
<path d="M839.815 514.121C838.122 514.121 836.985 513.54 836.849 513.478C832.944 511.81 832.376 507.386 832.067 505.013L831.918 503.753C831.696 501.936 831.61 499.823 832.598 497.945C833.438 496.338 834.971 495.103 836.911 494.448C838.814 493.805 841.063 493.805 842.978 494.448C844.918 495.103 846.451 496.338 847.291 497.945C848.28 499.823 848.193 501.936 847.971 503.753L847.822 505.001C847.514 507.386 846.945 511.798 842.954 513.503C842.892 513.528 841.508 514.108 839.827 514.108L839.815 514.121ZM834.279 504.729C834.724 508.14 835.465 510.463 837.813 511.464C837.887 511.501 838.666 511.884 839.815 511.884C841.026 511.884 842.052 511.464 842.064 511.452C844.399 510.451 845.141 508.127 845.586 504.717L845.734 503.469C845.919 501.998 846.006 500.305 845.302 498.971C844.721 497.871 843.646 497.018 842.249 496.549C840.791 496.054 839.073 496.054 837.615 496.549C836.219 497.018 835.131 497.883 834.563 498.971C833.859 500.305 833.945 501.998 834.13 503.469L834.279 504.717V504.729Z" fill="#001080"/>
<path d="M845.079 504.062C843.423 504.062 842.41 503.222 841.829 502.184C840.643 503.185 838.542 504.062 834.798 504.062V501.838C839.63 501.838 841.038 500.219 841.112 499.366L843.337 499.416C843.337 499.663 843.411 501.838 845.079 501.838V504.062Z" fill="#001080"/>
<path d="M838.196 597.014H832.957C831.449 597.014 830.213 595.778 830.213 594.271V533.744H832.438V594.271C832.438 594.555 832.672 594.79 832.957 594.79H838.196C838.48 594.79 838.715 594.555 838.715 594.271V563.044H840.94V594.271C840.94 595.778 839.704 597.014 838.196 597.014Z" fill="#001080"/>
<path d="M846.921 597.014H841.459C839.951 597.014 838.715 595.778 838.715 594.271V563.044H840.94V594.271C840.94 594.555 841.174 594.79 841.459 594.79H846.921C847.205 594.79 847.44 594.555 847.44 594.271V533.744H849.664V594.271C849.664 595.778 848.428 597.014 846.921 597.014Z" fill="#001080"/>
<path d="M796.972 597.014H791.51C790.002 597.014 788.767 595.779 788.767 594.271V563.044H790.991V594.271C790.991 594.555 791.226 594.79 791.51 594.79H796.972C797.256 594.79 797.491 594.555 797.491 594.271V533.744L799.369 532.941C799.505 533.065 812.48 545.484 813.889 546.769C815.632 548.363 815.891 548.314 816.966 548.104C817.226 548.054 817.51 547.795 817.683 547.436C817.806 547.177 818.066 546.485 817.683 545.694C817.238 544.804 813.889 540.047 810.936 535.845C808.328 532.15 805.647 528.332 804.448 526.478C801.902 522.499 798.405 517.05 790.447 517.05H789.483C779.017 517.05 776.916 528.381 776.706 529.666C776.681 529.827 776.669 529.975 776.669 530.136V552.898C776.669 554.245 777.534 555.333 778.609 555.333H781.031V557.557H778.609C776.31 557.557 774.444 555.469 774.444 552.898V530.136C774.444 529.864 774.469 529.592 774.506 529.32C774.741 527.838 777.175 514.825 789.508 514.825H790.472C799.641 514.825 803.83 521.362 806.339 525.267C807.5 527.084 810.182 530.877 812.765 534.56C816.744 540.22 819.203 543.717 819.685 544.705C820.278 545.892 820.266 547.251 819.685 548.425C819.19 549.414 818.338 550.106 817.386 550.291C815.298 550.686 814.346 550.192 812.394 548.413C811.282 547.399 803.41 539.874 799.715 536.352V594.283C799.715 595.791 798.479 597.027 796.972 597.027V597.014Z" fill="#001080"/>
<path d="M789.866 514.121C788.173 514.121 787.024 513.54 786.901 513.478C783.008 511.81 782.427 507.386 782.118 505.013L781.97 503.753C781.748 501.936 781.649 499.836 782.65 497.945C783.49 496.338 785.022 495.103 786.962 494.448C788.878 493.805 791.114 493.805 793.03 494.448C794.97 495.103 796.502 496.338 797.343 497.945C798.331 499.836 798.245 501.936 798.022 503.753L797.874 505.001C797.565 507.386 796.997 511.798 793.017 513.503C792.956 513.528 791.572 514.108 789.891 514.108L789.866 514.121ZM784.33 504.729C784.775 508.14 785.517 510.463 787.864 511.464C787.939 511.501 788.717 511.884 789.866 511.884C791.077 511.884 792.115 511.464 792.115 511.452C794.451 510.451 795.192 508.127 795.637 504.717L795.786 503.469C795.971 501.998 796.057 500.318 795.353 498.971C794.772 497.871 793.697 497.018 792.301 496.549C790.843 496.054 789.125 496.054 787.654 496.549C786.258 497.018 785.171 497.883 784.602 498.971C783.898 500.318 783.984 501.998 784.17 503.469L784.318 504.717L784.33 504.729Z" fill="#001080"/>
<path d="M795.13 504.062C793.475 504.062 792.461 503.222 791.88 502.184C790.694 503.185 788.593 504.062 784.849 504.062V501.838C789.681 501.838 791.09 500.219 791.164 499.366L793.388 499.416C793.388 499.663 793.462 501.838 795.13 501.838V504.062Z" fill="#001080"/>
<path d="M788.235 597.014H782.996C781.488 597.014 780.252 595.778 780.252 594.271V533.744H782.477V594.271C782.477 594.555 782.712 594.79 782.996 594.79H788.235C788.52 594.79 788.754 594.555 788.754 594.271V563.044H790.979V594.271C790.979 595.778 789.743 597.014 788.235 597.014Z" fill="#001080"/>
</g>
<g clip-path="url(#clip11_678_24629)">
<path d="M1147.93 549.415C1145.69 549.415 1144.17 548.63 1144.11 548.594C1139 546.411 1138.23 540.562 1137.83 537.411L1137.62 535.707C1137.33 533.304 1137.2 530.52 1138.49 528.056C1139.58 525.971 1141.58 524.353 1144.12 523.507C1146.65 522.661 1149.58 522.661 1152.09 523.507C1154.63 524.365 1156.61 525.983 1157.72 528.056C1159.01 530.52 1158.88 533.304 1158.59 535.707L1158.38 537.411C1157.98 540.562 1157.22 546.411 1152.02 548.643C1151.93 548.679 1150.13 549.427 1147.93 549.427V549.415ZM1140.01 537.129C1140.5 540.881 1141.34 545.013 1145.05 546.607C1145.14 546.644 1146.27 547.208 1147.93 547.208C1149.6 547.208 1151.13 546.607 1151.15 546.595C1154.86 545.001 1155.68 540.869 1156.17 537.129L1156.38 535.437C1156.64 533.377 1156.76 531.011 1155.74 529.086C1154.91 527.504 1153.37 526.265 1151.37 525.591C1149.31 524.892 1146.88 524.892 1144.81 525.591C1142.82 526.265 1141.26 527.504 1140.43 529.086C1139.42 531.011 1139.55 533.377 1139.79 535.437L1140 537.129H1140.01Z" fill="#001080"/>
<path d="M1155.08 535.768C1152.79 535.768 1151.48 534.468 1150.79 532.972C1149.36 534.395 1146.56 535.768 1141.13 535.768V533.561C1148.06 533.561 1150.03 531.121 1150.12 529.821L1152.32 529.858C1152.32 530.238 1152.42 533.561 1155.09 533.561V535.768H1155.08Z" fill="#001080"/>
<path d="M1158.34 548.287H1152.02V546.08H1158.34C1158.96 546.08 1159.55 545.798 1159.89 545.344C1160.18 544.952 1160.28 544.461 1160.15 544.008C1158.04 536.626 1156.58 531.599 1156.33 530.778C1156.28 530.594 1156.26 530.508 1156.26 530.349L1158.43 530.042C1158.7 530.974 1160.17 536.001 1162.28 543.395C1162.6 544.523 1162.38 545.712 1161.67 546.669C1160.89 547.686 1159.67 548.287 1158.36 548.287H1158.34Z" fill="#001080"/>
<path d="M1144.11 548.287H1137.78C1136.47 548.287 1135.24 547.686 1134.47 546.669C1133.75 545.712 1133.53 544.523 1133.85 543.395C1135.89 536.222 1137.33 531.268 1137.63 530.238L1137.7 530.042L1138.75 530.349H1139.87C1139.87 530.508 1139.85 530.557 1139.77 530.864C1139.46 531.893 1138.03 536.835 1135.98 544.008C1135.84 544.461 1135.94 544.952 1136.24 545.344C1136.59 545.81 1137.17 546.08 1137.78 546.08H1144.11V548.287Z" fill="#001080"/>
<path d="M1139.11 597.014H1134.67V594.807H1139.11C1140.47 594.807 1141.44 594.39 1142 593.544C1142.61 592.612 1142.66 591.165 1142.12 589.829L1138.28 583.318C1134.57 577.016 1128.49 572.65 1121.61 571.363C1119.45 570.958 1117.12 570.75 1114.69 570.75C1112.87 570.75 1111.12 570.86 1109.51 571.093C1102.37 572.086 1095.97 576.231 1091.96 582.447L1087.2 589.841C1086.68 591.165 1086.72 592.6 1087.34 593.532C1087.89 594.366 1088.86 594.795 1090.22 594.795H1094.66V597.002H1090.22C1087.55 597.002 1086.17 595.776 1085.5 594.758C1084.46 593.188 1084.35 590.945 1085.2 588.909L1085.29 588.738L1090.11 581.27C1094.46 574.502 1101.43 570.002 1109.21 568.923C1110.93 568.69 1112.78 568.567 1114.71 568.567C1117.28 568.567 1119.74 568.788 1122.04 569.217C1129.54 570.627 1136.16 575.36 1140.21 582.214L1144.16 588.921C1145.02 590.957 1144.91 593.201 1143.86 594.77C1143.19 595.8 1141.82 597.014 1139.13 597.014H1139.11Z" fill="#001080"/>
<path d="M1129.09 597.015H1100.21V577.028H1129.09V597.015ZM1102.42 594.795H1126.88V579.223H1102.42V594.795Z" fill="#001080"/>
<path d="M1174.65 594.795H1079.1V597.002H1174.65V594.795Z" fill="#001080"/>
<path d="M1159.1 574.784H1144.01V572.577H1157.4L1155.35 567.942L1157.38 567.047L1160.11 573.239C1160.26 573.582 1160.23 573.975 1160.02 574.293C1159.82 574.6 1159.47 574.796 1159.1 574.796V574.784Z" fill="#001080"/>
<path d="M1162.06 585.133H1161.94L1148.06 583.527L1148.31 581.332L1162.13 582.926C1165.41 582.865 1168.94 577.335 1168.94 575.9C1168.94 574.465 1167.42 569.45 1165.31 564.08C1163.04 558.293 1161.2 554.786 1154.67 554.786H1143.09C1140 554.921 1138.28 554.982 1135.72 557.692C1134.24 559.261 1133.06 561.162 1132.24 563.357L1129.08 571.78L1127.02 571.008L1130.18 562.584C1131.11 560.107 1132.44 557.949 1134.13 556.171C1137.32 552.812 1139.71 552.714 1143.02 552.591L1143.52 552.566H1154.68C1162.56 552.566 1165 557.201 1167.37 563.271C1167.76 564.264 1171.14 573.019 1171.14 575.9C1171.14 578.414 1166.73 585.133 1162.07 585.133H1162.06Z" fill="#001080"/>
<path d="M1162.43 584.789H1160.22V595.898H1162.43V584.789Z" fill="#001080"/>
<path d="M1114.68 567.071C1112.44 567.071 1110.92 566.287 1110.86 566.25C1105.74 564.067 1104.98 558.219 1104.58 555.067L1104.37 553.363C1104.07 550.96 1103.95 548.176 1105.24 545.712C1106.33 543.627 1108.33 542.009 1110.87 541.163C1113.38 540.317 1116.32 540.317 1118.84 541.163C1121.38 542.021 1123.36 543.64 1124.47 545.724C1125.75 548.189 1125.63 550.972 1125.34 553.375L1125.13 555.08C1124.72 558.231 1123.96 564.08 1118.76 566.311C1118.68 566.348 1116.88 567.096 1114.68 567.096V567.071ZM1106.76 554.798C1107.25 558.55 1108.08 562.669 1111.8 564.263C1111.89 564.3 1113.01 564.864 1114.68 564.864C1116.35 564.864 1117.88 564.263 1117.89 564.251C1121.61 562.657 1122.44 558.525 1122.92 554.785L1123.13 553.093C1123.39 551.033 1123.51 548.667 1122.49 546.742C1121.66 545.16 1120.11 543.922 1118.11 543.247C1116.05 542.548 1113.63 542.548 1111.55 543.247C1109.57 543.922 1108.01 545.16 1107.18 546.742C1106.17 548.667 1106.29 551.033 1106.54 553.093L1106.75 554.785L1106.76 554.798Z" fill="#001080"/>
<path d="M1121.82 553.424C1119.52 553.424 1118.21 552.112 1117.51 550.629C1116.08 552.051 1113.28 553.424 1107.85 553.424V551.217C1114.78 551.217 1116.75 548.777 1116.83 547.478L1119.03 547.514C1119.03 547.894 1119.13 551.217 1121.8 551.217V553.424H1121.82Z" fill="#001080"/>
<path d="M1126.94 544.241C1125.9 544.241 1124.91 543.738 1124.27 542.843L1117.51 533.39H1108.16C1105.09 533.39 1102.62 530.9 1102.62 527.847V496.728C1102.62 493.675 1105.1 491.186 1108.16 491.186H1168.17C1171.22 491.186 1173.71 493.675 1173.71 496.728V527.847C1173.71 530.913 1171.22 533.39 1168.15 533.39H1163.1V531.182H1168.15C1169.99 531.182 1171.49 529.687 1171.49 527.835V496.728C1171.49 494.889 1169.99 493.393 1168.15 493.393H1108.16C1106.32 493.393 1104.82 494.889 1104.82 496.728V527.847C1104.82 529.687 1106.32 531.195 1108.17 531.195H1118.67L1126.07 541.568C1126.51 542.181 1127.14 542.046 1127.32 541.985C1127.51 541.924 1128.09 541.678 1128.09 540.918V531.195H1134.07V533.402H1130.3V540.918C1130.3 542.389 1129.39 543.64 1128 544.082C1127.65 544.192 1127.3 544.253 1126.95 544.253L1126.94 544.241Z" fill="#DA192E"/>
<path d="M1145.36 506.88H1113.61V509.087H1145.36V506.88Z" fill="#DA192E"/>
<path d="M1133.26 515.193H1114.36V517.4H1133.26V515.193Z" fill="#DA192E"/>
</g>
<g clip-path="url(#clip12_678_24629)">
<path d="M177.826 692.594C176.976 692.594 176.137 692.356 175.388 691.902C174.323 691.245 173.563 690.224 173.268 689C172.973 687.786 173.166 686.528 173.824 685.451C174.481 684.385 175.502 683.625 176.726 683.331C177.939 683.036 179.209 683.229 180.275 683.886C181.341 684.544 182.1 685.564 182.395 686.789C182.69 688.002 182.497 689.272 181.84 690.337C181.182 691.403 180.162 692.163 178.937 692.458C178.563 692.548 178.189 692.594 177.826 692.594ZM177.837 685.247C177.633 685.247 177.418 685.269 177.202 685.326C176.511 685.496 175.933 685.916 175.57 686.528C175.207 687.14 175.094 687.843 175.252 688.535C175.422 689.226 175.842 689.805 176.443 690.167C177.044 690.542 177.758 690.644 178.45 690.485C179.141 690.315 179.719 689.895 180.082 689.294C180.456 688.693 180.558 687.979 180.4 687.288C180.23 686.596 179.81 686.018 179.209 685.644C178.79 685.383 178.314 685.258 177.837 685.258V685.247Z" fill="#001080"/>
<path d="M173.847 689.281L147.178 731.763L148.906 732.848L175.576 690.366L173.847 689.281Z" fill="#001080"/>
<path d="M182.032 687.532L180.993 689.289L224.821 715.209L225.86 713.452L182.032 687.532Z" fill="#001080"/>
<path d="M169.334 738.932C170.536 738.637 171.692 738.569 172.792 738.717C173.892 738.864 174.901 739.204 175.808 739.749C176.715 740.293 177.497 741.03 178.166 741.971C178.824 742.912 179.323 744.023 179.629 745.315C179.924 746.551 180.003 747.73 179.856 748.853C179.708 749.975 179.368 750.996 178.824 751.903C178.28 752.81 177.554 753.592 176.636 754.25C175.717 754.907 174.64 755.384 173.393 755.69C172.157 755.985 170.989 756.064 169.878 755.917C168.767 755.769 167.758 755.418 166.862 754.862C165.955 754.307 165.184 753.57 164.527 752.629C163.869 751.687 163.393 750.588 163.087 749.329C162.792 748.093 162.713 746.914 162.871 745.792C163.03 744.669 163.381 743.637 163.926 742.719C164.47 741.801 165.207 741.018 166.125 740.361C167.044 739.703 168.121 739.238 169.334 738.944V738.932ZM170.048 741.88C168.574 742.232 167.52 742.991 166.862 744.148C166.205 745.304 166.091 746.755 166.522 748.524C166.942 750.259 167.69 751.506 168.778 752.254C169.867 753.014 171.171 753.207 172.701 752.833C173.404 752.663 174.028 752.379 174.561 751.994C175.094 751.608 175.524 751.132 175.842 750.565C176.159 749.998 176.363 749.34 176.431 748.604C176.5 747.867 176.431 747.05 176.216 746.177C175.797 744.454 175.037 743.218 173.937 742.47C172.837 741.721 171.533 741.529 170.037 741.891L170.048 741.88Z" fill="#DA192E"/>
<path d="M179.821 741.098L182.735 740.395L183.234 741.801C183.574 741.132 184.073 740.565 184.742 740.1C185.411 739.635 186.171 739.306 187.01 739.102C187.86 738.898 188.676 738.853 189.447 738.977C190.218 739.102 190.933 739.374 191.568 739.794C192.202 740.213 192.758 740.78 193.223 741.483C193.688 742.186 194.039 743.025 194.277 743.989C194.504 744.93 194.572 745.814 194.481 746.653C194.391 747.492 194.153 748.252 193.778 748.921C193.404 749.59 192.905 750.168 192.271 750.644C191.636 751.12 190.899 751.46 190.048 751.665C189.017 751.914 188.109 751.948 187.304 751.755C186.499 751.563 185.876 751.256 185.411 750.826L186.772 756.427L183.71 757.175L179.81 741.109L179.821 741.098ZM186.998 741.721C185.899 741.993 185.105 742.537 184.617 743.377C184.13 744.216 184.028 745.225 184.311 746.404C184.617 747.674 185.196 748.547 186.035 749.011C186.874 749.488 187.815 749.59 188.858 749.34C189.436 749.204 189.901 748.989 190.275 748.694C190.649 748.399 190.933 748.048 191.114 747.651C191.307 747.243 191.409 746.789 191.432 746.302C191.454 745.803 191.397 745.281 191.261 744.737C191.137 744.204 190.944 743.728 190.695 743.297C190.445 742.866 190.128 742.503 189.776 742.231C189.413 741.948 188.994 741.767 188.529 741.676C188.064 741.585 187.554 741.608 187.021 741.732L186.998 741.721Z" fill="#DA192E"/>
<path d="M207.044 741.54L197.747 743.797C197.883 744.239 198.064 744.624 198.302 744.976C198.541 745.327 198.835 745.611 199.21 745.826C199.584 746.041 200.026 746.177 200.547 746.234C201.069 746.291 201.659 746.234 202.339 746.075C202.94 745.928 203.484 745.747 203.96 745.531C204.436 745.316 204.833 745.1 205.162 744.896C205.559 744.658 205.899 744.409 206.194 744.148L207.577 746.019C207.169 746.382 206.715 746.722 206.216 747.051C205.763 747.345 205.241 747.64 204.674 747.912C204.108 748.196 203.461 748.411 202.758 748.581C201.659 748.853 200.649 748.921 199.754 748.785C198.847 748.649 198.064 748.366 197.395 747.935C196.726 747.504 196.16 746.926 195.706 746.234C195.253 745.543 194.924 744.749 194.72 743.887C194.504 742.98 194.436 742.096 194.538 741.257C194.64 740.418 194.89 739.647 195.298 738.967C195.706 738.275 196.273 737.685 196.987 737.175C197.702 736.665 198.575 736.302 199.584 736.053C200.638 735.792 201.613 735.758 202.498 735.928C203.382 736.109 204.153 736.438 204.81 736.948C205.468 737.447 205.99 738.094 206.375 738.887C206.761 739.681 206.987 740.565 207.055 741.54H207.044ZM203.813 740.248C203.711 739.806 203.541 739.443 203.303 739.148C203.064 738.853 202.781 738.626 202.452 738.456C202.112 738.286 201.749 738.196 201.341 738.162C200.933 738.139 200.513 738.173 200.071 738.286C199.017 738.547 198.268 738.978 197.838 739.579C197.407 740.18 197.237 740.939 197.327 741.812L203.801 740.236L203.813 740.248Z" fill="#DA192E"/>
<path d="M206.533 734.624L209.266 733.966L209.821 735.463C210.014 734.964 210.354 734.454 210.853 733.921C211.352 733.388 212.066 733.014 212.996 732.81C213.869 732.583 214.64 732.504 215.298 732.594C215.955 732.685 216.522 732.9 217.01 733.275C217.497 733.649 217.894 734.125 218.212 734.726C218.529 735.315 218.778 735.984 218.949 736.721L220.695 743.932L217.656 744.669L215.989 737.821C215.74 736.812 215.366 736.109 214.867 735.735C214.368 735.361 213.71 735.27 212.917 735.463C211.942 735.701 211.307 736.12 211.001 736.721C210.694 737.322 210.615 738.025 210.762 738.83L212.486 745.928L209.425 746.676L206.511 734.669L206.533 734.624Z" fill="#DA192E"/>
<path d="M152.009 775.395C148.925 775.395 146.125 773.275 145.388 770.157L138.392 740.519C137.531 736.868 139.798 733.195 143.449 732.333L228.665 712.231C230.434 711.811 232.26 712.106 233.813 713.07C235.355 714.022 236.443 715.53 236.863 717.299L243.858 746.936C244.278 748.705 243.983 750.531 243.019 752.084C242.067 753.626 240.559 754.714 238.79 755.134L153.574 775.213C153.052 775.338 152.531 775.395 152.009 775.395ZM230.253 714.09C229.89 714.09 229.516 714.136 229.153 714.215L143.925 734.317C141.374 734.918 139.776 737.492 140.388 740.043L147.383 769.68C147.984 772.243 150.558 773.83 153.12 773.229L238.348 753.127C240.899 752.526 242.498 749.952 241.885 747.39L234.89 717.752C234.595 716.517 233.847 715.462 232.758 714.793C231.999 714.317 231.137 714.079 230.264 714.079L230.253 714.09Z" fill="#001080"/>
</g>
<g clip-path="url(#clip13_678_24629)">
<path d="M506.583 724.432L498.53 723.461L499.501 715.408L507.554 716.379L506.583 724.432ZM501.001 721.531L504.652 721.973L505.095 718.322L501.444 717.879L501.001 721.531Z" fill="#DA192E"/>
<path d="M504.615 740.907L496.562 739.936L497.534 731.883L505.586 732.854L504.615 740.907ZM499.021 738.005L502.673 738.448L503.115 734.797L499.464 734.354L499.021 738.005Z" fill="#DA192E"/>
<path d="M525.355 726.695L517.303 725.724L518.274 717.671L526.327 718.642L525.355 726.695ZM519.774 723.793L523.425 724.236L523.868 720.585L520.216 720.142L519.774 723.793Z" fill="#DA192E"/>
<path d="M520.758 728.57L520.417 731.401L522.615 731.666L522.955 728.834L520.758 728.57Z" fill="#DA192E"/>
<path d="M508.107 731.49L505.906 731.232L506.398 727.101L509.226 727.445L510.074 720.376L513.098 720.745L513.332 718.814L515.533 719.073L515.041 723.204L512.004 722.835L511.156 729.904L508.328 729.56L508.107 731.49Z" fill="#DA192E"/>
<path d="M499.895 726.47L499.631 728.667L502.659 729.03L502.922 726.833L499.895 726.47Z" fill="#DA192E"/>
<path d="M510.037 739.382L507.849 739.124L508.291 735.374L511.525 735.767L511.783 733.579L513.983 733.837L513.455 738.226L510.221 737.833L510.037 739.382Z" fill="#DA192E"/>
<path d="M523.438 742.346L518.102 741.706L518.36 739.506L521.495 739.874L521.803 737.342L524.003 737.612L523.438 742.346Z" fill="#DA192E"/>
<path d="M518.458 734.907L516.258 734.637L516.676 731.17L514.537 730.887L514.832 728.687L519.135 729.277L518.458 734.907Z" fill="#DA192E"/>
<path d="M496.821 717.019L494.62 716.749L495.542 709.114L503.46 710.061L503.201 712.262L497.472 711.573L496.821 717.019Z" fill="#DA192E"/>
<path d="M530.655 721.937L528.454 721.679L529.204 715.384L524.618 714.831L524.889 712.643L531.675 713.454L530.655 721.937Z" fill="#DA192E"/>
<path d="M527.347 749.463L520.561 748.652L520.819 746.451L525.417 747.005L526.167 740.71L528.368 740.98L527.347 749.463Z" fill="#DA192E"/>
<path d="M498.001 745.947L491.214 745.136L492.235 736.641L494.435 736.899L493.673 743.193L498.271 743.747L498.001 745.947Z" fill="#DA192E"/>
<path d="M480.469 766.491L478.306 766.011L485.166 735.153C485.756 733.186 486.334 731.612 486.838 730.223C488.35 726.104 489.346 723.387 488.498 717.13C487.784 711.843 485.031 706.311 483.125 706.311C483.125 706.311 483.113 706.311 483.1 706.311C480.236 706.36 479.793 707.86 478.847 712.568C478.158 716.011 477.211 720.732 474.285 726.227C471.052 732.301 468.446 735.177 466.356 737.501C464.081 740.009 462.299 741.989 460.491 747.066C459.692 749.304 459.25 751.295 458.807 753.213C457.983 756.852 457.196 760.295 454.295 764.843L452.426 763.651C455.119 759.422 455.832 756.324 456.643 752.721C457.098 750.742 457.553 748.689 458.401 746.328C460.356 740.833 462.372 738.595 464.708 736.013C466.823 733.678 469.22 731.022 472.331 725.195C475.097 719.982 475.97 715.63 476.671 712.138C477.556 707.7 478.256 704.184 483.039 704.098C483.064 704.098 483.088 704.098 483.113 704.098C487.244 704.098 490.071 712.372 490.686 716.834C491.608 723.633 490.477 726.719 488.916 730.985C488.424 732.338 487.858 733.887 487.305 735.706L480.469 766.479V766.491Z" fill="#001080"/>
<path d="M541.461 729.215C540.44 729.215 539.432 728.969 538.498 728.477C536.973 727.678 535.855 726.326 535.351 724.691C534.306 721.297 536.187 717.683 539.568 716.626L545.334 714.818C546.956 714.302 548.69 714.462 550.202 715.261C551.727 716.06 552.845 717.4 553.349 719.048C554.394 722.428 552.501 726.043 549.132 727.1L543.354 728.92C542.727 729.117 542.088 729.215 541.449 729.215H541.461ZM547.239 716.736C546.821 716.736 546.403 716.798 545.997 716.933L540.231 718.74C538.018 719.429 536.777 721.814 537.465 724.039C537.797 725.121 538.535 725.994 539.531 726.522C540.514 727.039 541.645 727.149 542.703 726.805L548.481 724.986C550.694 724.297 551.936 721.924 551.247 719.699C550.915 718.63 550.177 717.744 549.182 717.216C548.567 716.896 547.903 716.736 547.239 716.736Z" fill="#001080"/>
<path d="M536.15 741.534C535.129 741.534 534.121 741.288 533.187 740.796C531.662 739.997 530.544 738.645 530.04 737.009C528.995 733.616 530.876 730.002 534.257 728.944L540.023 727.137C541.645 726.633 543.379 726.781 544.891 727.58C546.416 728.379 547.534 729.719 548.038 731.366C549.083 734.76 547.202 738.374 543.821 739.431L538.043 741.239C537.416 741.435 536.777 741.534 536.138 741.534H536.15ZM541.928 729.067C541.51 729.067 541.092 729.129 540.686 729.264L534.92 731.071C532.707 731.76 531.466 734.145 532.154 736.37C532.486 737.452 533.224 738.325 534.22 738.854C535.215 739.37 536.334 739.481 537.404 739.136L543.182 737.329C545.395 736.641 546.637 734.256 545.948 732.03C545.616 730.961 544.879 730.076 543.883 729.547C543.268 729.227 542.604 729.067 541.94 729.067H541.928Z" fill="#001080"/>
<path d="M532.351 754.124C531.33 754.124 530.322 753.878 529.4 753.386C527.876 752.587 526.769 751.247 526.265 749.612C525.22 746.231 527.113 742.616 530.47 741.559L538.609 739.002C540.219 738.485 541.94 738.645 543.453 739.432C544.977 740.231 546.096 741.571 546.6 743.219C547.645 746.599 545.752 750.202 542.395 751.259L534.256 753.816C533.629 754.013 532.99 754.111 532.351 754.111V754.124ZM540.502 740.92C540.084 740.92 539.666 740.981 539.26 741.116L531.109 743.673C528.908 744.362 527.679 746.735 528.355 748.96C528.687 750.03 529.413 750.902 530.408 751.431C531.392 751.947 532.523 752.046 533.58 751.726L541.719 749.169C543.92 748.481 545.161 746.108 544.473 743.882C544.141 742.813 543.403 741.928 542.408 741.411C541.805 741.092 541.154 740.932 540.49 740.932L540.502 740.92Z" fill="#001080"/>
<path d="M535.376 764.942C534.404 764.942 533.433 764.708 532.548 764.241C531.109 763.479 530.04 762.2 529.56 760.651L529.351 760C528.368 756.778 530.163 753.361 533.359 752.352L537.269 751.123C538.818 750.644 540.453 750.791 541.891 751.541C543.342 752.303 544.399 753.57 544.879 755.131L545.088 755.795C546.084 759.004 544.289 762.434 541.092 763.43L537.183 764.659C536.593 764.843 535.978 764.929 535.376 764.929V764.942ZM539.064 753.053C538.683 753.053 538.289 753.115 537.92 753.225L534.011 754.455C531.97 755.094 530.827 757.282 531.454 759.336L531.663 759.987C531.97 760.983 532.646 761.794 533.568 762.274C534.49 762.753 535.535 762.852 536.507 762.544L540.416 761.315C542.457 760.676 543.6 758.487 542.961 756.446L542.752 755.783C542.445 754.787 541.769 753.975 540.846 753.496C540.281 753.201 539.666 753.053 539.051 753.053H539.064Z" fill="#001080"/>
<path d="M500.496 768.478L500.233 770.675L512.574 772.155L512.837 769.958L500.496 768.478Z" fill="#001080"/>
<path d="M529.339 782.215C529.142 782.215 528.933 782.215 528.737 782.178L482.129 776.584C479.363 776.252 477.384 773.732 477.716 770.966L478.293 766.122L480.494 766.38L479.916 771.224C479.732 772.773 480.838 774.199 482.4 774.384L529.007 779.978C529.769 780.076 530.507 779.855 531.097 779.387C531.7 778.92 532.068 778.244 532.167 777.494L533.826 763.663L536.027 763.921L534.367 777.752C534.06 780.309 531.872 782.203 529.351 782.203L529.339 782.215Z" fill="#001080"/>
<path d="M541.572 717.634L539.371 717.376L542.973 687.378C543.158 685.816 542.051 684.403 540.49 684.218L493.895 678.624C493.133 678.538 492.395 678.747 491.805 679.214C491.215 679.682 490.834 680.358 490.735 681.108L487.514 707.921L485.313 707.663L488.535 680.85C488.694 679.509 489.371 678.317 490.428 677.481C491.485 676.645 492.813 676.276 494.153 676.436L540.76 682.03C543.527 682.362 545.506 684.882 545.174 687.648L541.572 717.646V717.634Z" fill="#001080"/>
<path d="M488.515 692.294L488.251 694.491L542.448 701.002L542.712 698.805L488.515 692.294Z" fill="#001080"/>
<path d="M509.312 691.865C510.072 691.865 510.688 691.249 510.688 690.488C510.688 689.728 510.072 689.111 509.312 689.111C508.551 689.111 507.935 689.728 507.935 690.488C507.935 691.249 508.551 691.865 509.312 691.865Z" fill="#001080"/>
<path d="M513.087 689.827L512.823 692.024L523.919 693.357L524.183 691.16L513.087 689.827Z" fill="#001080"/>
<path d="M480.632 760.171L480.368 762.368L534.308 768.848L534.572 766.651L480.632 760.171Z" fill="#001080"/>
</g>
<g clip-path="url(#clip14_678_24629)">
<path d="M805.249 782.216H789.904C787.017 782.204 784.659 779.846 784.659 776.959V717.396H786.741V776.959C786.729 778.707 788.156 780.134 789.904 780.134H805.249C806.998 780.134 808.424 778.707 808.424 776.959V717.396H810.506V776.959C810.495 779.858 808.137 782.204 805.238 782.204L805.249 782.216Z" fill="#001080"/>
<path d="M808.505 717.487L803.351 710.505C802.983 710.022 802.684 708.722 802.684 708.71L801.315 702.568C801.212 702.108 801.108 701.302 801.108 700.796V696.598C801.108 696.483 800.982 696.379 800.832 696.379H799.82V695.953H799.762V694.769C799.762 694.769 799.751 693.365 799.751 692.951V689.753L796.15 690.57L795.633 694.239C795.587 694.458 795.564 694.7 795.541 694.907C795.483 695.47 795.391 696.31 794.483 696.344C794.367 696.344 794.229 696.425 794.229 696.575V700.773C794.229 701.279 794.103 702.085 793.988 702.545L792.435 708.699C792.435 708.699 792.09 709.999 791.756 710.47L786.729 717.464L784.693 717.384C784.693 716.981 784.808 716.59 785.05 716.256L790.077 709.262C790.134 709.147 790.364 708.457 790.433 708.181L791.986 702.027C792.078 701.67 792.159 701.038 792.159 700.762V696.563C792.159 695.654 792.711 694.861 793.505 694.492C793.539 694.228 793.574 693.963 793.608 693.837L794.137 690.064C794.321 689.305 794.816 688.787 795.46 688.591L799.429 687.74C799.521 687.706 799.693 687.683 799.877 687.683C800.326 687.683 800.717 687.821 801.051 688.062C801.534 688.419 801.822 688.994 801.822 689.604V692.94C801.822 693.239 801.822 694.078 801.822 694.492C802.627 694.861 803.19 695.654 803.19 696.575V700.773C803.19 701.072 803.271 701.728 803.351 702.085L804.72 708.239C804.778 708.492 804.973 709.124 805.054 709.285L810.184 716.233C810.437 716.578 810.564 716.97 810.564 717.372H808.493C808.493 717.372 808.505 717.43 808.516 717.453L808.505 717.487Z" fill="#001080"/>
<path d="M785.881 716.022L785.879 718.093L809.449 718.117L809.451 716.047L785.881 716.022Z" fill="#001080"/>
<path d="M785.721 756.931L785.715 759.002L809.331 759.068L809.337 756.997L785.721 756.931Z" fill="#DA192E"/>
<path d="M802.017 700.612H793.447V702.683H802.017V700.612Z" fill="#DA192E"/>
<path d="M800.66 694.32H794.275V696.391H800.66V694.32Z" fill="#001080"/>
<path d="M845.257 770.436H827.37V693.353C827.37 690.57 829.636 688.292 832.431 688.292H840.196C842.979 688.292 845.257 690.558 845.257 693.353V770.447V770.436ZM829.44 768.365H843.175V693.353C843.175 691.708 841.841 690.363 840.196 690.363H832.431C830.786 690.363 829.452 691.697 829.452 693.353V768.365H829.44Z" fill="#001080"/>
<path d="M836.814 782.043H835.801C831.154 782.043 827.37 778.258 827.37 773.611V768.377H845.257V773.611C845.257 778.258 841.472 782.043 836.825 782.043H836.814ZM829.44 770.436V773.599C829.44 777.108 832.293 779.961 835.801 779.961H836.814C840.322 779.961 843.175 777.108 843.175 773.599V770.436H829.44Z" fill="#DA192E"/>
<path d="M828.405 770.436C825.334 770.436 821.745 768.918 821.745 764.638V734.408H823.815V764.638C823.815 767.997 827.025 768.365 828.405 768.365V770.436Z" fill="#001080"/>
<path d="M839.091 690.363H833.535C832.983 690.363 832.454 690.098 832.109 689.638C831.718 689.132 831.591 688.454 831.764 687.821L834.548 677.802C834.778 676.962 835.491 676.387 836.308 676.387C837.124 676.387 837.838 676.95 838.079 677.802L840.851 687.821C841.024 688.454 840.897 689.132 840.518 689.638C840.173 690.098 839.644 690.363 839.091 690.363ZM833.789 688.292H838.827L836.308 679.182L833.789 688.292Z" fill="#001080"/>
</g>
<g clip-path="url(#clip15_678_24629)">
<path d="M1093.44 719.263C1091.59 719.263 1090.09 717.756 1090.09 715.915C1090.09 714.075 1091.59 712.567 1093.44 712.567C1095.29 712.567 1096.79 714.075 1096.79 715.915C1096.79 717.756 1095.29 719.263 1093.44 719.263Z" fill="#001080"/>
<path d="M1117.29 739.589C1113.41 738.995 1111.74 736.074 1111.49 734.935L1114.04 732.786C1114.29 734.032 1115.87 736.383 1118.83 736.383C1120.97 736.383 1122.4 735.041 1122.36 733.308C1122.36 731.076 1120.29 730.352 1118.23 729.616C1115.31 728.524 1112.37 727.348 1112.37 723.062C1112.4 719.952 1114.44 717.91 1117.31 717.316V714.681H1120.44V717.293C1123.82 717.791 1125.07 720.177 1125.57 721.982L1122.71 723.407C1122.55 721.982 1121.62 720.118 1118.92 720.118C1117.15 720.118 1115.94 721.365 1115.9 723.003C1115.81 725.116 1117.48 725.793 1119.88 726.695C1122.42 727.598 1125.75 728.963 1125.75 733.344C1125.75 736.229 1123.82 738.9 1120.44 739.553V742.414H1117.31V739.589H1117.29Z" fill="#DA192E"/>
<path d="M1140.55 768.865H1133.36C1132 768.865 1130.86 767.903 1130.65 766.562L1129.69 760.78L1129.05 760.934C1122.77 762.442 1115.99 762.561 1109.62 761.279L1109.01 761.16L1108.1 766.574C1107.89 767.903 1106.75 768.865 1105.4 768.865H1098.2C1096.85 768.865 1095.71 767.903 1095.5 766.562L1093.47 754.334L1093.26 754.191C1087.93 750.333 1083.86 745.311 1081.45 739.648L1081.32 739.351L1078.2 738.733C1075.82 738.638 1073.96 736.691 1073.96 734.317V720.949C1073.96 718.563 1075.82 716.627 1078.21 716.532H1078.26L1081.33 715.915L1081.46 715.618C1083.33 711.214 1086.3 707.106 1090.04 703.71L1090.51 703.271C1090.7 702.048 1091.19 697.715 1089.36 694.391C1088.81 693.405 1088.91 692.242 1089.6 691.268C1090.39 690.164 1091.79 689.571 1093.09 689.784C1096.3 690.342 1100.68 691.814 1103.38 695.673L1103.43 695.709L1103.7 695.614C1108.4 693.94 1113.4 693.097 1118.54 693.097C1140.36 693.097 1158.1 708.59 1158.1 727.633C1158.1 737.083 1153.59 746.237 1145.73 752.719L1145.55 752.861L1143.26 766.574C1143.04 767.903 1141.9 768.865 1140.55 768.865ZM1131.42 758.18L1132.76 766.229C1132.81 766.526 1133.06 766.74 1133.36 766.74H1140.55C1140.86 766.74 1141.1 766.538 1141.14 766.229L1143.57 751.734L1144.36 751.081C1151.74 745.002 1155.96 736.454 1155.96 727.645C1155.96 709.777 1139.17 695.246 1118.54 695.246C1113.64 695.246 1108.89 696.053 1104.41 697.644L1103.18 698.083L1101.86 697.288L1101.73 697.086C1099.47 693.702 1095.59 692.408 1092.72 691.921C1092.14 691.826 1091.59 692.171 1091.33 692.539C1091.19 692.741 1091.04 693.061 1091.22 693.394C1093.74 697.976 1092.59 703.817 1092.54 704.055L1092.47 704.399L1091.46 705.313C1087.95 708.495 1085.17 712.353 1083.41 716.473L1082.84 717.803L1078.28 718.693C1077.05 718.741 1076.09 719.75 1076.09 720.985V734.353C1076.09 735.587 1077.05 736.585 1078.28 736.644L1078.59 736.668L1082.85 737.522L1083.42 738.852C1085.68 744.159 1089.51 748.872 1094.51 752.493L1095.43 753.158L1097.6 766.265C1097.65 766.562 1097.89 766.776 1098.19 766.776H1105.39C1105.69 766.776 1105.93 766.574 1105.98 766.265L1107.24 758.667L1110.03 759.225C1116.08 760.448 1122.55 760.329 1128.52 758.892L1131.4 758.204L1131.42 758.18Z" fill="#001080"/>
<path d="M1109.85 702.132L1109.33 700.066C1115.09 698.594 1121.45 698.546 1127.23 699.935L1126.73 702.013C1121.28 700.707 1115.29 700.755 1109.85 702.132Z" fill="#001080"/>
<path d="M1168.31 730.079C1167.43 730.079 1166.55 729.877 1165.77 729.497C1163.83 728.547 1162.69 726.659 1162.66 724.333C1162.66 721.222 1164.19 718.717 1166.66 717.767L1167.95 717.269L1169.13 718.017C1171.3 719.406 1172.69 721.507 1173.15 724.095C1173.65 727.063 1172.11 728.583 1171.42 729.093C1170.55 729.734 1169.45 730.079 1168.31 730.079ZM1167.73 719.643L1167.44 719.75C1165.82 720.379 1164.81 722.124 1164.81 724.309C1164.83 725.805 1165.51 726.98 1166.72 727.574C1167.82 728.108 1169.27 728.037 1170.15 727.372C1170.72 726.944 1171.34 726.09 1171.05 724.451C1170.71 722.48 1169.64 720.878 1167.98 719.809L1167.72 719.643H1167.73Z" fill="#001080"/>
<path d="M1177.82 728.714C1174.78 721.543 1170.86 719.275 1168.44 719.525L1167.7 719.596L1167.03 719.287C1166.44 719.026 1165.82 718.824 1165.16 718.717C1162 718.171 1158.95 719.596 1157.39 722.35L1155.53 721.294C1157.54 717.756 1161.47 715.915 1165.53 716.616C1166.36 716.758 1167.17 717.008 1167.92 717.352L1168.06 717.423H1168.23C1171.54 717.091 1176.3 719.655 1179.79 727.883L1177.82 728.714Z" fill="#001080"/>
</g>
<defs>
<clipPath id="clip0_678_24629">
<rect width="105.829" height="103.386" fill="white" transform="translate(138.211 122.006)"/>
</clipPath>
<clipPath id="clip1_678_24629">
<rect width="90.8814" height="105.829" fill="white" transform="translate(457.601 120.785)"/>
</clipPath>
<clipPath id="clip2_678_24629">
<rect width="105.829" height="99.4105" fill="white" transform="translate(762.044 123.994)"/>
</clipPath>
<clipPath id="clip3_678_24629">
<rect width="98.1958" height="105.829" fill="white" transform="translate(1077.78 120.785)"/>
</clipPath>
<clipPath id="clip4_678_24629">
<rect width="105.829" height="72.1654" fill="white" transform="translate(138.211 322.816)"/>
</clipPath>
<clipPath id="clip5_678_24629">
<rect width="105.829" height="105.829" fill="white" transform="translate(449.431 305.985)"/>
</clipPath>
<clipPath id="clip6_678_24629">
<rect width="105.829" height="93.0319" fill="white" transform="translate(762.044 312.384)"/>
</clipPath>
<clipPath id="clip7_678_24629">
<rect width="105.829" height="74.2554" fill="white" transform="translate(1073.96 321.771)"/>
</clipPath>
<clipPath id="clip8_678_24629">
<rect width="105.829" height="95.9538" fill="white" transform="translate(138.211 496.123)"/>
</clipPath>
<clipPath id="clip9_678_24629">
<rect width="105.829" height="105.829" fill="white" transform="translate(450.127 491.186)"/>
</clipPath>
<clipPath id="clip10_678_24629">
<rect width="81.0275" height="105.829" fill="white" transform="translate(774.444 491.186)"/>
</clipPath>
<clipPath id="clip11_678_24629">
<rect width="95.5537" height="105.829" fill="white" transform="translate(1079.1 491.186)"/>
</clipPath>
<clipPath id="clip12_678_24629">
<rect width="105.829" height="92.1892" fill="white" transform="translate(138.211 683.206)"/>
</clipPath>
<clipPath id="clip13_678_24629">
<rect width="101.206" height="105.829" fill="white" transform="translate(452.438 676.387)"/>
</clipPath>
<clipPath id="clip14_678_24629">
<rect width="60.5985" height="105.829" fill="white" transform="translate(784.659 676.387)"/>
</clipPath>
<clipPath id="clip15_678_24629">
<rect width="105.829" height="79.1282" fill="white" transform="translate(1073.96 689.737)"/>
</clipPath>
</defs>
</svg>
