<svg width="86" height="56" viewBox="0 0 86 56" fill="none" xmlns="http://www.w3.org/2000/svg">
<path d="M74.4302 39.7796C76.7082 39.7892 78.9379 39.1232 80.8375 37.8659C82.7372 36.6086 84.2214 34.8164 85.1028 32.7157C85.9841 30.6151 86.2229 28.3003 85.7891 26.064C85.3552 23.8277 84.2682 21.7701 82.6653 20.1515C81.0624 18.5328 79.0156 17.4256 76.7837 16.9698C74.5517 16.514 72.2347 16.7301 70.1255 17.5908C68.0163 18.4515 66.2096 19.9181 64.9337 21.8053C63.6579 23.6925 62.97 25.9155 62.9572 28.1935C62.9482 29.707 63.2375 31.2075 63.8088 32.6091C64.38 34.0107 65.2219 35.286 66.2863 36.362C67.3507 37.438 68.6167 38.2937 70.012 38.8802C71.4073 39.4666 72.9046 39.7722 74.4181 39.7796" fill="black"/>
<path d="M32.4585 39.7796C34.7365 39.7892 36.9662 39.1232 38.8659 37.8659C40.7655 36.6086 42.2498 34.8164 43.1311 32.7157C44.0124 30.6151 44.2512 28.3003 43.8174 26.064C43.3835 23.8277 42.2965 21.7701 40.6936 20.1515C39.0907 18.5328 37.044 17.4256 34.812 16.9698C32.58 16.514 30.263 16.7301 28.1539 17.5908C26.0447 18.4515 24.238 19.9181 22.9621 21.8053C21.6862 23.6925 20.9984 25.9155 20.9856 28.1935C20.9765 29.707 21.2659 31.2075 21.8371 32.6091C22.4083 34.0107 23.2502 35.286 24.3146 36.362C25.379 37.438 26.645 38.2937 28.0403 38.8802C29.4357 39.4666 30.9329 39.7722 32.4464 39.7796" fill="black"/>
<path d="M22.0137 0C22.5818 0 23.0429 0.460814 23.043 1.0293V38.5L23.0371 38.6055C22.9843 39.1245 22.5462 39.5293 22.0137 39.5293C21.4457 39.5291 20.9854 39.0684 20.9854 38.5V1.0293C20.9854 0.460941 21.4457 0.000206369 22.0137 0Z" fill="black"/>
<path d="M53.4429 39.7796C55.7209 39.7892 57.9506 39.1232 59.8502 37.8659C61.7499 36.6086 63.2341 34.8164 64.1155 32.7157C64.9968 30.6151 65.2356 28.3003 64.8018 26.064C64.3679 23.8277 63.2809 21.7701 61.678 20.1515C60.0751 18.5328 58.0283 17.4256 55.7964 16.9698C53.5644 16.514 51.2474 16.7301 49.1382 17.5908C47.029 18.4515 45.2223 19.9181 43.9464 21.8053C42.6705 23.6925 41.9827 25.9155 41.9699 28.1935C41.9609 29.707 42.2502 31.2075 42.8215 32.6091C43.3927 34.0107 44.2346 35.286 45.2989 36.362C46.3633 37.438 47.6294 38.2937 49.0247 38.8802C50.42 39.4666 51.9172 39.7722 53.4308 39.7796" fill="black"/>
<path d="M42.998 0C43.5662 0 44.0273 0.460809 44.0273 1.0293V38.5L44.0215 38.6055C43.9687 39.1245 43.5306 39.5293 42.998 39.5293C42.4301 39.5291 41.9697 39.0684 41.9697 38.5V1.0293C41.9698 0.460936 42.4301 0.000206372 42.998 0Z" fill="black"/>
<ellipse cx="6.37831" cy="54.9706" rx="1.0287" ry="1.02941" fill="black"/>
<ellipse cx="22.0141" cy="17.4999" rx="1.0287" ry="1.02941" fill="black"/>
<path d="M11.4732 39.7796C13.7512 39.7892 15.9809 39.1232 17.8805 37.8659C19.7801 36.6086 21.2644 34.8164 22.1457 32.7157C23.0271 30.6151 23.2659 28.3003 22.832 26.064C22.3982 23.8277 21.3111 21.7701 19.7083 20.1515C18.1054 18.5328 16.0586 17.4256 13.8266 16.9698C11.5947 16.514 9.27768 16.7301 7.1685 17.5908C5.05932 18.4515 3.25261 19.9181 1.97671 21.8053C0.70082 23.6925 0.0130102 25.9155 0.000205739 28.1935C-0.0088405 29.707 0.280516 31.2075 0.851733 32.6091C1.42295 34.0107 2.26482 35.286 3.32922 36.362C4.39362 37.438 5.65967 38.2937 7.05498 38.8802C8.4503 39.4666 9.94752 39.7722 11.461 39.7796" fill="black"/>
<path d="M23.043 39.5293H20.9854V17.5H23.043V39.5293Z" fill="black"/>
<path d="M23.0422 39.5293C23.0422 48.6258 15.6732 55.9999 6.58301 55.9999V53.9411C14.5369 53.9411 20.9848 47.4887 20.9848 39.5293H23.0422Z" fill="black"/>
</svg>
