<svg width="130" height="72" viewBox="0 0 130 72" fill="none" xmlns="http://www.w3.org/2000/svg">
<path fill-rule="evenodd" clip-rule="evenodd" d="M20.2384 37.4152V43.7605H23.875V36.0223C23.875 34.0103 22.6892 32.6174 20.1594 32.6174C19.4191 32.5885 18.6815 32.7191 17.9984 32.9999C17.3154 33.2807 16.7037 33.7049 16.2066 34.2425V28.8257H12.7281V43.7605H16.2856V36.7961C16.6809 36.2544 17.3924 35.7127 18.4201 35.7127C19.5269 35.7127 20.3175 36.0997 20.3175 37.4152H20.2384ZM7.35225 40.9748C6.95696 41.5164 6.1664 41.7486 5.37584 41.7486C4.42716 41.7486 3.55754 41.3617 3.55754 40.5105C3.55754 39.6593 4.3481 39.2723 5.37584 39.2723C6.1664 39.2723 6.95696 39.5045 7.35225 40.0462V40.9748ZM5.69206 32.6174C3.85464 32.5921 2.0656 33.194 0.632451 34.3199L1.97641 36.7187C2.76697 35.9449 3.95282 35.558 5.13867 35.558C6.48263 35.558 7.35225 36.177 7.35225 37.1056V38.2664C6.89331 37.8284 6.34847 37.4861 5.75062 37.26C5.15276 37.0339 4.51429 36.9287 3.87376 36.9509C2.13452 36.9509 0 37.8021 0 40.4331C0 42.9093 2.13452 44.0701 3.87376 44.0701C5.29678 44.0701 6.64074 43.5284 7.35225 42.6772V43.7605H10.9098V36.9509C10.9098 33.6234 8.37998 32.6174 5.69206 32.6174V32.6174ZM39.9235 32.6174C39.1681 32.6204 38.424 32.797 37.7512 33.133C37.0783 33.4691 36.4955 33.9551 36.0497 34.552C35.5754 33.3139 34.4686 32.6174 32.8875 32.6174C32.1921 32.6072 31.5022 32.7396 30.8622 33.0061C30.2223 33.2727 29.6464 33.6675 29.1718 34.1651V32.927H25.6143V43.7605H29.2509V36.7961C29.6462 36.3318 30.2786 35.7127 31.3063 35.7127C32.3341 35.7127 32.7294 36.3318 32.7294 37.183V43.7605H36.2869V36.7961C36.52 36.4717 36.8271 36.2049 37.1839 36.0168C37.5407 35.8288 37.9373 35.7247 38.3424 35.7127C39.3701 35.7127 39.8444 36.3318 39.8444 37.1056V43.7605H43.402V35.7901C43.402 33.546 42.058 32.54 40.0025 32.54L39.9235 32.6174ZM62.2174 58.6954C61.4268 58.1537 60.241 58.2311 59.5295 58.9275C59.4504 59.0049 59.2133 59.0823 59.1342 58.9275C58.7389 57.6894 58.0274 56.6061 57.1578 55.6775L61.2687 50.1833C61.7431 49.4868 61.9012 48.1713 61.1897 47.707L56.051 54.5941V56.6834C57.395 57.4573 58.4227 58.4632 59.0551 60.7073C59.2132 61.1716 59.4504 61.4812 59.8457 61.7907C60.174 62.0002 60.5567 62.1135 60.9486 62.1172C61.3405 62.1209 61.7253 62.0148 62.0577 61.8114C62.3901 61.6081 62.6561 61.316 62.8245 60.9696C62.9928 60.6231 63.0565 60.2368 63.008 59.8561C62.9198 59.3582 62.636 58.9138 62.2174 58.618V58.6954ZM62.0593 61.0169C61.9291 61.1637 61.7655 61.2784 61.5816 61.3518C61.3978 61.4252 61.1988 61.4552 61.0009 61.4394C60.803 61.4236 60.6117 61.3623 60.4424 61.2607C60.2732 61.159 60.1307 61.0198 60.0267 60.8543C59.9226 60.6887 59.8598 60.5016 59.8434 60.3078C59.8269 60.1141 59.8573 59.9194 59.9321 59.7393C60.0068 59.5592 60.1238 59.3989 60.2736 59.2713C60.4235 59.1437 60.6018 59.0525 60.7944 59.0049C61.0554 58.9404 61.3307 58.9591 61.5801 59.0583C61.8295 59.1575 62.0401 59.3321 62.1812 59.5565C62.3223 59.7809 62.3866 60.0436 62.3646 60.3062C62.3427 60.5689 62.2357 60.8178 62.0593 61.0169V61.0169Z" fill="black"/>
<path d="M56.1306 59.6239H54.7866V63.88H56.1306V59.6239ZM56.1306 53.3559H54.7866V57.6894H56.1306V53.3559ZM56.1306 47.0879H54.7866V51.2666H56.1306V47.0106V47.0879ZM56.1306 40.8199H54.7866V45.076H56.1306V40.8199V40.8199ZM56.1306 34.552H54.7866V38.808H56.1306V34.552ZM56.1306 28.2066H54.7866V32.54H56.1306V28.2066V28.2066ZM56.1306 22.016H54.7866V26.272H56.1306V21.8612V22.016ZM56.1306 15.6706H54.7866V20.004H56.1306V15.6706ZM56.1306 9.47998H54.7866V13.736H56.1306V9.47998ZM71.1513 38.6532L68.2262 34.2424H70.3607L71.9418 36.9508L73.602 34.2424H75.8947L73.0486 38.6532V41.5938H71.1513V38.6532Z" fill="black"/>
<path d="M74.1555 38.8854C74.1555 37.4151 75.2623 36.177 77.0806 36.177C78.978 36.177 80.0848 37.4151 80.0848 38.9628C80.0848 40.5104 78.978 41.7485 77.0806 41.7485C76.7003 41.7589 76.3217 41.6945 75.9672 41.5591C75.6127 41.4238 75.2896 41.2202 75.0169 40.9605C74.7441 40.7008 74.5274 40.3901 74.3795 40.047C74.2315 39.7039 74.1554 39.3352 74.1555 38.9628V38.8854ZM78.2665 38.8854C78.2665 38.2663 77.8712 37.6473 77.0806 37.6473C76.29 37.6473 75.8948 38.2663 75.8948 38.9628C75.8948 39.7366 76.3691 40.2783 77.0806 40.2783C77.8712 40.2783 78.2665 39.6592 78.2665 38.9628V38.8854ZM84.4329 40.9747C84.1927 41.2305 83.8987 41.4321 83.5711 41.5657C83.2435 41.6993 82.8901 41.7617 82.5355 41.7485C81.2706 41.7485 80.7172 41.0521 80.7172 40.0461V36.3318H82.4564V39.4271C82.4564 40.0461 82.8517 40.2009 83.4051 40.2009C83.8795 40.2009 84.1957 39.9687 84.4329 39.7366V36.3318H86.1721V41.5938H84.4329V40.9747ZM86.8045 37.1056C87.1208 36.9508 87.5951 36.4865 87.6742 36.0222H87.437C86.9627 36.0222 86.5674 35.7127 86.5674 35.171C86.5674 34.6293 87.0417 34.165 87.5951 34.165C88.2276 34.165 88.781 34.6293 88.781 35.4032C88.7733 35.8693 88.6462 36.3261 88.4114 36.7317C88.1766 37.1372 87.8416 37.4787 87.437 37.7246L86.7255 37.1056H86.8045ZM89.0972 36.3318H90.8364V36.9508C91.0466 36.7202 91.3017 36.5329 91.5868 36.4C91.8719 36.2671 92.1812 36.1913 92.4966 36.177V37.802H92.1013C91.627 37.802 90.9945 37.9568 90.8364 38.2663V41.5938H89.0972V36.3318ZM95.817 36.177C97.3981 36.177 98.584 37.3377 98.584 39.1175V39.5044H94.7102C94.8683 39.9687 95.3426 40.433 96.1332 40.433C96.6075 40.433 97.1609 40.2783 97.4772 39.9687L98.1887 41.0521C97.5562 41.5164 96.7657 41.8259 95.896 41.8259C95.5089 41.8366 95.1237 41.7698 94.7639 41.6297C94.4041 41.4896 94.0772 41.2791 93.8034 41.0111C93.5296 40.7431 93.3145 40.4232 93.1714 40.071C93.0282 39.7188 92.96 39.3417 92.9709 38.9628C92.9709 38.2239 93.2708 37.5154 93.8045 36.9929C94.3383 36.4705 95.0622 36.177 95.817 36.177V36.177ZM94.7102 38.4211H96.9238C96.9238 38.0342 96.6075 37.4925 95.817 37.4925C95.5489 37.4898 95.2889 37.5825 95.0853 37.7532C94.8818 37.924 94.7485 38.1613 94.7102 38.4211V38.4211ZM102.932 41.7485C103.15 41.9584 103.41 42.1217 103.696 42.2283C103.982 42.3348 104.287 42.3822 104.592 42.3676C105.225 42.3676 106.015 42.1355 106.015 41.1295V40.7426C105.827 40.9786 105.588 41.1705 105.314 41.3044C105.04 41.4382 104.74 41.5107 104.434 41.5164C103.09 41.5164 101.983 40.6652 101.983 38.808C101.983 37.1056 103.011 36.177 104.355 36.177C104.988 36.177 105.541 36.4091 105.936 36.9508V36.2544H107.755V41.2069C107.755 43.3736 105.936 43.8379 104.592 43.8379C103.644 43.8379 102.932 43.6057 102.221 43.064L103.011 41.8259L102.932 41.7485ZM106.015 38.1116C105.886 37.9695 105.727 37.8549 105.551 37.7751C105.374 37.6952 105.182 37.6517 104.988 37.6473C104.276 37.6473 103.802 38.0342 103.802 38.808C103.802 39.5818 104.276 40.0461 104.988 40.0461C105.304 40.0461 105.778 39.814 106.015 39.5818V38.1116V38.1116ZM108.15 38.8854C108.15 37.4151 109.336 36.177 111.154 36.177C112.972 36.177 114.079 37.4151 114.079 38.9628C114.079 40.5104 113.051 41.7485 111.154 41.7485C110.771 41.7702 110.387 41.7135 110.027 41.5822C109.668 41.4509 109.34 41.2478 109.065 40.9858C108.79 40.7238 108.573 40.4087 108.43 40.0604C108.286 39.7121 108.217 39.3383 108.229 38.9628L108.15 38.8854ZM112.34 38.8854C112.34 38.2663 111.944 37.6473 111.154 37.6473C110.363 37.6473 109.968 38.2663 109.968 38.9628C109.968 39.7366 110.363 40.2783 111.154 40.2783C111.944 40.2783 112.261 39.6592 112.261 38.8854H112.34ZM114.711 38.8854C114.711 37.4151 115.818 36.177 117.637 36.177C119.455 36.177 120.562 37.4151 120.562 38.9628C120.562 40.5104 119.534 41.7485 117.637 41.7485C117.253 41.7702 116.87 41.7135 116.51 41.5822C116.151 41.4509 115.823 41.2478 115.548 40.9858C115.273 40.7238 115.056 40.4087 114.912 40.0604C114.768 39.7121 114.7 39.3383 114.711 38.9628V38.8854ZM118.822 38.8854C118.822 38.2663 118.427 37.6473 117.637 37.6473C116.846 37.6473 116.451 38.2663 116.451 38.9628C116.451 39.7366 116.846 40.2783 117.637 40.2783C118.427 40.2783 118.822 39.6592 118.822 38.9628V38.8854ZM125.147 40.9747C124.959 41.2107 124.719 41.4026 124.446 41.5365C124.172 41.6704 123.872 41.7428 123.566 41.7485C122.222 41.7485 121.194 40.7426 121.194 38.9628C121.194 37.183 122.222 36.177 123.566 36.177C124.119 36.177 124.752 36.4091 125.147 36.9508V34.2424H126.886V41.5938H125.147V40.9747V40.9747ZM125.147 38.1116C124.875 37.838 124.509 37.6726 124.119 37.6473C123.408 37.6473 122.933 38.1116 122.933 38.9628C122.933 39.7366 123.408 40.2783 124.119 40.2783C124.514 40.2783 124.91 40.0461 125.147 39.7366V38.1889V38.1116ZM128.625 39.6592C129.179 39.6592 129.653 40.1235 129.653 40.7426C129.653 41.2842 129.179 41.7485 128.625 41.7485C128.484 41.7592 128.342 41.7411 128.208 41.6954C128.074 41.6496 127.951 41.5772 127.847 41.4827C127.743 41.3882 127.66 41.2737 127.604 41.1463C127.547 41.0189 127.518 40.8814 127.519 40.7426C127.519 40.1235 127.993 39.6592 128.625 39.6592Z" fill="black"/>
</svg>
