<svg width="81" height="72" viewBox="0 0 81 72" fill="none" xmlns="http://www.w3.org/2000/svg">
<path d="M61.6482 52.2478C61.4789 52.2898 61.3211 52.3686 61.1858 52.4787C60.4777 52.9651 59.6348 53.2165 58.7763 53.1971C57.8792 53.0578 57.0517 52.6306 56.418 51.9799L55.4132 51.1291L55.162 50.9136L53.6241 49.5876C53.1832 49.24 52.407 48.6967 51.2956 47.9578C52.0266 47.7718 52.7396 47.5211 53.4262 47.2086C54.0538 46.923 54.6517 46.5762 55.2112 46.173C57.0593 44.7415 58.4817 42.8319 59.3248 40.6504C60.2573 38.3788 60.763 35.9544 60.8166 33.499C60.8248 33.2404 60.8279 32.9859 60.8279 32.718C60.8279 28.2186 59.7459 24.5581 57.5818 21.7364C55.4913 18.9286 52.1423 17.3459 48.6479 17.5143C45.1536 17.6827 41.972 19.5801 40.1606 22.576C38.2918 25.7068 37.3575 29.3076 37.4681 32.953C37.4681 33.1326 37.4681 33.3133 37.4733 33.4919C37.44 37.9953 39.199 42.3267 42.362 45.5295C41.8596 45.8199 41.4353 46.2281 41.1254 46.719L40.5605 46.5681C39.329 46.1674 38.2733 45.3536 37.5717 44.2641L29.6542 33.4877L28.9621 32.5456C28.7405 32.2917 28.6023 31.9756 28.5663 31.6404C28.6229 31.3786 28.7544 31.1389 28.9447 30.9507L34.5932 24.2879C37.4025 20.9961 39.3045 19.185 40.299 18.8545C40.6569 18.8436 40.9715 18.6143 41.0916 18.2767C41.0947 18.1533 41.0432 18.0347 40.9509 17.9528C40.8586 17.8709 40.7349 17.8339 40.6128 17.8518C40.4396 17.8651 40.268 17.8943 40.1001 17.9391C39.6446 17.9973 39.1852 18.0196 38.7262 18.0058L37.4835 18.0273L35.9579 17.9688C35.438 17.9719 34.9184 17.9458 34.4014 17.8908C34.2533 17.8689 34.104 17.8559 33.9544 17.8518C33.8259 17.8231 33.6914 17.8562 33.5908 17.9412C33.4902 18.0262 33.435 18.1533 33.4417 18.2849C33.4417 18.5456 33.6929 18.7242 34.1923 18.8207C34.8595 18.8678 35.3784 19.4207 35.3837 20.0902C35.1835 21.2543 34.6071 22.3205 33.7432 23.125L26.6521 31.4136L26.405 31.6722L26.1404 31.9082C26.043 31.9082 25.9928 31.7574 25.9928 31.4536V23.0142C25.9398 22.0218 26.0324 21.027 26.2676 20.0615C26.5354 19.4743 27.0047 19.0027 27.5902 18.7324C27.8079 18.6603 27.9642 18.4687 27.9911 18.2408C28.0103 18.1305 27.9738 18.0178 27.8936 17.9398C27.8134 17.8618 27.6999 17.8284 27.5902 17.8508C27.3237 17.874 27.0585 17.9106 26.7956 17.9606C26.5496 17.9801 26.2645 17.9894 25.9344 17.9894L24.6907 18.0448L24.0755 18.0725C23.1878 18.0921 22.3 18.0431 21.4199 17.9257C21.2234 17.8806 21.0227 17.8558 20.8211 17.8518C20.6989 17.8334 20.5752 17.8735 20.487 17.96C20.3987 18.0465 20.3562 18.1695 20.372 18.2921C20.3906 18.5242 20.5722 18.7099 20.8037 18.7334L21.6147 18.9479C22.269 19.0959 22.8118 19.5507 23.0727 20.1692C23.3861 21.2162 23.5152 22.3098 23.4541 23.4011V33.497V41.7794C23.5145 43.0753 23.3762 44.373 23.044 45.627C22.9897 45.7829 22.921 45.9334 22.8389 46.0765C22.6644 45.97 22.5082 45.8359 22.3765 45.6794C21.7895 44.6711 21.3561 43.5808 21.0908 42.4444L20.7268 41.2826L18.3839 33.497L13.6101 17.6384C13.6032 17.3603 13.4289 17.1141 13.1692 17.0154C12.9 17.1209 12.7156 17.3722 12.6955 17.6609L7.20798 33.497L4.19765 42.1704L3.72396 43.5877C3.47994 44.2503 3.17083 44.887 2.80117 45.4885C2.59963 45.9073 2.29254 46.2663 1.91017 46.5302L1.29498 46.7662C1.11775 46.8378 1.00479 47.0133 1.01302 47.2045V47.2404C1.00069 47.3588 1.04489 47.4762 1.13227 47.557C1.21966 47.6378 1.34 47.6726 1.45698 47.6509C1.51235 47.6509 1.81892 47.6037 2.37977 47.5093C2.62661 47.4824 2.87486 47.4708 3.12312 47.4744C3.81419 47.4744 4.42322 47.4887 4.94716 47.5185L6.5282 47.6294C6.78145 47.6437 6.96908 47.6519 7.08905 47.6519C7.40689 47.6519 7.55864 47.5298 7.55044 47.2855C7.54871 47.2604 7.54528 47.2353 7.54019 47.2106C7.47949 46.973 7.27824 46.7977 7.0347 46.7703C6.46119 46.6593 5.92918 46.3926 5.49673 45.9996C5.19958 45.5752 5.0616 45.0594 5.10711 44.5432C5.19396 43.4409 5.44378 42.3577 5.84841 41.3288L6.94345 38.1801C7.09769 37.564 7.36658 36.9825 7.73602 36.4661C8.20775 36.2362 8.73553 36.1468 9.25657 36.2085H15.2383C15.6239 36.1597 16.0155 36.2231 16.3661 36.3912C16.6279 36.8092 16.8126 37.2708 16.9116 37.7541L17.7431 40.5878C18.2534 42.054 18.5936 43.574 18.7571 45.118C18.8819 45.7439 18.5273 46.3662 17.9256 46.5774L17.413 46.7272C17.1795 46.7557 17.0037 46.9536 17.0028 47.1891V47.2106C16.9862 47.33 17.0257 47.4503 17.1097 47.5366C17.1937 47.6229 17.3128 47.6654 17.4324 47.6519C17.606 47.6415 17.778 47.6119 17.9451 47.5637C18.8969 47.4424 19.857 47.3981 20.816 47.4313C21.6075 47.4313 22.3283 47.422 22.9148 47.4241C23.3465 47.4415 27.7112 47.6211 28.0588 47.6745C28.4997 47.7299 28.7991 47.7659 28.9529 47.7843C29.0675 47.8071 29.1859 47.7696 29.2665 47.6849C29.3472 47.6002 29.3789 47.4802 29.3507 47.3666C29.3488 47.3134 29.3377 47.261 29.3179 47.2116C29.2235 47.0403 29.0518 46.9254 28.8575 46.9037C27.9551 46.8198 27.1177 46.3979 26.5126 45.7225C26.077 44.692 25.901 43.5702 26 42.4557V34.5859C26 34.2565 26.1025 34.0912 26.3076 34.0912C26.4723 34.1057 26.6224 34.192 26.7177 34.3273L27.0345 34.8004L35.9015 46.6851L36.1824 47.0864C36.2162 47.1285 36.247 47.1696 36.2788 47.2065C36.4884 47.4792 36.8108 47.6412 37.1544 47.6468C37.3318 47.6468 37.583 47.6314 37.9121 47.6016C38.2088 47.5729 38.6872 47.5585 39.3475 47.5585C39.9515 47.5585 40.3729 47.5709 40.6251 47.5934L40.581 47.6879C40.0769 48.709 39.7906 49.8239 39.7402 50.9618C39.7402 51.0193 39.7402 51.0726 39.7402 51.1229C39.7124 51.2491 39.7422 51.3812 39.8215 51.4832C39.9008 51.5851 40.0213 51.6465 40.1504 51.6505C40.38 51.5815 40.5312 51.3623 40.5144 51.1229C40.5308 51.048 40.5441 50.9649 40.5564 50.8746C40.6493 49.9395 41.0048 49.05 41.5817 48.3088C41.9963 47.6851 42.68 47.2931 43.4273 47.2506C44.7635 47.4946 46.0138 48.0805 47.0569 48.9512L49.8242 50.8664C49.8967 50.9184 50.0146 51.0042 50.178 51.124C50.6428 51.4661 51.4699 52.0897 52.6592 52.9949C53.9598 54.1539 55.5944 54.8698 57.3275 55.0394C58.4024 55.013 59.4539 54.7204 60.3881 54.1875C61.4496 53.6203 61.9691 53.0774 61.9465 52.5587C61.9605 52.475 61.9341 52.3896 61.8753 52.3283C61.8166 52.2671 61.7323 52.2372 61.6482 52.2478ZM14.7789 34.1364H9.7887L9.34269 34.1159C8.83413 34.1159 8.57986 33.9301 8.57986 33.5586C8.58059 33.5379 8.58265 33.5174 8.58601 33.497C8.63307 33.248 8.70344 33.0041 8.7962 32.7683L12.0188 23.4986C12.0267 23.3241 12.1277 23.1673 12.2833 23.0881C12.5358 23.2364 12.6971 23.5016 12.7129 23.7942L12.8452 24.2437L15.4392 32.7211L15.5223 33.107C15.5547 33.2348 15.58 33.3643 15.5981 33.4949C15.6017 33.529 15.6034 33.5633 15.6033 33.5976C15.6043 33.9578 15.3316 34.1364 14.7789 34.1364ZM40.175 33.497C40.1066 32.7081 40.0724 31.8905 40.0724 31.0441C39.9329 27.9318 40.7178 24.8479 42.3281 22.1819C43.5363 20.0804 45.7717 18.7827 48.194 18.7765C51.0464 18.7765 53.4692 20.3341 55.4624 23.4494C57.3266 26.4746 58.3496 29.9434 58.4256 33.497C58.4461 33.926 58.4553 34.3611 58.4553 34.8035C58.5975 37.8697 57.8159 40.9079 56.212 43.5241C54.9743 45.5984 52.7342 46.8643 50.3205 46.8535C47.78 46.7667 45.4177 45.5251 43.9041 43.481C41.6404 40.6298 40.3352 37.1353 40.175 33.497ZM80.3028 47.2034C80.3048 46.9244 80.087 46.6933 79.8086 46.679C79.0287 46.5716 78.3021 46.222 77.7313 45.6794C77.1423 44.672 76.7085 43.5814 76.4445 42.4444L76.0785 41.2826L73.7356 33.497L68.9618 17.6384C68.956 17.36 68.7813 17.1132 68.5209 17.0154C68.2526 17.1212 68.0691 17.372 68.0492 17.6599L62.5607 33.497L59.5545 42.1704L59.0746 43.5877C58.8306 44.2503 58.5215 44.887 58.1518 45.4885C57.9509 45.908 57.6433 46.2672 57.2598 46.5302L56.6446 46.7662C56.468 46.8379 56.3563 47.014 56.3668 47.2045C56.3668 47.2168 56.3668 47.2281 56.3668 47.2404C56.3544 47.3588 56.3986 47.4762 56.486 47.557C56.5734 47.6378 56.6938 47.6726 56.8107 47.6509C56.8651 47.6509 57.1727 47.6037 57.7335 47.5093C57.9793 47.4823 58.2266 47.4707 58.4738 47.4744C59.1659 47.4744 59.7729 47.4887 60.3009 47.5185L61.8809 47.6294C62.1352 47.6437 62.3198 47.6519 62.4407 47.6519C62.7596 47.6519 62.9144 47.5298 62.9021 47.2855C62.9018 47.2604 62.8994 47.2353 62.895 47.2106C62.834 46.9731 62.6329 46.7979 62.3895 46.7703C61.8163 46.6584 61.2845 46.3919 60.8515 45.9996C60.5558 45.5745 60.4183 45.0592 60.4629 44.5432C60.55 43.4411 60.7994 42.3579 61.2032 41.3288L62.2982 38.1801C62.4523 37.5639 62.7212 36.9824 63.0908 36.4661C63.5626 36.2365 64.0903 36.1471 64.6113 36.2085H70.5941C70.9781 36.1604 71.3678 36.2238 71.7168 36.3912C71.9795 36.8087 72.1643 37.2705 72.2623 37.7541L73.0989 40.5837C73.6088 42.0499 73.9484 43.5699 74.1109 45.1139C74.2359 45.7392 73.8823 46.3613 73.2814 46.5733L72.7688 46.7231C72.5351 46.7511 72.359 46.9494 72.3586 47.185V47.2065C72.3417 47.3255 72.3807 47.4456 72.4644 47.5317C72.5481 47.6179 72.6669 47.6604 72.7862 47.6468C72.9598 47.6364 73.1317 47.6068 73.2988 47.5585C74.2507 47.4372 75.2108 47.3929 76.1697 47.4261C77.6329 47.4261 78.652 47.4569 79.2231 47.5206C79.542 47.5462 79.7522 47.5596 79.8516 47.5596C79.9607 47.5839 80.075 47.5588 80.1638 47.4909C80.2526 47.423 80.3068 47.3193 80.312 47.2075L80.3028 47.2034ZM70.1316 34.1364H65.1384L64.6934 34.1159C64.1862 34.1159 63.9322 33.9301 63.9316 33.5586C63.9318 33.5383 63.9335 33.518 63.9367 33.498C63.9837 33.2489 64.0545 33.0049 64.1479 32.7693L67.3705 23.4996C67.3789 23.3255 67.4793 23.1691 67.634 23.0891C67.8869 23.2369 68.0481 23.5025 68.0626 23.7952L68.1958 24.2447L70.7889 32.7221L70.873 33.108C70.9051 33.2358 70.9301 33.3653 70.9478 33.496C70.9526 33.53 70.9553 33.5642 70.956 33.5986C70.9581 33.9571 70.6826 34.1364 70.1316 34.1364Z" fill="black"/>
</svg>
