<svg width="145" height="72" viewBox="0 0 145 72" fill="none" xmlns="http://www.w3.org/2000/svg">
<path d="M40.0405 51.9333C39.9367 54.0079 39.7811 57.0161 39.6774 59.0908C34.5945 59.1426 29.5117 59.6094 24.5325 60.6468C24.4288 57.846 24.3769 54.1116 24.2732 51.3109C29.5635 50.8441 34.802 51.1553 40.0405 51.9333Z" fill="black"/>
<path d="M3.99341 27.2449C3.99341 27.2449 6.43111 35.6472 6.69044 42.9084L16.2856 41.6637L14.5741 26.5188L3.99341 27.2449Z" fill="black"/>
<path d="M12.5514 55.045C21.5761 51.7774 29.2523 51.0513 37.3434 52.5035C38.4325 52.711 38.8993 52.6591 40.0404 52.8147C41.4408 53.0222 42.5818 53.2815 44.0859 53.5409C44.0859 53.5409 51.4509 22.7325 52.2289 19.4649C52.2289 19.4649 42.9449 15.6787 33.9202 15.8862C27.4888 16.0418 9.02453 32.0683 9.02453 32.0683L7.31295 32.8463L6.27563 33.6762L9.02453 32.6907L13.4331 39.5889L12.5514 55.045Z" fill="black"/>
<path d="M32.9347 11.8923C33.0903 13.0334 33.2977 14.9524 33.4533 16.1453C28.3186 16.0416 23.3395 17.3383 18.3603 18.5312C18.2566 17.2864 17.9973 14.6931 17.8936 13.4483C18.6197 13.2927 19.3458 13.1371 20.0719 13.0334C23.0283 12.5147 26.0365 12.2035 29.0447 11.9961L32.9347 11.8923Z" fill="black"/>
<path d="M47.8203 37.9811C48.8058 33.6244 49.7912 29.3195 50.7767 25.0146H51.0879C52.4364 29.0083 53.1106 33.3132 53.2144 37.5662C51.5547 37.7218 49.7394 37.8255 48.1315 37.9811H47.8203Z" fill="black"/>
<path d="M9.02444 32.0166C9.18004 31.9647 9.23191 31.9128 9.33564 31.861C15.8189 28.6453 22.7171 26.9856 29.9264 26.6744C32.8309 26.5706 35.6836 26.2076 38.5362 25.4814C42.478 24.3923 46.2123 22.7844 49.5836 20.5023C49.9986 20.1911 50.4135 19.8281 50.621 19.3613C50.7247 19.1538 50.8284 18.8945 50.8284 18.8945C49.9467 18.5833 49.065 18.2721 48.1833 18.0127C44.2414 16.7161 39.8328 15.9381 35.6836 15.7306C31.638 15.4713 27.6443 15.7306 23.7025 16.3012C20.02 16.8198 16.3894 17.7016 12.8625 18.8426C11.6696 19.2057 10.5286 19.6206 9.33564 20.0355C9.07631 24.0292 8.97258 28.0229 9.02444 32.0166Z" fill="white"/>
<path d="M12.5515 55.0451C12.2922 54.4227 12.0848 53.8521 11.8773 53.2297C11.0474 50.8439 10.4769 48.3543 10.1138 45.8648C9.80265 43.4789 9.59519 41.0931 9.33586 38.7073C9.33586 38.4998 9.07653 33.5207 9.07653 33.5207L9.02466 32.6908C10.7881 32.1203 12.8627 31.6016 14.7299 31.2904C17.0639 30.8755 19.4497 30.5643 21.8356 30.5125C23.3397 30.5125 24.74 30.8755 26.0886 31.5498C27.3333 32.224 28.2151 33.2095 28.4225 34.6617C28.5781 35.7509 28.3707 36.8401 27.9557 37.8774C27.2296 39.7965 26.1404 41.508 24.9994 43.2196C22.5098 46.8502 19.3979 49.9103 15.9747 52.6074C14.9374 53.3853 13.9001 54.1633 12.8627 54.9413C12.759 54.9413 12.6553 54.9932 12.5515 55.0451Z" fill="white"/>
<path d="M40.0403 52.8148C40.4033 52.348 40.7664 51.8812 41.1294 51.4144C41.9074 50.3771 42.6336 49.3398 43.1522 48.095C43.7227 46.6946 43.7227 45.2424 43.1003 43.842C42.6854 42.9084 42.0112 42.1823 41.0776 41.7673C40.0403 41.3005 39.0029 40.9375 37.9656 40.5225C36.9802 40.1076 35.9947 39.6927 35.0093 39.2259C34.6462 39.0703 34.335 38.811 34.0757 38.5516C33.0902 37.6699 32.779 36.5807 33.1939 35.2841C33.5051 34.2986 34.0757 33.4688 34.6981 32.6908C36.0466 31.0311 37.7063 29.6307 39.4179 28.334C42.9966 25.637 46.8347 23.4068 50.7765 21.3321C51.0877 21.1765 51.4508 21.0209 51.8657 20.8135C49.7911 31.8609 46.9903 42.6491 44.0858 53.4372C42.7373 53.2816 41.4406 53.0222 40.0403 52.8148Z" fill="white"/>
<path d="M16.4414 53.8C16.4933 53.7481 16.7007 53.6444 16.7526 53.6444C20.6426 51.6216 24.0657 48.8727 27.0739 45.7089C28.0594 44.6716 29.0448 43.6343 30.0303 42.5451C30.4452 42.0783 30.912 41.819 31.5344 41.7671C33.9721 41.6634 36.1505 42.2858 37.9139 43.9973C38.7956 44.879 39.3143 45.9164 39.418 47.1612C39.4699 47.6798 39.3143 48.1985 39.2106 48.6653C38.8475 49.9619 38.1732 51.103 37.499 52.244C37.4471 52.2959 37.3953 52.4515 37.3953 52.4515C35.7356 52.3477 33.9202 52.0884 32.2605 51.9847C30.0822 51.881 27.8519 51.881 25.6736 52.0366C23.184 52.1922 21.0056 52.5552 18.6198 53.1776C18.1011 53.2813 17.375 53.4888 16.8563 53.6444C16.8045 53.6444 16.7007 53.6963 16.6489 53.6963C16.597 53.7481 16.4414 53.8 16.4414 53.8Z" fill="white"/>
<path d="M30.2377 26.3111C31.0157 26.3111 31.3787 25.8962 31.275 25.222C31.1194 23.9772 29.6153 22.5249 28.2668 22.3175C27.3851 22.1619 26.8664 22.6805 27.1257 23.5623C27.5407 24.9626 28.5261 25.8444 29.8746 26.2593C30.0302 26.3111 30.1858 26.3111 30.2377 26.3111Z" fill="black"/>
<path d="M6.06836 40.678C6.22396 38.6034 5.96463 36.5806 2.43774 36.5287L7.57248 33.2612C7.57248 33.2612 11.618 33.0018 11.3587 37.0474L6.06836 40.678Z" fill="black"/>
<path d="M5.75712 30.4604L0 31.7571C3.26756 33.1575 2.4377 36.4769 2.4377 36.4769L7.57243 33.2093V33.1575C7.67617 32.6907 7.6243 32.2239 7.41684 31.809C6.89818 30.7716 5.75712 30.4604 5.75712 30.4604Z" fill="black"/>
<path opacity="0.8" d="M2.48961 36.1139C2.48961 36.2695 2.43774 36.4251 2.43774 36.5288L7.57248 33.2613C7.67621 32.8463 7.67621 32.4314 7.52061 32.0684L2.48961 36.1139Z" fill="white"/>
<path d="M59.7494 16.6122L55.8076 17.0271L58.2453 13.967C58.2972 13.8633 58.1934 13.7595 58.0897 13.8114L54.8221 15.9379L55.652 11.9961C55.652 11.8924 55.4964 11.8405 55.4445 11.9442L53.5255 15.2118L52.3326 11.4256C52.2807 11.3218 52.1251 11.3218 52.1251 11.4774V15.7823L49.3243 12.8259C49.2206 12.7222 49.1169 12.8259 49.1687 12.9297L51.0359 16.5603L47.146 15.3155C47.0422 15.2636 46.9385 15.4192 47.0422 15.523L51.0359 18.3237C51.3471 16.9234 52.6956 16.2491 53.7329 16.5603C54.2516 16.7159 54.6665 17.079 54.874 17.5458C55.2889 18.3237 55.2889 19.1017 54.7703 19.8797L59.6975 20.1391C59.8013 20.1391 59.8531 19.9835 59.7494 19.9316L56.1706 18.4275L59.8013 16.8196C59.905 16.7678 59.905 16.6122 59.7494 16.6122Z" fill="black"/>
<path d="M75.4048 23.4487C75.4048 23.9673 75.3011 24.4341 75.0936 24.7972C74.8862 25.1602 74.575 25.4714 74.2119 25.7308C73.8488 25.9901 73.4339 26.1976 72.9153 26.3013C72.4485 26.405 71.9298 26.5088 71.3593 26.5088H65.5503V14.5796H72.1891C72.6041 14.5796 72.9671 14.6833 73.3302 14.8389C73.6414 14.9945 73.9526 15.2538 74.16 15.5132C74.4194 15.7725 74.575 16.1356 74.6787 16.4986C74.7824 16.8617 74.8862 17.2248 74.8862 17.5878C74.8862 18.1583 74.7306 18.677 74.4712 19.1957C74.2119 19.7143 73.7451 20.0774 73.1746 20.3367C73.8488 20.5442 74.4194 20.9072 74.7824 21.4259C75.1974 21.9446 75.4048 22.6188 75.4048 23.4487ZM68.3511 16.9136V19.3513H71.0481C71.3593 19.3513 71.6186 19.2475 71.8261 19.0401C72.0854 18.8326 72.1891 18.5214 72.1891 18.1065C72.1891 17.6915 72.0854 17.4322 71.8779 17.2248C71.6705 17.0173 71.4111 16.9136 71.1518 16.9136H68.3511ZM72.6041 22.8781C72.6041 22.5151 72.5003 22.2039 72.2929 21.9446C72.0854 21.6852 71.8261 21.5815 71.5149 21.5815H68.3511V24.1748H71.4111C71.7742 24.1748 72.0854 24.0711 72.2929 23.8117C72.5003 23.5524 72.6041 23.2412 72.6041 22.8781Z" fill="black"/>
<path d="M82.3029 19.9733C81.6806 19.9733 81.0582 20.0771 80.5395 20.2845C80.0208 20.492 79.6578 20.8032 79.3984 21.1663V26.4566H76.7014V17.6912H79.1391V19.4547C79.4503 18.8842 79.8134 18.4174 80.2802 18.0543C80.747 17.7431 81.2656 17.5356 81.7843 17.5356C81.888 17.5356 81.9917 17.5356 82.0436 17.5356C82.0955 17.5356 82.1473 17.5356 82.1992 17.5356V19.9733H82.3029Z" fill="black"/>
<path d="M83.0291 16.706V14.2683H85.7261V16.706H83.0291ZM83.0291 26.4568V17.6915H85.7261V26.4568H83.0291Z" fill="black"/>
<path d="M90.8091 26.664C90.083 26.664 89.305 26.5603 88.5788 26.301C87.8527 26.0416 87.2303 25.7304 86.7117 25.2636L87.6453 23.6039C88.1639 23.967 88.6826 24.2782 89.2012 24.4338C89.7199 24.6413 90.1867 24.745 90.6535 24.745C91.0165 24.745 91.2759 24.6931 91.4315 24.5375C91.6389 24.4338 91.6908 24.2263 91.6908 24.0189C91.6908 23.7595 91.5871 23.6039 91.3277 23.4483C91.0684 23.2927 90.6535 23.1371 90.083 22.9815C89.5124 22.8259 88.9938 22.6703 88.5788 22.5148C88.1639 22.3592 87.8527 22.2036 87.5934 21.9961C87.3341 21.7886 87.1266 21.5812 87.0229 21.3218C86.9191 21.0625 86.8673 20.8032 86.8673 20.4401C86.8673 19.9733 86.971 19.6103 87.1266 19.1953C87.2822 18.8323 87.5415 18.5211 87.8527 18.2617C88.1639 18.0024 88.527 17.7949 88.9419 17.6393C89.3568 17.4838 89.8236 17.4319 90.3423 17.4319C91.0165 17.4319 91.6389 17.5356 92.2095 17.6912C92.78 17.8468 93.3505 18.2099 93.8692 18.6767L92.8319 20.2845C92.3132 19.9215 91.8983 19.6621 91.4833 19.5065C91.0684 19.3509 90.7054 19.2472 90.3423 19.2472C90.0311 19.2472 89.8236 19.2991 89.6162 19.4028C89.4087 19.5065 89.305 19.714 89.305 19.9733C89.305 20.2326 89.4087 20.3882 89.6162 20.5438C89.8236 20.6476 90.2386 20.8032 90.8091 20.9588C91.4315 21.1144 91.9501 21.27 92.4169 21.4774C92.8319 21.633 93.1949 21.8405 93.4542 22.048C93.7136 22.2554 93.921 22.5148 94.0248 22.7741C94.1285 23.0334 94.2322 23.3446 94.2322 23.7077C94.2322 24.5894 93.921 25.2636 93.2468 25.7823C92.78 26.4047 91.8983 26.664 90.8091 26.664Z" fill="black"/>
<path d="M100.715 26.6643C100.041 26.6643 99.4704 26.5087 98.9517 26.2494C98.433 25.99 98.07 25.5751 97.7588 25.0564V26.5087H95.4248V14.2683H98.1218V19.1437C98.433 18.6251 98.7961 18.262 99.2629 17.9508C99.7297 17.6915 100.3 17.5359 100.974 17.5359C101.545 17.5359 102.064 17.6396 102.53 17.8989C102.997 18.1583 103.412 18.4695 103.723 18.8844C104.035 19.2993 104.346 19.7661 104.501 20.3366C104.709 20.9072 104.761 21.4777 104.761 22.1519C104.761 22.7743 104.657 23.3967 104.449 23.9154C104.242 24.4859 103.931 24.9527 103.568 25.3676C103.205 25.7826 102.79 26.0938 102.271 26.3012C101.856 26.5087 101.338 26.6643 100.715 26.6643ZM99.989 24.3822C100.3 24.3822 100.611 24.3303 100.819 24.2266C101.078 24.1228 101.286 23.9672 101.493 23.7598C101.701 23.5523 101.804 23.3449 101.908 23.0337C102.012 22.7743 102.064 22.4631 102.064 22.1519C102.064 21.8407 102.012 21.5295 101.908 21.2702C101.804 21.0109 101.649 20.7516 101.493 20.5441C101.338 20.3366 101.13 20.181 100.871 20.0254C100.611 19.9217 100.352 19.818 100.093 19.818C99.6778 19.818 99.2629 19.9736 98.9517 20.2329C98.5886 20.5441 98.3293 20.9072 98.1218 21.3221V23.1893C98.2774 23.5523 98.5368 23.8635 98.8998 24.071C99.2629 24.2784 99.626 24.3822 99.989 24.3822Z" fill="black"/>
<path d="M108.443 26.6643C108.028 26.6643 107.614 26.6125 107.25 26.4569C106.887 26.3013 106.576 26.1457 106.265 25.8863C106.006 25.627 105.798 25.3158 105.643 25.0046C105.487 24.6416 105.383 24.2785 105.383 23.9154C105.383 23.5005 105.487 23.0856 105.643 22.7225C105.85 22.3595 106.109 22.0483 106.421 21.7889C106.732 21.5296 107.147 21.3221 107.614 21.1665C108.08 21.0109 108.599 20.9591 109.118 20.9591C109.481 20.9591 109.844 21.0109 110.207 21.0628C110.57 21.1147 110.829 21.2184 111.089 21.3221V20.9072C111.089 19.8699 110.518 19.4031 109.325 19.4031C108.858 19.4031 108.392 19.5068 107.977 19.6624C107.562 19.818 107.095 20.0773 106.628 20.3885L105.85 18.7288C106.421 18.3658 107.043 18.0546 107.665 17.899C108.288 17.6915 108.962 17.6396 109.636 17.6396C110.985 17.6396 111.97 17.9508 112.696 18.5732C113.423 19.1956 113.786 20.1292 113.786 21.3221V23.6042C113.786 23.8636 113.837 24.071 113.889 24.1748C113.993 24.2785 114.097 24.3304 114.356 24.3822V26.6643C114.097 26.7162 113.889 26.7681 113.734 26.7681C113.526 26.7681 113.371 26.7681 113.215 26.7681C112.696 26.7681 112.333 26.6643 112.074 26.4569C111.815 26.2494 111.659 25.9901 111.607 25.627L111.555 25.2121C111.14 25.7307 110.674 26.0938 110.155 26.3531C109.584 26.5087 109.014 26.6643 108.443 26.6643ZM109.221 24.7453C109.533 24.7453 109.792 24.6934 110.051 24.5897C110.311 24.486 110.57 24.3304 110.725 24.1748C110.985 23.9673 111.089 23.7598 111.089 23.5524V22.7225C110.829 22.6188 110.622 22.5669 110.311 22.515C110.051 22.4632 109.792 22.4632 109.533 22.4632C109.066 22.4632 108.651 22.5669 108.34 22.7744C108.028 22.9818 107.873 23.293 107.873 23.6561C107.873 23.9673 107.977 24.2266 108.236 24.4341C108.495 24.6416 108.806 24.7453 109.221 24.7453Z" fill="black"/>
<path d="M124.003 26.4566H121.306V21.5293C121.306 20.9588 121.203 20.5439 120.995 20.2845C120.788 20.0252 120.476 19.8696 120.113 19.8696C119.906 19.8696 119.75 19.9215 119.543 19.9733C119.335 20.0771 119.18 20.1808 118.972 20.2845C118.817 20.4401 118.609 20.5957 118.506 20.8032C118.35 21.0107 118.246 21.2181 118.194 21.4256V26.4566H115.497V17.6912H117.883V19.1435C118.194 18.6248 118.661 18.2099 119.232 17.9506C119.802 17.6912 120.528 17.5356 121.254 17.5356C121.825 17.5356 122.292 17.6394 122.603 17.8468C122.966 18.0543 123.225 18.3136 123.381 18.6248C123.588 18.936 123.692 19.2991 123.744 19.714C123.796 20.1289 123.848 20.492 123.848 20.8551V26.4566H124.003Z" fill="black"/>
<path d="M129.76 26.6644C129.034 26.6644 128.36 26.5607 127.789 26.3013C127.219 26.042 126.7 25.7308 126.285 25.3159C125.87 24.901 125.559 24.4342 125.351 23.8636C125.144 23.345 125.04 22.7745 125.04 22.1521C125.04 21.5297 125.144 20.9073 125.351 20.3368C125.559 19.7662 125.87 19.2994 126.285 18.8326C126.7 18.4177 127.167 18.0547 127.789 17.8472C128.36 17.5879 129.034 17.4841 129.812 17.4841C130.538 17.4841 131.212 17.5879 131.783 17.8472C132.353 18.1065 132.872 18.4177 133.235 18.8326C133.65 19.2476 133.961 19.7144 134.169 20.2849C134.376 20.8554 134.48 21.4259 134.48 21.9965C134.48 22.1521 134.48 22.3077 134.48 22.4633C134.48 22.6189 134.428 22.7226 134.428 22.8782H127.945C127.997 23.4487 128.204 23.9155 128.567 24.2267C128.93 24.5379 129.397 24.6935 129.864 24.6935C130.279 24.6935 130.642 24.5898 131.005 24.4342C131.368 24.2267 131.627 23.9674 131.731 23.6562L134.013 24.2786C133.65 24.9528 133.131 25.5234 132.405 25.9901C131.679 26.4051 130.797 26.6644 129.76 26.6644ZM131.627 21.2703C131.575 20.6998 131.368 20.2849 131.005 19.9737C130.642 19.6625 130.227 19.5069 129.708 19.5069C129.19 19.5069 128.775 19.6625 128.412 20.0256C128.049 20.3368 127.893 20.8036 127.841 21.3222H131.627V21.2703Z" fill="black"/>
<path d="M65.0833 35.9481C65.0833 35.222 65.2389 34.5477 65.4982 33.8216C65.7575 33.0955 66.1724 32.4731 66.6911 31.9026C67.2098 31.3321 67.8321 30.9171 68.5583 30.5541C69.2844 30.191 70.1143 30.0354 71.0478 30.0354C72.1889 30.0354 73.1225 30.2947 73.9523 30.7615C74.7822 31.2283 75.4046 31.8507 75.7676 32.6287L73.6411 34.0809C73.4855 33.7698 73.3299 33.5104 73.1225 33.303C72.915 33.0955 72.7075 32.9399 72.4482 32.7843C72.1889 32.6806 71.9296 32.5768 71.6702 32.525C71.4109 32.4731 71.1516 32.4731 70.8922 32.4731C70.3736 32.4731 69.9068 32.5768 69.5437 32.7843C69.1288 32.9918 68.8176 33.2511 68.5583 33.6142C68.2989 33.9253 68.0915 34.3403 67.9877 34.7552C67.884 35.1701 67.7803 35.5851 67.7803 36.0519C67.7803 36.5186 67.8321 36.9854 67.9877 37.4004C68.1433 37.8153 68.3508 38.2302 68.6101 38.5414C68.8695 38.8526 69.2325 39.1638 69.5956 39.3194C69.9587 39.5269 70.4254 39.6306 70.8922 39.6306C71.1516 39.6306 71.4109 39.5787 71.6702 39.5269C71.9296 39.475 72.1889 39.3713 72.4482 39.2675C72.7075 39.1638 72.915 38.9564 73.1225 38.7489C73.3299 38.5414 73.4855 38.2821 73.5893 37.9709L75.8195 39.2675C75.6639 39.6825 75.3527 40.0974 75.0415 40.4605C74.6785 40.8235 74.2635 41.0829 73.8486 41.3422C73.3818 41.6015 72.915 41.7571 72.3963 41.8608C71.8777 41.9646 71.359 42.0683 70.8922 42.0683C70.0105 42.0683 69.2325 41.9127 68.5064 41.5496C67.7803 41.1866 67.1579 40.7198 66.6392 40.1493C66.1206 39.5787 65.7056 38.9045 65.4463 38.1784C65.187 37.4522 65.0833 36.6742 65.0833 35.9481Z" fill="black"/>
<path d="M79.45 42.1202C79.0351 42.1202 78.6201 42.0684 78.2571 41.9128C77.894 41.7572 77.5828 41.6016 77.2716 41.3423C77.0123 41.0829 76.8048 40.7717 76.6492 40.4605C76.4936 40.0975 76.3899 39.7344 76.3899 39.3713C76.3899 38.9564 76.4936 38.5415 76.6492 38.1784C76.8567 37.8154 77.116 37.5042 77.4272 37.2448C77.7384 36.9855 78.1533 36.7781 78.6201 36.6225C79.0869 36.4669 79.6056 36.415 80.1242 36.415C80.4873 36.415 80.8504 36.4669 81.2134 36.5187C81.5765 36.5706 81.8358 36.6743 82.0952 36.778V36.3631C82.0952 35.3258 81.5246 34.859 80.3317 34.859C79.8649 34.859 79.3981 34.9627 78.9832 35.1183C78.5683 35.2739 78.1015 35.5333 77.6347 35.8445L76.8567 34.1329C77.4272 33.7698 78.0496 33.4586 78.672 33.303C79.2944 33.0956 79.9686 33.0437 80.6429 33.0437C81.9914 33.0437 82.9769 33.3549 83.703 33.9773C84.4291 34.5997 84.7922 35.5333 84.7922 36.7262V39.0083C84.7922 39.2676 84.844 39.4751 84.8959 39.5788C84.9996 39.6825 85.1034 39.7344 85.3627 39.7863V42.0684C85.1034 42.1202 84.8959 42.1721 84.7403 42.1721C84.5328 42.1721 84.3772 42.1721 84.2217 42.1721C83.703 42.1721 83.3399 42.0684 83.0806 41.8609C82.8213 41.6535 82.6657 41.3941 82.6138 41.0311L82.5619 40.6161C82.147 41.1348 81.6802 41.4979 81.1616 41.7572C80.6429 42.0165 80.0724 42.1202 79.45 42.1202ZM80.2798 40.2012C80.591 40.2012 80.8504 40.1493 81.1097 40.0456C81.369 39.9419 81.6284 39.7863 81.784 39.6307C82.0433 39.4232 82.147 39.2158 82.147 39.0083V38.1784C81.8877 38.0747 81.6802 38.0228 81.369 37.971C81.1097 37.9191 80.8504 37.9191 80.591 37.9191C80.1242 37.9191 79.7093 38.0228 79.3981 38.2303C79.0869 38.4378 78.9313 38.749 78.9313 39.112C78.9313 39.4232 79.0351 39.6825 79.2944 39.89C79.5537 40.0975 79.8649 40.2012 80.2798 40.2012Z" fill="black"/>
<path d="M92.0536 41.4978C91.6906 41.6534 91.2756 41.809 90.8088 41.9127C90.342 42.0683 89.8752 42.1201 89.3566 42.1201C89.0454 42.1201 88.6823 42.0683 88.423 42.0164C88.1118 41.9127 87.8525 41.809 87.645 41.6015C87.4375 41.394 87.2301 41.1866 87.1264 40.8754C87.0226 40.5642 86.9189 40.2011 86.9189 39.7862V35.222H85.7778V33.1992H86.9189V30.3984H89.6159V33.1992H91.4312V35.222H89.6159V38.9045C89.6159 39.2157 89.6678 39.4231 89.8234 39.5269C89.979 39.6306 90.1346 39.7343 90.3939 39.7343C90.6014 39.7343 90.8088 39.6824 91.0163 39.6306C91.2238 39.5787 91.4312 39.475 91.5868 39.4231L92.0536 41.4978Z" fill="black"/>
<path d="M101.286 41.9645H98.6407V37.0372C98.6407 36.4667 98.5369 36.0518 98.3295 35.7924C98.122 35.5331 97.8108 35.3775 97.3959 35.3775C97.2403 35.3775 97.0847 35.4294 96.8772 35.4812C96.6698 35.5331 96.5142 35.6368 96.3586 35.7924C96.203 35.948 96.0474 36.1036 95.8918 36.3111C95.7362 36.5186 95.6324 36.726 95.5806 36.9335V41.9645H92.8835V29.7241H95.5806V34.6514C95.8918 34.1327 96.3067 33.7178 96.8772 33.4585C97.3959 33.1991 97.9664 33.0435 98.6407 33.0435C99.2112 33.0435 99.7299 33.1473 100.093 33.3547C100.456 33.5622 100.715 33.8215 100.923 34.1327C101.13 34.4439 101.234 34.807 101.338 35.2219C101.39 35.6368 101.441 35.9999 101.441 36.363V41.9645H101.286Z" fill="black"/>
<path d="M107.043 42.1201C106.317 42.1201 105.643 42.0164 105.02 41.7571C104.45 41.4977 103.931 41.1866 103.516 40.7716C103.101 40.3567 102.79 39.8899 102.583 39.3194C102.375 38.7489 102.271 38.1783 102.271 37.6078C102.271 37.0373 102.375 36.4149 102.583 35.8962C102.79 35.3257 103.101 34.8589 103.516 34.444C103.931 34.029 104.398 33.666 105.02 33.4585C105.591 33.1992 106.265 33.0955 107.043 33.0955C107.769 33.0955 108.444 33.1992 109.014 33.4585C109.585 33.7178 110.103 34.029 110.466 34.444C110.829 34.8589 111.192 35.3257 111.4 35.8962C111.607 36.4667 111.711 37.0373 111.711 37.6078C111.711 38.1783 111.607 38.8007 111.4 39.3194C111.192 39.8899 110.881 40.3567 110.466 40.7716C110.051 41.1866 109.585 41.4977 108.962 41.7571C108.444 42.0164 107.821 42.1201 107.043 42.1201ZM105.072 37.6078C105.072 38.2821 105.28 38.8526 105.643 39.2675C106.006 39.6824 106.473 39.8899 107.043 39.8899C107.302 39.8899 107.562 39.838 107.821 39.7343C108.08 39.6306 108.236 39.475 108.444 39.2675C108.599 39.06 108.755 38.8007 108.858 38.5414C108.962 38.2821 109.014 37.9709 109.014 37.6078C109.014 36.9335 108.807 36.363 108.444 35.9481C108.08 35.5332 107.614 35.3257 107.043 35.3257C106.784 35.3257 106.524 35.3776 106.265 35.4813C106.006 35.585 105.798 35.7406 105.643 35.9481C105.487 36.1556 105.332 36.4149 105.228 36.6742C105.124 36.9335 105.072 37.2447 105.072 37.6078Z" fill="black"/>
<path d="M112.8 29.7241H115.497V38.8007C115.497 39.4749 115.756 39.7861 116.327 39.7861C116.483 39.7861 116.586 39.7861 116.794 39.7343C116.949 39.6824 117.105 39.6305 117.261 39.5787L117.624 41.6014C117.312 41.757 116.897 41.8608 116.483 41.9645C116.068 42.0682 115.653 42.1201 115.238 42.1201C114.46 42.1201 113.889 41.9126 113.474 41.4977C113.059 41.0828 112.852 40.5122 112.852 39.7343V29.7241H112.8Z" fill="black"/>
<path d="M118.194 32.1618V29.7241H120.891V32.1618H118.194ZM118.194 41.9645V33.1991H120.891V41.9645H118.194Z" fill="black"/>
<path d="M122.032 37.556C122.032 36.9336 122.136 36.3631 122.343 35.8445C122.551 35.2739 122.862 34.8071 123.277 34.3922C123.692 33.9773 124.158 33.6661 124.781 33.4068C125.351 33.1474 126.026 33.0437 126.804 33.0437C127.841 33.0437 128.671 33.2512 129.345 33.6661C130.019 34.081 130.538 34.6515 130.901 35.3258L128.308 36.1038C127.945 35.5333 127.478 35.2739 126.804 35.2739C126.233 35.2739 125.766 35.4814 125.403 35.8963C125.04 36.3113 124.833 36.8818 124.833 37.556C124.833 37.9191 124.885 38.2303 124.988 38.4896C125.092 38.749 125.248 39.0083 125.403 39.2158C125.559 39.4232 125.766 39.5788 126.026 39.6825C126.285 39.7863 126.544 39.8381 126.804 39.8381C127.115 39.8381 127.426 39.7344 127.737 39.5788C128.048 39.4232 128.204 39.2158 128.36 38.9564L130.953 39.7344C130.642 40.4087 130.123 40.9792 129.397 41.3941C128.671 41.8091 127.841 42.0684 126.804 42.0684C126.078 42.0684 125.403 41.9646 124.833 41.7053C124.262 41.446 123.744 41.1348 123.329 40.7199C122.914 40.3049 122.602 39.8381 122.395 39.2676C122.136 38.749 122.032 38.1784 122.032 37.556Z" fill="black"/>
<path d="M73.9522 55.0348V57.4207H65.6018V45.5952H73.7966V47.981H68.3507V50.315H73.0186V52.5453H68.3507V55.0867H73.9522V55.0348Z" fill="black"/>
<path d="M78.776 57.6284C78.1536 57.6284 77.6349 57.5246 77.1163 57.2653C76.5976 57.0578 76.1827 56.6948 75.8196 56.2798C75.4566 55.8649 75.1454 55.3981 74.9379 54.8276C74.7304 54.2571 74.6267 53.6866 74.6267 53.0123C74.6267 52.3899 74.7304 51.7675 74.886 51.197C75.0935 50.6265 75.3528 50.1597 75.664 49.7447C76.0271 49.3298 76.442 49.0186 76.9088 48.7593C77.3756 48.5 77.8943 48.3962 78.4648 48.3962C79.0872 48.3962 79.6577 48.5518 80.1245 48.8112C80.6432 49.1223 81.0062 49.4854 81.2656 50.0041V45.1287H83.9626V54.3608C83.9626 54.6201 84.0144 54.8276 84.0663 54.9313C84.17 55.0351 84.2738 55.0869 84.5331 55.1388V57.4209C84.2738 57.4728 84.0663 57.5246 83.9107 57.5246C83.7551 57.5246 83.5477 57.5246 83.3921 57.5246C82.9253 57.5246 82.5622 57.4209 82.251 57.2134C81.9398 57.006 81.7842 56.7466 81.7323 56.3836L81.6805 55.9168C81.3693 56.4873 80.9544 56.8504 80.4357 57.1616C79.9689 57.4728 79.3984 57.6284 78.776 57.6284ZM79.5021 55.3463C79.8652 55.3463 80.2282 55.2425 80.5394 55.0351C80.8506 54.8276 81.1618 54.5164 81.3174 54.1533V52.2862C81.1618 51.8194 80.9025 51.4563 80.4876 51.197C80.1245 50.9377 79.7096 50.7821 79.3465 50.7821C79.0353 50.7821 78.776 50.8339 78.5685 50.9895C78.3092 51.0933 78.1017 51.3007 77.9461 51.5082C77.7905 51.7156 77.6349 51.975 77.5312 52.2343C77.4275 52.4936 77.3756 52.8048 77.3756 53.116C77.3756 53.4272 77.4275 53.7384 77.5312 53.9977C77.6349 54.2571 77.7905 54.5164 77.9461 54.7239C78.1536 54.9313 78.3611 55.0869 78.6204 55.1907C78.9316 55.2944 79.2428 55.3463 79.5021 55.3463Z" fill="black"/>
<path d="M88.4747 57.6281C87.593 57.6281 86.8669 57.3688 86.4001 56.7982C85.9333 56.2277 85.7258 55.3979 85.7258 54.3087V48.6553H88.4229V53.6863C88.4229 54.2049 88.5266 54.6199 88.7341 54.9311C88.9415 55.1904 89.2527 55.346 89.6158 55.346C89.9788 55.346 90.3419 55.2423 90.6531 55.0867C90.9643 54.8792 91.2755 54.568 91.5348 54.1012V48.6553H94.2318V54.4124C94.2318 54.6717 94.2837 54.8792 94.3356 54.9829C94.4393 55.0867 94.543 55.1385 94.8024 55.1904V57.4725C94.543 57.5244 94.3356 57.5762 94.1281 57.5762C93.9725 57.5762 93.7651 57.5762 93.6613 57.5762C92.6759 57.5762 92.1572 57.2132 92.0016 56.4352L91.9497 55.9165C91.5348 56.487 91.068 56.902 90.4456 57.2132C89.8751 57.4725 89.2008 57.6281 88.4747 57.6281Z" fill="black"/>
<path d="M95.4771 53.0641C95.4771 52.4417 95.5808 51.8712 95.7882 51.3525C95.9957 50.782 96.3069 50.3152 96.7218 49.9003C97.1368 49.4853 97.6036 49.1741 98.2259 48.9148C98.7965 48.6555 99.4707 48.5518 100.249 48.5518C101.286 48.5518 102.116 48.7592 102.79 49.1741C103.464 49.5891 103.983 50.1596 104.346 50.8339L101.753 51.6118C101.39 51.0413 100.923 50.782 100.249 50.782C99.6782 50.782 99.2114 50.9895 98.8483 51.4044C98.4853 51.8193 98.2778 52.3898 98.2778 53.0641C98.2778 53.4272 98.3297 53.7384 98.4334 53.9977C98.5371 54.257 98.6927 54.5163 98.8483 54.7238C99.0039 54.9313 99.2114 55.0869 99.4707 55.1906C99.7301 55.2943 99.9894 55.3462 100.249 55.3462C100.56 55.3462 100.871 55.2425 101.182 55.0869C101.494 54.9313 101.649 54.7238 101.805 54.4645L104.398 55.2425C104.087 55.9167 103.568 56.4873 102.842 56.9022C102.116 57.3171 101.286 57.5764 100.249 57.5764C99.5226 57.5764 98.8483 57.4727 98.2778 57.2134C97.7073 56.954 97.1886 56.6428 96.7737 56.2279C96.3588 55.813 96.0476 55.3462 95.8401 54.7757C95.6327 54.257 95.4771 53.6865 95.4771 53.0641Z" fill="black"/>
<path d="M107.925 57.6284C107.51 57.6284 107.095 57.5766 106.732 57.421C106.369 57.2654 106.058 57.1098 105.746 56.8505C105.487 56.5911 105.28 56.2799 105.124 55.9687C104.968 55.6057 104.865 55.2426 104.865 54.8795C104.865 54.4646 104.968 54.0497 105.124 53.6866C105.332 53.3236 105.591 53.0124 105.902 52.753C106.213 52.4937 106.628 52.2862 107.095 52.1306C107.562 51.975 108.08 51.9232 108.599 51.9232C108.962 51.9232 109.325 51.975 109.688 52.0269C110.051 52.0788 110.311 52.1825 110.57 52.2862V51.8713C110.57 50.834 109.999 50.3672 108.807 50.3672C108.34 50.3672 107.873 50.4709 107.458 50.6265C107.043 50.7821 106.576 51.0415 106.11 51.3527L105.332 49.6929C105.902 49.3299 106.524 49.0187 107.147 48.8631C107.769 48.6556 108.443 48.6038 109.118 48.6038C110.466 48.6038 111.452 48.915 112.178 49.5373C112.904 50.1597 113.267 51.0933 113.267 52.2862V54.5683C113.267 54.8277 113.319 55.0351 113.371 55.1389C113.474 55.2426 113.578 55.2945 113.838 55.3463V57.6284C113.578 57.6803 113.371 57.7322 113.215 57.7322C113.008 57.7322 112.852 57.7322 112.697 57.7322C112.178 57.7322 111.815 57.6284 111.555 57.421C111.296 57.2135 111.141 56.9542 111.089 56.5911L111.037 56.1762C110.622 56.6949 110.155 57.0579 109.636 57.3172C109.118 57.4728 108.547 57.6284 107.925 57.6284ZM108.703 55.7094C109.014 55.7094 109.273 55.6575 109.533 55.5538C109.792 55.4501 110.051 55.2945 110.207 55.1389C110.466 54.9314 110.57 54.7239 110.57 54.5165V53.6866C110.311 53.5829 110.103 53.531 109.792 53.4792C109.533 53.4273 109.273 53.4273 109.014 53.4273C108.547 53.4273 108.132 53.531 107.821 53.7385C107.51 53.946 107.354 54.2572 107.354 54.6202C107.354 54.9314 107.458 55.1907 107.717 55.3982C108.029 55.6057 108.34 55.7094 108.703 55.7094Z" fill="black"/>
<path d="M120.528 57.0059C120.165 57.1615 119.75 57.3171 119.283 57.4209C118.816 57.5764 118.35 57.6283 117.831 57.6283C117.52 57.6283 117.157 57.5764 116.897 57.5246C116.586 57.4208 116.327 57.3171 116.119 57.1097C115.912 56.9022 115.704 56.6947 115.601 56.3835C115.497 56.0723 115.393 55.7093 115.393 55.2943V50.7301H114.252V48.6555H115.393V45.8547H118.09V48.6555H119.906V50.6783H118.09V54.3608C118.09 54.672 118.142 54.8794 118.298 54.9831C118.453 55.0869 118.609 55.1906 118.868 55.1906C119.076 55.1906 119.283 55.1387 119.491 55.0869C119.698 55.035 119.906 54.9313 120.061 54.8794L120.528 57.0059Z" fill="black"/>
<path d="M121.306 47.6701V45.2324H124.003V47.6701H121.306ZM121.306 57.4728V48.6556H124.003V57.4728H121.306Z" fill="black"/>
<path d="M129.812 57.6284C129.086 57.6284 128.412 57.5247 127.789 57.2654C127.219 57.006 126.7 56.6949 126.285 56.2799C125.87 55.865 125.559 55.3982 125.351 54.8277C125.144 54.2572 125.04 53.6866 125.04 53.1161C125.04 52.5456 125.144 51.9232 125.351 51.4045C125.559 50.834 125.87 50.3672 126.285 49.9523C126.7 49.5373 127.167 49.1743 127.789 48.9668C128.36 48.7075 129.034 48.6038 129.812 48.6038C130.538 48.6038 131.212 48.7075 131.783 48.9668C132.353 49.2261 132.872 49.5373 133.235 49.9523C133.65 50.3672 133.961 50.834 134.169 51.4045C134.376 51.975 134.48 52.5456 134.48 53.1161C134.48 53.6866 134.376 54.309 134.169 54.8277C133.961 55.3982 133.65 55.865 133.235 56.2799C132.82 56.6949 132.353 57.006 131.731 57.2654C131.212 57.5247 130.538 57.6284 129.812 57.6284ZM127.841 53.0642C127.841 53.7385 128.049 54.309 128.412 54.7239C128.775 55.1389 129.241 55.3463 129.812 55.3463C130.071 55.3463 130.331 55.2945 130.59 55.1907C130.849 55.087 131.005 54.9314 131.212 54.7239C131.368 54.5165 131.524 54.2572 131.627 53.9978C131.731 53.7385 131.783 53.4273 131.783 53.0642C131.783 52.39 131.575 51.8195 131.212 51.4045C130.849 50.9896 130.382 50.7821 129.812 50.7821C129.553 50.7821 129.293 50.834 129.034 50.9377C128.775 51.0415 128.567 51.1971 128.412 51.4045C128.256 51.612 128.1 51.8713 127.997 52.1306C127.893 52.4418 127.841 52.753 127.841 53.0642Z" fill="black"/>
<path d="M144.075 57.4728H141.378V52.5455C141.378 51.975 141.274 51.5601 141.067 51.3008C140.859 51.0414 140.548 50.8858 140.185 50.8858C139.978 50.8858 139.822 50.9377 139.615 50.9896C139.407 51.0933 139.252 51.197 139.044 51.3008C138.889 51.4564 138.681 51.612 138.577 51.8194C138.422 52.0269 138.318 52.2344 138.266 52.4418V57.4728H135.569V48.6556H137.955V50.1078C138.266 49.5892 138.733 49.1743 139.303 48.9149C139.874 48.6556 140.6 48.5 141.326 48.5C141.897 48.5 142.364 48.6037 142.675 48.8112C143.038 49.0187 143.297 49.278 143.453 49.5892C143.66 49.9004 143.764 50.2634 143.816 50.6784C143.868 51.0933 143.92 51.4564 143.92 51.8194V57.4728H144.075Z" fill="black"/>
</svg>
