<svg width="42" height="72" viewBox="0 0 42 72" fill="none" xmlns="http://www.w3.org/2000/svg">
<path d="M6.52101 22.7023H4.72875L4.97315 20.7138H6.86168C7.70597 20.7138 8.13182 21.0841 8.06146 21.6655V21.6877C7.97259 22.3728 7.36529 22.7023 6.52101 22.7023ZM8.08738 24.839V24.8205C8.16515 24.1873 7.71708 23.8133 6.66913 23.8133H4.59174L4.33993 25.8685H6.5173C7.40603 25.8685 8.00592 25.513 8.08738 24.839ZM19.3742 26.0277C19.8526 26.0118 20.3079 25.8177 20.6504 25.4833C20.993 25.1489 21.1982 24.6985 21.2257 24.2206V24.1984C21.3479 23.1097 20.6998 22.4061 19.8222 22.4061C19.3483 22.4338 18.9003 22.6314 18.5602 22.9626C18.2202 23.2938 18.0109 23.7365 17.9707 24.2095V24.2317C17.8189 25.3019 18.5151 26.0277 19.3742 26.0277ZM25.9063 26.0277C26.3805 25.9991 26.8286 25.8008 27.1686 25.469C27.5086 25.1371 27.7177 24.694 27.7578 24.2206V24.1984C27.8985 23.1097 27.2172 22.4061 26.3506 22.4061C25.8725 22.421 25.4173 22.6144 25.0746 22.9482C24.732 23.282 24.5267 23.7319 24.4991 24.2095V24.2317C24.3695 25.3093 25.0287 26.0277 25.9211 26.0277H25.9063ZM15.7119 32.1599L15.5712 33.3227H25.9915C26.7746 33.3389 27.5501 33.1659 28.2521 32.8184C28.9541 32.471 29.562 31.9593 30.024 31.3268L31.3016 33.6856C31.3581 33.7891 31.4445 33.8731 31.5496 33.9266C31.6546 33.9802 31.7734 34.0007 31.8904 33.9855C32.0068 33.9701 32.1159 33.9197 32.2031 33.841C32.2904 33.7624 32.3517 33.6591 32.3792 33.5449L35.0046 22.0654L36.2266 35.9704C36.2395 36.1183 36.3004 36.2579 36.4 36.3681C36.4996 36.4782 36.6325 36.5528 36.7784 36.5804C36.9243 36.6081 37.0752 36.5873 37.2082 36.5213C37.3412 36.4553 37.449 36.3477 37.5152 36.2148L39.4889 32.1414C39.8592 32.7117 40.4332 33.3338 41.3108 33.3338H41.9885V57H0V15H41.9885V32.1599H41.3108C40.785 32.1599 40.3814 31.3823 40.1629 30.9639C40.0885 30.7941 39.9886 30.6368 39.8666 30.4973C39.8011 30.4355 39.7223 30.3895 39.6364 30.3626C39.5505 30.3356 39.4595 30.3285 39.3704 30.3417C39.2811 30.3568 39.1964 30.3924 39.1232 30.4457C39.0499 30.499 38.9901 30.5687 38.9483 30.6491L37.2301 34.3151L35.9192 19.6955C35.9325 19.499 35.8672 19.3054 35.7377 19.1571C35.6081 19.0089 35.425 18.9181 35.2286 18.9049C35.0322 18.8916 34.8386 18.9569 34.6903 19.0864C34.542 19.216 34.4513 19.3991 34.438 19.5955L31.6052 31.8156L30.5906 29.964C30.5524 29.8928 30.4997 29.8303 30.4359 29.7806C30.3721 29.7308 30.2987 29.6949 30.2203 29.6752C30.1418 29.6553 30.0599 29.6523 29.9801 29.6664C29.9004 29.6804 29.8245 29.7112 29.7574 29.7567C29.6277 29.8537 29.5235 29.9808 29.4538 30.127C29.1212 30.7557 28.6225 31.2811 28.0121 31.6461C27.4016 32.0111 26.7027 32.2016 25.9915 32.197L15.7119 32.1599ZM25.4582 27.1497C25.8572 27.1458 26.2499 27.0499 26.6057 26.8695C26.9615 26.689 27.2709 26.4288 27.5097 26.1092L27.4023 27.0312H28.6947L29.3871 21.3878H28.0874L27.98 22.2654C27.7979 21.9526 27.5343 21.6951 27.2174 21.5203C26.9004 21.3455 26.542 21.26 26.1803 21.273C24.8324 21.273 23.4327 22.3283 23.1994 24.1984V24.2206C22.9587 26.1092 24.1325 27.1497 25.4582 27.1497ZM16.134 28.742H17.4301L17.7448 26.1499C17.927 26.4637 18.1911 26.7221 18.5087 26.8975C18.8263 27.073 19.1856 27.1589 19.5482 27.146C20.885 27.146 22.2958 26.0869 22.5106 24.2169V24.1947C22.7402 22.3135 21.5775 21.2693 20.2518 21.2693C19.8509 21.2743 19.4567 21.3722 19.1001 21.5553C18.7435 21.7384 18.4342 22.0018 18.1966 22.3246L18.3114 21.3841H17.0339L16.134 28.742ZM2.90316 27.0312H6.36548C8.03184 27.0312 9.2205 26.3165 9.38344 24.9797V24.9575C9.50934 23.9429 8.96129 23.4393 8.12071 23.143C8.46184 23.0023 8.75951 22.7735 8.98331 22.4801C9.20711 22.1867 9.34902 21.8391 9.39455 21.4729V21.4544C9.43132 21.2345 9.41885 21.0092 9.35802 20.7946C9.29718 20.5801 9.18951 20.3818 9.04276 20.2139C8.67246 19.7843 8.02443 19.551 7.16903 19.551H3.82151L2.90316 27.0312ZM15.8008 21.3878H14.4973L14.1048 24.5724C14.0913 24.9464 13.9333 25.3005 13.6639 25.5602C13.3945 25.82 13.0348 25.965 12.6606 25.9647C11.8941 25.9647 11.5164 25.4722 11.6238 24.5946L12.0163 21.3878H10.7387L10.2833 24.9982C10.1203 26.3128 10.7536 27.1682 12.0237 27.1682C12.3944 27.1639 12.7588 27.0713 13.0865 26.8981C13.4143 26.7248 13.6961 26.476 13.9085 26.1721L13.8011 27.0497H15.1046L15.8008 21.3878Z" fill="black"/>
<path d="M41.9884 32.1599V33.3226H41.3107C40.4331 33.3226 39.8592 32.7005 39.4888 32.1303L37.5151 36.2036C37.4489 36.3365 37.3411 36.4442 37.2081 36.5102C37.0751 36.5762 36.9242 36.5969 36.7783 36.5693C36.6324 36.5416 36.4996 36.467 36.3999 36.3569C36.3003 36.2468 36.2394 36.1071 36.2265 35.9592L35.0045 22.0543L32.3791 33.5337C32.3517 33.6479 32.2903 33.7512 32.203 33.8299C32.1158 33.9085 32.0067 33.9589 31.8903 33.9744C31.7733 33.9895 31.6545 33.969 31.5495 33.9155C31.4444 33.8619 31.358 33.7779 31.3015 33.6744L30.0239 31.3156C29.5619 31.9481 28.954 32.4598 28.252 32.8073C27.55 33.1547 26.7745 33.3277 25.9914 33.3115H15.5711L15.7118 32.1488H25.9914C26.7026 32.1534 27.4015 31.9629 28.012 31.5979C28.6224 31.2329 29.1211 30.7075 29.4537 30.0788C29.5234 29.9326 29.6276 29.8055 29.7573 29.7085C29.8244 29.663 29.9003 29.6322 29.98 29.6182C30.0598 29.6041 30.1417 29.6071 30.2202 29.627C30.2986 29.6467 30.3721 29.6826 30.4358 29.7324C30.4996 29.7821 30.5523 29.8446 30.5905 29.9158L31.6051 31.7674L34.4379 19.5473C34.4512 19.3509 34.5419 19.1678 34.6902 19.0382C34.8385 18.9087 35.0321 18.8434 35.2285 18.8567C35.425 18.8699 35.6081 18.9607 35.7376 19.1089C35.8671 19.2572 35.9324 19.4508 35.9191 19.6473L37.2448 34.2669L38.9593 30.6009C39.0011 30.5205 39.0609 30.4508 39.1342 30.3975C39.2075 30.3442 39.2921 30.3086 39.3815 30.2935C39.4705 30.2803 39.5615 30.2874 39.6474 30.3144C39.7334 30.3413 39.8121 30.3873 39.8777 30.4491C39.9996 30.5886 40.0995 30.7459 40.1739 30.9157C40.3924 31.3341 40.796 32.1117 41.3218 32.1117L41.9884 32.1599ZM23.1993 24.2205V24.1983C23.4326 22.3283 24.8323 21.2729 26.1802 21.2729C26.5419 21.26 26.9004 21.3454 27.2173 21.5202C27.5342 21.695 27.7978 21.9525 27.9799 22.2653L28.0873 21.3877H29.3796L28.6872 27.0312H27.4022L27.5096 26.1091C27.2727 26.4321 26.9642 26.6959 26.6083 26.8796C26.2523 27.0634 25.8587 27.1622 25.4581 27.1682C24.1325 27.1496 22.9586 26.1091 23.1993 24.2205ZM25.921 26.0276C26.3952 25.9991 26.8433 25.8007 27.1833 25.4689C27.5233 25.1371 27.7324 24.6939 27.7725 24.2205V24.1983C27.8984 23.1096 27.2171 22.406 26.3506 22.406C25.8724 22.421 25.4172 22.6144 25.0746 22.9481C24.7319 23.2819 24.5266 23.7319 24.4991 24.2094V24.2316C24.3694 25.3092 25.0286 26.0276 25.921 26.0276ZM8.12433 23.1467C8.96491 23.4429 9.51296 23.9465 9.38705 24.9611V24.9982C9.22412 26.335 8.03545 27.0497 6.3691 27.0497H2.90308L3.82142 19.5695H7.17635C8.03175 19.5695 8.67607 19.8028 9.05008 20.2324C9.19683 20.4002 9.3045 20.5986 9.36533 20.8131C9.42617 21.0276 9.43864 21.253 9.40186 21.4729V21.4914C9.35353 21.8554 9.20994 22.2001 8.98561 22.4908C8.76128 22.7814 8.46417 23.0077 8.12433 23.1467V23.1467ZM4.72866 22.7023H6.52092C7.36521 22.7023 7.9725 22.3727 8.05767 21.6876V21.6654C8.12803 21.0803 7.68737 20.7137 6.85789 20.7137H4.96936L4.72866 22.7023ZM6.67274 23.8132H4.59165L4.33985 25.8684H6.51722C7.41705 25.8684 7.99842 25.4981 8.08729 24.8389V24.8204C8.16876 24.1872 7.70959 23.8132 6.66534 23.8132H6.67274ZM14.4972 21.3877L14.1047 24.5723C14.0913 24.9463 13.9332 25.3004 13.6638 25.5602C13.3944 25.8199 13.0347 25.9649 12.6605 25.9647C11.894 25.9647 11.5163 25.4722 11.6237 24.5945L12.0162 21.3877H10.7387L10.2832 24.9982C10.1202 26.3128 10.7535 27.1682 12.0236 27.1682C12.3943 27.1638 12.7587 27.0712 13.0865 26.898C13.4142 26.7248 13.696 26.4759 13.9084 26.172L13.801 27.0497H15.1045L15.8007 21.4062L14.4972 21.3877ZM17.43 28.742H16.1339L17.0338 21.3877H18.3298L18.215 22.3283C18.4527 22.0054 18.7619 21.7421 19.1185 21.559C19.4751 21.3758 19.8694 21.2779 20.2702 21.2729C21.5959 21.2729 22.7586 22.3172 22.529 24.1983V24.2205C22.2995 26.0906 20.8886 27.1496 19.5666 27.1496C19.204 27.1625 18.8447 27.0766 18.5271 26.9012C18.2095 26.7257 17.9455 26.4673 17.7633 26.1535L17.43 28.742ZM19.3741 26.0276C19.8525 26.0118 20.3078 25.8176 20.6504 25.4832C20.9929 25.1489 21.1981 24.6985 21.2256 24.2205V24.1983C21.3478 23.1096 20.6998 22.406 19.8221 22.406C19.3482 22.4337 18.9002 22.6313 18.5601 22.9625C18.2201 23.2937 18.0108 23.7364 17.9706 24.2094V24.2316C17.8188 25.3018 18.515 26.0276 19.3741 26.0276Z" fill="white"/>
</svg>
