<svg width="156" height="72" viewBox="0 0 156 72" fill="none" xmlns="http://www.w3.org/2000/svg">
<path fill-rule="evenodd" clip-rule="evenodd" d="M69.412 43.8415H67.9953L67.9938 43.8424C67.6893 43.8424 67.5963 43.9784 67.5963 43.9784L67.5966 39.8072H69.5236C71.0429 39.8072 71.8952 40.6028 71.8952 41.8066C71.8952 43.0277 71.0244 43.8415 69.412 43.8415ZM71.8762 45.8218C73.5622 45.2672 74.5814 43.9715 74.5814 41.8612C74.5814 39.3444 73.1736 37.4932 70.0051 37.4932H65.0216V50.6344H67.5966V46.9338C67.6052 46.4926 67.9637 46.1382 68.407 46.1382V46.1373H69.1161L72.0614 50.6344H75.137L71.8762 45.8218Z" fill="black"/>
<path fill-rule="evenodd" clip-rule="evenodd" d="M80.8322 43.8415H79.4155L79.414 43.8424C79.1095 43.8424 79.0166 43.9784 79.0166 43.9784L79.0169 39.8072H80.9439C82.4632 39.8072 83.3151 40.6028 83.3151 41.8066C83.3151 43.0277 82.4446 43.8415 80.8322 43.8415ZM83.2965 45.8218C84.9824 45.2672 86.0017 43.9715 86.0017 41.8612C86.0017 39.3444 84.5939 37.4932 81.4254 37.4932H76.4419V50.6344H79.0169V46.9338C79.0251 46.4926 79.3839 46.1382 79.8272 46.1382V46.1373H80.5359L83.4817 50.6344H86.5573L83.2965 45.8218Z" fill="black"/>
<path fill-rule="evenodd" clip-rule="evenodd" d="M59.3553 45.7854C59.3553 45.7854 56.5204 45.7854 56.5181 45.7854C56.2136 45.7854 56.1206 45.9224 56.1206 45.9224L57.9084 40.6218H57.9457L59.7532 45.9224C59.7532 45.9224 59.6602 45.7854 59.3553 45.7854ZM59.1683 37.4932H56.6673L51.795 50.6344H54.5184L55.1609 48.7356C55.3022 48.3152 55.693 48.011 56.1605 48.0058H59.7123C60.1816 48.011 60.5742 48.3178 60.7141 48.7408L61.3547 50.6344H64.0778L59.1683 37.4932Z" fill="black"/>
<path fill-rule="evenodd" clip-rule="evenodd" d="M122.245 45.7854C122.245 45.7854 119.41 45.7854 119.408 45.7854C119.104 45.7854 119.01 45.9224 119.01 45.9224L120.798 40.6218H120.835L122.643 45.9224C122.643 45.9224 122.55 45.7854 122.245 45.7854ZM122.058 37.4932H119.557L114.684 50.6344H117.408L118.051 48.7356C118.192 48.3152 118.583 48.011 119.05 48.0058H122.602C123.071 48.011 123.464 48.3178 123.603 48.7408L124.245 50.6344H126.968L122.058 37.4932Z" fill="black"/>
<path fill-rule="evenodd" clip-rule="evenodd" d="M151.278 45.7854C151.276 45.7854 148.443 45.7854 148.441 45.7854C148.136 45.7854 148.043 45.9224 148.043 45.9224L149.831 40.6218H149.868L151.675 45.9224C151.675 45.9224 151.583 45.7854 151.278 45.7854ZM151.091 37.4932H148.589L143.718 50.6344H146.441L147.083 48.7356C147.225 48.3152 147.616 48.011 148.083 48.0058H151.635C152.104 48.011 152.496 48.3178 152.637 48.7408L153.277 50.6344H156L151.091 37.4932Z" fill="black"/>
<path fill-rule="evenodd" clip-rule="evenodd" d="M94.6748 45.7854C94.673 45.7854 91.839 45.7854 91.8373 45.7854C91.5331 45.7854 91.4395 45.9224 91.4395 45.9224L93.2274 40.6218H93.2647L95.0726 45.9224C95.0726 45.9224 94.979 45.7854 94.6748 45.7854ZM94.4876 37.4932H91.9864L87.114 50.6344H89.8379L90.4801 48.7356C90.6214 48.3152 91.0122 48.011 91.4794 48.0058H95.0318C95.5007 48.011 95.8933 48.3178 96.0337 48.7408L96.6733 50.6344H99.3964L94.4876 37.4932Z" fill="black"/>
<path fill-rule="evenodd" clip-rule="evenodd" d="M42.5818 27.7806C42.5818 24.0227 44.9902 21.0059 49.288 21.0059C51.1037 21.0059 53.0865 21.7651 54.5315 23.5227L52.6232 25.152C51.8448 24.2455 50.6594 23.4863 49.288 23.4863C47.0093 23.4863 45.3052 25.152 45.3052 27.7806C45.3052 30.2237 46.9353 31.9813 49.288 31.9813C50.6594 31.9813 51.8448 31.2785 52.6232 30.3156L54.5315 31.9631C53.4006 33.3697 51.6225 34.4435 49.288 34.4435C45.6937 34.4435 42.5818 32.1105 42.5818 27.7806Z" fill="black"/>
<path fill-rule="evenodd" clip-rule="evenodd" d="M55.757 34.3134H58.3692V21.1721H55.757V34.3134Z" fill="black"/>
<path fill-rule="evenodd" clip-rule="evenodd" d="M62.8028 23.5043H59.4424V21.1721H68.7754V23.5043H65.3964V34.3134H62.8028V23.5043Z" fill="black"/>
<path fill-rule="evenodd" clip-rule="evenodd" d="M80.5824 21.1721L76.1916 28.5388V34.3134H73.5612V28.5388L69.2068 21.1721H72.1898L74.876 25.9665H74.9132L77.5626 21.1721H80.5824Z" fill="black"/>
<path fill-rule="evenodd" clip-rule="evenodd" d="M95.8143 27.7433C95.8143 25.2629 94.1096 23.449 91.8493 23.449C89.4781 23.449 87.8288 25.3548 87.8288 27.7433C87.8288 30.131 89.4781 32.0377 91.8493 32.0377C94.1096 32.0377 95.8143 30.2047 95.8143 27.7433ZM85.1244 27.7433C85.1244 23.8381 87.8479 21.0059 91.8302 21.0059C95.7034 21.0059 98.5192 23.7272 98.5192 27.7433C98.5192 31.7595 95.7034 34.4617 91.8302 34.4617C87.8479 34.4617 85.1244 31.6303 85.1244 27.7433Z" fill="black"/>
<path fill-rule="evenodd" clip-rule="evenodd" d="M113.68 37.4932V50.6344H111.105V42.4722H111.068L107.864 48.1358H106.177L102.971 42.4722H102.935V50.6344H100.341V37.4932H102.971L107.011 44.9708H107.048L111.068 37.4932H113.68Z" fill="black"/>
<path fill-rule="evenodd" clip-rule="evenodd" d="M128.922 39.8254H125.561V37.4932H134.895V39.8254H131.515V50.6344H128.922V39.8254Z" fill="black"/>
<path fill-rule="evenodd" clip-rule="evenodd" d="M139.137 39.8254H135.506V37.4932H145.11V39.8254H141.73V50.6344H139.137V39.8254Z" fill="black"/>
<path fill-rule="evenodd" clip-rule="evenodd" d="M47.4172 43.8233H46.096C46.0945 43.8233 46.0934 43.8242 46.0934 43.8242C45.7873 43.8242 45.694 43.9602 45.694 43.9602L45.6944 43.8233L45.6936 39.8072H47.528C49.0469 39.8072 49.862 40.6028 49.862 41.8066C49.862 43.0277 49.0469 43.8233 47.4172 43.8233ZM47.9913 37.4932H43.1186V50.6344H45.6936V46.9494H45.6951C45.6951 46.5013 46.0588 46.1382 46.5069 46.1382V46.1373H47.7507C50.6407 46.1373 52.5672 44.7489 52.5672 41.8612C52.5672 39.3444 51.1776 37.4932 47.9913 37.4932Z" fill="black"/>
<path fill-rule="evenodd" clip-rule="evenodd" d="M108.86 21.1721H100.134V34.3134H102.709V30.1439C102.709 29.7019 103.065 29.3431 103.505 29.3344H107.841V27.0022H103.107L103.107 27.0031C102.801 27.0031 102.709 27.14 102.709 27.14V23.5043H108.86V21.1721Z" fill="black"/>
<path fill-rule="evenodd" clip-rule="evenodd" d="M18.1324 50.4411C10.0945 50.4411 3.57903 43.9316 3.57903 35.9019C3.57903 27.8714 10.0945 21.3627 18.1324 21.3627C26.1702 21.3627 32.6862 27.8714 32.6862 35.9019C32.6862 43.9316 26.1702 50.4411 18.1324 50.4411ZM18.1324 17.7869C8.11817 17.7869 0 25.8971 0 35.9019C0 45.9059 8.11817 54.0161 18.1324 54.0161C28.1466 54.0161 36.2648 45.9059 36.2648 35.9019C36.2648 25.8971 28.1466 17.7869 18.1324 17.7869Z" fill="black"/>
<path fill-rule="evenodd" clip-rule="evenodd" d="M7.2394 29.6117C7.68004 29.6117 7.51978 30.0988 7.80052 30.0988C8.45572 30.0988 8.30103 28.908 7.01964 28.908C6.8869 28.908 6.60875 28.9851 6.5619 29.044C6.56116 29.0458 6.55967 29.0484 6.55967 29.0484C7.44689 29.1012 6.82256 29.6117 7.2394 29.6117Z" fill="black"/>
<path fill-rule="evenodd" clip-rule="evenodd" d="M5.93468 31.2565L6.17676 33.515L6.02281 33.6468C5.74913 33.6598 5.49218 33.6598 5.26238 33.6537L5.93468 31.2565ZM6.94685 32.755C6.75126 32.9387 6.60921 33.1779 6.546 33.4475H6.29835L6.05925 31.2132L6.94685 32.755ZM7.89469 32.6163C8.52645 32.6163 9.04072 33.1303 9.04072 33.7612H8.85967C8.85967 33.2299 8.42643 32.7975 7.89469 32.7975C7.36295 32.7975 6.93049 33.2299 6.93049 33.7612H6.74865C6.74865 33.1303 7.26291 32.6163 7.89469 32.6163ZM9.70146 31.1647L9.96398 33.6182C9.79784 33.6399 9.7019 33.6511 9.7019 33.6511L9.43046 33.4475H9.24334C9.19984 33.2611 9.11802 33.0895 9.00761 32.9404L9.70146 31.1647ZM11.1424 33.4284C11.1424 33.4284 10.2403 33.5818 10.0909 33.6017L9.83684 31.2262L11.1424 33.4284ZM4.83773 34.4233C5.73463 34.4511 6.52295 34.5819 7.41129 34.4181C8.64433 34.191 10.9405 34.4458 10.9405 34.4458C10.9405 34.4458 10.9602 34.3263 10.9743 34.2569C10.9781 34.2387 10.9833 34.2196 10.9885 34.2006C11.1435 34.1919 11.2974 34.1902 11.4507 34.1989C11.7277 34.2145 12.0021 34.2586 12.2773 34.3115L12.4844 34.3505C12.5551 34.3618 12.6268 34.3774 12.6986 34.3834C12.7026 34.3843 12.7064 34.3843 12.7101 34.3843L12.7875 34.2431C12.7648 34.2396 12.7417 34.2361 12.719 34.2327C12.6502 34.224 12.5837 34.2084 12.5156 34.1963C12.4461 34.1824 12.377 34.1668 12.3067 34.1538C12.027 34.1035 11.7407 34.0654 11.4521 34.0749C11.3045 34.0784 11.158 34.0949 11.0145 34.1217C11.0197 34.107 11.0234 34.0966 11.0234 34.0966C11.0933 33.9016 11.1974 33.7196 11.3127 33.5489L12.7455 33.2308L12.7462 33.1268L11.2763 33.4033L9.80373 30.9194L9.65206 29.498L9.52414 29.5119C9.52414 29.5119 9.67252 30.896 9.66879 30.8951L8.91427 32.8269C8.70714 32.6025 8.42643 32.4456 8.1111 32.3962C8.11036 32.384 8.10999 32.3719 8.10924 32.3598C8.10739 32.326 8.02297 30.857 8.02149 30.8362V30.8292C8.02297 30.8162 8.08061 30.7105 8.09214 30.6871C8.1033 30.6637 8.09958 30.6438 8.0821 30.6247C8.06202 30.603 8.00624 30.5589 8.00401 30.5589H7.50016C7.50016 30.5589 7.44699 30.6065 7.42951 30.6299C7.41352 30.6507 7.41203 30.6715 7.42579 30.6932C7.43955 30.7157 7.50796 30.8154 7.51094 30.8275L7.57602 32.4161C7.37968 32.4629 7.19971 32.5505 7.04576 32.6701L6.02541 30.8977L5.94992 30.194C5.9146 30.2694 5.87927 30.3448 5.84544 30.4202L5.89824 30.9125L5.13111 33.6494C5.03593 33.6459 4.94854 33.6407 4.86674 33.6346C4.82249 33.8946 4.78567 34.1564 4.7563 34.4207L4.83773 34.4233Z" fill="black"/>
<path fill-rule="evenodd" clip-rule="evenodd" d="M18.8397 48.545C18.9965 48.5381 19.1576 48.5095 19.3 48.4289C19.371 48.3899 19.4353 48.3361 19.4845 48.272C19.5317 48.207 19.567 48.1307 19.5663 48.0527C19.503 48.1931 19.3803 48.2781 19.252 48.3283C19.1215 48.3777 18.978 48.3985 18.8348 48.402C18.6916 48.4081 18.5478 48.3942 18.4046 48.3665C18.2618 48.3379 18.1197 48.2963 17.977 48.2399C18.0885 48.3465 18.2283 48.4228 18.3756 48.4739C18.5228 48.5268 18.6816 48.5485 18.8397 48.545Z" fill="black"/>
<path fill-rule="evenodd" clip-rule="evenodd" d="M21.2209 46.9607C21.2874 46.9572 21.3533 46.9477 21.4199 46.9381C21.4838 46.9286 21.5467 46.9173 21.6106 46.9087C22.1201 46.8367 22.6355 46.8419 23.1497 46.8844C23.4081 46.9017 23.6621 46.9329 23.9238 46.9598C24.1845 46.9815 24.4471 46.9979 24.71 46.991C24.9729 46.9875 25.2362 46.9598 25.4935 46.9061C25.75 46.8506 26.0003 46.7674 26.2364 46.6582C25.7399 46.8194 25.2238 46.8818 24.7103 46.8662C24.453 46.8584 24.1961 46.8385 23.9395 46.8081C23.6844 46.7778 23.4222 46.744 23.162 46.7241C22.9009 46.7059 22.6384 46.6937 22.3751 46.7015C22.1123 46.7111 21.849 46.7353 21.5905 46.7856C21.5259 46.7969 21.4615 46.8116 21.3975 46.8246C21.3355 46.8367 21.2733 46.8489 21.2105 46.8567C21.0845 46.8731 20.9562 46.8818 20.8279 46.8801C20.5705 46.8818 20.3121 46.8523 20.0567 46.8012C20.1801 46.8445 20.3069 46.8766 20.4352 46.9026C20.5635 46.9277 20.6933 46.9468 20.8246 46.9589C20.9558 46.9693 21.0882 46.9693 21.2209 46.9607Z" fill="black"/>
<path fill-rule="evenodd" clip-rule="evenodd" d="M19.2789 48.7425C19.1867 48.7729 19.0903 48.7893 18.9922 48.7954C18.7951 48.8058 18.5973 48.7833 18.3913 48.7469C18.4779 48.8075 18.578 48.8465 18.6806 48.8725C18.784 48.8985 18.8918 48.9081 18.9992 48.9011C19.106 48.8925 19.2145 48.8682 19.312 48.8171C19.4068 48.7659 19.4965 48.6845 19.5217 48.5796C19.4581 48.6628 19.3689 48.7096 19.2789 48.7425Z" fill="black"/>
<path fill-rule="evenodd" clip-rule="evenodd" d="M26.5867 38.5271C26.9117 38.6866 27.2743 38.7698 27.6394 38.7949C28.0079 38.8174 28.3716 38.7654 28.7259 38.7152C28.9026 38.6892 29.0766 38.6701 29.2517 38.6701C29.4277 38.6666 29.6009 38.6857 29.7809 38.7039C29.9605 38.723 30.1415 38.7368 30.3234 38.7377C30.4145 38.7377 30.506 38.7342 30.5967 38.723C30.6878 38.7117 30.7763 38.6892 30.8622 38.6623C30.6826 38.6866 30.5053 38.6814 30.3282 38.6597C30.1509 38.6398 29.9743 38.6094 29.798 38.58C29.6217 38.547 29.4369 38.5236 29.2529 38.5184C29.0681 38.5132 28.8832 38.5323 28.7037 38.5566C28.5244 38.5834 28.3485 38.6112 28.1723 38.632C27.9952 38.6536 27.8191 38.6684 27.6431 38.6701C27.2902 38.6692 26.934 38.6242 26.5867 38.5271Z" fill="black"/>
<path fill-rule="evenodd" clip-rule="evenodd" d="M24.9079 45.1813C24.3673 45.1423 23.8321 45.0487 23.2825 45.001C23.0081 44.9802 22.7311 44.969 22.4548 44.9863C22.1781 45.0019 21.9044 45.0409 21.6356 45.0877C21.3642 45.1328 21.1024 45.1934 20.8328 45.1856C20.5654 45.1848 20.2921 45.1397 20.0467 45.0192C20.1598 45.0972 20.2892 45.1492 20.4216 45.1882C20.5539 45.2272 20.6911 45.2515 20.8294 45.2636C20.9678 45.2758 21.1072 45.2732 21.246 45.2602C21.3854 45.2489 21.5177 45.2272 21.6538 45.2108C21.9242 45.1778 22.1926 45.144 22.4615 45.1371C22.7304 45.1267 22.9999 45.1371 23.2695 45.1605C23.5387 45.1813 23.8083 45.216 24.0809 45.2463C24.3531 45.2732 24.6264 45.3 24.9016 45.307C25.1764 45.3165 25.4534 45.3061 25.7263 45.2706C25.9985 45.2333 26.2681 45.1796 26.5306 45.1024C25.9907 45.1917 25.4475 45.2246 24.9079 45.1813Z" fill="black"/>
<path fill-rule="evenodd" clip-rule="evenodd" d="M24.2851 41.8136C24.2401 41.8136 24.1954 41.8136 24.1505 41.8136L24.0943 41.7564L24.1498 41.5102C24.1787 41.5726 24.2248 41.6368 24.2962 41.6957C24.2936 41.739 24.2891 41.7789 24.2851 41.8136ZM30.334 41.6558C29.1939 41.7338 28.0166 41.7798 26.839 41.8006C26.8174 41.7018 26.7995 41.6021 26.7888 41.5016C26.7746 41.369 26.769 41.2355 26.7679 41.1012C26.7649 40.7753 26.7549 40.4044 26.6809 40.0568C26.6794 40.0499 26.6776 40.0421 26.6753 40.0352C26.8534 40.01 27.0301 39.9771 27.2049 39.9381C27.4766 39.8644 27.7622 39.8575 28.0441 39.8948C27.7689 39.8228 27.474 39.8142 27.1907 39.8627C27.0096 39.8904 26.8281 39.9121 26.6467 39.9277C26.6225 39.8428 26.5935 39.7483 26.5693 39.6894C26.5307 39.5966 26.456 39.4372 26.3719 39.3288C26.2722 39.1893 26.1331 39.0818 25.9796 39.009C25.8874 38.9648 25.7862 38.9354 25.6903 38.8981C25.5955 38.86 25.5018 38.8175 25.4159 38.762C25.3798 38.7386 25.3453 38.7135 25.3128 38.6858C25.269 38.6485 25.2289 38.606 25.1961 38.5584C25.2192 38.5306 25.2374 38.502 25.2452 38.4795C25.2634 38.431 25.263 38.4223 25.298 38.3738C25.3396 38.3174 25.3352 38.2724 25.3456 38.2117C25.3526 38.1684 25.3605 38.1406 25.356 38.099C25.3497 38.0375 25.343 37.976 25.3664 37.9179C25.3909 37.8494 25.372 37.8052 25.3508 37.7411C25.3464 37.7281 25.3445 37.7177 25.3437 37.7082C25.3433 37.7047 25.3437 37.6978 25.3437 37.6926C25.3437 37.6908 25.3433 37.6891 25.3437 37.6865C25.3437 37.677 25.3445 37.6666 25.3453 37.6562C25.4661 37.6371 25.5847 37.6206 25.7052 37.6094C25.9822 37.5816 26.2615 37.5834 26.54 37.5998C26.8196 37.6172 27.0955 37.6562 27.3763 37.6995C27.519 37.7186 27.6645 37.7203 27.8068 37.7047C27.9489 37.6891 28.0913 37.6579 28.2177 37.5929C27.6645 37.7784 27.1216 37.5019 26.5504 37.4716C26.2667 37.4421 25.9789 37.4378 25.6925 37.4577C25.5706 37.4664 25.4471 37.4828 25.3266 37.501C25.3211 37.488 25.3151 37.4742 25.3091 37.4629C25.3029 37.4508 25.2969 37.4395 25.2909 37.4265C25.2761 37.3962 25.2719 37.3624 25.2627 37.3294C25.2482 37.28 25.2173 37.2341 25.1868 37.1925C25.1545 37.1492 25.1184 37.1076 25.0775 37.0712C25.0604 37.0556 25.0377 37.0478 25.0162 37.04C24.9466 37.0122 24.9098 36.942 24.841 36.9134C24.7331 36.8675 24.6394 36.7765 24.5164 36.7678C24.4725 36.7652 24.4305 36.7782 24.3866 36.7626C24.3446 36.7479 24.3052 36.7254 24.2605 36.7219C24.143 36.7115 24.0229 36.7453 23.9102 36.7756C23.8735 36.7852 23.837 36.7964 23.8009 36.8094C23.7411 36.8328 23.6905 36.864 23.6552 36.9186C23.6477 36.9308 23.6091 36.9368 23.5957 36.942C23.5663 36.955 23.5373 36.9698 23.5105 36.9871C23.4793 37.007 23.4644 37.046 23.4332 37.0677C23.4135 37.0816 23.3923 37.092 23.3722 37.1058C23.3477 37.1223 23.3295 37.1466 23.3094 37.1682C23.2893 37.189 23.2677 37.2098 23.2465 37.2298C23.216 37.2592 23.1811 37.293 23.1599 37.3329C23.1565 37.339 23.1539 37.3476 23.1509 37.3563L23.1506 37.358C23.1446 37.378 23.1391 37.4031 23.1327 37.4265C22.874 37.3823 22.6092 37.3268 22.3407 37.319C22.1979 37.313 22.0548 37.3156 21.9131 37.332C21.7722 37.3494 21.6293 37.3762 21.5011 37.436C21.7722 37.3554 22.0585 37.3632 22.3347 37.3953C22.5873 37.4204 22.8311 37.4846 23.0826 37.5392C23.074 37.5539 23.0662 37.5669 23.0606 37.5747C23.0472 37.592 23.0331 37.6345 23.0208 37.6813C23.0134 37.7099 23.0074 37.7394 23.0074 37.7654C23.0074 37.9066 23.0483 38.0418 23.1651 38.1328C23.1952 38.1554 23.2194 38.1692 23.2409 38.1753C23.2621 38.2455 23.2993 38.3296 23.3662 38.3746C23.3599 38.411 23.2982 38.7248 23.4715 38.6988C23.4808 38.6979 23.4975 38.704 23.509 38.7265C23.5269 38.7612 23.5321 38.8054 23.5306 38.8435C23.5295 38.8747 23.5402 38.9111 23.5753 38.9198C23.5987 38.931 23.624 38.9102 23.6266 38.9172C23.6217 38.9276 23.6188 38.9354 23.6176 38.938C23.5998 38.9856 23.6381 39.0229 23.7065 39.0012C23.7333 38.9934 23.7496 39.0368 23.7511 39.0714C23.7541 39.1555 23.866 39.2092 24.0326 39.1503C24.0925 39.1286 24.2672 39.0047 24.2996 38.9761C24.3085 38.9882 24.3353 39.0246 24.3654 39.0732C24.2844 39.1928 24.0884 39.2829 23.9069 39.3704C23.7548 39.4302 23.6329 39.5542 23.5548 39.6998C23.3536 39.6998 23.1513 39.711 22.9532 39.7448C22.6705 39.7882 22.3949 39.8462 22.115 39.841C21.9751 39.841 21.835 39.8272 21.6974 39.7977C21.5595 39.7682 21.4238 39.7275 21.2891 39.6807C21.5438 39.8064 21.8227 39.893 22.1116 39.9164C22.4009 39.9407 22.6895 39.8974 22.9691 39.8653C23.1446 39.8445 23.3201 39.8384 23.4964 39.8419C23.4849 39.8783 23.4763 39.9095 23.4733 39.9277C23.4261 40.2007 23.3964 40.4754 23.3774 40.751C23.3543 41.0847 23.3707 41.4236 23.3361 41.7555C23.3347 41.772 23.3335 41.7876 23.3321 41.8032C22.3199 41.7893 21.3043 41.7668 20.2892 41.7382C20.2335 41.8474 20.1791 41.954 20.1356 42.058C21.214 42.0796 22.318 42.0918 23.3834 42.0935C23.431 42.1611 23.5128 42.2131 23.5748 42.2616C23.7686 42.4142 23.9649 42.5806 24.1776 42.7114C22.8829 42.7331 21.4962 42.7071 20.1056 42.6369C20.1791 43.1812 20.1145 43.8745 19.9977 44.482C20.2524 44.4976 20.4116 44.508 20.4287 44.5089C20.7674 44.5132 21.098 44.4075 21.4368 44.3954C21.864 44.3806 22.2831 44.4526 22.7051 44.5046C23.3465 44.5852 23.9787 44.3988 24.6227 44.4664C25.7353 44.5834 27.206 44.3061 28.6309 44.3676C29.2388 43.6154 29.7672 42.7964 30.2038 41.9228C29.5296 42.2183 28.433 42.4306 27.1093 42.558C27.11 42.5537 27.1107 42.5494 27.1111 42.545C27.1275 42.3951 26.9937 42.2096 26.9163 42.0536C28.5765 42.006 29.8494 41.9115 30.28 41.7694C30.2983 41.7312 30.3157 41.6931 30.334 41.6558Z" fill="black"/>
<path fill-rule="evenodd" clip-rule="evenodd" d="M26.2729 31.0912C26.2695 31.2324 26.265 31.3737 26.2595 31.5141C26.245 31.872 26.2015 32.2291 26.1502 32.5836C26.1226 32.7708 26.1055 32.9597 26.0743 33.146C26.0538 33.2708 26.0166 33.3921 25.9891 33.5152C25.9427 33.7249 25.9155 33.9494 25.8694 34.1644C25.631 34.2363 25.5255 34.2372 25.3291 34.2848C25.4794 32.8921 25.4165 30.936 25.2875 29.6187C25.2864 29.6083 25.3578 29.6482 25.4232 29.6733C25.4503 29.6846 25.4671 29.6586 25.4671 29.6473C25.4856 29.5398 25.4343 29.4115 25.4343 29.4115C25.4343 29.4115 25.5734 29.513 25.6445 29.4766C25.7151 29.4116 25.6645 29.2096 25.7147 28.9826C25.8077 29.1204 25.8646 29.3535 25.9442 29.2538C25.972 29.207 25.9442 28.9852 25.9442 28.9852C25.9442 28.9852 26.0208 29.2157 26.0788 29.1567C26.0832 29.1515 26.0877 29.1515 26.0918 29.1498C26.1088 29.1368 26.1241 29.1212 26.1367 29.0978C26.1955 29.0259 26.1765 28.895 26.2249 28.8786C26.2283 28.8812 26.2316 28.8846 26.2346 28.8881C26.3111 29.5208 26.2914 30.2826 26.2729 31.0912ZM30.8611 31.4707C30.8451 31.4716 30.8265 31.4768 30.7998 31.482C30.7105 31.4985 30.6216 31.5184 30.5331 31.5401C30.2155 31.6189 29.9069 31.7316 29.6128 31.8746C29.0889 32.1277 28.6233 32.4761 28.1681 32.8349C27.7554 33.1608 27.3437 33.4987 26.8708 33.7345C26.8161 33.7613 26.7585 33.7934 26.7009 33.8108C26.7247 33.4286 26.7908 33.0463 26.8254 32.6641C26.8588 32.2906 26.8856 31.9162 26.9031 31.5418C26.9359 30.8493 27.0184 30.1543 26.9582 29.4627C26.9422 29.2824 26.9544 29.3145 26.9574 29.1342C26.9585 29.0571 26.9778 28.9661 26.9641 28.889C26.9719 28.9332 27.1396 29.1152 27.2106 29.0666C27.233 29.051 27.1322 28.5657 27.22 28.6593C27.2676 28.7096 27.6171 29.2131 27.7212 29.1221C27.6126 28.8993 27.6067 28.5007 27.6661 28.5848C27.7257 28.668 27.8093 28.7858 27.8379 28.7355C27.9826 28.4825 27.7986 28.2078 27.8127 28.1419C27.8729 28.0986 28.1213 28.479 28.1692 28.4712C28.3176 28.4478 28.2875 27.9001 28.2433 27.7536C28.2147 27.6583 28.1239 27.5153 28.0213 27.3948C27.9145 27.3151 27.8119 27.2449 27.6822 27.2353C27.5524 27.2258 27.7655 27.212 27.6728 27.0594C27.6702 27.0551 27.6687 27.0508 27.6669 27.0464C27.6528 27.0291 27.6379 27.0126 27.6231 26.9944C27.6226 26.9944 27.6223 26.9944 27.6219 26.9944C27.5319 26.9138 27.4088 26.9017 27.3207 26.8973C27.3207 26.8973 27.5509 26.8852 27.3854 26.8055C27.3587 26.7934 27.3311 26.7821 27.2999 26.7734C27.1835 26.7396 26.947 26.7622 26.8648 26.7717C26.7789 26.7856 26.6848 26.8107 26.6302 26.8185C26.5606 26.828 26.7815 26.7535 26.7179 26.698C26.6979 26.6824 26.677 26.6642 26.6547 26.6434C26.502 26.4978 26.2632 26.4484 26.0661 26.4857C25.7545 26.5437 25.8341 26.4605 25.7151 26.4475C25.8604 26.3843 25.9497 26.2456 26.0275 26.1953C26.0341 26.191 26.0338 26.1858 26.0111 26.1745C25.8976 26.1182 25.5307 26.009 25.4165 26.0532C25.4057 26.0575 25.4117 26.0428 25.421 26.0307C25.5726 25.8279 25.4872 25.8443 25.7403 25.7291C25.7448 25.7273 25.75 25.7152 25.727 25.7109C25.4013 25.6424 25.0967 25.8149 25.0733 25.8305C25.0733 25.8305 25.0536 25.8175 25.0317 25.7958C24.8911 25.6589 24.7788 25.5861 24.5739 25.5766C24.494 25.5722 24.4705 25.5679 24.4932 25.5982C24.5226 25.6381 24.4787 25.6728 24.5995 25.7603C24.5646 25.7889 24.3898 25.7204 24.3333 25.7039C24.2437 25.6779 24.025 25.6528 23.9332 25.7065C23.918 25.7152 23.9287 25.7161 23.9317 25.7169C24.0463 25.7464 24.0091 25.8261 24.182 25.9353C24.1857 25.9379 24.1927 25.9423 24.1753 25.9457C23.9651 25.8617 23.7324 25.8617 23.658 25.8721C23.6037 25.8651 23.5516 25.8634 23.5029 25.8634C23.4925 25.8625 23.4833 25.8625 23.4747 25.8634C23.3163 25.8669 23.1984 25.8964 23.1646 25.9137C23.1422 25.9258 23.1716 25.9319 23.1947 25.9397C23.3278 25.983 23.442 26.0454 23.4688 26.081C23.4714 26.0844 23.468 26.0887 23.455 26.0879C23.3304 26.0757 22.9154 26.1095 22.9084 26.1598C23.0285 26.2031 23.149 26.2664 23.2208 26.3184C23.2482 26.3375 23.2531 26.3392 23.2136 26.3418C23.0028 26.36 22.8522 26.5203 22.8433 26.581C22.843 26.5836 22.8444 26.5845 22.8503 26.5853C22.9541 26.5992 23.2318 26.6564 23.3501 26.7396C23.3669 26.7509 23.3516 26.7812 23.333 26.7847C22.7664 26.8791 22.5526 27.3359 22.5001 27.5881C22.4993 27.5933 22.5038 27.6037 22.5112 27.5994C22.7552 27.4598 22.8188 27.4321 23.1122 27.3913C23.2237 27.3766 23.7402 27.2648 23.0188 27.5803C22.593 27.7666 22.467 28.1921 22.4856 28.3048C22.4893 28.3273 22.5083 28.3091 22.5157 28.3013C22.6102 28.2051 22.7846 28.1991 22.905 28.1956C22.9686 28.1939 23.1631 28.1419 23.2208 28.1349C23.2344 28.1341 23.1248 28.232 23.0943 28.2554C22.8492 28.4426 22.8418 28.6506 22.8686 28.8049C22.9121 28.8144 23.2568 28.479 23.4286 28.479C23.4078 28.479 23.0742 28.9149 23.0746 29.4375C23.075 29.5693 23.1527 29.8215 23.2252 29.7097C23.3357 29.539 23.6978 29.1897 23.7 29.2434C23.7015 29.2746 23.7086 29.3075 23.7201 29.3405C23.7201 29.3405 23.8692 29.7651 24.1626 29.9428C24.1972 29.9645 24.2083 29.8544 24.2348 29.7548C24.263 29.6161 24.3315 29.5364 24.3315 29.5364C24.3315 29.5364 24.3935 29.6759 24.4259 29.7435C24.5248 29.8527 24.5984 29.7149 24.6293 29.7027C24.6497 30.0191 24.7382 30.4282 24.7249 30.7904C24.7111 31.1501 24.7167 31.5124 24.6989 31.872C24.6806 32.243 24.6624 32.6147 24.6404 32.9857C24.6304 33.1547 24.6229 33.3245 24.6044 33.4918C24.5906 33.6166 24.5672 33.7397 24.5505 33.8645C24.5244 34.0612 24.5177 34.2718 24.4694 34.4642C24.4545 34.524 24.4441 34.5223 24.3849 34.5361C24.3348 34.5483 24.2846 34.5621 24.2344 34.576C24.1716 34.5925 24.1091 34.6116 24.0469 34.6306C23.9395 34.6618 23.8328 34.6956 23.7261 34.7303C23.4784 34.81 23.2318 34.895 22.9887 34.9877C22.7552 35.0761 22.5227 35.1706 22.3004 35.2841C22.161 35.3543 21.9839 35.4375 21.8888 35.5684C21.8237 35.6585 21.9583 35.6663 22.0293 35.6775C22.1171 35.6923 22.2071 35.6949 22.2937 35.7157C22.6053 35.7902 22.9065 35.8102 23.2271 35.811C23.9819 35.8119 24.736 35.7824 25.4909 35.7599C25.7278 35.7529 25.9642 35.7426 26.201 35.74C26.5778 35.7356 26.9589 35.7347 27.333 35.7807C27.3887 35.7876 27.9008 35.8673 27.7461 35.9861C27.6408 36.0658 27.4921 36.1126 27.3736 36.1698C27.2218 36.2418 27.0675 36.3146 26.927 36.4073C26.8812 36.4376 26.7309 36.5278 26.8061 36.5936C26.8322 36.6162 26.8875 36.6153 26.9195 36.6196C27.0009 36.6309 27.0827 36.6395 27.165 36.6456C27.7848 36.695 28.4103 36.6543 29.0316 36.6664C29.4626 36.6751 29.8943 36.695 30.3212 36.7583C30.677 36.8112 31.0262 36.8978 31.3727 36.9949C31.4367 37.0131 31.5021 37.0356 31.5676 37.0538C31.5988 36.6794 31.6159 36.3016 31.6159 35.9194C31.6159 34.3602 31.3497 32.8635 30.8611 31.4707Z" fill="black"/>
<path fill-rule="evenodd" clip-rule="evenodd" d="M8.96175 44.7592C9.12468 44.7679 9.27747 44.8086 9.44223 44.845C9.60473 44.8814 9.77199 44.9066 9.94195 44.9178C10.1116 44.9274 10.2825 44.9187 10.4502 44.8962C10.6176 44.8719 10.7842 44.8329 10.9434 44.7896C11.0939 44.7462 11.2535 44.7324 11.4137 44.7341C11.7346 44.7402 12.0577 44.8112 12.3705 44.9213C12.085 44.7506 11.7595 44.6405 11.42 44.6093C11.2501 44.5928 11.0761 44.6032 10.9062 44.6431C10.7448 44.6812 10.5893 44.7168 10.4283 44.7367C10.1093 44.7861 9.78837 44.7696 9.46415 44.722C9.38199 44.7107 9.30278 44.696 9.21689 44.6873C9.13205 44.6795 9.04694 44.6769 8.96218 44.6804C8.7937 44.6908 8.626 44.7202 8.47243 44.7861C8.6353 44.7549 8.80003 44.748 8.96175 44.7592Z" fill="black"/>
<path fill-rule="evenodd" clip-rule="evenodd" d="M26.3938 36.6994C26.3968 36.7393 26.4172 36.7774 26.444 36.8069C26.4716 36.8346 26.5042 36.8545 26.5373 36.8693C26.6698 36.9282 26.8055 36.9429 26.9408 36.9533C27.0765 36.9603 27.2115 36.9559 27.3453 36.9386C27.4785 36.9213 27.612 36.8944 27.7373 36.8433C27.6027 36.8511 27.4711 36.8537 27.3394 36.8554C27.2081 36.8554 27.0769 36.8545 26.9471 36.8467C26.882 36.8441 26.8177 36.8381 26.7538 36.8294C26.6906 36.8225 26.6255 36.8103 26.5686 36.7921C26.5117 36.7739 26.4607 36.7445 26.4459 36.6916C26.4307 36.6379 26.4529 36.5703 26.4842 36.5122C26.4351 36.5573 26.3919 36.6197 26.3938 36.6994Z" fill="black"/>
<path fill-rule="evenodd" clip-rule="evenodd" d="M16.0278 41.9235C15.9441 41.816 15.8597 41.7077 15.7753 41.5994C14.649 41.5664 13.5331 41.5378 12.4376 41.5222C12.4793 41.6834 13.9473 41.8221 16.0278 41.9235Z" fill="black"/>
<path fill-rule="evenodd" clip-rule="evenodd" d="M12.8361 37.3597C12.7219 37.3606 12.6075 37.3519 12.4951 37.3285C12.3825 37.306 12.2709 37.2722 12.1668 37.2141C12.25 37.3008 12.3606 37.358 12.4732 37.403C12.5874 37.4472 12.7078 37.4732 12.8298 37.4845C12.9518 37.4966 13.0749 37.4949 13.1961 37.481C13.3158 37.4689 13.4285 37.4507 13.5449 37.4429C13.7769 37.4204 14.0007 37.4152 14.2283 37.4585C14.3462 37.4793 14.4674 37.4914 14.5879 37.4914C14.708 37.4906 14.8322 37.481 14.943 37.4342C14.8244 37.4464 14.7088 37.4325 14.5946 37.4134C14.4797 37.3944 14.3678 37.3666 14.2547 37.3354C14.1409 37.3016 14.0156 37.2817 13.8937 37.2739C13.7713 37.267 13.6501 37.2739 13.5304 37.2826C13.411 37.2947 13.2905 37.3138 13.1763 37.3311C13.0637 37.3519 12.9499 37.3562 12.8361 37.3597Z" fill="black"/>
<path fill-rule="evenodd" clip-rule="evenodd" d="M5.75656 39.8895C5.83725 39.8973 5.9172 39.9112 5.99491 39.9311C6.07561 39.9519 6.1589 39.9684 6.24219 39.984C6.57611 40.0421 6.9171 40.0386 7.25064 40.0134C7.41761 39.9987 7.58381 39.9797 7.74891 39.9563C7.90992 39.9329 8.07168 39.9207 8.23455 39.9172C8.39741 39.9155 8.56066 39.9233 8.7235 39.9441C8.88643 39.964 9.04893 39.9944 9.2084 40.0421C9.06193 39.9615 8.90056 39.9086 8.73806 39.867C8.57441 39.8271 8.40634 39.8011 8.23752 39.7924C8.06833 39.7812 7.89802 39.7899 7.72958 39.8063C7.5656 39.8245 7.40161 39.8418 7.238 39.854C6.91041 39.8808 6.58318 39.8904 6.25892 39.8592C6.17749 39.8514 6.09717 39.8401 6.01574 39.828C5.93059 39.815 5.84468 39.8098 5.75953 39.8107C5.59258 39.8159 5.42599 39.8436 5.27427 39.9068L5.27464 39.9086C5.43528 39.8791 5.59815 39.873 5.75656 39.8895Z" fill="black"/>
<path fill-rule="evenodd" clip-rule="evenodd" d="M13.4572 34.2728L13.4018 34.3742C13.5966 34.3482 13.7882 34.3014 13.9692 34.2295C13.7978 34.2538 13.6271 34.2676 13.4572 34.2728Z" fill="black"/>
<path fill-rule="evenodd" clip-rule="evenodd" d="M11.4852 39.9233C11.4075 39.9458 11.3398 39.9692 11.2673 39.984C11.1951 39.9996 11.1215 40.01 11.0472 40.0117C10.8984 40.0169 10.7456 39.997 10.6006 39.945C10.7311 40.0299 10.8868 40.0732 11.0446 40.0897C11.1238 40.0975 11.204 40.0958 11.2836 40.088C11.3238 40.0845 11.3636 40.0776 11.4026 40.0689L11.5154 40.0446C11.8098 39.984 12.1107 39.9666 12.4115 39.9848C12.562 39.9918 12.7123 40.0082 12.8628 40.029C13.0143 40.0446 13.1611 40.0784 13.3217 40.0914C13.6356 40.1157 13.9643 40.0689 14.2324 39.9094C13.939 40.0065 13.6304 40.0117 13.3367 39.9666C13.192 39.9415 13.0388 39.9042 12.8856 39.8782C12.732 39.8522 12.5766 39.8349 12.42 39.8254C12.2635 39.8176 12.1058 39.8193 11.9485 39.834C11.792 39.8514 11.6358 39.8782 11.4852 39.9233Z" fill="black"/>
<path fill-rule="evenodd" clip-rule="evenodd" d="M17.0339 34.9459C17.1547 35.1505 17.3693 35.9192 17.3526 35.9643C17.3383 36.005 17.3001 36.0466 17.2529 36.0847C16.6735 36.0639 16.154 35.7571 15.5238 35.8464C15.5453 35.4304 15.7584 34.952 15.8908 34.6842C16.0317 34.3991 16.1276 34.1824 16.1942 33.8271C16.3289 34.1287 16.7189 34.4121 17.0339 34.9459ZM18.6838 24.3102C18.7369 24.4896 18.7871 24.7617 18.7871 24.7617C19.0054 26.3148 18.5287 25.7428 18.7793 27.4935L18.812 27.7309C18.812 27.7309 18.3439 28.0698 18.1557 28.2986C17.8746 28.6418 17.7961 28.9633 17.4347 29.2034C16.8323 29.6021 16.7888 29.8959 16.7211 29.8239C16.6375 29.7347 16.5791 29.6376 16.5791 29.6376C16.6177 29.5293 16.6088 29.3967 16.5753 29.2953C16.562 29.2545 16.546 29.2147 16.5318 29.1748C16.4984 29.0795 16.5159 28.9668 16.5062 28.8671C16.4958 28.764 16.4798 28.6557 16.4363 28.5612C16.4296 28.5456 16.4214 28.5309 16.4121 28.517L18.6838 24.3102ZM19.0229 38.2462C18.934 38.4837 18.5324 38.7289 18.1554 38.9127C18.0765 39.3503 18.0724 40.4241 18.0672 40.8843C18.0646 41.1157 18.0029 41.6747 18.1665 42.4365C17.9055 41.9815 17.6775 41.5543 17.6712 41.4451C17.6224 40.529 17.0071 39.619 16.5266 39.5046C16.3693 39.4665 16.3682 39.4925 15.9135 39.3859C16.163 39.3365 16.3865 39.2905 16.5883 39.2489H16.5843C16.5843 39.2489 16.5917 39.2481 16.6055 39.2455C16.7404 39.2169 16.8651 39.1909 16.9803 39.1657C17.5124 39.0383 18.4569 38.7541 19.0229 38.2462ZM16.1091 28.1547C16.0105 28.0698 15.9149 28.0672 15.8469 27.9511C15.7833 27.8427 15.6461 27.7951 15.5245 27.7595C15.413 27.7275 15.2947 27.7006 15.1802 27.6928C15.069 27.6859 14.9768 27.6044 14.8675 27.5905C14.6466 27.5628 14.4105 27.5351 14.1988 27.646C14.1066 27.6937 14.0688 27.7439 13.9754 27.7899C13.8824 27.8349 13.7894 27.8791 13.6962 27.9242C13.6024 27.9701 13.5001 28.0091 13.4188 28.0776C13.3265 28.1547 13.2462 28.2804 13.1848 28.3801C13.1108 28.4997 13.1131 28.6331 13.0952 28.6955C13.0447 28.8723 12.9532 28.9027 12.9535 29.063C12.9535 29.1488 12.9086 29.2381 12.9629 29.3915C12.9792 29.4374 12.9655 29.5215 12.9673 29.5683C12.9733 29.7381 13.0573 30.0025 13.2108 29.9687C13.2837 29.9522 13.3068 29.9453 13.3295 29.9912C13.3808 30.0943 13.4206 30.2217 13.4883 30.3153C13.5173 30.3552 13.5563 30.3873 13.5991 30.4115C13.6177 30.4228 13.7691 30.4705 13.7686 30.4679C13.788 30.6048 13.8735 31.026 14.1178 30.9133C14.1665 30.8908 14.2193 30.8119 14.2342 30.9003C14.2446 30.9601 14.2595 31.0269 14.3082 31.0676C14.3592 31.1109 14.4361 31.0997 14.4803 31.052C14.4845 31.0477 14.4871 31.0503 14.486 31.0563C14.4763 31.1196 14.5447 31.1716 14.605 31.1621L10.3205 39.0973L9.64338 40.1303L9.63706 40.1407C9.63706 40.1407 9.66644 40.2846 9.67164 40.3089L9.67502 40.3097C9.6017 40.4033 8.44193 41.8871 7.85033 42.6428C7.71125 42.8213 7.60565 42.9557 7.55731 43.0181C7.58334 43.0311 7.62387 43.0545 7.6525 43.0683L8.1095 42.7754C8.07194 42.7563 8.03662 42.7381 8.00167 42.7199C8.28873 42.3507 9.54146 40.7361 9.54146 40.7361L8.15636 43.3197C8.18759 43.3353 8.21883 43.3509 8.25006 43.3665L8.63158 43.0432C8.59551 43.025 8.5587 43.0077 8.52151 42.9903C8.7807 42.492 9.66349 40.7899 9.66349 40.7899C9.66349 40.7899 9.1291 42.5821 8.9439 43.2035C8.91044 43.1862 8.87699 43.1697 8.84206 43.1515L8.86884 43.6759C8.89372 43.6889 8.93835 43.714 8.96218 43.7253C8.98151 43.662 9.03022 43.5017 9.09678 43.2824L9.09565 43.2815C9.36189 42.4053 9.85979 40.7691 9.965 40.4311L10.1368 40.3323L10.6143 39.2541L14.8827 31.3484C14.9329 31.3883 15.0061 31.4047 15.1166 31.3449C15.4133 31.1846 15.5037 31.0598 15.5037 31.0598C15.5386 31.0945 15.7075 31.2331 15.7075 31.2331C15.7484 31.4368 15.3371 31.7904 15.1831 31.9438C14.9511 32.1761 14.8474 32.4213 14.7823 32.6796C14.7578 32.7905 14.7444 32.8928 14.7344 32.9812C14.7217 33.0046 14.7113 33.0358 14.7031 33.0757C14.6024 33.5662 14.5206 33.6104 14.3933 34.1755C14.2941 34.6149 14.3052 34.8367 14.255 35.3411C14.2108 35.6228 14.1803 35.8152 14.1717 35.9989V36.0007V36.0024C14.1691 36.057 14.1688 36.1116 14.1706 36.1679C14.1826 36.5103 14.2963 36.8223 14.535 36.8881C14.8482 36.9748 15.1497 37.1117 15.8938 37.0632C15.4813 37.3631 15.0857 37.6656 14.7451 37.9802C14.5793 38.1327 14.1118 38.5547 14.1275 38.8156C14.1506 39.1987 14.248 39.6034 14.9043 40.2889C15.3959 40.7431 16.5675 42.31 17.5024 43.5719C17.8088 44.3423 17.8887 44.6717 17.875 44.8753C17.8612 45.0799 17.779 45.4482 17.8195 45.6917C17.8549 45.9049 18.0416 45.9448 18.2372 45.7489C18.2554 46.5662 18.258 47.7327 18.2505 48.0213C18.249 48.0664 18.3037 48.0855 18.3379 48.0976C18.5848 48.1851 19.0601 48.2103 19.2571 48.0552C19.285 48.0326 19.2813 47.9659 19.2824 47.9312C19.285 47.8419 19.2809 47.7527 19.2854 47.6634C19.3091 47.1841 19.362 46.1259 19.5003 45.6614C19.6502 45.1596 19.7755 44.7349 19.861 44.2132C20.0663 42.9565 19.8658 42.9045 19.9116 42.3395C19.9357 42.0431 20.1458 41.4875 20.1458 41.4875C20.6709 39.9995 20.791 39.2732 20.7809 38.1049C21.2923 37.0563 20.99 35.7441 20.3507 34.8679C20.2987 34.7969 20.0729 34.3601 20.028 34.2049C19.983 34.0489 19.9216 33.5454 19.8491 33.0349C19.684 31.871 18.9838 30.8882 19.108 30.4861C19.3203 29.7971 19.5353 29.1367 19.9513 28.5421C20.4121 27.8843 19.9863 26.6008 19.8558 25.8797C19.7557 25.3268 19.5494 24.6543 19.407 24.1039C19.4044 24.0849 19.401 24.0684 19.3981 24.0519C19.3981 24.0398 19.3984 24.0277 19.3984 24.0121C19.3969 23.8353 19.5356 23.2641 19.3326 23.1168L19.3289 23.1142L19.6375 22.5439C19.5178 22.5309 19.3981 22.5188 19.2776 22.5093L19.0504 22.9296C18.9979 22.8941 18.915 22.8863 18.7942 22.9183C18.5651 22.979 18.0438 23.8379 18.2561 24.0407C18.3011 24.084 18.3536 24.1074 18.4078 24.1195L16.1823 28.2414C16.1574 28.2067 16.1318 28.1738 16.1091 28.1547Z" fill="black"/>
<path fill-rule="evenodd" clip-rule="evenodd" d="M10.2936 37.1829C10.4237 37.189 10.5538 37.1872 10.6832 37.1794C10.8127 37.1716 10.9417 37.1578 11.0689 37.1326C10.8108 37.1456 10.5531 37.1396 10.3002 37.1049C10.1731 37.0893 10.05 37.065 9.92393 37.0364C9.79489 37.007 9.66324 36.9931 9.53237 36.9862C9.26951 36.9697 9.00847 36.9896 8.75038 37.0139C8.49196 37.0399 8.23836 37.0746 7.98364 37.0919C7.47533 37.1352 6.96478 37.1196 6.46391 37.026C6.33896 37.0044 6.21476 36.9732 6.08387 36.9506C5.9541 36.9307 5.82359 36.9186 5.69269 36.916C5.5618 36.9142 5.43091 36.9238 5.30225 36.942C5.17359 36.9602 5.04567 36.9896 4.92557 37.0382C5.17694 36.9784 5.43537 36.9688 5.68823 36.994C5.81503 37.0061 5.94072 37.0252 6.06379 37.0538L6.2486 37.1006C6.31144 37.117 6.37466 37.1344 6.43824 37.1482C6.69222 37.2098 6.95251 37.2444 7.21317 37.2618C7.47459 37.2782 7.73674 37.2696 7.99591 37.2514C8.51613 37.2106 9.02113 37.1066 9.5283 37.111C9.65475 37.111 9.78041 37.1205 9.90461 37.1404C10.0317 37.1604 10.1634 37.1768 10.2936 37.1829Z" fill="black"/>
<path fill-rule="evenodd" clip-rule="evenodd" d="M5.53651 35.409C5.82135 35.4142 6.10135 35.3804 6.37986 35.3553C6.65838 35.3302 6.93354 35.3076 7.2102 35.318C7.48722 35.3232 7.76091 35.351 8.04128 35.3804C8.60128 35.4316 9.16317 35.4705 9.72876 35.4497C9.86968 35.4437 10.0124 35.4342 10.1526 35.4125C10.2924 35.3917 10.4308 35.3674 10.5687 35.3414C10.8442 35.2851 11.1191 35.2288 11.3909 35.1594C11.1124 35.1932 10.835 35.234 10.5569 35.2634C10.278 35.2972 10.0031 35.3284 9.72616 35.325C9.44831 35.3224 9.16985 35.3102 8.89173 35.2903C8.61318 35.2721 8.33504 35.2487 8.0569 35.221C7.77987 35.195 7.49578 35.1664 7.21206 35.1664C6.9276 35.1646 6.64313 35.1906 6.36574 35.2314L5.94963 35.2894C5.81057 35.3094 5.67409 35.3232 5.5354 35.331C5.25986 35.3449 4.97689 35.331 4.7125 35.2366C4.83632 35.3033 4.97502 35.3397 5.11373 35.3657C5.2528 35.3917 5.39446 35.4056 5.53651 35.409Z" fill="black"/>
<path fill-rule="evenodd" clip-rule="evenodd" d="M23.2032 34.3739C23.5092 34.3393 23.8138 34.2717 24.0912 34.1417C23.7937 34.2084 23.4936 34.2396 23.1943 34.2509C22.8953 34.2578 22.5971 34.2422 22.3022 34.1963C21.9996 34.1521 21.6939 34.1209 21.3863 34.1209C21.0796 34.12 20.7694 34.1538 20.4761 34.2396C20.7817 34.2205 21.0818 34.2231 21.3816 34.2474C21.5314 34.2604 21.6812 34.2734 21.8307 34.2933C21.9798 34.3107 22.1293 34.3323 22.2784 34.3549C22.5841 34.3991 22.8964 34.4077 23.2032 34.3739Z" fill="black"/>
<path fill-rule="evenodd" clip-rule="evenodd" d="M21.4139 35.72C21.4013 35.7625 21.4139 35.8188 21.4522 35.8509C21.4883 35.8838 21.5332 35.8986 21.5738 35.9098C21.6151 35.9211 21.6582 35.9271 21.7002 35.9297C21.7854 35.9375 21.8646 35.9306 21.9349 35.948C22.0055 35.9636 22.0717 35.9982 22.1345 36.0416C22.1487 36.052 22.171 36.0649 22.1907 36.0753C22.2104 36.0883 22.2316 36.0962 22.2528 36.104C22.2733 36.1126 22.2944 36.1196 22.3157 36.1248C22.3368 36.1291 22.3581 36.136 22.3796 36.1378C22.4644 36.1516 22.5488 36.1533 22.6317 36.1481C22.7975 36.1377 22.9597 36.1039 23.1144 36.0493C22.9511 36.0606 22.7897 36.0702 22.6306 36.065C22.5518 36.0598 22.4725 36.0563 22.3982 36.0381C22.3792 36.0346 22.3613 36.0294 22.3431 36.0242C22.3249 36.0199 22.3071 36.0147 22.2907 36.0069C22.274 36 22.2565 35.9939 22.2428 35.9835C22.2275 35.974 22.2141 35.967 22.1952 35.954C22.1241 35.9072 22.0438 35.8639 21.9542 35.8492C21.8642 35.8336 21.7795 35.8448 21.7028 35.8466C21.6638 35.8483 21.6259 35.8466 21.5876 35.8414C21.5493 35.8362 21.5132 35.8283 21.4853 35.8101C21.4559 35.7937 21.4422 35.7625 21.4433 35.7243C21.4451 35.6879 21.4585 35.6481 21.4775 35.6125C21.4496 35.642 21.4254 35.6776 21.4139 35.72Z" fill="black"/>
<path fill-rule="evenodd" clip-rule="evenodd" d="M13.6848 44.1804C13.6212 44.2186 13.5625 44.2654 13.5126 44.3243C13.465 44.3815 13.4208 44.4612 13.4397 44.5531C13.4621 44.6441 13.5376 44.703 13.603 44.7412C13.6677 44.7819 13.738 44.8122 13.8086 44.8417C14.0938 44.9526 14.4088 44.9795 14.7122 44.9249C14.8475 44.8989 14.9904 44.8928 15.1313 44.898C15.2733 44.9024 15.4143 44.9214 15.5515 44.9535C15.6169 44.97 15.6946 44.9951 15.769 45.0064C15.8445 45.0176 15.9207 45.0246 15.9969 45.0228C16.149 45.0176 16.2985 44.9803 16.4298 44.9119C16.2862 44.9465 16.1409 44.9604 15.9995 44.9431C15.9292 44.9362 15.8594 44.9223 15.7917 44.9032C15.7222 44.8842 15.6615 44.8599 15.5868 44.833C15.2953 44.7403 14.9889 44.716 14.6821 44.7672C14.5456 44.7949 14.405 44.8018 14.2649 44.794C14.124 44.7888 13.9849 44.7628 13.8495 44.7238C13.7822 44.703 13.716 44.6788 13.6524 44.6484C13.5892 44.6216 13.536 44.5843 13.5157 44.5314C13.4936 44.4794 13.5141 44.4092 13.5491 44.3494C13.5848 44.2888 13.632 44.2316 13.6848 44.1804Z" fill="black"/>
<path fill-rule="evenodd" clip-rule="evenodd" d="M17.4121 43.7825C17.3627 43.6698 16.9064 43.0614 16.3501 42.3395C15.1447 42.2086 14.0034 42.0448 12.9946 41.8533C12.6648 41.7909 12.2085 41.5265 12.2085 41.5265C12.1419 41.3601 11.988 41.3203 11.9002 41.3662C11.8646 41.1851 11.721 41.1608 11.6173 41.231C11.6195 41.0256 11.4172 41.0629 11.3611 41.0941C11.3611 41.0941 11.1982 40.9805 11.08 40.9155L10.9029 41.1547C10.9729 41.2119 11.081 41.2891 11.1536 41.3437C11.0859 41.5101 11.2499 41.6011 11.3819 41.5326C11.3153 41.5846 11.412 41.8576 11.6377 41.7623C11.663 41.9859 11.846 42.0361 11.965 42.0093C11.965 42.0093 12.394 42.3733 12.5145 42.4729C12.8354 42.7381 13.1564 43.0042 13.4776 43.2703C13.7915 43.5303 14.1072 43.7877 14.4181 44.0511C14.7356 44.3198 15.046 44.3025 15.4477 44.2981C16.0553 44.2912 16.8384 44.3155 17.6029 44.3493C17.5349 44.1196 17.4631 43.8995 17.4121 43.7825Z" fill="black"/>
<path fill-rule="evenodd" clip-rule="evenodd" d="M12.1773 46.7041C11.6578 46.6045 11.1156 46.6365 10.6133 46.7769C10.8714 46.7371 11.1313 46.7197 11.3893 46.7284C11.6485 46.7345 11.9013 46.7674 12.1539 46.8263C12.4101 46.8835 12.6703 46.9243 12.934 46.9485C13.1976 46.9693 13.4638 46.9702 13.7271 46.9477C13.9893 46.926 14.2526 46.8818 14.5057 46.8393C14.759 46.7995 15.0163 46.7804 15.274 46.7769C15.7898 46.7735 16.3093 46.8211 16.8205 46.926C16.3234 46.7648 15.8017 46.6764 15.2755 46.6565C15.0122 46.6469 14.7475 46.6582 14.4849 46.6929C14.3518 46.7085 14.2268 46.7301 14.0982 46.7475C13.9703 46.7639 13.8424 46.7795 13.7141 46.7882C13.2017 46.8333 12.6882 46.7908 12.1773 46.7041Z" fill="black"/>
</svg>
