<svg width="88" height="72" viewBox="0 0 88 72" fill="none" xmlns="http://www.w3.org/2000/svg">
<path d="M61.2615 13.0441C61.2615 13.0441 59.6235 13.6953 57.7183 15.7936C55.8131 17.8919 54.7017 20.2569 55.5207 20.879C55.8363 21.1167 56.5624 21.1611 57.8868 19.9709C59.1073 18.917 60.0652 17.594 60.6846 16.1066C61.5365 14.0276 61.2654 13.0789 61.2654 13.0499L61.2615 13.0441ZM71.7073 16.8215C69.5852 15.7279 68.0402 14.414 66.4234 13.5832C64.8861 12.793 63.8909 12.4664 62.6479 12.6306C62.474 12.661 62.3026 12.7037 62.1348 12.7582C62.1348 12.7582 62.7795 14.9376 60.2315 18.6087C57.6525 22.3243 55.3136 22.3069 54.6494 21.2771C53.9485 20.2008 54.8431 18.004 56.3514 16.0486C57.9235 14.0025 60.6865 12.3041 60.6865 12.3041C60.6865 12.3041 59.8055 11.7689 57.6428 12.992C55.5323 14.1841 51.8904 17.0282 48.5253 21.8142C45.1602 26.6001 44.4922 29.2375 44.0004 31.3165C43.5086 33.3955 43.9578 35.6117 46.2638 35.6117C48.5698 35.6117 51.2514 32.0991 52.0065 30.8779C53.4122 28.6057 54.33 25.122 52.4131 25.6012C51.4721 25.8369 50.7073 26.8822 50.2252 27.885C49.9203 28.5304 49.6859 29.2067 49.5263 29.9022C48.8577 30.1774 48.2298 30.5421 47.6598 30.9861C47.0266 31.4554 46.4351 31.9784 45.892 32.5493C45.892 32.5493 45.892 30.8915 47.2183 28.2058C48.5446 25.5201 50.9784 24.2932 52.3512 24.185C53.5923 24.0787 55.2071 25.1298 53.8382 29.0153C52.4693 32.9009 48.4478 37.5999 44.2075 37.6656C40.2926 37.7236 37.729 32.7347 43.1717 24.0381C49.1894 14.414 56.2681 11.4675 58.5606 11.1294C60.853 10.7912 61.6043 11.8076 61.6043 11.8076C62.9865 11.2392 64.4803 10.9928 65.9723 11.0869C68.772 11.2801 70.9464 13.2567 73.8061 14.644C73.0568 15.3685 72.3443 16.1105 71.7034 16.8099L71.7073 16.8215ZM84.3023 13.5639C82.3661 14.8101 79.6689 15.9385 77.088 15.6893C76.4336 16.3655 75.7327 17.1461 75.0298 18.0078C79.5102 18.8908 83.4329 16.1221 85.5221 13.7571C86.2774 12.9088 86.9275 11.9727 87.4583 10.969C86.5109 11.9577 85.4489 12.8301 84.2945 13.5677L84.3023 13.5639ZM78.331 26.1673C78.3683 26.1116 78.3964 26.0503 78.4143 25.9857C78.3873 25.7765 78.2166 25.615 78.0058 25.5993C77.5779 25.5742 76.9951 25.6573 75.4713 27.3382C74.2062 28.7335 73.1177 30.2786 72.2301 31.9387C71.3588 33.5327 71.0064 34.7171 71.5059 35.0205C71.6703 35.1023 71.8586 35.1222 72.0365 35.0765C72.3772 34.9934 72.7606 34.6785 73.3511 34.0003C73.6241 33.6834 73.932 33.2274 74.2941 32.7328C75.2951 31.361 77.8296 27.0407 78.331 26.1635V26.1673ZM62.4794 28.0106C62.733 27.344 63.0603 26.0418 62.3787 25.5259C61.6527 24.981 59.8094 26.262 59.7997 27.5662C59.79 28.9071 61.1008 29.5158 61.4184 29.6008C61.5965 29.6472 61.6546 29.6433 61.7437 29.4965C62.0257 29.0202 62.2717 28.5235 62.4794 28.0106ZM61.0854 30.4451C60.6281 30.2341 60.2016 29.9624 59.8171 29.6375C59.4302 29.3162 59.106 28.9265 58.8607 28.4879C58.8316 28.4415 58.8064 28.4743 58.7793 28.5188C58.7522 28.5632 58.6399 28.6444 57.6525 30.0954C56.665 31.5465 55.1587 34.5201 56.5295 35.0282C57.4066 35.347 58.8645 33.8187 59.6622 32.8004C60.2072 32.0944 60.7021 31.3513 61.1434 30.5765C61.1802 30.4876 61.1434 30.4703 61.0989 30.4509L61.0854 30.4451ZM76.6214 33.8921C76.2516 34.4833 75.8314 35.6175 77.059 34.9104C78.5518 34.0467 80.6835 30.8219 80.6835 30.8219H81.6419C80.7652 32.1716 79.7872 33.4531 78.7163 34.6553C77.2061 36.3324 75.359 37.855 74.0559 37.7023C72.5341 37.5284 73.0104 35.5383 73.0104 35.5383C73.0104 35.5383 70.8283 37.8569 69.3316 37.6869C67.3025 37.4608 67.9221 34.9509 67.9221 34.9509C67.9221 34.9509 65.6238 37.7719 64.0593 37.6869C61.6023 37.5439 62.218 34.5548 62.8976 32.47C63.2616 31.3513 63.5985 30.4645 63.5985 30.4645C63.5985 30.4645 63.3565 30.5282 62.8357 30.6055C62.5627 30.6461 62.0612 30.6731 62.0612 30.6731C61.4973 31.6657 60.8834 32.6292 60.2218 33.5598C59.4067 34.6399 55.9293 38.3708 53.8827 37.6173C51.9891 36.9314 52.6106 34.039 53.7181 31.7397C55.3213 28.3951 59.8404 23.5763 62.4465 24.2043C65.1475 24.8573 62.5065 29.7805 62.5065 29.7805C62.513 29.794 62.5239 29.8049 62.5375 29.8114C62.7109 29.8419 62.889 29.8326 63.0583 29.7843C63.3962 29.7133 63.7272 29.6131 64.0477 29.4849C64.0477 29.4849 66.7584 23.8062 69.7634 20.0907C72.7683 16.3752 78.7376 9.98166 81.0862 11.5274C81.6671 11.9138 81.4038 13.218 80.6274 14.8121C80.2866 14.9145 79.9323 15.0053 79.5683 15.0884C80.0891 14.1493 80.4299 13.3494 80.5364 12.8084C80.8868 10.8878 76.3987 14.9338 73.1904 19.2889C71.2599 21.913 69.5434 24.6875 68.0576 27.5855C68.6411 27.2383 69.1965 26.8462 69.7188 26.4127C71.1463 25.2243 72.5039 23.9547 73.7849 22.6102C75.0188 21.3492 76.1767 20.0162 77.2526 18.6184C77.5938 18.6011 77.9338 18.565 78.271 18.5102C77.0982 20.0996 75.8207 21.6094 74.447 23.0295C73.1711 24.3183 71.7828 25.7114 70.5746 26.7199C69.5018 27.6324 68.3685 28.4716 67.1824 29.2317C67.1824 29.2317 64.3711 34.8775 65.9007 35.2427C66.7952 35.4552 68.5726 32.7309 68.5726 32.7309C68.5726 32.7309 70.8786 29.2066 72.2707 27.6261C74.174 25.4679 75.8101 24.2197 77.4443 24.1907C78.3988 24.1772 78.9603 25.1916 78.9603 25.1916L79.4095 24.5018H82.1705C82.1705 24.5018 77.0222 33.2274 76.6078 33.8882L76.6214 33.8921ZM84.2945 13.5658C82.3583 14.8121 79.6612 15.9404 77.0803 15.6912C76.4258 16.3674 75.7249 17.148 75.0221 18.0098C79.5024 18.8928 83.4252 16.124 85.5143 13.759C86.2697 12.9107 86.9198 11.9746 87.4505 10.9709C86.5032 11.9596 85.4411 12.832 84.2868 13.5697L84.2945 13.5658ZM45.5455 17.8765H42.918L41.4349 20.2723H44.0604L45.5455 17.8765ZM33.117 26.1654C34.2342 24.6371 37.3108 19.2831 37.3108 19.2831C37.2824 19.0745 37.1125 18.9138 36.9023 18.8966C36.4763 18.8773 35.7715 19.0222 34.3523 20.7863C32.9331 22.5503 31.8469 23.957 31.0472 25.4235C30.174 27.0194 29.7926 28.142 30.2941 28.4492C30.4562 28.5335 30.6441 28.5542 30.8207 28.5072C31.1498 28.4202 31.5777 28.0918 32.1644 27.4174C32.4394 27.1025 32.7453 26.6755 33.117 26.1789V26.1654ZM19.0273 18.9469C18.3051 18.3981 16.4561 19.6811 16.4503 20.9872C16.4386 22.3243 18.1154 22.7107 18.3303 22.7262C18.4329 22.7593 18.5447 22.7156 18.5975 22.6218C18.7942 22.2365 18.9707 21.8411 19.1261 21.4374C19.3836 20.7728 19.7069 19.4647 19.0273 18.9565V18.9469ZM17.9353 23.5725C17.4348 23.4193 16.9564 23.2017 16.5122 22.9252C16.0838 22.6419 15.7341 22.255 15.4957 21.8007C15.4686 21.7562 15.4415 21.8007 15.4163 21.8277C15.3912 21.8548 15.2421 22.0538 14.2546 23.4971C13.2672 24.9404 11.8092 27.8986 13.1762 28.4106C14.0533 28.7294 15.5228 27.1953 16.3225 26.1751C16.921 25.3811 17.4744 24.5541 17.9799 23.698C18.0166 23.6111 17.9799 23.5918 17.9334 23.5725H17.9353ZM39.3825 24.4516H40.3506C40.3506 24.4516 35.5334 31.4074 32.8111 31.0924C31.2893 30.9147 31.7385 29.0424 31.7385 29.0424C31.7385 29.0424 29.6086 31.5368 27.6511 31.0402C25.8679 30.5843 27.0141 27.6319 27.0141 27.6319C26.8205 27.7169 22.9675 32.0469 20.2626 31.0093C17.4377 29.9196 18.9073 26.2929 19.4397 25.2129C19.8947 24.2893 20.4078 23.3947 20.4078 23.3947C20.4078 23.3947 19.9722 23.5164 19.7011 23.5879C19.4301 23.6594 19.0254 23.7328 19.0254 23.7328C19.0254 23.7328 17.6836 25.9007 16.8685 26.9846C16.0533 28.0686 12.5759 31.7957 10.5274 31.0538C8.47895 30.3118 8.97849 27.4522 10.1402 25.1781C12.0067 21.4954 16.4328 16.9683 19.099 17.6427C21.7651 18.317 19.5637 22.6914 19.5637 22.6914C19.5637 22.6914 20.1039 22.7571 21.3856 21.8876C23.2366 20.624 25.6724 17.2369 28.3133 17.6369C29.5564 17.8301 30.7103 19.0956 29.1304 21.5012C28.6251 22.274 27.7751 22.9696 27.1245 22.2856C26.7218 21.8625 27.0703 21.0838 27.4982 20.5467C27.8338 20.1052 28.3668 19.8585 28.9213 19.8878C28.9213 19.8878 29.3589 18.8928 28.2514 18.9102C27.351 18.9276 25.076 21.022 23.7981 23.1319C22.617 25.0757 20.8377 28.3816 22.6364 29.0984C24.2802 29.7612 27.4033 26.0572 28.8516 24.1154C30.2999 22.1736 33.5953 17.7721 36.3621 17.5905C37.3108 17.5306 37.8801 18.3962 37.8801 18.3962L38.2034 17.8938H40.9644C40.9644 17.8938 35.7561 26.575 35.3495 27.232C35.03 27.7478 34.6079 28.9033 35.7832 28.2541C36.9584 27.6049 39.4135 24.4535 39.4135 24.4535L39.3825 24.4516ZM37.913 38.3651C35.8737 36.9589 33.4332 36.2492 30.9562 36.3421C29.5947 36.3803 28.3328 37.0634 27.5582 38.1815C26.5069 36.3421 24.4158 35.2137 21.1881 35.2369C15.9778 35.3007 10.8043 37.7062 6.70733 37.7062C2.77298 37.7062 -0.0925854 35.2408 0.00228816 30.8606C0.168801 23.1918 6.66473 16.2708 11.5207 13.1581C14.3108 11.3709 16.6497 10.8395 18.1793 11.0096C19.2926 11.1352 20.6382 12.42 19.7921 14.3136C18.551 17.0901 16.8336 16.8563 16.8878 15.5308C16.9246 14.6691 17.5016 14.1281 17.9314 13.8305C18.2429 13.6645 18.591 13.5788 18.9441 13.5813C19.1861 13.3726 19.3758 11.8539 17.3758 12.3601C15.3757 12.8664 12.9477 14.8005 10.6533 17.3239C8.3589 19.8473 4.78469 24.6429 3.90178 29.6781C3.48937 32.0083 3.76819 36.2474 9.29796 36.2088C13.9874 36.1624 20.9151 33.0787 27.2678 33.1347C29.7364 33.1579 31.8895 33.8187 33.5604 34.8524C35.2313 35.8861 37.185 37.3449 37.8839 38.3535L37.913 38.3651Z" fill="black"/>
<path fill-rule="evenodd" clip-rule="evenodd" d="M1.67322 49.9347V41.8215H7.47986V42.9808H3.00919V45.1951H6.89901V46.2829H3.00919V48.7754H7.59604V49.9347H1.67322Z" fill="black"/>
<path fill-rule="evenodd" clip-rule="evenodd" d="M15.5809 41.8215V46.6075C15.5809 48.6594 14.1752 50.0506 12.1887 50.0506C10.2021 50.0506 8.84485 48.6981 8.84485 46.6539V41.8235H10.2002V46.621C10.2002 47.9542 11.0463 48.8237 12.2313 48.8237C13.4162 48.8237 14.2643 47.9542 14.2643 46.621V41.8215H15.5809Z" fill="black"/>
<path d="M18.7175 42.9576V45.908H20.7253C21.7476 45.908 22.375 45.282 22.375 44.4241C22.375 43.5663 21.7476 42.9518 20.7253 42.9518L18.7175 42.9576ZM17.3815 41.8215H20.888C22.5725 41.8215 23.7109 42.8765 23.7109 44.372C23.7276 45.513 22.9502 46.5134 21.8386 46.7814L24.0575 49.9347H22.4892L20.433 46.9553H18.7156V49.9347H17.3854L17.3815 41.8215Z" fill="black"/>
<path d="M31.9862 45.879C31.9862 44.2096 30.7432 42.9344 29.0819 42.9344C27.4822 42.9753 26.2067 44.2812 26.2067 45.8781C26.2067 47.4749 27.4822 48.7808 29.0819 48.8217C30.7432 48.8217 31.9862 47.5465 31.9862 45.879ZM33.3203 45.8558C33.3251 46.9796 32.8761 48.0579 32.0745 48.8472C31.273 49.6365 30.1866 50.0703 29.0606 50.0506C26.6694 50.0506 24.8455 48.2421 24.8455 45.9022C24.8428 44.7789 25.2925 43.7017 26.0935 42.9125C26.8945 42.1233 27.9797 41.6885 29.1052 41.7056C31.5099 41.7056 33.3203 43.5141 33.3203 45.8558Z" fill="black"/>
<path d="M36.1955 42.9576V46.0491H38.1317C39.1773 46.0491 39.8627 45.3883 39.8627 44.5034C39.8627 43.6184 39.1773 42.9576 38.1317 42.9576H36.1955ZM34.8615 41.8215H38.2634C40.0292 41.8215 41.1909 42.9229 41.1909 44.4763C41.1909 46.0298 39.9827 47.1524 38.2169 47.1524H36.1955V49.9347H34.8615V41.8215Z" fill="black"/>
<path d="M43.5608 46.8512H46.4051L44.9878 43.352L43.5608 46.8512ZM49.0887 49.9426H47.6249L46.8001 47.9138H43.1891L42.3623 49.9349H40.9567L44.3586 41.8198H45.6945L49.0887 49.9426Z" fill="black"/>
<path fill-rule="evenodd" clip-rule="evenodd" d="M53.6407 41.7056C55.6969 41.7056 56.7076 42.9808 56.7076 42.9808L55.7395 43.8271C55.1943 43.2426 54.4252 42.9179 53.6252 42.9344C52.2651 42.9369 51.083 43.8668 50.7628 45.1859C50.4427 46.505 51.0675 47.8715 52.2756 48.4948C53.4838 49.118 54.9624 48.8365 55.8557 47.8131L56.7851 48.6594C56.7851 48.6594 55.7511 50.0506 53.6019 50.0506C51.2107 50.0506 49.3869 48.2421 49.3869 45.9022C49.3841 44.7789 49.8338 43.7017 50.6348 42.9125C51.4358 42.1233 52.521 41.6885 53.6465 41.7056" fill="black"/>
<path d="M59.5828 41.8215H58.2004V49.9347H59.5828V41.8215Z" fill="black"/>
<path fill-rule="evenodd" clip-rule="evenodd" d="M62.9499 46.6886V49.9347H61.6158V41.8215H67.3044V42.9808H62.9499V45.5661H66.7235V46.6886H62.9499Z" fill="black"/>
<path d="M70.1409 41.8215H68.7585V49.9347H70.1409V41.8215Z" fill="black"/>
<path fill-rule="evenodd" clip-rule="evenodd" d="M75.9398 41.7056C77.996 41.7056 79.0067 42.9808 79.0067 42.9808L78.0386 43.8271C77.494 43.2429 76.7256 42.9182 75.9263 42.9344C74.566 42.9361 73.3831 43.8655 73.0623 45.1846C72.7415 46.5038 73.366 47.8709 74.5742 48.4945C75.7824 49.1181 77.2613 48.8367 78.1548 47.8131L79.0842 48.6594C79.0842 48.6594 78.0503 50.0506 75.903 50.0506C73.5099 50.0506 71.686 48.2421 71.686 45.9022C71.6833 44.7789 72.1329 43.7017 72.9339 42.9125C73.7349 42.1233 74.8201 41.6885 75.9456 41.7056" fill="black"/>
<path d="M6.34913 56.628C7.26688 56.628 7.70446 56.2667 7.70446 55.6851C7.70448 55.6203 7.69865 55.5556 7.68704 55.4919C7.58055 54.9915 7.26882 54.7673 6.52532 54.7673H4.28127V56.6299L6.34913 56.628ZM1.6829 52.7637H6.86996C7.09207 52.7639 7.31392 52.7788 7.53408 52.8081C9.37346 53.0554 10.268 54.035 10.2835 55.6716C10.3009 57.2714 9.41993 58.2858 7.91357 58.4771C7.49561 58.5312 7.07458 58.5583 6.65311 58.5582H4.29095V61.3985H1.67322L1.6829 52.7637Z" fill="black"/>
<path d="M15.668 57.8237L14.7503 54.9893L13.7822 57.8218L15.668 57.8237ZM13.1142 52.7615H16.3922L19.7263 61.3963H16.8801L16.2992 59.6709H13.1529L12.5837 61.3963H9.72778L13.1142 52.7615Z" fill="black"/>
<path fill-rule="evenodd" clip-rule="evenodd" d="M30.5864 52.7715H38.5907V54.7829H35.9071V61.3966H33.27V54.7829H30.5864V52.7715Z" fill="black"/>
<path fill-rule="evenodd" clip-rule="evenodd" d="M39.8724 52.7615H42.5927L46.591 57.7812L46.6007 57.7774L46.5968 52.7615H49.1777V61.3963H46.5309L42.4862 56.3244L42.4766 56.3302L42.4804 61.3963H39.8724V52.7615Z" fill="black"/>
<path fill-rule="evenodd" clip-rule="evenodd" d="M72.9852 58.4519L73.0626 58.6296C73.2988 59.188 73.8371 59.5532 74.8052 59.615C75.9669 59.6865 76.3967 59.3155 76.3832 58.9407C76.3696 58.5659 76.0908 58.3611 75.2098 58.2123L74.4663 58.0906C74.2398 58.0596 74.0133 58.021 73.7887 57.9824C73.4215 57.9239 73.0577 57.8465 72.6986 57.7505C71.1768 57.3158 70.532 56.4444 70.6462 55.0706C70.7702 53.6273 72.1216 52.5201 74.84 52.5279C77.2177 52.5279 78.5924 53.5075 78.9254 54.9894L78.9738 55.2097L76.3541 55.3933L76.3038 55.2735C76.0947 54.8059 75.5971 54.5006 74.7548 54.5141C74.6149 54.5142 74.4752 54.5238 74.3366 54.5431C73.6725 54.6339 73.3976 54.8696 73.3685 55.1228C73.3356 55.486 73.6241 55.6502 75.1963 55.8493C75.5603 55.8937 76.0018 55.969 76.6601 56.1024C78.269 56.4308 79.0416 57.3158 79.0764 58.5794C79.1287 60.3802 77.7811 61.6438 74.9949 61.6322C74.7219 61.6322 74.447 61.6187 74.1759 61.5916C71.9183 61.3675 70.7798 60.4323 70.472 58.9523L70.3945 58.5794L72.9852 58.4519Z" fill="black"/>
<path fill-rule="evenodd" clip-rule="evenodd" d="M51.1953 52.7615H59.2711V54.7825H53.813V56.0152H58.4444V57.9783H53.8033V59.4062H59.2711V61.3963H51.1953V52.7615Z" fill="black"/>
<path d="M29.6396 55.6694C29.6241 54.0328 28.7296 53.0532 26.8902 52.8059C26.67 52.7766 26.4482 52.7617 26.2261 52.7615H21.039V61.3963H23.6567V58.556H25.0798L26.4952 61.3963H29.446L27.775 58.3725C28.9697 58.0343 29.6551 57.0798 29.6396 55.6694ZM23.6471 56.6355V54.7729H25.8737C26.623 54.7729 26.9347 54.997 27.0354 55.4974C27.0464 55.5612 27.0515 55.6259 27.0509 55.6906C27.0509 56.2703 26.6172 56.6335 25.6955 56.6335L23.6471 56.6355Z" fill="black"/>
<path d="M69.4942 55.6694C69.4787 54.0328 68.5861 53.0532 66.7448 52.8059C66.5246 52.7766 66.3028 52.7617 66.0807 52.7615H60.8936V61.3963H63.5114V58.556H64.9345L66.3517 61.3963H69.3006L67.6296 58.3725C68.8243 58.0343 69.5097 57.0798 69.4942 55.6694ZM63.5017 56.6355V54.7729H65.7283C66.4776 54.7729 66.7893 54.997 66.89 55.4974C66.9016 55.5612 66.9075 55.6258 66.9074 55.6906C66.9074 56.2703 66.4718 56.6335 65.5521 56.6335L63.5017 56.6355Z" fill="black"/>
</svg>
