<svg width="132" height="72" viewBox="0 0 132 72" fill="none" xmlns="http://www.w3.org/2000/svg">
<g clip-path="url(#clip0_1051_4300)">
<path d="M30.5123 25.2202H34.9067V34.9463H45.1594V25.2195H49.5537V48.4249H45.1594V38.9494H34.9067V48.4249H30.5123V25.2202Z" fill="black"/>
<path d="M56.5247 41.279C56.5247 43.4215 58.1276 44.9938 60.2486 44.9938C62.3696 44.9938 63.5431 43.6633 63.5431 43.6633V31.5522H67.8765V48.4247H63.9527V45.9699C63.0442 47.2438 61.3144 48.7377 58.7371 48.7377C54.831 48.7377 52.1913 45.9227 52.1913 41.8259V31.5522H56.5247V41.279V41.279Z" fill="black"/>
<path d="M127.453 37.9949C127.026 36.0246 125.775 35.0398 123.929 35.0398C122.082 35.0398 120.648 36.0093 120.053 37.9949H127.453H127.453ZM115.43 39.9965C115.43 34.6796 119.122 31.24 123.929 31.24C128.736 31.24 132.001 34.2264 132.001 39.6682V40.7939H119.81C120.085 43.5777 121.778 44.938 123.868 44.938C125.837 44.938 127.118 44.1093 127.957 42.4048L131.695 43.8275C130.338 46.8611 127.576 48.7377 123.868 48.7377C119.062 48.7377 115.43 45.2974 115.43 39.9965" fill="black"/>
<path d="M113.138 24H108.79V48.4248H113.138V24Z" fill="black"/>
<path d="M79.3857 44.994C76.7374 44.994 74.5902 42.7934 74.5902 40.0794C74.5902 37.3653 76.7374 35.1648 79.3857 35.1648C80.6541 35.1648 81.8071 35.671 82.6653 36.4953V43.6627C81.8078 44.4878 80.6548 44.9932 79.3857 44.9932V44.994ZM82.6653 24V33.4602C81.445 32.0528 79.7513 31.2401 77.8288 31.2401C73.7243 31.2401 70.1697 34.6804 70.1697 39.9966C70.1697 45.3128 73.725 48.7378 77.8288 48.7378C79.9951 48.7378 81.8418 47.7058 83.0926 45.97V48.4248H87.0135V24H82.6653Z" fill="black"/>
<path d="M98.5235 44.994C95.8753 44.994 93.728 42.7934 93.728 40.0794C93.728 37.3653 95.8753 35.1648 98.5235 35.1648C99.792 35.1648 100.945 35.671 101.803 36.4953V43.6627C100.946 44.4878 99.7927 44.9932 98.5235 44.9932V44.994ZM101.803 24V33.4602C100.583 32.0528 98.8891 31.2401 96.9666 31.2401C92.8621 31.2401 89.3075 34.6804 89.3075 39.9966C89.3075 45.3128 92.8628 48.7378 96.9666 48.7378C99.1329 48.7378 100.98 47.7058 102.23 45.97V48.4255H106.151V24H101.803Z" fill="black"/>
<path d="M5.08952 31.6148C6.5961 31.6148 7.94962 32.2866 8.88149 33.3535C9.68794 32.4304 10.1783 31.2125 10.1783 29.8762C10.1783 26.9958 7.90002 24.6609 5.08952 24.6609C2.27901 24.6609 0 26.9958 0 29.8762C0 31.2125 0.491094 32.4304 1.29683 33.3535C2.2287 32.2866 3.58222 31.6148 5.08881 31.6148" fill="black"/>
<path d="M18.6602 31.6148C20.1675 31.6148 21.5203 32.2866 22.4522 33.3535C23.2586 32.4304 23.749 31.2125 23.749 29.8762C23.749 26.9958 21.4707 24.6609 18.6595 24.6609C15.8483 24.6609 13.5707 26.9958 13.5707 29.8762C13.5707 31.2125 14.0611 32.4304 14.8675 33.3535C15.7994 32.2866 17.1529 31.6148 18.6595 31.6148" fill="black"/>
<path d="M13.5713 36.83C13.5713 35.4937 14.0624 34.2758 14.8681 33.3527C14.5471 32.9852 14.2764 32.5712 14.0667 32.1217C13.4027 31.7963 12.66 31.614 11.8755 31.614C9.06502 31.614 6.78601 33.9489 6.78601 36.83C6.78601 39.7111 9.06432 42.0453 11.8755 42.0453C13.1794 42.0453 14.3678 41.542 15.2685 40.7162C14.2275 39.7612 13.572 38.374 13.572 36.83" fill="black"/>
<path d="M23.749 43.7848C23.749 46.6652 21.4707 49.0001 18.6595 49.0001C15.8483 49.0001 13.5707 46.6652 13.5707 43.7848C13.5707 40.9045 15.849 38.5696 18.6595 38.5696C21.47 38.5696 23.749 40.9045 23.749 43.7848Z" fill="black"/>
<path d="M10.1783 43.7848C10.1783 46.6652 7.90002 49.0001 5.08952 49.0001C2.27901 49.0001 0 46.6652 0 43.7848C0 40.9045 2.27831 38.5696 5.08881 38.5696C7.89931 38.5696 10.1776 40.9045 10.1776 43.7848" fill="black"/>
</g>
<defs>
<clipPath id="clip0_1051_4300">
<rect width="132" height="25" fill="white" transform="translate(0 24)"/>
</clipPath>
</defs>
</svg>
