<svg width="159" height="72" viewBox="0 0 159 72" fill="none" xmlns="http://www.w3.org/2000/svg">
<g clip-path="url(#clip0_1051_4351)">
<path fill-rule="evenodd" clip-rule="evenodd" d="M62.6795 16.4001V17.1451H33.9275C6.14854 17.1451 5.17539 17.1302 5.14589 16.8769C5.13115 16.7279 5.17538 16.5491 5.2491 16.5044C5.32283 16.4448 18.2687 16.4001 62.6795 16.4001ZM67.2505 18.784L66.985 19.2011C66.8525 19.4246 66.1153 20.5271 64.0067 23.7005H62.6795V38.0034H61.9424V25.9354H58.8462V38.0034H56.0443V23.7005H54.2752L54.2017 37.9289L53.538 38.0034V25.9354H50.4416V38.0034H47.6401V23.7005H45.7233V38.0034H44.986V25.9354H42.0371L41.9633 37.9289H39.1619L39.0882 23.7005H37.3188V38.0034H36.5815V25.9354H33.4852V38.0034H30.6837V23.7005H28.9143L28.8406 37.9289H28.1034L28.0296 25.9354H25.0807V38.0034H22.2792V23.7005H20.3624V38.0034H19.6251V25.9354H16.5288V38.0034H13.7273V23.7005H11.9579L11.8842 37.9289L11.2207 38.0034V25.9354H8.12431V38.0034H5.32283V23.7005H3.99581L2.47711 21.421C1.63666 20.1844 0.899426 19.067 0.840445 18.9776C0.751978 18.8287 7.41659 18.784 67.2505 18.784ZM111.411 18.8435C112.089 18.9031 112.679 19.0521 113.106 19.2756C113.475 19.4693 113.991 19.9014 114.242 20.244C114.507 20.5867 114.802 21.1529 114.89 21.5105C114.979 21.8531 115.023 22.7024 114.994 23.4026C114.949 24.4604 114.861 24.8031 114.507 25.4586C114.257 25.9056 113.829 26.442 113.549 26.6505C113.269 26.8591 112.738 27.1273 112.369 27.2316C112 27.3359 111.411 27.4253 111.042 27.4253C110.674 27.4253 110.039 27.321 109.641 27.2018C109.229 27.0826 108.698 26.8144 108.462 26.6207C108.226 26.4271 107.828 25.9205 107.577 25.4735C107.223 24.8031 107.135 24.4604 107.091 23.4026C107.046 22.3895 107.091 21.9723 107.341 21.3168C107.503 20.8549 107.887 20.244 108.196 19.9312C108.521 19.6183 109.096 19.2458 109.568 19.067C110.202 18.8435 110.6 18.784 111.411 18.8435ZM109.391 20.1993C109.17 20.4824 108.904 21.0039 108.815 21.3615C108.727 21.7041 108.683 22.6576 108.713 23.4771C108.757 24.7286 108.831 25.0712 109.125 25.6076C109.391 26.0546 109.686 26.3376 110.157 26.5611C110.659 26.7995 110.968 26.8442 111.44 26.7697C111.794 26.725 112.251 26.5164 112.472 26.3376C112.708 26.1439 113.003 25.7119 113.136 25.3692C113.283 25.0266 113.445 24.2965 113.49 23.7453C113.549 23.1791 113.504 22.3597 113.416 21.9127C113.328 21.4657 113.106 20.8698 112.929 20.5867C112.738 20.3036 112.428 19.961 112.222 19.812C112.016 19.663 111.617 19.514 111.337 19.4693C111.057 19.4246 110.6 19.4544 110.32 19.5438C110.039 19.6183 109.627 19.9014 109.391 20.1993ZM79.2529 19.0074L83.6908 24.8925L83.7205 22.5534C83.7497 20.6612 83.7205 20.1397 83.5431 19.8716C83.4252 19.6779 83.1749 19.514 82.998 19.4991C82.806 19.4693 82.6438 19.3352 82.6292 19.2011C82.5848 18.9627 82.7325 18.9329 84.0888 18.9776C85.3273 19.0074 85.6074 19.0521 85.6074 19.2309C85.6074 19.3501 85.4603 19.4693 85.2684 19.4991C85.0915 19.514 84.8411 19.6779 84.7227 19.8716C84.5458 20.1397 84.502 20.84 84.502 27.4253H84.1332C83.8233 27.4253 83.3663 26.8889 81.3907 24.2518C80.0781 22.5236 78.943 21.0188 78.8694 20.9443C78.7953 20.8549 78.7661 21.9872 78.8251 26.4568L79.3118 26.6803C79.5768 26.7995 79.7834 26.9932 79.7834 27.0826C79.7834 27.2316 79.3854 27.2763 78.3091 27.2763C77.0999 27.2763 76.8343 27.2316 76.8343 27.0528C76.8343 26.9336 77.0409 26.7697 77.2767 26.6803C77.572 26.581 77.7537 26.3923 77.8224 26.1142C77.8959 25.8907 77.9403 24.4008 77.9403 19.9014L77.38 19.6481C77.0853 19.4991 76.8343 19.2756 76.8343 19.1564C76.8495 18.9627 77.0409 18.9329 79.2529 19.0074ZM90.1784 18.9329C90.6208 18.9329 90.6354 18.9776 92.1692 22.6278C93.5109 25.8013 93.7911 26.3525 94.1891 26.6058C94.4547 26.7697 94.6607 26.9932 94.6759 27.0975C94.6759 27.2316 94.2335 27.2763 92.9063 27.2763C91.4315 27.2763 91.1368 27.2465 91.1368 27.0528C91.1368 26.9336 91.299 26.7995 91.5056 26.7548C91.7857 26.6952 91.8739 26.591 91.8739 26.2781C91.8739 26.0397 91.7414 25.5778 91.2844 24.5945H88.1877L87.8929 25.4586C87.7161 25.9205 87.6274 26.3973 87.6717 26.5015C87.7161 26.591 87.9075 26.7101 88.1141 26.7548C88.3207 26.7995 88.483 26.9336 88.483 27.0528C88.483 27.2316 88.232 27.2763 87.0823 27.2763C85.9319 27.2763 85.6815 27.2316 85.6815 27.0528C85.6815 26.9336 85.8584 26.7846 86.0644 26.725C86.271 26.6505 86.5658 26.4122 86.6988 26.1588C86.8459 25.9056 87.5836 24.1922 88.3499 22.3299C89.7214 18.9776 89.736 18.9478 90.1784 18.9329ZM88.5419 23.8198C88.4976 23.9539 88.8075 23.9985 89.736 23.9985C90.4294 23.9985 90.9896 23.9539 90.9896 23.8942C90.9896 23.8198 90.7387 23.1195 90.444 22.315C90.1341 21.5105 89.8393 20.8549 89.7804 20.8698C89.736 20.8698 89.4413 21.4956 89.1466 22.2554C88.8367 23.0003 88.5711 23.7155 88.5419 23.8198ZM101.753 18.9329L101.797 20.1248C101.827 21.1827 101.797 21.3168 101.576 21.3168C101.399 21.3168 101.261 21.133 101.163 20.7655C101.075 20.4526 100.898 20.0802 100.75 19.9312C100.573 19.7375 100.279 19.663 98.8039 19.6779L98.819 22.7768C98.8337 24.4753 98.878 26.0248 98.9369 26.2334C99.0105 26.5015 99.1873 26.6505 99.5854 26.7548C99.8953 26.8442 100.116 26.9634 100.087 27.0528C100.058 27.1422 99.276 27.2018 98.1403 27.2018C97.0051 27.2018 96.2237 27.1422 96.1945 27.0528C96.1647 26.9634 96.3859 26.8442 96.6958 26.7548C97.0938 26.6505 97.2707 26.5015 97.3442 26.2334C97.4032 26.0248 97.4475 24.4753 97.4773 19.6779H96.5925C95.7964 19.6779 95.678 19.7226 95.413 20.0951C95.2507 20.3185 95.0739 20.6761 95.0442 20.9145C94.9998 21.1678 94.8819 21.3168 94.7051 21.3168C94.4839 21.3168 94.4547 21.1827 94.4985 20.3036C94.5282 19.7524 94.5726 19.216 94.6018 19.1266C94.6607 18.9776 95.5011 18.9329 101.753 18.9329ZM104.495 18.9627C105.852 18.9925 106.383 19.067 106.427 19.2011C106.456 19.2905 106.294 19.4246 106.058 19.4693C105.837 19.514 105.572 19.5885 105.469 19.6183C105.336 19.663 105.307 20.4824 105.366 26.6058L105.926 26.7548C106.221 26.8442 106.456 26.9634 106.427 27.0528C106.398 27.1422 105.587 27.2167 104.51 27.2465C102.932 27.2763 102.638 27.2465 102.638 27.0528C102.638 26.9187 102.815 26.7995 103.08 26.7548C103.316 26.7101 103.596 26.5462 103.67 26.3824C103.758 26.2185 103.817 24.7733 103.817 23.0748C103.817 20.8549 103.773 19.9759 103.64 19.7971C103.537 19.663 103.287 19.5289 103.08 19.4991C102.874 19.4693 102.697 19.3352 102.667 19.1862C102.623 18.9478 102.77 18.9329 104.495 18.9627ZM118.12 18.9329L120.287 21.8382C121.496 23.4324 122.528 24.6988 122.587 24.6392C122.646 24.5647 122.691 23.5069 122.661 22.2703C122.632 20.5271 122.572 19.961 122.395 19.7673C122.277 19.6332 122.042 19.514 121.879 19.4842C121.717 19.4693 121.57 19.3352 121.555 19.2011C121.511 18.9627 121.658 18.9329 122.985 18.9329C124.297 18.9329 124.46 18.9627 124.415 19.1862C124.401 19.3352 124.254 19.4693 124.091 19.4991C123.929 19.5289 123.723 19.6183 123.649 19.6928C123.56 19.7822 123.472 21.3912 123.354 27.3508H122.985C122.676 27.3508 122.204 26.8144 120.243 24.222C118.93 22.4938 117.781 21.0784 117.692 21.0635C117.574 21.0337 117.53 21.7488 117.545 23.4473C117.559 24.7733 117.604 26.0248 117.663 26.2334C117.736 26.4866 117.928 26.6505 118.238 26.7548C118.503 26.8442 118.709 26.9932 118.709 27.0975C118.709 27.2316 118.326 27.2614 117.206 27.2465C116.159 27.2167 115.702 27.1422 115.657 27.023C115.628 26.9187 115.716 26.8293 115.834 26.8293C115.967 26.8293 116.232 26.6654 116.793 26.0844L116.778 23.045C116.748 20.7208 116.704 19.9461 116.557 19.7673C116.439 19.6332 116.218 19.5289 116.055 19.5289C115.893 19.5289 115.731 19.4544 115.687 19.3799C115.643 19.3054 115.643 19.1564 115.687 19.0819C115.746 19.0074 116.306 18.9329 118.12 18.9329ZM129.09 18.9627C129.488 19.0074 129.576 19.1564 131.051 22.5832C131.891 24.5498 132.614 26.2185 132.643 26.3078C132.673 26.3973 132.908 26.5612 133.159 26.6803C133.41 26.7995 133.616 26.9932 133.602 27.0975C133.602 27.2316 133.159 27.2614 131.803 27.2465C130.77 27.2167 129.989 27.1422 129.96 27.0528C129.93 26.9634 130.122 26.8144 130.387 26.725C130.815 26.5612 130.859 26.4866 130.77 26.1291C130.712 25.8907 130.564 25.4586 130.21 24.5945H127.114L126.878 25.1607C126.76 25.4586 126.598 25.9205 126.554 26.1738C126.45 26.6207 126.48 26.6505 126.922 26.7399C127.217 26.7846 127.394 26.9038 127.364 27.023C127.32 27.1422 126.893 27.2167 125.964 27.2465C124.843 27.2763 124.607 27.2316 124.607 27.0528C124.607 26.9336 124.77 26.7995 124.976 26.7548C125.241 26.6952 125.448 26.4717 125.684 25.9801C125.876 25.5778 126.613 23.8346 127.335 22.0915C128.647 18.9329 128.662 18.918 129.09 18.9627ZM127.88 22.7024C127.63 23.343 127.423 23.8942 127.423 23.9241C127.409 23.9688 127.969 23.9985 128.662 23.9985C129.591 23.9985 129.901 23.9539 129.871 23.8198C129.842 23.7155 129.606 23.0003 129.355 22.2554C129.104 21.4956 128.824 20.8698 128.736 20.8698C128.647 20.8698 128.529 21.0188 128.456 21.2125C128.382 21.3912 128.117 22.0617 127.88 22.7024ZM136.255 18.9329C137.995 18.9329 138.173 18.9627 138.128 19.2011C138.113 19.365 137.936 19.4693 137.671 19.4991C137.435 19.5289 137.185 19.6332 137.111 19.7226C137.052 19.8269 137.008 21.3764 137.067 26.4568L138.32 26.5015C139.249 26.5164 139.662 26.4717 139.897 26.3078C140.089 26.1887 140.355 25.7864 140.487 25.4139C140.664 24.957 140.836 24.7335 141.003 24.7435C141.21 24.7435 141.254 24.8329 141.195 25.1607C141.151 25.3841 141.062 25.9354 140.9 27.2018L137.612 27.2465C134.781 27.2763 134.339 27.2465 134.339 27.0528C134.339 26.9336 134.516 26.7846 134.737 26.7399C134.973 26.6952 135.238 26.5761 135.341 26.4866C135.489 26.3525 135.533 25.5331 135.533 23.1046C135.533 20.6612 135.489 19.8567 135.341 19.7375C135.238 19.6481 134.973 19.5289 134.737 19.4693C134.516 19.4246 134.339 19.2756 134.339 19.1564C134.339 18.9627 134.649 18.9329 136.255 18.9329ZM127.114 30.852L129.193 35.8133C130.343 38.5249 131.464 41.1322 131.684 41.5791C131.906 42.0261 132.274 42.5476 132.51 42.7413C132.747 42.9201 133.056 43.0839 133.188 43.069C133.38 43.069 133.454 43.1882 133.454 43.814H127.999V43.4415C127.999 43.1733 128.072 43.069 128.294 43.069C128.456 43.069 128.721 43.0094 128.883 42.9201C129.08 42.8207 129.178 42.622 129.178 42.3241C129.178 42.0708 128.972 41.3706 128.294 39.6423H123.501L123.103 40.6554C122.882 41.2067 122.661 41.892 122.602 42.1751C122.528 42.5923 122.558 42.7413 122.779 42.8902C122.941 42.9945 123.236 43.069 123.457 43.069C123.796 43.069 123.87 43.1286 123.87 43.814L116.277 43.8289L114.507 41.0428C113.534 39.5082 112.62 38.1971 112.472 38.1375C112.339 38.063 112.016 38.0034 111.337 38.0034V40.2084C111.337 41.743 111.381 42.4879 111.514 42.6667C111.632 42.8306 111.986 42.9796 112.414 43.0392C113.003 43.1286 113.106 43.1882 113.106 43.814H107.356V43.4415C107.356 43.1137 107.415 43.069 107.828 43.069C108.094 43.0839 108.476 42.9498 109.052 42.5028L109.125 32.4908L108.757 32.1184C108.506 31.8651 108.226 31.7459 107.872 31.7459C107.415 31.7459 107.356 31.7012 107.356 31.001H110.335C111.986 31.001 113.755 31.0755 114.286 31.15C114.817 31.2393 115.598 31.4778 116.011 31.6715C116.468 31.8949 116.925 32.2525 117.117 32.5356C117.324 32.8335 117.471 33.3103 117.515 33.8318C117.545 34.2787 117.53 34.9045 117.471 35.2174C117.412 35.5898 117.176 35.9772 116.748 36.4093C116.336 36.8363 115.869 37.1343 115.347 37.3032C114.935 37.4373 114.581 37.6011 114.581 37.6757C114.566 37.7352 114.714 37.914 114.89 38.0779C115.067 38.2418 115.82 39.2549 116.571 40.3127C117.338 41.3855 118.12 42.4135 118.341 42.622C118.636 42.8902 118.93 43.0094 119.491 43.0392C120.081 43.0839 120.346 43.0243 120.626 42.8157C120.832 42.6518 121.157 42.19 121.349 41.7877C121.54 41.3854 122.587 38.9123 123.678 36.2901C124.784 33.6679 125.728 31.3735 125.801 31.1947C125.905 30.9116 126.037 30.852 127.114 30.852ZM111.337 37.1095C112.531 37.1095 113.136 37.035 113.431 36.9605C113.741 36.8711 114.227 36.5881 114.507 36.3347C114.861 36.007 115.082 35.6196 115.185 35.1727C115.274 34.7853 115.289 34.2191 115.23 33.8318C115.156 33.3997 114.964 32.9825 114.669 32.6696C114.419 32.4015 113.977 32.1035 113.696 32.029C113.416 31.9545 112.767 31.8949 112.251 31.8949H111.337V37.1095ZM123.899 38.6739C126.907 38.7335 127.792 38.7186 127.807 38.6739C127.837 38.6292 127.468 37.4969 126.981 36.1411C126.509 34.7853 126.052 33.6827 125.978 33.6827C125.905 33.6827 125.418 34.8002 124.873 36.1858L123.899 38.6739ZM76.8343 31.001H82.5848V31.3288C82.5848 31.6118 82.4815 31.6863 81.9656 31.7757C81.6119 31.8353 81.1987 32.0141 81.037 32.178C80.7569 32.4759 80.7417 32.7144 80.6974 37.2883C80.6682 41.3706 80.6974 42.1453 80.8894 42.4284C81.096 42.7413 81.2139 42.7711 82.7325 42.7711C83.7351 42.7711 84.5312 42.6816 84.8411 42.5625C85.0915 42.4582 85.4603 42.1751 85.6518 41.9367C85.8438 41.6983 86.1385 41.1024 86.3154 40.6405C86.5809 39.9403 86.6988 39.7764 86.979 39.7764C87.2147 39.7764 87.3034 39.8658 87.2883 40.1191C87.2883 40.2979 87.1704 41.1918 86.787 43.7395L76.8343 43.814V43.4415C76.8343 43.1137 76.8933 43.069 77.3211 43.069C77.572 43.069 77.9549 42.9498 78.5303 42.4879L78.5893 38.3461C78.6039 36.0666 78.5893 33.802 78.5449 33.3103C78.5006 32.8037 78.3681 32.2823 78.2648 32.1333C78.1761 31.9992 77.8078 31.8204 77.4536 31.7608C76.9376 31.6863 76.8343 31.6118 76.8343 31.3288V31.001ZM88.3353 31.001H94.2335V31.3437C94.2335 31.6267 94.1302 31.6863 93.5401 31.7757C93.1421 31.8353 92.7295 31.9843 92.6116 32.1184C92.4196 32.3121 92.3904 33.1166 92.3904 37.4075C92.3904 41.6983 92.4196 42.5028 92.6116 42.6965C92.7295 42.8157 93.1275 42.9647 93.4958 43.0392C94.0123 43.1286 94.1594 43.218 94.1594 43.4415C94.1594 43.7245 94.0269 43.7395 88.3353 43.814V43.4862C88.3353 43.1882 88.4386 43.1286 89.0281 43.0392C89.4115 42.9796 89.8393 42.8306 89.9572 42.6965C90.1341 42.5028 90.1784 41.7281 90.2228 38.1822C90.252 35.8282 90.2374 33.5785 90.193 33.1613C90.1341 32.7591 90.0162 32.2971 89.9129 32.1482C89.8096 31.9843 89.4559 31.8353 89.0281 31.7757C88.4386 31.6863 88.3353 31.6267 88.3353 31.3437V31.001ZM95.5898 30.9712L99.3642 31.0308C102.8 31.0755 103.227 31.1202 103.965 31.4032C104.407 31.582 104.923 31.88 105.1 32.0737C105.277 32.2525 105.528 32.6547 105.646 32.9676C105.778 33.2805 105.882 33.7573 105.882 34.0552C105.882 34.3383 105.778 34.8151 105.66 35.1279C105.542 35.4408 105.233 35.858 104.968 36.0815C104.702 36.2901 104.215 36.5881 103.301 36.9754L104.112 37.3032C104.554 37.482 105.115 37.765 105.366 37.9438C105.601 38.1077 105.955 38.5398 106.132 38.8974C106.324 39.2847 106.471 39.836 106.471 40.2382C106.471 40.5958 106.398 41.1322 106.309 41.4301C106.206 41.7132 105.896 42.2049 105.601 42.5028C105.307 42.8157 104.702 43.218 104.26 43.3968C103.507 43.6947 103.154 43.7245 95.5601 43.814V43.4713C95.5601 43.1882 95.6488 43.1286 96.2534 43.0392C96.6807 42.9796 97.0349 42.8306 97.1382 42.6667C97.2853 42.4582 97.3296 41.1918 97.3296 37.4075C97.3296 33.6083 97.2853 32.3419 97.1382 32.1333C97.0349 31.9694 96.6807 31.8204 96.2534 31.7608C95.6342 31.6715 95.5601 31.6267 95.5752 31.3139L95.5898 30.9712ZM99.5118 34.3681L99.5416 36.6625C101.311 36.6476 102.048 36.5582 102.343 36.454C102.623 36.3496 102.991 36.0815 103.154 35.858C103.36 35.56 103.464 35.1578 103.493 34.4575C103.523 33.653 103.478 33.3699 103.227 32.9676C103.066 32.7144 102.726 32.3866 102.49 32.2674C102.24 32.1482 101.562 32.0141 100.971 31.9694C100.382 31.9247 99.8066 31.9396 99.6887 31.9843C99.5118 32.0588 99.4821 32.4759 99.5118 34.3681ZM99.5416 42.9201C101.428 42.9201 102.225 42.8306 102.534 42.7264C102.844 42.6369 103.272 42.3539 103.493 42.1304C103.832 41.7579 103.891 41.5642 103.935 40.566C103.965 39.6572 103.921 39.3145 103.685 38.8974C103.523 38.5845 103.139 38.2418 102.756 38.0332C102.24 37.765 101.885 37.7054 100.824 37.7054H99.5416V42.9201ZM134.663 30.9712L138.216 31.0308C141.003 31.0904 141.947 31.1649 142.522 31.3437C142.92 31.4927 143.48 31.7459 143.775 31.9396C144.056 32.1333 144.409 32.5505 144.557 32.8782C144.748 33.2507 144.837 33.7573 144.822 34.3085C144.807 34.7853 144.689 35.411 144.542 35.7239C144.409 36.0219 144.056 36.454 143.775 36.6923C143.48 36.9158 142.935 37.2138 142.552 37.333C142.168 37.4522 141.859 37.6012 141.844 37.6608C141.844 37.7352 141.991 37.914 142.168 38.0779C142.33 38.2418 143.097 39.24 143.849 40.3127C144.601 41.3706 145.383 42.3986 145.56 42.5774C145.751 42.7562 146.179 42.9647 146.503 43.0243C146.945 43.1286 147.093 43.2329 147.093 43.4415C147.093 43.7245 146.96 43.7395 143.554 43.8289L141.814 41.0577C140.871 39.538 139.956 38.2269 139.795 38.1524C139.632 38.063 139.293 38.0034 138.614 38.0034L138.6 40.1935C138.6 41.743 138.659 42.473 138.792 42.6667C138.91 42.8306 139.263 42.9796 139.72 43.0392C140.31 43.1286 140.458 43.2031 140.458 43.4415C140.458 43.7245 140.34 43.7395 134.634 43.814V43.4415C134.634 43.1137 134.692 43.069 135.106 43.069C135.371 43.0839 135.754 42.9498 136.33 42.5028L136.403 32.4908L136.034 32.1184C135.784 31.8651 135.504 31.7459 135.149 31.7459C134.678 31.7459 134.634 31.7012 134.649 31.3586L134.663 30.9712ZM138.614 37.1095C139.809 37.1095 140.428 37.035 140.753 36.9456C141.077 36.8562 141.578 36.5284 141.873 36.2305C142.286 35.8133 142.434 35.5302 142.507 34.9492C142.566 34.532 142.552 33.9361 142.463 33.6083C142.375 33.2805 142.124 32.8335 141.903 32.61C141.667 32.3866 141.254 32.1333 140.974 32.0439C140.679 31.9694 140.03 31.8949 139.529 31.8949H138.614V37.1095ZM148.848 31.0308C151.487 31.0755 151.516 31.0755 151.531 31.4181C151.546 31.6863 151.487 31.7459 151.089 31.7459C150.823 31.7459 150.529 31.8353 150.425 31.9396C150.337 32.029 150.249 32.1929 150.249 32.2674C150.249 32.3568 150.72 33.2209 151.295 34.2042C151.885 35.1876 152.519 36.3347 153.079 37.482L153.345 37.035C153.477 36.7966 154.126 35.6196 154.76 34.4426C155.704 32.7293 155.896 32.2674 155.777 32.0588C155.689 31.9247 155.394 31.8055 155.143 31.7906C154.76 31.7459 154.686 31.6863 154.686 31.001H158.962V31.3734C158.962 31.6863 158.874 31.7608 158.402 31.8353C158.004 31.8949 157.68 32.1035 157.267 32.5505C156.942 32.8931 155.984 34.383 153.639 38.5249L153.684 40.4915C153.714 41.9963 153.772 42.5178 153.949 42.6965C154.067 42.8306 154.48 42.9796 154.863 43.0392C155.468 43.1286 155.571 43.1882 155.571 43.814H149.526V43.4862C149.511 43.1882 149.614 43.1286 150.292 43.0392C150.809 42.9796 151.133 42.8604 151.251 42.6667C151.384 42.4879 151.443 41.7877 151.443 38.5249L149.85 35.9176C148.98 34.4873 148.066 33.057 147.815 32.7293C147.58 32.4164 147.196 32.0588 146.975 31.9545C146.754 31.8353 146.444 31.7459 146.282 31.7459C146.09 31.7459 145.972 31.6416 145.958 31.4778C145.943 31.3288 145.987 31.15 146.061 31.0904C146.135 31.0457 147.388 31.0159 148.848 31.0308ZM5.32283 39.7913L11.8842 39.8658V45.8253L11.5451 45.87C11.2207 45.8998 11.2207 45.87 11.2207 42.622H8.12431V45.8998H5.32283V39.7913ZM20.3477 39.7913V45.8998H19.6104V42.622H16.514V45.8998L13.7863 45.8253L13.7715 43.0094C13.7568 41.445 13.7715 40.0893 13.801 39.985C13.8453 39.836 14.5972 39.7913 20.3477 39.7913ZM22.2792 39.7913L28.8258 39.8658V45.8253L22.2645 45.8998L22.2792 39.7913ZM37.2451 39.8807L37.3188 45.9147H30.6837L30.6542 42.9498C30.6395 41.3259 30.6837 39.9552 30.7574 39.8956C30.8311 39.836 32.3203 39.8211 37.2451 39.8807ZM45.7233 39.8062V45.9147L39.1619 45.8402L39.1324 43.0094C39.1176 41.4599 39.1324 40.1042 39.1619 39.9998C39.2061 39.8508 39.9581 39.8062 45.7233 39.8062ZM47.6401 39.7913L54.2017 39.8807V45.8402H53.8328C53.4642 45.8402 53.4642 45.8402 53.3905 42.6369H50.4416V45.9147H47.6401V39.7913ZM62.5914 39.8658L62.6649 45.8998H61.9278V42.622H58.8311V45.8998H56.0297L56.0151 42.9498C56.0005 41.3259 56.0443 39.9403 56.1184 39.8956C56.1773 39.836 57.6667 39.8062 62.5914 39.8658ZM79.6211 47.1066C79.99 47.1066 80.5503 47.2258 80.8748 47.3748C81.1987 47.5089 81.6265 47.8367 81.8033 48.075C81.9953 48.3134 82.2165 48.7455 82.3047 49.0285C82.3934 49.3116 82.4377 49.9523 82.408 50.4588C82.3636 51.1293 82.2457 51.5167 81.951 51.9785C81.7 52.3659 81.302 52.7235 80.9186 52.9022C80.5795 53.0661 80.0046 53.2002 79.6655 53.2002C79.3264 53.2002 78.7953 53.0959 78.486 52.9767C78.1761 52.8426 77.778 52.5894 77.5866 52.4106C77.3946 52.2318 77.1442 51.8444 77.0263 51.5613C76.9084 51.2782 76.8197 50.6525 76.8197 50.1906C76.8197 49.7139 76.923 49.0733 77.0555 48.7753C77.1886 48.4624 77.3946 48.0899 77.5423 47.926C77.6748 47.777 78.0436 47.5238 78.3681 47.3748C78.6926 47.2258 79.2675 47.1066 79.6211 47.1066ZM78.1912 48.4773C78.029 48.805 77.9549 49.3116 77.9549 50.0715C77.9549 50.8015 78.0436 51.3826 78.2058 51.755C78.3535 52.1126 78.6336 52.3957 78.9727 52.5745C79.3853 52.783 79.5919 52.7979 80.0343 52.6787C80.3583 52.5894 80.6974 52.351 80.8894 52.0828C81.0516 51.8444 81.2431 51.2633 81.302 50.8164C81.361 50.3396 81.3464 49.699 81.2431 49.252C81.1549 48.8498 81.0073 48.4028 80.904 48.2836C80.8158 48.1495 80.5649 47.9409 80.3583 47.7919C80.1668 47.6579 79.8277 47.5387 79.6211 47.5387C79.4297 47.5535 79.0755 47.6579 78.8548 47.777C78.6336 47.8962 78.3383 48.2091 78.1912 48.4773ZM93.0242 47.1215C93.1864 47.1513 93.6434 48.0452 94.366 49.7586C94.9852 51.174 95.6342 52.4702 95.811 52.6192C95.9879 52.7831 96.1355 52.9321 96.1355 52.9767C96.1355 53.0214 95.5752 53.0512 94.8819 53.0512C94.1448 53.0512 93.6288 52.9916 93.6288 52.9022C93.6288 52.8277 93.7613 52.7235 93.9236 52.6787C94.0858 52.634 94.2183 52.5447 94.2183 52.4553C94.2183 52.3808 94.1302 52.0381 93.7759 51.1144H91.6381L91.4612 51.606C91.3579 51.8593 91.2844 52.202 91.2844 52.351C91.2844 52.485 91.3725 52.634 91.491 52.6787C91.6235 52.7235 91.7116 52.8277 91.7116 52.9022C91.7116 52.9916 91.299 53.0512 90.7533 53.0512C90.2374 53.0512 89.795 53.0065 89.795 52.9469C89.795 52.8873 89.9426 52.7533 90.1341 52.6638C90.3699 52.5447 90.7095 51.9338 91.3287 50.429C91.8149 49.2967 92.3314 48.075 92.4931 47.7174C92.6851 47.2705 92.8474 47.0917 93.0242 47.1215ZM91.948 50.4141C91.8739 50.6376 91.9626 50.6674 92.6705 50.6674C93.1275 50.6674 93.4812 50.6078 93.4812 50.5184C93.4812 50.4439 93.3487 50.0267 93.1864 49.5947C93.0096 49.1626 92.8328 48.7604 92.7733 48.6859C92.7295 48.6263 92.5375 48.9243 92.3606 49.3563C92.1838 49.7884 92.0069 50.2651 91.948 50.4141ZM104.687 47.1066C104.982 47.1066 105.336 47.1662 105.498 47.2407C105.675 47.3003 105.867 47.2854 105.955 47.2109C106.044 47.1364 106.191 47.1066 106.294 47.1513C106.398 47.2109 106.456 47.5833 106.456 48.0601C106.456 48.5071 106.398 48.9094 106.309 48.954C106.235 48.9987 106.088 48.8199 105.97 48.5518C105.867 48.2836 105.616 47.9409 105.425 47.8068C105.218 47.6579 104.893 47.5387 104.687 47.5387C104.495 47.5387 104.201 47.6281 104.053 47.7174C103.876 47.8516 103.803 48.0601 103.832 48.3581C103.876 48.7157 104.038 48.9094 104.613 49.2818C105.027 49.55 105.616 49.9523 105.941 50.1757C106.353 50.4737 106.59 50.7717 106.678 51.1591C106.796 51.5911 106.781 51.8146 106.574 52.2318C106.412 52.5596 106.132 52.8426 105.793 52.9767C105.513 53.0959 105.056 53.2002 104.761 53.2002C104.481 53.2002 104.068 53.1406 103.847 53.0512C103.567 52.9469 103.389 52.9469 103.301 53.0512C103.227 53.1406 103.08 53.2002 102.962 53.2002C102.829 53.2002 102.77 52.9321 102.77 52.2318C102.77 51.5613 102.829 51.2633 102.962 51.2782C103.066 51.2782 103.272 51.5614 103.434 51.904C103.67 52.3957 103.847 52.5596 104.245 52.6489C104.569 52.7235 104.923 52.7085 105.174 52.6192C105.439 52.5148 105.616 52.3063 105.675 52.053C105.719 51.8295 105.705 51.5316 105.631 51.4123C105.542 51.2932 105.159 50.9803 104.761 50.7121C104.363 50.4588 103.773 50.0267 103.478 49.7437C103.007 49.3414 102.918 49.1626 102.918 48.7008C102.918 48.3879 102.991 48.0005 103.066 47.8367C103.154 47.6728 103.434 47.4493 103.699 47.3301C103.965 47.2109 104.407 47.1066 104.687 47.1066ZM122.204 47.1215C122.366 47.1513 122.823 48.0601 123.516 49.699C124.165 51.2038 124.755 52.3659 124.961 52.5745C125.168 52.7533 125.33 52.9321 125.33 52.9767C125.33 53.0214 124.77 53.0512 124.076 53.0512C123.398 53.0512 122.823 53.0214 122.823 52.9767C122.823 52.9321 122.971 52.7831 123.133 52.6489C123.428 52.3957 123.428 52.3659 122.897 51.1144H120.832L120.582 51.7103C120.434 52.0381 120.361 52.4106 120.39 52.5298C120.434 52.6489 120.567 52.7533 120.685 52.7533C120.818 52.7533 120.907 52.8277 120.907 52.9022C120.907 52.9916 120.493 53.0512 119.948 53.0512C119.432 53.0512 118.989 53.0065 118.989 52.9469C118.989 52.8873 119.137 52.7533 119.328 52.6638C119.565 52.5447 119.874 51.9785 120.39 50.727C120.789 49.7586 121.305 48.5369 121.54 48.0154C121.835 47.345 122.027 47.0917 122.204 47.1215ZM121.054 50.5929C121.054 50.6376 121.422 50.6674 121.865 50.6674C122.322 50.6674 122.691 50.6227 122.691 50.5631C122.691 50.5035 122.543 50.0715 122.366 49.6245C122.189 49.1775 121.997 48.7455 121.953 48.6859C121.909 48.6114 121.688 48.9987 121.467 49.5351C121.246 50.0864 121.054 50.5482 121.054 50.5929ZM137.686 47.1215C137.818 47.1513 138.349 48.2091 138.998 49.699C139.603 51.0995 140.134 52.3212 140.163 52.4255C140.193 52.5298 140.355 52.634 140.517 52.6787C140.679 52.7235 140.812 52.8277 140.812 52.9022C140.812 52.9916 140.296 53.0512 139.558 53.0512C138.88 53.0512 138.305 53.0214 138.305 52.9767C138.305 52.9321 138.453 52.7831 138.614 52.6489C138.91 52.3957 138.91 52.3659 138.379 51.1144H136.314L136.064 51.7103C135.916 52.0381 135.843 52.4106 135.872 52.5298C135.916 52.6489 136.049 52.7533 136.167 52.7533C136.3 52.7533 136.388 52.8277 136.388 52.9022C136.388 52.9916 135.975 53.0512 135.43 53.0512C134.899 53.0512 134.471 52.9916 134.471 52.9022C134.471 52.8277 134.589 52.7235 134.737 52.6936C134.884 52.6489 135.106 52.3957 135.238 52.1275C135.371 51.8593 135.872 50.727 136.33 49.6245C136.787 48.522 137.229 47.494 137.317 47.345C137.391 47.196 137.553 47.0917 137.686 47.1215ZM136.536 50.5929C136.536 50.6376 136.904 50.6674 137.347 50.6674C137.804 50.6674 138.173 50.6227 138.173 50.5631C138.173 50.5035 138.025 50.0715 137.848 49.6245C137.671 49.1775 137.479 48.7455 137.435 48.6859C137.391 48.6114 137.17 48.9987 136.949 49.5351C136.728 50.0864 136.536 50.5482 136.536 50.5929ZM87.7307 47.2407V47.9856C87.7307 48.5518 87.6863 48.7306 87.5095 48.7306C87.3916 48.7306 87.2883 48.5965 87.2883 48.4326C87.2883 48.2687 87.1412 48.0303 86.9644 47.9111C86.7578 47.777 86.2856 47.6877 84.7822 47.6877V49.7735L85.6372 49.7437C86.3889 49.699 86.4922 49.6692 86.522 49.3712C86.5366 49.1775 86.6545 49.0285 86.7724 49.0285C86.9492 49.0285 86.9936 49.252 86.9936 50.0715C86.9936 50.9058 86.9492 51.1144 86.7724 51.1144C86.6545 51.1144 86.5366 50.9654 86.522 50.7866C86.4922 50.4886 86.3889 50.4439 84.7822 50.3694V51.4123C84.7822 52.4404 84.7968 52.4553 85.2391 52.6489C85.4749 52.7533 85.6815 52.8873 85.6815 52.9469C85.6815 53.0065 85.0472 53.0512 84.2657 53.0512C83.4404 53.0512 82.865 52.9916 82.865 52.9022C82.865 52.8277 82.998 52.7533 83.1305 52.7533C83.2781 52.7533 83.4842 52.6787 83.5875 52.5745C83.7054 52.4404 83.7643 51.6955 83.7643 50.146C83.7643 48.5369 83.7054 47.8664 83.5729 47.7174C83.4696 47.6281 83.2781 47.5387 83.1305 47.5387C82.9829 47.5387 82.865 47.4791 82.865 47.3897C82.865 47.3003 83.7795 47.2407 87.7307 47.2407ZM97.315 47.2407C98.0522 47.2407 98.6417 47.3003 98.6568 47.3599C98.6568 47.4195 98.4946 47.5387 98.3177 47.6131C97.9932 47.7621 97.9786 47.8516 97.9489 49.7437C97.9197 51.6656 97.9197 51.7252 98.2734 52.0828C98.5681 52.3808 98.7893 52.4553 99.3793 52.4553C99.792 52.4553 100.249 52.3957 100.411 52.3063C100.573 52.2318 100.78 51.9487 100.868 51.6805C100.942 51.4123 101.016 50.4737 101.016 49.5947C101.016 48.373 100.957 47.9409 100.78 47.7621C100.662 47.643 100.47 47.5387 100.338 47.5387C100.22 47.5387 100.116 47.4791 100.116 47.3897C100.116 47.3003 100.618 47.2407 101.296 47.2407C101.989 47.2407 102.476 47.3003 102.476 47.3897C102.476 47.4791 102.372 47.5387 102.225 47.5387C102.077 47.5238 101.885 47.6131 101.797 47.7174C101.694 47.8367 101.605 48.6859 101.576 49.8778C101.532 51.5762 101.487 51.8891 101.222 52.2616C101.045 52.485 100.691 52.7979 100.411 52.9469C100.042 53.1406 99.6595 53.2002 98.9959 53.1704C98.3469 53.1406 97.9635 53.0363 97.6687 52.8128C97.4329 52.6489 97.1674 52.3361 97.0641 52.1424C96.9462 51.9189 96.8873 51.1293 96.8727 50.0715C96.8727 49.1328 96.8283 48.2091 96.7694 48.0154C96.7104 47.8218 96.5038 47.643 96.327 47.5982C96.1501 47.5684 95.9879 47.4791 95.9879 47.3897C95.9879 47.3003 96.5336 47.2407 97.315 47.2407ZM107.194 47.2407H112.355V48.0601C112.355 48.6859 112.31 48.8796 112.133 48.8796C112.016 48.8796 111.912 48.7455 111.912 48.5816C111.912 48.4177 111.779 48.1495 111.617 47.9856C111.44 47.8068 111.131 47.6877 110.29 47.6877V50.0416C110.29 51.7401 110.349 52.4404 110.482 52.5745C110.585 52.6787 110.777 52.7533 110.924 52.7533C111.072 52.7533 111.175 52.8277 111.175 52.9022C111.175 52.9916 110.615 53.0512 109.774 53.0512C108.949 53.0512 108.374 52.9916 108.374 52.9022C108.374 52.8277 108.506 52.7533 108.639 52.7533C108.786 52.7533 108.993 52.6787 109.096 52.5745C109.214 52.4404 109.273 51.6805 109.258 47.6877H108.639C108.226 47.6877 107.975 47.777 107.843 47.9558C107.754 48.0899 107.651 48.3432 107.621 48.4922C107.592 48.6561 107.489 48.805 107.386 48.8348C107.253 48.8647 107.194 48.6411 107.194 48.0601V47.2407ZM114.846 47.2705C116.173 47.3152 116.807 47.3897 117.043 47.5387C117.22 47.6728 117.426 47.9111 117.515 48.1048C117.604 48.2836 117.663 48.5965 117.663 48.805C117.663 49.0136 117.515 49.3712 117.324 49.5947C117.132 49.8182 116.807 50.0565 116.188 50.2204L116.601 50.7121C116.822 50.9803 117.22 51.5167 117.486 51.904C117.781 52.3361 118.105 52.634 118.326 52.6787C118.532 52.7235 118.695 52.8277 118.695 52.9022C118.695 52.9916 118.326 53.0512 116.999 53.0661L116.188 51.7848C115.569 50.8164 115.303 50.5184 115.053 50.5184C114.743 50.5184 114.714 50.5929 114.714 51.4123C114.714 52.0083 114.787 52.3808 114.935 52.5298C115.067 52.6489 115.259 52.7533 115.377 52.7533C115.51 52.7533 115.598 52.8277 115.598 52.9022C115.598 52.9916 115.067 53.0512 114.271 53.0512C113.549 53.0512 112.944 53.0065 112.944 52.9469C112.944 52.8873 113.106 52.7682 113.283 52.6787C113.608 52.5298 113.622 52.4553 113.681 47.6877L113.313 47.6131C113.121 47.5684 112.959 47.4642 112.959 47.3748C112.974 47.2705 113.563 47.2258 114.846 47.2705ZM114.714 50.0715C115.583 49.9374 115.982 49.8033 116.159 49.6841C116.409 49.5202 116.498 49.3414 116.498 48.8498C116.498 48.4326 116.409 48.1197 116.232 47.9558C116.07 47.7919 115.731 47.7025 115.347 47.6877H114.714V50.0715ZM127.247 47.2407C128.043 47.2407 128.574 47.3003 128.574 47.3897C128.574 47.4791 128.5 47.5387 128.397 47.5387C128.294 47.5535 128.087 47.6579 127.954 47.8068C127.719 48.0303 127.689 48.3432 127.689 50.146C127.689 51.6358 127.748 52.2914 127.88 52.4255C127.984 52.5298 128.367 52.6192 128.721 52.6192C129.149 52.6192 129.532 52.5148 129.753 52.3361C129.96 52.1871 130.181 51.8742 130.24 51.6656C130.299 51.4421 130.446 51.2633 130.564 51.2633C130.741 51.2633 130.77 51.3975 130.712 51.8295C130.667 52.1275 130.594 52.5298 130.564 52.7235C130.505 53.0512 130.461 53.0512 128.205 53.0512C126.952 53.0512 125.919 53.0065 125.919 52.9469C125.919 52.8873 126.082 52.7682 126.258 52.6787C126.583 52.5298 126.583 52.485 126.583 50.146C126.583 47.8218 126.583 47.7621 126.258 47.6131C126.082 47.5387 125.919 47.4195 125.919 47.3599C125.919 47.3003 126.524 47.2407 127.247 47.2407ZM132.628 47.2407C133.469 47.2407 134.029 47.3003 134.029 47.3897C134.029 47.4791 133.911 47.5387 133.764 47.5387C133.631 47.5387 133.425 47.6281 133.322 47.7323C133.204 47.8516 133.145 48.5965 133.145 50.146C133.145 51.755 133.204 52.4404 133.336 52.5745C133.439 52.6787 133.631 52.7533 133.778 52.7533C133.926 52.7533 134.029 52.8277 134.029 52.9022C134.029 52.9916 133.469 53.0512 132.628 53.0512C131.803 53.0512 131.227 52.9916 131.227 52.9022C131.227 52.8277 131.361 52.7533 131.493 52.7533C131.641 52.7533 131.847 52.6787 131.95 52.5745C132.068 52.4404 132.127 51.6955 132.127 50.146C132.127 48.5369 132.068 47.8664 131.935 47.7174C131.832 47.6281 131.641 47.5387 131.493 47.5387C131.345 47.5387 131.227 47.4791 131.227 47.3897C131.227 47.3003 131.803 47.2407 132.628 47.2407ZM3.24383 47.5387H64.7292V48.2836H3.24383V47.5387ZM1.62191 49.9225H66.3511V50.6674H1.62191V49.9225ZM0 52.3063H14.9658C25.4935 52.3063 30.1676 52.351 30.7132 52.4702C31.1407 52.5745 31.8043 52.7979 32.1877 52.9916C32.571 53.1853 33.1313 53.6025 33.9718 54.4666L34.5763 53.8855C34.9007 53.5578 35.6084 53.0959 37.0829 52.3808H67.8995L67.973 53.0512L52.609 53.0959C38.1887 53.1257 37.2008 53.1406 36.6405 53.3939C36.3161 53.5429 35.8001 53.8409 35.4904 54.0643C35.1808 54.2878 34.7532 54.7199 34.532 55.0328C34.3109 55.3456 34.0749 55.5989 33.9865 55.5989C33.9128 55.5989 33.6621 55.3456 33.4557 55.0328C33.2345 54.7199 32.8069 54.2878 32.4973 54.0643C32.1877 53.8409 31.6568 53.5429 31.3325 53.3939C30.7869 53.1406 29.799 53.1257 0 53.0512V52.3063Z" fill="black"/>
</g>
<defs>
<clipPath id="clip0_1051_4351">
<rect width="159" height="40" fill="white" transform="translate(0 16)"/>
</clipPath>
</defs>
</svg>
