<svg width="60" height="72" viewBox="0 0 60 72" fill="none" xmlns="http://www.w3.org/2000/svg">
<path fill-rule="evenodd" clip-rule="evenodd" d="M5.608 65.7616H4.44205H4.43918V64.784L7.02212 64.7963V67.9223H6.04185V67.3529C5.98028 67.4165 5.9139 67.48 5.84272 67.5433C5.68688 67.677 5.49736 67.7879 5.27899 67.8711C5.05676 67.9563 4.78261 68 4.46515 68C3.92547 68 3.44929 67.8768 3.05007 67.6343C2.64988 67.3909 2.33821 67.0414 2.12175 66.597C1.90723 66.1566 1.79852 65.6299 1.79852 65.0313C1.79852 64.424 1.913 63.8898 2.13907 63.4437C2.36417 62.9957 2.68644 62.6441 3.09624 62.3989C3.50605 62.1554 3.988 62.0322 4.52865 62.0322C4.87977 62.0322 5.20396 62.0882 5.49159 62.1979C5.78211 62.3088 6.038 62.4624 6.24963 62.6517C6.46512 62.8432 6.63539 63.0619 6.75756 63.3035C6.87974 63.5431 6.94706 63.7989 6.95957 64.0622L6.96439 64.1616H5.56567L5.55124 64.0841C5.52045 63.9211 5.45695 63.7687 5.36269 63.6313C5.27033 63.4958 5.15007 63.3849 5.00675 63.3045C4.86437 63.224 4.69507 63.1831 4.50268 63.1831C4.26986 63.1831 4.05534 63.2427 3.86777 63.3602C3.68114 63.4768 3.5301 63.669 3.41948 63.9305C3.30692 64.1977 3.25016 64.5568 3.25016 65C3.25016 65.3609 3.28769 65.6622 3.36175 65.8971C3.43389 66.1282 3.53299 66.3129 3.65515 66.4464C3.77638 66.5792 3.91394 66.6729 4.06593 66.725C4.21984 66.7808 4.38242 66.8094 4.5498 66.8094C4.70468 66.8094 4.84417 66.7838 4.96442 66.7344C5.08563 66.6832 5.19145 66.6169 5.27802 66.5364C5.36556 66.4551 5.43483 66.3659 5.48292 66.2731C5.53296 66.1794 5.56373 66.0866 5.57529 65.9966L5.608 65.7616ZM10.4446 62.0331C10.99 62.0331 11.472 62.1552 11.876 62.3959C12.282 62.6384 12.6014 62.9879 12.8226 63.435C13.0419 63.8773 13.1535 64.4135 13.1535 65.0274C13.1535 65.6327 13.0439 66.1632 12.8264 66.6046C12.6071 67.0498 12.2897 67.3975 11.8827 67.6379C11.4787 67.8786 10.9939 67.9998 10.4436 67.9998C9.88855 67.9998 9.40081 67.8777 8.99487 67.6379C8.58891 67.3993 8.26857 67.0535 8.04539 66.6082C7.82605 66.1678 7.71446 65.6363 7.71446 65.0283C7.71446 64.4174 7.827 63.8821 8.05018 63.4389C8.27434 62.9918 8.59563 62.6421 9.00448 62.3986C9.41332 62.1561 9.89721 62.0331 10.4446 62.0331ZM10.4446 66.8754C10.7033 66.8754 10.9294 66.8149 11.116 66.6955C11.3017 66.576 11.4479 66.3819 11.5518 66.1205C11.6567 65.8496 11.7106 65.4869 11.7106 65.0434C11.7106 64.5879 11.6557 64.2165 11.5489 63.939C11.446 63.669 11.2988 63.469 11.1122 63.344C10.9237 63.2199 10.6995 63.1566 10.4455 63.1566C10.1906 63.1566 9.9655 63.2199 9.77695 63.344C9.58936 63.4681 9.44026 63.669 9.33541 63.9408C9.22669 64.2203 9.17186 64.5906 9.17186 65.0425C9.17186 65.4869 9.22669 65.8496 9.33444 66.1195C9.43929 66.3819 9.58743 66.576 9.77503 66.6944C9.96261 66.8149 10.1877 66.8754 10.4446 66.8754ZM15.9498 66.2057L14.5222 62.1305H13.2254L15.2302 67.9022H16.6655L18.6876 62.1305H17.3889L15.9498 66.2057ZM22.9718 65.5595H20.586V66.7495L23.3759 66.7531V67.9022H19.2518V62.1305H23.3363L23.3326 63.2711H20.5928V64.4343H22.9718V65.5595ZM28.1801 65.2101C28.3388 65.0699 28.4687 64.8898 28.5688 64.675C28.6659 64.4617 28.7159 64.1993 28.7159 63.8935C28.7159 63.5513 28.6439 63.2455 28.5005 62.9831C28.3571 62.7159 28.13 62.5047 27.8242 62.3531C27.5231 62.2053 27.1355 62.1305 26.6717 62.1305H24.1842V67.9003H25.5183V65.7509H26.5005L27.4251 67.9003H28.8257L27.7483 65.5104C27.9042 65.4288 28.0494 65.3275 28.1801 65.2101ZM27.3662 63.9209C27.3662 64.1493 27.2884 64.3301 27.1288 64.4759C26.9689 64.6199 26.7468 64.6928 26.4669 64.6928H25.5183V63.1829H26.5506C26.791 63.1829 26.9845 63.2482 27.1401 63.3829C27.2923 63.5145 27.3662 63.6907 27.3662 63.9209ZM30.878 62.1305L33.3167 65.6117V62.1305H34.6547V67.9022H33.4765L30.9329 64.277V67.9022H29.5988V62.1305H30.878ZM38.7426 65.893L37.5171 62.1305H35.6884V67.9022H37.0341V64.1842L38.2211 67.9022H39.2601L40.456 64.1634V67.9022H41.8056V62.1305H39.9806L38.7426 65.893ZM46.5558 65.5595H44.1702V66.7495L46.9608 66.7531V67.9022H42.8358V62.1305H46.9214L46.9165 63.2711H44.1788V64.4343H46.5558V65.5595ZM51.5351 65.6117L49.0974 62.1305H47.817V67.9022H49.1504V64.277L51.6938 67.9022H52.8723V62.1305H51.5351V65.6117ZM55.1458 63.325H53.4343V62.1305H58.1606V63.325H56.4887V67.9022H55.1458V63.325Z" fill="black"/>
<path fill-rule="evenodd" clip-rule="evenodd" d="M33.9843 51.8253C33.641 51.2778 33.1233 50.7805 32.4461 50.3475C31.7699 49.9146 30.8484 49.5841 29.7102 49.3654L26.5416 48.7222C25.5843 48.5185 24.9243 48.2552 24.5799 47.9407C24.2442 47.6337 24.0739 47.2255 24.0739 46.7272C24.0739 46.41 24.1471 46.121 24.2924 45.868C24.4367 45.6141 24.6463 45.3896 24.9148 45.2001C25.185 45.0109 25.5209 44.8611 25.9124 44.756C26.3087 44.6488 26.754 44.5949 27.2361 44.5949C27.8708 44.5949 28.4433 44.6774 28.9379 44.8413C29.4264 45.0042 29.8314 45.2712 30.1411 45.6369C30.4511 46.0026 30.6415 46.4998 30.7068 47.1146L30.7156 47.1999H34.6471L34.6453 47.1023C34.6279 46.0566 34.3277 45.097 33.7534 44.2511C33.1782 43.4042 32.3307 42.724 31.2331 42.2278C30.1383 41.7331 28.7722 41.4822 27.1726 41.4822C25.8287 41.4822 24.5972 41.7133 23.5112 42.1699C22.4222 42.6275 21.5478 43.2877 20.9138 44.1327C20.277 44.9823 19.9596 45.9987 19.9692 47.1553C19.9951 48.5667 20.43 49.7121 21.2611 50.5617C22.0894 51.4067 23.2246 51.9693 24.6357 52.2317L27.8314 52.874C28.4173 52.9887 28.9492 53.1391 29.4121 53.3219C29.8661 53.5011 30.2287 53.7341 30.4895 54.0145C30.7443 54.2881 30.8734 54.6481 30.8734 55.0819C30.8734 55.5651 30.7126 55.9734 30.3962 56.2936C30.0718 56.6214 29.6314 56.8685 29.0889 57.0305C28.5357 57.1953 27.9172 57.2787 27.2504 57.2787C26.6002 57.2787 26.0009 57.1793 25.4699 56.9823C24.9417 56.788 24.4983 56.5039 24.152 56.1382C23.8066 55.7745 23.5698 55.3187 23.4477 54.7855L23.4304 54.7107H19.4237L19.4343 54.8159C19.5286 55.7405 19.8201 56.5597 20.3001 57.2522C20.7792 57.94 21.3929 58.5197 22.124 58.9782C22.8532 59.4337 23.6708 59.7814 24.5551 60.0097C25.437 60.2369 26.349 60.3526 27.2639 60.3526C28.7618 60.3526 30.0901 60.1197 31.2128 59.6591C32.3402 59.1969 33.2321 58.5603 33.865 57.7674C34.5028 56.969 34.826 56.0586 34.826 55.0593C34.826 54.5875 34.7722 54.0627 34.6645 53.5C34.5538 52.9327 34.3249 52.369 33.9843 51.8253ZM6.00854 47.8314L14.5606 60.017H18.0391V41.7944H14.1479V53.516L5.96622 41.8353L5.93735 41.7944H2.12885V60.017H6.00854V47.8314ZM51.5616 53.449L54.8947 41.7949H58.7071L53.2429 60.0175H50.1463L46.7748 48.4817L43.3789 60.0175H40.3332L34.8816 41.7949H38.7065L42.0387 53.4472L45.3721 41.7949H48.1907L51.5616 53.449Z" fill="black"/>
<path d="M28.3299 37.2737C23.7546 36.7196 19.3104 38.166 11.4904 36.0707C10.6919 35.8566 10.3976 36.6865 10.8295 37.3818C12.9305 40.7653 23.5431 38.1139 28.351 37.6252C28.5609 37.6035 28.5396 37.2993 28.3299 37.2737Z" fill="black"/>
<path d="M48.3556 36.0707C40.5357 38.166 36.0913 36.7196 31.516 37.2737C31.3064 37.2993 31.2844 37.6044 31.4949 37.6252C36.304 38.1139 46.9156 40.7653 49.0166 37.3818C49.4484 36.6865 49.1542 35.8566 48.3556 36.0707Z" fill="black"/>
<path d="M13.8723 31.2302C12.2821 28.9312 10.9825 26.3592 9.97622 23.5298C6.94114 24.4041 3.8349 25.6659 0.672846 27.317C0.264002 27.53 0.0129224 27.9298 0.000416581 28.3844C-0.0111272 28.8393 0.217825 29.2503 0.615125 29.4843C6.73816 33.0962 12.7246 35.1623 18.4369 35.6404C16.7361 34.6176 15.1767 33.1161 13.8723 31.2302Z" fill="black"/>
<path d="M5.34173 23.5458C6.74237 22.9936 8.13053 22.5199 9.50617 22.1211C9.01364 20.5449 8.6096 18.8938 8.29021 17.1707C6.70871 16.9766 5.07238 16.8506 3.37927 16.7956C3.36484 16.7956 3.34945 16.7947 3.33502 16.7947C2.89155 16.7947 2.49136 17.0144 2.25856 17.3896C2.01807 17.776 2.00748 18.2449 2.23066 18.6428C3.21382 20.3933 4.25179 22.0273 5.34173 23.5458Z" fill="black"/>
<path d="M20.3873 34.988C21.3368 35.401 22.3084 35.6321 23.2501 35.6803C20.9443 34.0529 19.1329 31.2936 18.0891 27.7763C16.7443 23.2485 16.2951 18.2526 16.7385 12.8627C14.9242 11.7345 12.9579 10.6783 10.8406 9.69698C10.4317 9.50752 9.96422 9.54445 9.58904 9.79549C9.21482 10.0456 9.00799 10.4595 9.03589 10.9019C9.52844 18.7225 11.5727 25.2823 15.1109 30.3985C16.5942 32.545 18.4191 34.1315 20.3873 34.988Z" fill="black"/>
<path d="M24.9007 9.38904C23.8154 8.09128 22.638 6.80776 21.3672 5.53936C21.1209 5.29308 20.8035 5.16235 20.4754 5.16235C20.3581 5.16235 20.2398 5.1794 20.1224 5.21351C19.677 5.34328 19.3547 5.69471 19.2576 6.15414C19.0094 7.33443 18.5371 9.74047 18.3283 12.12C19.9531 13.1743 21.4538 14.2892 22.8285 15.4619C23.3613 13.4604 24.054 11.4323 24.9007 9.38904Z" fill="black"/>
<path d="M59.1707 27.316C56.0085 25.6649 52.9024 24.4031 49.8672 23.5288C48.8611 26.3583 47.5615 28.9301 45.9711 31.2291C44.6669 33.116 43.1074 34.6165 41.4056 35.6396C47.1179 35.1612 53.1044 33.0952 59.2274 29.4833C59.6247 29.2492 59.8545 28.8382 59.842 28.3836C59.8316 27.9288 59.5796 27.5301 59.1707 27.316Z" fill="black"/>
<path d="M54.5034 23.5458C55.5933 22.0273 56.6314 20.3924 57.6146 18.6418C57.8377 18.244 57.8282 17.776 57.5865 17.3886C57.3537 17.0144 56.9536 16.7937 56.5102 16.7937C56.4957 16.7937 56.4804 16.7937 56.466 16.7946C54.7728 16.8496 53.1354 16.9765 51.555 17.1698C51.2365 18.8928 50.8316 20.5439 50.3391 22.1201C51.7146 22.5199 53.1037 22.9945 54.5034 23.5458Z" fill="black"/>
<path d="M41.7561 27.7771C40.7125 31.2935 38.8999 34.0537 36.5952 35.6811C37.5369 35.6329 38.5094 35.4007 39.458 34.9876C41.4262 34.1314 43.251 32.5447 44.7345 30.3991C48.2727 25.283 50.3169 18.7232 50.8094 10.9026C50.8374 10.4603 50.6305 10.0463 50.2562 9.79621C49.8811 9.54519 49.4136 9.50825 49.0047 9.69769C46.8874 10.6781 44.921 11.7343 43.1067 12.8635C43.5503 18.2534 43.0999 23.2483 41.7561 27.7771Z" fill="black"/>
<path d="M41.5168 12.119C41.3081 9.74045 40.8357 7.33439 40.5876 6.15316C40.4912 5.69374 40.1681 5.34231 39.7228 5.21253C39.6054 5.17843 39.487 5.16138 39.3698 5.16138C39.0417 5.16138 38.7241 5.2921 38.4779 5.53839C37.2072 6.80676 36.0297 8.0903 34.9446 9.38806C35.7911 11.4313 36.4837 13.4594 37.0177 15.46C38.3924 14.2882 39.8919 13.1733 41.5168 12.119Z" fill="black"/>
<path d="M29.9175 23.938C31.4558 20.9456 33.9128 18.2629 35.7577 16.5683C34.7449 12.5045 33.1853 8.67095 31.0325 4.66024C30.8104 4.24629 30.3927 4 29.9185 4C29.4443 4 29.0277 4.24723 28.8046 4.66024C26.6296 8.68421 25.0432 12.6883 24.0841 16.5673C26.0099 18.3245 28.5505 21.19 29.9175 23.938Z" fill="black"/>
<path d="M35.5693 34.5567C37.1643 33.452 38.7593 31.5272 39.7714 28.8493C41.7308 23.665 41.9337 17.8904 41.653 13.804C38.1014 16.139 32.4642 21.0155 30.5391 26.2292C29.633 28.6826 29.2107 32.0246 29.9089 33.8888C30.2006 34.6685 30.6968 35.2595 31.3788 35.5407C32.412 35.967 33.9994 35.6449 35.5693 34.5567Z" fill="black"/>
<path d="M29.1227 25.774C28.6531 24.6941 28.1356 23.6758 27.3325 22.5315C25.0601 19.2947 21.9982 16.3753 18.1878 13.8035C18.1483 14.4097 17.5923 20.9572 19.5432 27.3587C21.0275 32.2277 23.5633 34.2113 24.9533 34.9777C26.3521 35.7477 27.6315 35.9297 29.1322 35.5621C27.6114 33.5198 27.8009 29.329 29.1227 25.774Z" fill="black"/>
</svg>
