<svg width="135" height="72" viewBox="0 0 135 72" fill="none" xmlns="http://www.w3.org/2000/svg">
<path d="M23.4397 21.3599C20.3108 21.3617 17.2642 22.3703 14.7441 24.2386C12.224 26.107 10.3622 28.7375 9.43018 31.7465H14.6383C15.4515 30.0952 16.7063 28.7053 18.2614 27.7336C19.8164 26.7619 21.6098 26.2469 23.4397 26.2465H25.6964C27.5625 26.2465 29.078 24.7199 29.078 22.8399V21.3599H23.4397Z" fill="black"/>
<path d="M25.6964 46.08H23.4397C21.6105 46.0803 19.8176 45.5662 18.2626 44.5957C16.7077 43.6252 15.4525 42.2368 14.6383 40.5867H9.43018C10.3622 43.5957 12.224 46.2262 14.7441 48.0946C17.2642 49.9629 20.3108 50.9715 23.4397 50.9733H29.078V49.4933C29.0788 49.046 28.9922 48.6028 28.8231 48.1892C28.654 47.7755 28.4056 47.3995 28.0922 47.0825C27.7788 46.7655 27.4065 46.5139 26.9965 46.3419C26.5866 46.1699 26.1471 46.0809 25.703 46.08" fill="black"/>
<path d="M8.40658e-06 36.1666C-0.00259968 39.2699 0.601674 42.3432 1.7783 45.2112C2.95492 48.0792 4.68083 50.6855 6.8575 52.8814C9.03416 55.0773 11.6189 56.8197 14.4642 58.0091C17.3094 59.1985 20.3593 59.8115 23.4397 59.8133H29.0779V58.3333C29.0788 57.8853 28.992 57.4416 28.8224 57.0276C28.6529 56.6135 28.4039 56.2371 28.0898 55.9201C27.7757 55.603 27.4027 55.3515 26.992 55.1799C26.5812 55.0083 26.141 54.9199 25.6963 54.9199H23.4397C18.9266 54.9178 14.5683 53.2623 11.1773 50.262C7.78634 47.2617 5.59419 43.1215 5.00957 38.6133H23.4397V33.7266H5.00957C5.59271 29.2171 7.78421 25.0753 11.1753 22.0737C14.5664 19.0721 18.9256 17.4156 23.4397 17.4133H25.6897C27.5625 17.4133 29.0779 15.8866 29.0779 14.0066V12.5266H23.4397C20.3598 12.5284 17.3104 13.1412 14.4656 14.3302C11.6209 15.5192 9.03642 17.261 6.85984 19.4561C4.68326 21.6513 2.95721 24.2569 1.7802 27.1241C0.603183 29.9913 -0.00173017 33.0639 8.40658e-06 36.1666" fill="black"/>
<path d="M40.3809 12.5865C40.4537 12.6265 40.5463 12.7132 40.6456 12.8399L48.4412 23.0665C48.4029 22.757 48.3874 22.445 48.3948 22.1332V12.5332H49.9963V26.1132H49.0699C48.9309 26.1132 48.8051 26.0865 48.7125 26.0399C48.6132 25.9865 48.5139 25.9065 48.4279 25.7799L40.6324 15.5465C40.6547 15.8416 40.6658 16.1373 40.6654 16.4332V26.1065H39.0706V12.5332H40.0103C40.1757 12.5332 40.2948 12.5532 40.3743 12.5999" fill="black"/>
<mask id="mask0_1051_4354" style="mask-type:luminance" maskUnits="userSpaceOnUse" x="52" y="12" width="9" height="15">
<path d="M52.0742 12.3733H60.8029V26.26H52.0742V12.3733Z" fill="white"/>
</mask>
<g mask="url(#mask0_1051_4354)">
<path d="M60.0617 14.6465C60.0163 14.7284 59.9556 14.8009 59.883 14.8598C59.8108 14.9084 59.7248 14.9318 59.6382 14.9264C59.5323 14.9264 59.4066 14.8798 59.2676 14.7731C58.8726 14.4608 58.4271 14.2195 57.9507 14.0598C57.5938 13.9445 57.2202 13.8904 56.8456 13.8998C56.4419 13.8998 56.0779 13.9531 55.7669 14.0664C55.4558 14.1731 55.1911 14.3264 54.9794 14.5131C54.7742 14.7064 54.6154 14.9264 54.5095 15.1798C54.4036 15.4398 54.3507 15.7131 54.3507 16.0131C54.3507 16.3931 54.4433 16.7064 54.622 16.9531C54.8073 17.2064 55.0522 17.4198 55.3566 17.5931C55.661 17.7731 56.0051 17.9264 56.3889 18.0598L57.5801 18.4598C57.9772 18.5931 58.3742 18.7531 58.758 18.9264C59.1419 19.0998 59.486 19.3198 59.7904 19.5865C60.1283 19.8833 60.395 20.2535 60.5704 20.6692C60.7458 21.085 60.8253 21.5353 60.8029 21.9864C60.8029 22.5798 60.7036 23.1331 60.4985 23.6531C60.3019 24.1762 59.9947 24.6499 59.5982 25.0413C59.2017 25.4327 58.7253 25.7325 58.2022 25.9198C57.5909 26.1502 56.9422 26.2632 56.2897 26.2531C55.4714 26.2655 54.6597 26.1043 53.9073 25.7798C53.2158 25.4778 52.5923 25.0379 52.0742 24.4864L52.6036 23.6131C52.6499 23.5464 52.7095 23.4798 52.7823 23.4398C52.8551 23.3931 52.9345 23.3731 53.0205 23.3731C53.1529 23.3731 53.3051 23.4398 53.4772 23.5798C53.9322 23.9872 54.46 24.3039 55.0323 24.5131C55.3896 24.6598 55.8264 24.7331 56.3492 24.7331C56.7794 24.7331 57.1632 24.6665 57.5073 24.5531C57.8255 24.4454 58.1184 24.273 58.3676 24.0464C58.5992 23.8264 58.7779 23.5664 58.9036 23.2598C59.0294 22.9598 59.0889 22.6198 59.0889 22.2464C59.0889 21.8398 58.9963 21.4998 58.8176 21.2398C58.6323 20.9731 58.3875 20.7598 58.0897 20.5798C57.7853 20.4064 57.4411 20.2531 57.0573 20.1331L55.8727 19.7531C55.4757 19.6198 55.0786 19.4731 54.6882 19.2998C54.3133 19.1339 53.967 18.9089 53.6625 18.6331C53.3581 18.3664 53.1198 18.0264 52.9345 17.6198C52.7355 17.1412 52.6407 16.6251 52.6566 16.1064C52.6553 15.6245 52.7502 15.1472 52.9355 14.7029C53.1208 14.2586 53.3927 13.8562 53.7353 13.5198C54.11 13.1568 54.5533 12.8734 55.0389 12.6864C56.2851 12.2538 57.6417 12.2703 58.8771 12.7331C59.4926 12.9731 60.0352 13.3198 60.4985 13.7731L60.0617 14.6465Z" fill="black"/>
</g>
<path d="M61.7162 12.5267H63.2316C63.3691 12.5152 63.5062 12.5521 63.6197 12.6312C63.7331 12.7102 63.8158 12.8264 63.8537 12.9601L66.6331 22.4001C66.7296 22.7861 66.8135 23.1752 66.8846 23.5667L67.0169 22.9467C67.0566 22.7467 67.1096 22.5667 67.1625 22.4001L70.3324 12.9601C70.3655 12.8534 70.4448 12.7601 70.5507 12.6667C70.6632 12.5734 70.7956 12.5267 70.9478 12.5267H71.4772C71.6427 12.5267 71.775 12.5667 71.8743 12.6467C71.9801 12.7334 72.053 12.8334 72.0993 12.9601L75.2427 22.4001C75.3552 22.7334 75.4544 23.1067 75.547 23.5334L75.6463 22.9334C75.6794 22.7401 75.7191 22.5667 75.7721 22.4001L78.5581 12.9601C78.5953 12.84 78.6695 12.7349 78.7699 12.6601C78.8824 12.5734 79.0147 12.5267 79.1669 12.5267H80.5897L76.3875 26.1067H74.753L71.3449 15.7467C71.2787 15.5534 71.2125 15.3267 71.1596 15.0667C71.0989 15.2931 71.0393 15.5198 70.9809 15.7467L67.553 26.1067H65.9184L61.7162 12.5267Z" fill="black"/>
<path d="M47.7463 29.3533V31.1399C47.7463 31.4933 47.4617 31.7799 47.111 31.7799H42.2139V34.9466H46.4492V37.2799H42.2139V40.5133H47.111C47.4617 40.5133 47.7463 40.7933 47.7463 41.1466V42.9333H39.0771V29.3533H47.7463Z" fill="black"/>
<path d="M52.2529 29.9933V42.9333H49.3875V29.3533H51.6176C51.9683 29.3533 52.2529 29.6399 52.2529 29.9933Z" fill="black"/>
<path d="M58.4934 33.1199C59.1287 33.1199 59.7045 33.2199 60.2339 33.4199C60.7489 33.6102 61.2167 33.9108 61.6052 34.301C61.9936 34.6912 62.2934 35.1616 62.4839 35.6799C62.767 36.4457 62.8645 37.2685 62.7684 38.0799C62.7486 38.2132 62.7155 38.3265 62.6692 38.4065C62.6241 38.4835 62.554 38.5424 62.4707 38.5732C62.3846 38.6065 62.2787 38.6199 62.153 38.6199H56.6273C56.7199 39.4265 56.9581 40.0132 57.3552 40.3732C57.7522 40.7399 58.2552 40.9199 58.8772 40.9199C59.2081 40.9199 59.4993 40.8799 59.7376 40.7999C59.9824 40.7199 60.1942 40.6265 60.3795 40.5332L60.9023 40.2599C61.0545 40.1799 61.2199 40.1399 61.392 40.1399C61.6236 40.1399 61.789 40.2199 61.9081 40.3865L62.742 41.4265C62.4442 41.7599 62.1265 42.0465 61.789 42.2599C61.1435 42.6731 60.412 42.9309 59.6515 43.0132C59.2942 43.0599 58.9501 43.0799 58.6192 43.0799C57.9758 43.0834 57.3369 42.9705 56.7331 42.7465C56.1397 42.5295 55.6006 42.1843 55.1536 41.7352C54.7066 41.286 54.3626 40.7438 54.1456 40.1465C53.6583 38.8294 53.6396 37.3827 54.0927 36.0532C54.4245 35.1586 55.0292 34.3929 55.8198 33.8659C56.6104 33.3389 57.5464 33.0778 58.4934 33.1199M58.5464 35.1199C58.3121 35.1053 58.0773 35.1392 57.8566 35.2195C57.6358 35.2997 57.4337 35.4247 57.2626 35.5865C56.9253 35.9632 56.7125 36.4361 56.6537 36.9399H60.2273C60.2273 36.7132 60.2008 36.4865 60.1412 36.2732C60.0911 36.0556 59.9924 35.8524 59.8524 35.6791C59.7125 35.5058 59.5351 35.3669 59.3339 35.2732C59.0868 35.1604 58.8175 35.1056 58.5464 35.1132" fill="black"/>
<path d="M71.2721 35.5599C71.2001 35.6532 71.1179 35.7381 71.0273 35.8132C70.9413 35.8799 70.8287 35.9065 70.6831 35.9065C70.5376 35.9065 70.4184 35.8732 70.2993 35.8065L69.9155 35.5732C69.5541 35.3425 69.1322 35.2263 68.7045 35.2399C68.3908 35.2334 68.0801 35.302 67.7979 35.4399C67.5332 35.5732 67.3346 35.7599 67.1626 35.9999C66.9971 36.2399 66.8714 36.5332 66.792 36.8932C66.7083 37.283 66.6684 37.6811 66.6729 38.0799C66.6729 39.0065 66.8515 39.7132 67.2023 40.2132C67.3643 40.4513 67.5832 40.6445 67.8387 40.775C68.0943 40.9054 68.3784 40.969 68.6648 40.9599C68.9957 40.9599 69.2604 40.9199 69.4589 40.8265C69.6574 40.7465 69.8163 40.6532 69.9552 40.5532L70.3258 40.2665C70.4383 40.1799 70.5839 40.1332 70.7559 40.1332C70.9809 40.1332 71.153 40.2199 71.2721 40.3865L72.106 41.4265C71.3566 42.3192 70.295 42.8873 69.1412 43.0132C68.7971 43.0599 68.4596 43.0799 68.1354 43.0799C67.5609 43.0798 66.9922 42.9643 66.4626 42.7399C65.9331 42.5155 65.4533 42.1868 65.0515 41.7732C64.6314 41.3204 64.3052 40.7878 64.092 40.2065C63.8537 39.5799 63.7346 38.8732 63.7346 38.0732C63.7346 37.3799 63.8405 36.7332 64.0457 36.1265C64.2362 35.54 64.55 35.0018 64.9657 34.5485C65.3814 34.0952 65.8892 33.7376 66.4545 33.4999C67.0501 33.2465 67.7383 33.1199 68.5192 33.1199C69.1965 33.1066 69.8696 33.2313 70.4979 33.4865C71.067 33.7265 71.5765 34.0865 72.0331 34.5465L71.2721 35.5599Z" fill="black"/>
<path d="M76.8838 43.0865C76.4271 43.0865 76.0235 43.0199 75.6793 42.8866C75.3513 42.763 75.0543 42.5681 74.8095 42.3158C74.5647 42.0634 74.3782 41.7598 74.2632 41.4266C74.1351 41.0513 74.0724 40.6566 74.0779 40.2599V35.2666H73.2639C73.1241 35.2684 72.989 35.2159 72.8867 35.1199C72.7808 35.0266 72.7279 34.8866 72.7279 34.6999V33.5666L74.25 33.2732L74.8191 30.9132C74.8852 30.6132 75.097 30.4666 75.4411 30.4666H76.9433V33.2932H79.2661V35.2666H76.9433V40.0666C76.9433 40.2932 76.9963 40.4732 77.1022 40.6199C77.208 40.7666 77.3669 40.8399 77.5654 40.8399C77.722 40.8441 77.8771 40.8073 78.0154 40.7332L78.1676 40.6599C78.2175 40.6373 78.2717 40.6259 78.3264 40.6266C78.3995 40.6232 78.4716 40.6443 78.5316 40.6866C78.5845 40.7266 78.6441 40.7932 78.697 40.8799L79.5639 42.2466C79.1933 42.5266 78.7764 42.7399 78.3198 42.8799C77.8565 43.0132 77.3801 43.0865 76.8838 43.0865" fill="black"/>
<path d="M84.8117 33.1199C85.5397 33.1199 86.2014 33.2332 86.797 33.4665C87.3743 33.6862 87.8987 34.0268 88.3356 34.4658C88.7725 34.9048 89.112 35.4322 89.3316 36.0132C89.5698 36.6265 89.689 37.3132 89.689 38.0799C89.6987 38.7895 89.5775 39.4948 89.3316 40.1599C89.1137 40.7449 88.7751 41.2768 88.3382 41.7204C87.9014 42.1639 87.376 42.5091 86.797 42.7332C86.2014 42.9665 85.5397 43.0865 84.8117 43.0865C84.0772 43.0865 83.4088 42.9665 82.8066 42.7332C82.2224 42.5127 81.6918 42.169 81.2501 41.7252C80.8085 41.2815 80.466 40.7478 80.2456 40.1599C80.0022 39.4943 79.8833 38.7891 79.8948 38.0799C79.8948 37.3132 80.0139 36.6265 80.2522 36.0132C80.4735 35.43 80.8159 34.9012 81.2564 34.462C81.6969 34.0228 82.2254 33.6834 82.8066 33.4665C83.4088 33.2332 84.0772 33.1199 84.8117 33.1199ZM84.8117 40.9399C85.4735 40.9399 85.9566 40.7065 86.2676 40.2332C86.5786 39.7665 86.7308 39.0532 86.7308 38.0999C86.7308 37.1399 86.5786 36.4332 86.2676 35.9665C85.9566 35.4999 85.4735 35.2665 84.8117 35.2665C84.1301 35.2665 83.6338 35.4999 83.3227 35.9599C83.0051 36.4265 82.8529 37.1399 82.8529 38.0932C82.8529 39.0532 83.0051 39.7665 83.3227 40.2332C83.6338 40.6999 84.1301 40.9399 84.8117 40.9399Z" fill="black"/>
<path d="M105.088 42.9333C104.823 42.9333 104.618 42.8933 104.479 42.82C104.34 42.7467 104.221 42.5866 104.129 42.3533L103.93 41.82C103.685 42.0267 103.454 42.2067 103.235 42.36C103.018 42.5141 102.788 42.648 102.547 42.76C102.309 42.8666 102.057 42.9466 101.786 43C101.095 43.1261 100.385 43.0942 99.708 42.9067C99.3729 42.8145 99.0637 42.6448 98.8052 42.411C98.5467 42.1772 98.346 41.8858 98.2191 41.56C98.0867 41.2266 98.0139 40.84 98.0139 40.4067C98.0196 39.9956 98.1289 39.5928 98.3315 39.236C98.534 38.8792 98.8233 38.58 99.172 38.3667C99.5955 38.0667 100.165 37.82 100.893 37.62C101.607 37.42 102.514 37.32 103.612 37.32V36.9067C103.612 36.3333 103.5 35.9267 103.268 35.6733C103.037 35.4133 102.706 35.2866 102.282 35.2866C101.787 35.2719 101.299 35.3991 100.873 35.6533C100.707 35.7467 100.542 35.8266 100.383 35.9066C100.218 35.9733 100.026 36.0133 99.8073 36.0133C99.6088 36.0133 99.4433 35.9666 99.3044 35.8733C99.1678 35.7808 99.0545 35.6576 98.9735 35.5133L98.4573 34.6067C99.0196 34.1025 99.6735 33.7131 100.383 33.46C101.112 33.2034 101.88 33.0748 102.653 33.08C103.229 33.08 103.751 33.1733 104.221 33.3667C104.663 33.5449 105.062 33.8152 105.393 34.1599C105.724 34.5046 105.979 34.9158 106.14 35.3667C106.319 35.8333 106.405 36.34 106.405 36.8933V42.9333H105.088ZM101.799 41.1733C102.144 41.1825 102.487 41.1123 102.801 40.9679C103.116 40.8234 103.393 40.6087 103.612 40.34V39.02C103.043 39.02 102.567 39.0533 102.203 39.1267C101.832 39.2067 101.541 39.3 101.323 39.4133C101.139 39.4965 100.983 39.6306 100.873 39.8C100.793 39.94 100.747 40.1 100.747 40.2667C100.747 40.6 100.84 40.8333 101.012 40.9666C101.197 41.1 101.455 41.1666 101.806 41.1666L101.799 41.1733Z" fill="black"/>
<path d="M91.1448 42.9334V33.2667H92.8455C92.9845 33.2667 93.1102 33.2801 93.2029 33.3067C93.2955 33.3267 93.3749 33.3734 93.4411 33.4201C93.5073 33.4734 93.5536 33.5401 93.5867 33.6267C93.6198 33.7134 93.6529 33.8267 93.6793 33.9467L93.8315 34.8534C94.1419 34.349 94.5438 33.908 95.0161 33.5534C95.43 33.2455 95.931 33.0796 96.4455 33.0801C96.8823 33.0801 97.2397 33.1867 97.5044 33.4001L97.1338 35.5201C97.1073 35.6534 97.061 35.7467 96.9815 35.8001C96.8942 35.8538 96.7926 35.8794 96.6904 35.8734C96.5845 35.8734 96.4588 35.8601 96.3198 35.8334C96.1427 35.8032 95.9633 35.7898 95.7838 35.7934C95.0293 35.7934 94.4404 36.1934 94.0102 37.0067V42.9334H91.1448Z" fill="black"/>
<path d="M48.6794 56.9599C48.7786 56.9599 48.8713 56.9999 48.9507 57.0799L49.6654 57.8665C49.1147 58.5107 48.4302 59.0251 47.6603 59.3732C46.8728 59.7332 45.9264 59.9132 44.8146 59.9132C43.8485 59.9132 42.9617 59.7465 42.1808 59.4065C41.4124 59.0853 40.7217 58.6009 40.1558 57.9865C39.5847 57.3495 39.146 56.6037 38.8654 55.7932C38.549 54.8899 38.3923 53.9377 38.4022 52.9799C38.4022 51.9532 38.5676 51.0199 38.8985 50.1665C39.2009 49.3476 39.6705 48.6017 40.2769 47.977C40.8833 47.3523 41.6131 46.8627 42.4191 46.5399C43.2463 46.2065 44.1661 46.0332 45.1654 46.0332C46.158 46.0332 47.0117 46.1865 47.7264 46.4999C48.4329 46.8025 49.0805 47.2291 49.6389 47.7599L49.0433 48.5999C49.0041 48.6611 48.9549 48.7152 48.8978 48.7599C48.8198 48.8032 48.7314 48.8237 48.6425 48.8189C48.5536 48.8142 48.4678 48.7845 48.3948 48.7332L48.0639 48.5065C47.7468 48.264 47.394 48.0728 47.0183 47.9399C46.4239 47.7173 45.7928 47.611 45.1588 47.6265C44.4308 47.6265 43.7757 47.7532 43.1735 47.9999C42.5755 48.2444 42.0377 48.6174 41.5976 49.093C41.1576 49.5685 40.8259 50.1351 40.6257 50.7532C40.3808 51.4199 40.2617 52.1532 40.2617 52.9799C40.2617 53.8265 40.3808 54.5799 40.6257 55.2465C40.8416 55.8663 41.1767 56.4372 41.6117 56.9265C42.0217 57.3799 42.5255 57.7372 43.0874 57.9732C43.6566 58.2132 44.2786 58.3332 44.9338 58.3332C45.3308 58.3332 45.6948 58.3132 46.0125 58.2665C46.597 58.1756 47.1574 57.967 47.6603 57.6532C47.8985 57.4999 48.1301 57.3199 48.3683 57.0999C48.4742 57.0065 48.5801 56.9599 48.6794 56.9599" fill="black"/>
<path d="M55.3765 50.0132C56.0714 50.0132 56.7001 50.1332 57.2626 50.3665C57.8036 50.5882 58.2894 50.9274 58.6853 51.3599C59.0824 51.7865 59.3802 52.3065 59.5919 52.9199C59.7971 53.5265 59.903 54.2065 59.903 54.9599C59.903 55.7199 59.7971 56.3999 59.5919 57.0065C59.399 57.5816 59.0904 58.1104 58.6853 58.5598C58.2907 58.9939 57.8045 59.3333 57.2626 59.5532C56.7001 59.7799 56.0714 59.8999 55.3765 59.8999C54.6816 59.8999 54.053 59.7799 53.4905 59.5532C52.947 59.3326 52.4588 58.9933 52.0611 58.5598C51.654 58.1108 51.3431 57.582 51.1478 57.0065C50.927 56.3475 50.8196 55.6553 50.8302 54.9599C50.8302 54.2065 50.9361 53.5265 51.1478 52.9199C51.3596 52.3065 51.664 51.7865 52.0611 51.3599C52.4593 50.9253 52.9472 50.584 53.4905 50.3599C54.053 50.1332 54.6816 50.0132 55.3765 50.0132ZM55.3765 58.5799C56.3162 58.5799 57.0177 58.2599 57.4809 57.6265C57.9441 56.9932 58.1758 56.1065 58.1758 54.9665C58.1758 53.8265 57.9441 52.9332 57.4809 52.2999C57.0177 51.6599 56.3162 51.3399 55.3765 51.3399C54.9 51.3399 54.4897 51.4199 54.139 51.5865C53.7883 51.7532 53.4905 51.9865 53.2588 52.2999C53.0091 52.6383 52.8291 53.0236 52.7294 53.4332C52.608 53.9349 52.5502 54.4501 52.5574 54.9665C52.5574 55.5399 52.6169 56.0465 52.7294 56.4999C52.8486 56.9465 53.0206 57.3199 53.2588 57.6332C53.4905 57.9332 53.7883 58.1665 54.139 58.3332C54.4897 58.4999 54.9 58.5799 55.3765 58.5799Z" fill="black"/>
<path d="M61.7692 59.7667V50.1667H62.7618C63 50.1667 63.1589 50.28 63.2184 50.5133L63.3375 51.5C63.6699 51.0822 64.0677 50.7218 64.5155 50.4333C64.9717 50.1478 65.5005 50.0018 66.0375 50.0133C66.6794 50.0133 67.2023 50.1933 67.5993 50.5533C67.9964 50.9133 68.2809 51.4 68.4596 52.0133C68.6286 51.5483 68.9091 51.1327 69.2763 50.8035C69.6435 50.4743 70.0859 50.2417 70.564 50.1267C71.3165 49.9383 72.1081 49.9848 72.8339 50.26C73.2243 50.4133 73.5552 50.6533 73.8265 50.96C74.0978 51.2733 74.3096 51.6533 74.4486 52.1C74.5941 52.5533 74.667 53.0733 74.667 53.6533V59.7667H72.9927V53.6533C72.9927 52.9 72.8339 52.3333 72.5096 51.94C72.1787 51.5533 71.7088 51.36 71.0868 51.36C70.8155 51.36 70.5574 51.4067 70.3059 51.5067C70.0511 51.6059 69.8208 51.7599 69.6311 51.9579C69.4413 52.1559 69.2968 52.3932 69.2074 52.6533C69.0949 52.94 69.042 53.2733 69.042 53.6533V59.7667H67.3677V53.6533C67.3677 52.88 67.2155 52.3067 66.9044 51.9267C66.6 51.5467 66.15 51.36 65.5677 51.36C65.1508 51.36 64.7736 51.4733 64.4162 51.6933C64.0403 51.9393 63.7108 52.2509 63.4434 52.6133V59.7667H61.7692Z" fill="black"/>
<path d="M76.9832 59.7667V50.1667H77.9758C78.214 50.1667 78.3729 50.28 78.4324 50.5133L78.5515 51.5C78.8839 51.0822 79.2817 50.7218 79.7295 50.4333C80.1857 50.1478 80.7145 50.0018 81.2515 50.0133C81.8935 50.0133 82.4162 50.1933 82.8133 50.5533C83.2104 50.9133 83.4949 51.4 83.6736 52.0133C83.8436 51.5489 84.1245 51.1339 84.4915 50.8048C84.8585 50.4757 85.3004 50.2428 85.778 50.1267C86.5306 49.9387 87.322 49.9852 88.0478 50.26C88.4383 50.4133 88.7692 50.6533 89.0405 50.96C89.3118 51.2733 89.5236 51.6533 89.6625 52.1C89.8081 52.5533 89.8809 53.0733 89.8809 53.6533V59.7667H88.2067V53.6533C88.2067 52.9 88.0478 52.3333 87.7236 51.94C87.3927 51.5533 86.9228 51.36 86.3008 51.36C86.0294 51.36 85.7714 51.4067 85.5199 51.5067C85.2651 51.6059 85.0348 51.7599 84.845 51.9579C84.6553 52.1559 84.5108 52.3932 84.4214 52.6533C84.3089 52.94 84.2559 53.2733 84.2559 53.6533V59.7667H82.5817V53.6533C82.5817 52.88 82.4295 52.3067 82.1185 51.9267C81.814 51.5467 81.364 51.36 80.7751 51.36C80.3648 51.36 79.9809 51.4733 79.6302 51.6933C79.2543 51.9393 78.9248 52.2509 78.6574 52.6133V59.7667H76.9832Z" fill="black"/>
<mask id="mask1_1051_4354" style="mask-type:luminance" maskUnits="userSpaceOnUse" x="0" y="12" width="135" height="48">
<path d="M0 59.92H134.643V12.3733H0V59.92Z" fill="white"/>
</mask>
<g mask="url(#mask1_1051_4354)">
<path d="M94.3148 47.1533C94.3148 47.3199 94.2817 47.4733 94.2155 47.6133C94.1493 47.7533 94.0566 47.8799 93.9508 47.9933C93.7269 48.2167 93.4254 48.3435 93.1103 48.3466C92.9449 48.3466 92.7927 48.3133 92.6537 48.2533C92.4413 48.1584 92.26 48.0046 92.1311 47.8098C92.0022 47.615 91.9309 47.3873 91.9258 47.1533C91.9237 46.9935 91.9538 46.835 92.014 46.6872C92.0743 46.5394 92.1636 46.4055 92.2765 46.2933C92.389 46.1866 92.5147 46.0933 92.6537 46.0333C92.7927 45.9666 92.9449 45.9399 93.1103 45.9399C93.2692 45.9399 93.428 45.9733 93.5736 46.0333C93.7915 46.1276 93.9776 46.2836 94.1092 46.4824C94.2408 46.6813 94.3122 46.9143 94.3148 47.1533V47.1533ZM92.2633 59.7666H93.9375V50.1666H92.2633V59.7666Z" fill="black"/>
</g>
<mask id="mask2_1051_4354" style="mask-type:luminance" maskUnits="userSpaceOnUse" x="0" y="12" width="135" height="48">
<path d="M0 59.92H134.643V12.3733H0V59.92Z" fill="white"/>
</mask>
<g mask="url(#mask2_1051_4354)">
<path d="M101.912 51.7466C101.88 51.8117 101.829 51.866 101.767 51.9027C101.705 51.9394 101.633 51.957 101.561 51.9533C101.448 51.948 101.339 51.9136 101.243 51.8533L100.807 51.6199C100.125 51.2494 99.3258 51.1655 98.5831 51.3866C98.3581 51.4533 98.1662 51.5533 98.0074 51.6799C97.8486 51.8133 97.7228 51.9533 97.6368 52.1199C97.5574 52.2866 97.5111 52.4733 97.5111 52.6666C97.5111 52.9133 97.5773 53.1199 97.7228 53.2799C97.8618 53.4466 98.0537 53.5866 98.2854 53.7066C98.517 53.8266 98.7751 53.9333 99.0729 54.0266L99.9795 54.3199C100.291 54.4266 100.588 54.5399 100.886 54.6666C101.171 54.7863 101.439 54.9456 101.68 55.1399C101.905 55.3333 102.09 55.5599 102.236 55.8399C102.368 56.1066 102.448 56.4399 102.448 56.8266C102.448 57.2666 102.368 57.6799 102.21 58.0533C102.055 58.4287 101.817 58.7638 101.515 59.0333C101.21 59.2999 100.833 59.5199 100.39 59.6799C99.8926 59.8449 99.3712 59.9238 98.8478 59.9133C97.6844 59.9274 96.5556 59.5152 95.6714 58.7533L96.0684 58.1066C96.1132 58.0316 96.1743 57.9678 96.2471 57.9199C96.3133 57.8733 96.406 57.8533 96.5118 57.8533C96.631 57.8533 96.7501 57.8933 96.8758 57.9866L97.3324 58.2799C97.8147 58.5736 98.3705 58.7217 98.9339 58.7066C99.2581 58.7066 99.5427 58.6599 99.7875 58.5733C100.032 58.4933 100.231 58.3733 100.396 58.2266C100.562 58.0866 100.681 57.9199 100.76 57.7266C100.833 57.5399 100.873 57.3333 100.873 57.1266C100.873 56.8599 100.807 56.6333 100.661 56.4599C100.529 56.2866 100.337 56.1399 100.105 56.0199C99.8512 55.8863 99.5854 55.7769 99.3111 55.6933L98.3979 55.4066C98.0934 55.3066 97.789 55.1866 97.4912 55.0599C97.1934 54.9266 96.9287 54.7666 96.6971 54.5733C96.4427 54.3565 96.2407 54.0841 96.1065 53.7768C95.9723 53.4695 95.9095 53.1354 95.9229 52.7999C95.9219 52.4301 96.0007 52.0645 96.1538 51.7284C96.3069 51.3923 96.5307 51.0937 96.8096 50.8533C97.1208 50.5831 97.4801 50.375 97.8685 50.2399C98.3306 50.0818 98.8164 50.0052 99.3045 50.0133C99.9331 50.0133 100.496 50.1133 100.992 50.3133C101.488 50.5133 101.918 50.7799 102.282 51.1333L101.912 51.7466Z" fill="black"/>
</g>
<mask id="mask3_1051_4354" style="mask-type:luminance" maskUnits="userSpaceOnUse" x="0" y="12" width="135" height="48">
<path d="M0 59.92H134.643V12.3733H0V59.92Z" fill="white"/>
</mask>
<g mask="url(#mask3_1051_4354)">
<path d="M109.787 51.7466C109.755 51.8107 109.706 51.8642 109.645 51.9008C109.584 51.9375 109.514 51.9557 109.443 51.9533C109.33 51.948 109.221 51.9136 109.125 51.8533L108.688 51.6199C108.007 51.2494 107.207 51.1655 106.465 51.3866C106.24 51.4533 106.048 51.5533 105.889 51.6799C105.73 51.8133 105.604 51.9533 105.518 52.1199C105.439 52.2866 105.393 52.4733 105.393 52.6666C105.393 52.9133 105.459 53.1199 105.604 53.2799C105.743 53.4466 105.935 53.5866 106.167 53.7066C106.399 53.8266 106.657 53.9333 106.954 54.0266L107.861 54.3199C108.172 54.4266 108.47 54.5399 108.768 54.6666C109.053 54.7863 109.32 54.9456 109.562 55.1399C109.787 55.3333 109.972 55.5599 110.118 55.8399C110.25 56.1066 110.329 56.4399 110.329 56.8266C110.329 57.2666 110.25 57.6799 110.091 58.0533C109.936 58.4287 109.699 58.7638 109.396 59.0333C109.092 59.2999 108.715 59.5199 108.271 59.6799C107.774 59.8449 107.253 59.9238 106.729 59.9133C105.566 59.9274 104.437 59.5152 103.553 58.7533L103.95 58.1066C103.995 58.0316 104.056 57.9678 104.129 57.9199C104.195 57.8733 104.288 57.8533 104.393 57.8533C104.513 57.8533 104.632 57.8933 104.757 57.9866L105.214 58.2799C105.696 58.5736 106.252 58.7217 106.815 58.7066C107.14 58.7066 107.424 58.6599 107.669 58.5733C107.914 58.4933 108.113 58.3733 108.278 58.2266C108.443 58.0866 108.563 57.9199 108.642 57.7266C108.715 57.5399 108.754 57.3333 108.754 57.1266C108.754 56.8599 108.688 56.6333 108.543 56.4599C108.41 56.2866 108.218 56.1399 107.987 56.0199C107.733 55.8863 107.467 55.7769 107.193 55.6933L106.279 55.4066C105.975 55.3066 105.671 55.1866 105.373 55.0599C105.075 54.9266 104.81 54.7666 104.579 54.5733C104.324 54.3565 104.122 54.0841 103.988 53.7768C103.854 53.4695 103.791 53.1354 103.804 52.7999C103.804 52.4301 103.882 52.0645 104.035 51.7284C104.189 51.3923 104.412 51.0937 104.691 50.8533C105.002 50.5831 105.362 50.375 105.75 50.2399C106.212 50.0818 106.698 50.0052 107.186 50.0133C107.815 50.0133 108.377 50.1133 108.874 50.3133C109.37 50.5133 109.8 50.7799 110.164 51.1333L109.787 51.7466Z" fill="black"/>
</g>
<mask id="mask4_1051_4354" style="mask-type:luminance" maskUnits="userSpaceOnUse" x="0" y="12" width="135" height="48">
<path d="M0 59.92H134.643V12.3733H0V59.92Z" fill="white"/>
</mask>
<g mask="url(#mask4_1051_4354)">
<path d="M114.24 47.1533C114.24 47.3199 114.207 47.4733 114.141 47.6133C114.007 47.8973 113.777 48.1241 113.493 48.2533C113.349 48.3168 113.193 48.3496 113.036 48.3496C112.879 48.3496 112.723 48.3168 112.579 48.2533C112.367 48.1584 112.186 48.0046 112.057 47.8098C111.928 47.615 111.857 47.3873 111.851 47.1533C111.85 46.9936 111.881 46.8353 111.941 46.6877C112.001 46.54 112.09 46.4059 112.202 46.2933C112.315 46.1866 112.44 46.0933 112.579 46.0333C112.718 45.9666 112.871 45.9399 113.036 45.9399C113.195 45.9399 113.354 45.9733 113.499 46.0333C113.717 46.1282 113.902 46.2845 114.034 46.4831C114.165 46.6818 114.237 46.9145 114.24 47.1533V47.1533ZM112.189 59.7666H113.863V50.1666H112.189V59.7666Z" fill="black"/>
</g>
<mask id="mask5_1051_4354" style="mask-type:luminance" maskUnits="userSpaceOnUse" x="0" y="12" width="135" height="48">
<path d="M0 59.92H134.643V12.3733H0V59.92Z" fill="white"/>
</mask>
<g mask="url(#mask5_1051_4354)">
<path d="M120.329 50.0132C121.024 50.0132 121.652 50.1332 122.215 50.3665C122.756 50.5882 123.241 50.9274 123.637 51.3599C124.035 51.7865 124.332 52.3065 124.544 52.9199C124.749 53.5265 124.855 54.2065 124.855 54.9599C124.855 55.7199 124.749 56.3999 124.544 57.0065C124.351 57.5816 124.043 58.1104 123.637 58.5598C123.243 58.9939 122.757 59.3333 122.215 59.5532C121.652 59.7799 121.024 59.8999 120.329 59.8999C119.634 59.8999 119.005 59.7799 118.443 59.5532C117.899 59.3326 117.411 58.9933 117.013 58.5598C116.606 58.1108 116.295 57.582 116.1 57.0065C115.879 56.3475 115.772 55.6553 115.782 54.9599C115.782 54.2065 115.888 53.5265 116.1 52.9199C116.312 52.3065 116.616 51.7865 117.013 51.3599C117.411 50.9253 117.899 50.584 118.443 50.3599C119.005 50.1332 119.634 50.0132 120.329 50.0132ZM120.329 58.5799C121.268 58.5799 121.97 58.2599 122.433 57.6265C122.896 56.9932 123.128 56.1065 123.128 54.9665C123.128 53.8265 122.896 52.9332 122.433 52.2999C121.97 51.6599 121.268 51.3399 120.329 51.3399C119.852 51.3399 119.442 51.4199 119.091 51.5865C118.74 51.7532 118.443 51.9865 118.211 52.2999C117.961 52.6383 117.781 53.0236 117.682 53.4332C117.56 53.9349 117.502 54.4501 117.51 54.9665C117.51 55.5399 117.569 56.0465 117.682 56.4999C117.801 56.9465 117.973 57.3199 118.211 57.6332C118.443 57.9332 118.74 58.1665 119.091 58.3332C119.442 58.4999 119.852 58.5799 120.329 58.5799Z" fill="black"/>
</g>
<mask id="mask6_1051_4354" style="mask-type:luminance" maskUnits="userSpaceOnUse" x="0" y="12" width="135" height="48">
<path d="M0 59.92H134.643V12.3733H0V59.92Z" fill="white"/>
</mask>
<g mask="url(#mask6_1051_4354)">
<path d="M126.721 59.7665V50.1665H127.714C127.952 50.1665 128.111 50.2798 128.171 50.5132L128.303 51.5598C128.699 51.1114 129.166 50.7329 129.686 50.4398C130.229 50.1478 130.837 50.0009 131.453 50.0132C131.976 50.0132 132.432 50.0998 132.829 50.2798C133.226 50.4465 133.557 50.6932 133.822 51.0132C134.093 51.3332 134.299 51.7132 134.431 52.1665C134.57 52.6132 134.643 53.1065 134.643 53.6532V59.7665H132.968V53.6532C132.968 52.9198 132.803 52.3598 132.479 51.9598C132.148 51.5598 131.645 51.3598 130.97 51.3598C130.474 51.3598 130.01 51.4798 129.58 51.7198C129.131 51.9743 128.729 52.3034 128.389 52.6932V59.7598L126.721 59.7665Z" fill="black"/>
</g>
<mask id="mask7_1051_4354" style="mask-type:luminance" maskUnits="userSpaceOnUse" x="0" y="12" width="135" height="48">
<path d="M0 59.92H134.643V12.3733H0V59.92Z" fill="white"/>
</mask>
<g mask="url(#mask7_1051_4354)">
<path d="M111.229 29.9933V42.9333H108.364V29.3533H110.594C110.945 29.3533 111.229 29.6399 111.229 29.9933Z" fill="black"/>
</g>
</svg>
