<svg width="110" height="72" viewBox="0 0 110 72" fill="none" xmlns="http://www.w3.org/2000/svg">
<g clip-path="url(#clip0_1051_4455)">
<path d="M99.0195 22H95.4117C86.438 22 84.4307 26.2919 84.4307 33.8926V35.1455C84.4307 42.7462 86.438 47.0381 95.4117 47.0381H99.0195C107.993 47.0381 110.001 42.7462 110.001 35.1455V33.8926C110.001 26.2919 107.993 22 99.0195 22M103.736 40.9022C98.5276 46.0037 91.384 47.2822 87.7827 43.7549C84.1815 40.2276 85.4868 33.2373 90.6953 28.1358C95.9037 23.0344 103.047 21.7559 106.649 25.2832C110.25 28.8105 108.944 35.8008 103.736 40.9022Z" fill="black"/>
<path d="M9.02618 24.8398H8.94746C1.63337 24.8398 0 28.335 0 34.5223C0 40.7095 1.63337 44.2111 8.94746 44.2111H9.02618C16.3337 44.2111 17.9671 40.7159 17.9671 34.5223C17.9671 28.3286 16.3337 24.8398 9.02618 24.8398M15.0349 34.5287C15.0349 39.4245 15.0349 43.1124 9.19673 43.1124H8.76379C2.92564 43.1124 2.92564 39.4245 2.92564 34.5287C2.92564 29.6329 2.84692 25.9449 8.76379 25.9449H9.19673C15.107 25.9449 15.0349 29.7742 15.0349 34.5287Z" fill="black"/>
<path d="M48.4766 24.8398H48.3979C41.0904 24.8398 39.4504 28.335 39.4504 34.5287C39.4504 40.7224 41.0838 44.2111 48.3979 44.2111H48.4766C54.564 44.2111 56.7156 41.7825 57.2601 37.4007H54.9445C54.6624 37.4007 54.4197 37.6127 54.4 37.8889C54.1311 41.0179 53.0487 43.1124 48.6537 43.1124H48.2208C42.6057 43.1124 42.3958 39.6944 42.3826 35.0812H57.411C57.411 34.9013 57.411 34.715 57.411 34.5287C57.411 28.3414 55.7776 24.8398 48.4635 24.8398M42.3695 33.9761C42.3695 29.4787 42.5269 25.9449 48.2077 25.9449H48.6406C54.3213 25.9449 54.4722 29.4787 54.4788 33.9761H42.3761H42.3695Z" fill="black"/>
<path d="M28.8631 24.8399C25.8259 24.8206 23.9499 25.6687 22.8216 27.2557H22.4083L22.0147 25.7523C21.9491 25.5081 21.7261 25.3411 21.4703 25.3411H19.8369V50.0001H22.4542V41.789H22.815C23.9433 43.3759 25.8194 44.224 28.8565 44.2048C36.1641 44.2048 37.804 40.7096 37.804 34.5223C37.804 28.3351 36.1706 24.8335 28.8565 24.8335M34.8718 34.5223C34.8718 39.4182 34.8718 43.1061 29.0336 43.1061H28.6007C22.7625 43.1061 22.7626 39.4182 22.7626 34.5223C22.7626 29.6265 22.6838 25.9386 28.6007 25.9386H29.0336C34.944 25.9386 34.8718 29.7679 34.8718 34.5223Z" fill="black"/>
<path d="M68.5491 24.8399C65.512 24.8206 63.6359 25.6687 62.5076 27.2557H62.0944L61.7008 25.7523C61.6352 25.5081 61.4122 25.3346 61.1563 25.3346H59.5229V43.7165H62.4551V34.5288C62.4551 29.7743 62.3764 25.945 68.2933 25.945H68.7262C74.6366 25.945 74.5644 29.7743 74.5644 34.5288V43.7165H77.4966V34.5288C77.4966 28.3415 75.8632 24.8399 68.5491 24.8399" fill="black"/>
</g>
<defs>
<clipPath id="clip0_1051_4455">
<rect width="110" height="28" fill="white" transform="translate(0 22)"/>
</clipPath>
</defs>
</svg>
