<svg width="91" height="72" viewBox="0 0 91 72" fill="none" xmlns="http://www.w3.org/2000/svg">
<path d="M0 26H5.92724C6.75244 26 7.61313 26.0355 8.50932 26.1065C9.4055 26.1775 10.2839 26.4259 11.1446 26.8607C12.0053 27.331 12.6531 28.0053 13.0967 28.8926C13.5404 29.7799 13.7533 30.7826 13.7533 31.8917C13.7533 33.0807 13.5138 34.0834 13.0435 34.9263C12.5643 35.7604 11.9255 36.417 11.118 36.9051C10.559 37.2245 9.83141 37.4641 8.93523 37.6149C8.03904 37.7657 6.97427 37.8456 5.75865 37.8456H2.63531V45.5475H0V26V26ZM11.0382 31.9006C11.0382 31.1642 10.8784 30.4987 10.5679 29.8953C10.2573 29.2919 9.78704 28.8394 9.18367 28.5377C8.88199 28.378 8.4472 28.2715 7.8882 28.2271C7.32919 28.1828 6.70807 28.1562 6.03372 28.1562H2.63531V35.6983H6.03372C6.71695 35.6983 7.33807 35.6717 7.8882 35.6007C8.4472 35.5386 8.87311 35.4321 9.18367 35.2901C9.79592 34.9885 10.2573 34.5271 10.5679 33.9148C10.8873 33.3026 11.0382 32.6371 11.0382 31.9006Z" fill="black"/>
<path d="M20.5235 45.9555C19.5031 45.9555 18.5714 45.7781 17.7462 45.4143C16.921 45.0593 16.2112 44.5536 15.6344 43.9058C15.0488 43.2581 14.6051 42.4861 14.3034 41.5722C14.0018 40.6671 13.842 39.6734 13.842 38.5997C13.842 37.5261 14.0018 36.5323 14.3123 35.6361C14.6229 34.7399 15.0665 33.9591 15.6433 33.3025C16.22 32.6458 16.921 32.1401 17.7551 31.7852C18.5892 31.4302 19.5208 31.2439 20.5412 31.2439C21.5794 31.2439 22.5199 31.4214 23.354 31.7852C24.1881 32.1401 24.8979 32.6547 25.4836 33.3025C26.0692 33.9591 26.5128 34.731 26.8323 35.6361C27.1428 36.5323 27.3026 37.5261 27.3026 38.5997C27.3026 39.6734 27.1428 40.6671 26.8323 41.5722C26.5217 42.4773 26.0692 43.2581 25.4836 43.9058C24.8979 44.5536 24.1881 45.0593 23.3451 45.4143C22.5022 45.7781 21.5616 45.9555 20.5235 45.9555ZM20.5235 43.9946C21.1712 43.9946 21.7569 43.8615 22.2892 43.6041C22.8216 43.3468 23.2653 42.983 23.6202 42.5128C23.9751 42.0425 24.2591 41.4835 24.4543 40.8269C24.6495 40.1702 24.7471 39.4427 24.7471 38.6352C24.7471 37.8277 24.6495 37.1002 24.4543 36.4435C24.2591 35.7869 23.9751 35.2191 23.6025 34.7488C23.2298 34.2696 22.795 33.9058 22.2804 33.6485C21.7657 33.3912 21.189 33.2581 20.5412 33.2581C19.9113 33.2581 19.3434 33.3823 18.8287 33.6396C18.3141 33.8881 17.8793 34.2519 17.5244 34.7133C17.1606 35.1836 16.8855 35.7426 16.6903 36.3992C16.4951 37.0558 16.3975 37.7834 16.3975 38.5908C16.3975 39.3983 16.4951 40.1348 16.6814 40.8002C16.8678 41.4657 17.1428 42.0336 17.5066 42.5128C17.8616 42.9919 18.3052 43.3557 18.811 43.613C19.3256 43.8615 19.8935 43.9946 20.5235 43.9946Z" fill="black"/>
<path d="M31.6327 26H29.1571V45.5563H31.6327V26Z" fill="black"/>
<path d="M40.0887 45.9555C37.9503 45.9555 36.3176 45.3078 35.1907 44.0034C34.0639 42.6991 33.496 40.8978 33.496 38.5997C33.496 37.5616 33.6468 36.5855 33.9574 35.6893C34.2591 34.7931 34.7027 34.0123 35.2883 33.3468C35.874 32.6813 36.5749 32.1667 37.3913 31.794C38.2076 31.4302 39.1304 31.2439 40.1508 31.2439C42.3247 31.2439 43.913 31.9537 44.9334 33.3734C45.945 34.7931 46.4596 36.7985 46.4596 39.3805H36.078C36.1135 40.0638 36.2378 40.6849 36.4507 41.2528C36.6637 41.8206 36.9565 42.2998 37.3292 42.708C37.693 43.1161 38.1189 43.4267 38.598 43.6485C39.0772 43.8703 39.6007 43.9857 40.1774 43.9857C41.0736 43.9857 41.8456 43.7816 42.4844 43.3646C43.1233 42.9475 43.6823 42.2111 43.8332 41.235H46.4596C46.149 42.9475 45.3948 44.0478 44.2413 44.8109C43.0701 45.574 41.6859 45.9555 40.0887 45.9555ZM40.0355 33.2403C38.9796 33.2403 38.1011 33.5775 37.4268 34.2519C36.7435 34.9262 36.3176 35.9644 36.1313 37.3663H43.8065C43.6646 35.9644 43.2475 34.9262 42.5643 34.2519C41.8811 33.5775 41.0381 33.2403 40.0355 33.2403Z" fill="black"/>
<path d="M61.9254 31.6522V28.2893H64.401V31.6522H67.4179V33.7019H64.401V40.6229C64.401 41.111 64.4187 41.5457 64.4454 41.9273C64.472 42.3177 64.543 42.6371 64.6495 42.8945C64.7559 43.1518 64.9245 43.3559 65.1463 43.489C65.3682 43.622 65.6787 43.693 66.078 43.693C66.2732 43.693 66.4862 43.693 66.708 43.6753C66.9298 43.6664 67.1872 43.622 67.48 43.5511V45.5475C66.7435 45.7072 66.0603 45.7871 65.4303 45.7871C64.889 45.7871 64.401 45.7161 63.9662 45.583C63.5226 45.4499 63.1588 45.2281 62.866 44.9264C62.5731 44.6247 62.3424 44.2077 62.1827 43.6842C62.023 43.1606 61.9432 42.5218 61.9432 41.7676V33.6842H59.3877V31.6345H61.9254V31.6522Z" fill="black"/>
<path d="M77.9326 45.5563C77.8971 45.3611 77.8616 45.1127 77.8261 44.8198C77.7906 44.527 77.764 44.1455 77.7462 43.6752C77.1517 44.4649 76.4685 45.0239 75.6965 45.3611C74.9246 45.6894 74.0373 45.858 73.0257 45.858C71.4818 45.858 70.2928 45.4676 69.4587 44.6867C68.6247 43.9059 68.2076 42.8944 68.2076 41.6521C68.2076 40.8979 68.3585 40.2679 68.6513 39.7533C68.9441 39.2387 69.3434 38.8216 69.8403 38.4844C70.3372 38.1561 70.9051 37.8899 71.5528 37.7036C72.2005 37.5173 72.866 37.3753 73.5493 37.2688C74.2325 37.1712 74.9157 37.0914 75.5989 37.0381C76.2822 36.9849 76.9122 36.9228 77.48 36.8518V36.3638C77.48 35.3256 77.2405 34.5182 76.7524 33.9503C76.2644 33.3824 75.4836 33.0985 74.4099 33.0985C73.4428 33.0985 72.6619 33.338 72.0674 33.8083C71.4729 34.2875 71.1801 34.9884 71.1801 35.9201H68.7312C68.7312 35.2014 68.8731 34.5537 69.1482 33.9769C69.4233 33.4001 69.8137 32.9121 70.3194 32.5128C70.8252 32.1047 71.4197 31.7941 72.1118 31.5723C72.8039 31.3505 73.567 31.2351 74.4188 31.2351C75.732 31.2351 76.7524 31.4303 77.4889 31.8296C78.2254 32.2289 78.7755 32.7258 79.1304 33.338C79.4854 33.9503 79.7072 34.6246 79.787 35.37C79.8669 36.1153 79.9113 36.834 79.9113 37.535V41.3327C79.9113 42.1402 79.9379 42.8855 79.9823 43.5687C80.0266 44.252 80.1242 44.9086 80.2662 45.5386H77.9326V45.5563ZM77.4712 38.7684C76.9477 38.8394 76.2999 38.9015 75.528 38.9458C74.756 38.9902 74.0107 39.1056 73.2919 39.283C72.5732 39.4605 71.961 39.7355 71.4641 40.1082C70.9583 40.472 70.7099 41.0133 70.7099 41.7143C70.7099 42.3975 70.9672 42.9565 71.4729 43.4001C71.9876 43.8438 72.6886 44.0568 73.5847 44.0568C74.0905 44.0568 74.5697 43.9946 75.0399 43.8704C75.5102 43.7462 75.9184 43.5155 76.2822 43.1872C76.6371 42.8589 76.9299 42.3975 77.1429 41.8119C77.3558 41.2262 77.4623 40.4809 77.4623 39.567V38.7684H77.4712Z" fill="black"/>
<path d="M84.7738 31.6521V33.7018C85.315 32.8589 85.9007 32.2821 86.5484 31.9627C87.1961 31.6521 87.906 31.4924 88.6779 31.4924C89.2015 31.4924 89.7161 31.5457 90.2396 31.6521V33.8349C89.9379 33.7817 89.6451 33.7373 89.3789 33.7018C89.1127 33.6663 88.8465 33.6486 88.5981 33.6486C87.8439 33.6486 87.2316 33.7817 86.7525 34.039C86.2733 34.2963 85.9007 34.669 85.6345 35.1393C85.3683 35.6184 85.1731 36.1952 85.0666 36.8784C84.9601 37.5616 84.9069 38.3247 84.9069 39.1677V45.5474H82.4313V31.6521H84.7738Z" fill="black"/>
<path d="M58.6602 39.7356C58.3318 39.2121 57.9059 38.8039 57.3913 38.4934C56.8767 38.1917 56.2999 37.961 55.6522 37.8102C55.0044 37.6593 54.3744 37.5173 53.7622 37.3931C53.2919 37.3044 52.8571 37.2068 52.4401 37.1092C52.0231 37.0116 51.6681 36.8785 51.3665 36.7188C51.0648 36.5591 50.8163 36.355 50.63 36.0976C50.4436 35.8492 50.346 35.5209 50.346 35.1305C50.346 34.536 50.5945 34.0657 51.1003 33.7197C51.606 33.3736 52.2893 33.1961 53.1499 33.1961C55.2351 33.1961 56.2822 34.1012 56.2999 35.9202H58.7489C58.7311 34.394 58.2431 33.2316 57.2848 32.4419C56.3265 31.6522 54.9601 31.2529 53.2032 31.2529C52.378 31.2529 51.6326 31.3505 50.9672 31.5457C50.3017 31.741 49.7338 32.0249 49.2547 32.3798C48.7755 32.7347 48.4117 33.1695 48.1544 33.6575C47.8971 34.1544 47.764 34.6957 47.764 35.2902C47.764 36.1331 47.9237 36.8164 48.2342 37.3399C48.5448 37.8634 48.953 38.2716 49.4499 38.5644C49.9467 38.8572 50.4969 39.079 51.1091 39.221C51.7214 39.363 52.3336 39.4872 52.937 39.5937C53.4073 39.6824 53.8509 39.78 54.2857 39.8776C54.7205 39.9752 55.102 40.1083 55.4303 40.2858C55.7586 40.4543 56.0248 40.6762 56.2289 40.9335C56.4241 41.1908 56.5217 41.5369 56.5217 41.9717C56.5217 42.6549 56.2644 43.1695 55.7586 43.5244C55.244 43.8705 54.5164 44.048 53.567 44.048C52.4135 44.048 51.5262 43.7995 50.9051 43.3115C50.3106 42.8412 50 42.158 49.9645 41.2441H47.4623C47.5155 42.7259 48.039 43.8794 49.0417 44.6957C50.0798 45.5386 51.5705 45.9646 53.5137 45.9646C54.3212 45.9646 55.0754 45.8669 55.7586 45.6717C56.4507 45.4765 57.0452 45.1926 57.551 44.8377C58.0568 44.4827 58.4472 44.0391 58.74 43.5333C59.0239 43.0187 59.1748 42.4508 59.1748 41.8208C59.157 40.9512 58.9885 40.2591 58.6602 39.7356Z" fill="black"/>
</svg>
