<svg width="130" height="72" viewBox="0 0 130 72" fill="none" xmlns="http://www.w3.org/2000/svg">
<path d="M59.2523 37.8799C58.7523 37.8799 58.2823 37.6599 57.8823 37.4199C57.6223 37.2599 57.1923 36.9699 56.8923 36.8599C58.2123 35.9799 59.0823 34.1799 59.0823 31.7699C59.0823 28.2899 57.2623 26.1399 54.3123 26.1399C53.4823 26.1399 52.6723 26.3299 52.0123 26.6799C50.4123 27.5399 49.5023 29.4699 49.5023 31.8699C49.5023 33.4999 49.9323 34.8999 50.7823 35.9899C51.6323 37.0899 52.7123 37.5499 54.3723 37.5499C55.2323 37.8199 56.0923 38.3199 56.6223 38.6699C57.0323 38.9399 57.8023 39.4499 58.6623 39.4499C59.3323 39.4499 59.6523 39.2599 59.6523 39.2599L60.2423 37.8099C60.2423 37.8099 59.7323 37.8899 59.2523 37.8899V37.8799ZM54.3023 35.8399C53.7723 35.8399 53.3323 35.7099 52.9823 35.4599C52.3123 34.9799 51.9923 33.7799 51.9923 31.8699C51.9923 30.5299 52.1723 29.5599 52.5523 28.8399C52.8723 28.2499 53.5223 27.8699 54.2723 27.8699C55.4523 27.8699 56.0423 28.7199 56.2223 29.2699C56.4123 29.8899 56.5123 30.7099 56.5123 31.8399C56.5123 34.6599 55.8623 35.8499 54.3123 35.8499L54.3023 35.8399Z" fill="black"/>
<path d="M63.3323 37.58C64.1923 37.58 64.9623 37.31 65.4823 36.8C65.6223 37.13 65.8523 37.41 66.1223 37.6L67.6423 36.74C67.3223 36.36 67.1523 35.8 67.1523 35.26V29.02L65.1123 29.45V35.2C64.9523 35.6 64.3123 35.98 63.7923 35.98C63.4723 35.98 63.1523 35.82 63.0423 35.6C62.9323 35.38 62.8623 34.99 62.8623 34.26V29.01L60.7523 29.41V34.64C60.7523 35.47 60.8023 35.9 60.9323 36.27C61.2023 37.05 62.1923 37.59 63.3423 37.59L63.3323 37.58Z" fill="black"/>
<path d="M72.7623 37.59C73.9123 37.59 74.9023 37.22 75.8423 36.46L75.0123 35.18C74.3623 35.72 73.6723 35.99 72.9423 35.99C71.8423 35.99 71.2223 35.27 71.2223 34.01V33.95H75.9423V33.46C75.9423 31.75 75.6023 30.65 74.8523 29.89C74.3223 29.35 73.4323 29.03 72.4923 29.03C71.4023 29.03 70.5923 29.38 69.9223 30.13C69.2023 30.93 68.9023 31.9 68.9023 33.37C68.9023 35.94 70.4223 37.6 72.7623 37.6V37.59ZM71.2423 32.36C71.2423 31.23 71.7023 30.59 72.5223 30.59C72.9523 30.59 73.2523 30.75 73.4623 31.07C73.6523 31.37 73.7223 31.69 73.7223 32.3V32.4H71.2523V32.37L71.2423 32.36Z" fill="black"/>
<path d="M81.0023 36C79.9023 36 79.2823 35.28 79.2823 34.02V33.96H84.0023V33.47C84.0023 31.76 83.6623 30.66 82.9223 29.9C82.3923 29.36 81.5023 29.04 80.5623 29.04C79.4823 29.04 78.6623 29.39 77.9923 30.14C77.2723 30.94 76.9723 31.91 76.9723 33.38C76.9723 35.95 78.4923 37.61 80.8323 37.61C81.9823 37.61 82.9723 37.24 83.9123 36.48L83.0823 35.2C82.4323 35.74 81.7423 36.01 81.0023 36.01V36ZM79.3123 32.36C79.3123 31.23 79.7723 30.59 80.5923 30.59C81.0223 30.59 81.3223 30.75 81.5323 31.07C81.7223 31.37 81.7923 31.69 81.7923 32.3V32.4H79.3223V32.37L79.3123 32.36Z" fill="black"/>
<path d="M85.5223 37.37H87.6623V31.59C88.1523 31.14 88.7123 30.86 89.1423 30.86C89.7023 30.86 89.8623 31.13 89.8623 32.06V37.37H91.9723V31.4C91.9723 30.89 91.9223 30.54 91.8123 30.24C91.5523 29.54 90.7623 29.06 89.8523 29.06C89.3723 29.06 88.8123 29.19 88.3823 29.41C88.0323 29.6 87.7623 29.79 87.4423 30.02C87.4423 29.68 87.3323 29.33 87.1423 29L85.2423 29.54C85.4323 30.08 85.5323 30.75 85.5323 31.46V37.38L85.5223 37.37Z" fill="black"/>
<path d="M100.112 34.78C100.112 34.24 99.9722 33.77 99.6622 33.39C99.3722 33.02 99.0423 32.72 98.0323 32.46L97.0423 32.2C96.2923 32.01 96.0222 31.78 96.0222 31.37C96.0222 30.89 96.4323 30.57 97.0623 30.57C97.6923 30.57 98.2623 30.75 99.0723 31.16L99.7722 29.72C99.0222 29.35 98.1622 28.95 96.8522 28.95C94.9522 28.95 93.6922 30.02 93.6922 31.62C93.6922 32.15 93.8723 32.74 94.1523 33.09C94.4423 33.44 95.1123 33.82 95.6523 33.92L96.6122 34.1C97.4722 34.26 97.8723 34.55 97.8723 35.11C97.8723 35.64 97.3923 36.04 96.7923 36.04C95.8623 36.04 94.7322 35.51 94.0822 35.11L93.3123 36.67C94.5123 37.29 95.6122 37.61 96.6122 37.61C98.7022 37.61 100.112 36.4599 100.112 34.7699V34.78Z" fill="black"/>
<path d="M101.622 34.6101C101.622 35.7801 101.652 36.0301 101.812 36.4501C102.072 37.1401 102.802 37.5701 103.712 37.5701C104.172 37.5701 104.622 37.4901 104.992 37.3501L104.622 36.0701C104.512 36.1001 104.462 36.1001 104.382 36.1001C104.202 36.1001 104.032 36.0201 103.952 35.8801C103.822 35.6601 103.812 35.4601 103.812 34.0601V27.6901C103.812 26.5401 103.782 26.0101 103.702 25.5701L101.512 26.0601C101.592 26.7901 101.622 27.4501 101.622 28.5201V34.6201V34.6101Z" fill="black"/>
<path d="M110.412 36.79C110.622 37.2 111.062 37.57 111.562 37.78L112.692 36.47C111.972 35.93 111.912 35.54 111.922 34.65L111.972 31.91C111.992 31.03 111.942 30.78 111.832 30.44C111.512 29.53 110.572 29.02 109.202 29.02C108.452 29.02 107.762 29.16 106.972 29.5C106.402 29.74 106.082 29.9 105.652 30.17L106.562 31.7C107.442 31.11 108.232 30.77 108.922 30.77C109.702 30.77 109.882 31.07 109.882 31.98V32.32C109.702 32.3 109.562 32.3 109.402 32.3C106.802 32.3 105.472 33.19 105.472 35.11C105.472 36.74 106.462 37.66 108.282 37.66C108.952 37.66 109.522 37.5 109.922 37.21C110.082 37.1 110.262 36.94 110.412 36.78V36.79ZM109.812 35.55C109.492 35.9 109.092 36.11 108.692 36.11C108.152 36.11 107.752 35.68 107.752 35.04C107.752 34.07 108.262 33.8 109.742 33.8H109.842L109.812 35.56V35.55Z" fill="black"/>
<path d="M118.532 32.05V37.36H120.642V31.39C120.642 30.88 120.592 30.53 120.482 30.23C120.222 29.53 119.432 29.05 118.522 29.05C118.042 29.05 117.482 29.18 117.052 29.4C116.702 29.59 116.432 29.78 116.112 30.01C116.112 29.67 116.002 29.32 115.812 28.99L113.912 29.53C114.102 30.07 114.202 30.74 114.202 31.45V37.37H116.342V31.59C116.832 31.14 117.392 30.86 117.822 30.86C118.382 30.86 118.542 31.13 118.542 32.06L118.532 32.05Z" fill="black"/>
<path d="M125.772 37.5801C126.502 37.5801 127.132 37.3601 127.652 36.8901C127.682 37.1101 127.712 37.2401 127.782 37.3701H129.702C129.562 37.0501 129.402 36.4001 129.402 34.3901V25.9001L127.282 25.5601V28.3701C127.282 28.8501 127.312 29.4101 127.342 29.5801C126.942 29.2601 126.482 29.1201 125.892 29.1201C123.812 29.1201 122.392 30.8801 122.392 33.4301C122.392 35.9801 123.702 37.5801 125.772 37.5801ZM126.142 30.8201C126.522 30.8201 126.912 31.0001 127.302 31.3501V35.2401C127.092 35.5001 126.652 35.7701 126.252 35.7701C125.132 35.7701 124.772 35.2001 124.772 33.4401C124.772 31.6801 125.182 30.8201 126.142 30.8201Z" fill="black"/>
<path d="M54.1922 48.15H56.3922V51.49C55.9322 51.78 55.3423 51.92 54.6523 51.92C53.6123 51.92 52.5022 51.47 52.0022 50.76C51.5022 50.05 51.2323 48.88 51.2323 47.44C51.2323 46.4 51.3722 45.48 51.6622 44.66C52.1122 43.4 53.1122 42.81 54.3922 42.81C55.2422 42.81 55.8722 43.05 56.7722 43.66L57.3622 42.85C56.5322 42.13 55.5322 41.77 54.3622 41.77C53.1922 41.77 52.2922 42.1 51.5022 42.81C50.3722 43.83 49.8123 45.32 49.8123 47.41C49.8123 49.29 50.2423 50.65 51.1723 51.66C52.0023 52.55 53.1723 53.03 54.5423 53.03C55.6623 53.03 56.8423 52.71 57.6223 52.2V47.09H53.9323L54.1922 48.17V48.15Z" fill="black"/>
<path d="M63.1523 44.6299C61.0623 44.6299 59.7723 46.2099 59.7723 48.7999C59.7723 51.3899 61.0123 53.0299 63.2023 53.0299C65.2023 53.0299 66.6223 51.6299 66.6223 48.9799C66.6223 47.6899 66.3823 46.7499 65.8923 46.0299C65.3523 45.2499 64.4923 44.6399 63.1623 44.6399L63.1523 44.6299ZM64.9623 50.7899C64.6923 51.5599 64.0723 51.9899 63.2423 51.9899C62.5523 51.9899 61.9223 51.6699 61.6323 51.1899C61.3323 50.6999 61.1323 49.7099 61.1323 48.5899C61.1323 47.6499 61.2623 47.0099 61.5123 46.5199C61.7823 45.9899 62.4423 45.6599 63.1423 45.6599C63.7923 45.6599 64.5023 45.9799 64.8323 46.6799C65.0923 47.2099 65.2023 47.9599 65.2023 49.0699C65.2023 49.8499 65.1423 50.2999 64.9623 50.7899Z" fill="black"/>
<path d="M71.4123 50.1599C71.1523 50.8799 71.0323 51.4999 71.0323 51.4999H71.0023C71.0023 51.4999 70.8423 50.7999 70.6223 50.1399L68.7723 44.6699L67.4923 44.9399L70.3523 52.8999H71.5823L74.5623 44.8699H73.2423L71.4223 50.1499L71.4123 50.1599Z" fill="black"/>
<path d="M78.9323 44.6699C77.9723 44.6699 77.1923 45.0199 76.5523 45.7699C75.8823 46.5699 75.5923 47.4299 75.5923 48.7699C75.5923 51.3999 76.9123 52.9999 79.1223 52.9999C80.1423 52.9999 81.1023 52.6499 81.8023 52.0099L81.3223 51.2099C80.7623 51.7199 80.1423 51.9599 79.3723 51.9599C78.6023 51.9599 77.8423 51.6699 77.3923 50.9899C77.1223 50.5799 77.0223 49.9999 77.0223 49.2499V49.0599H81.9823V48.8799C81.9823 46.9799 81.7623 46.2299 81.0723 45.5299C80.5323 44.9699 79.7823 44.6699 78.9123 44.6699H78.9323ZM77.0323 48.1099C77.0923 46.4699 77.7323 45.6299 78.8723 45.6299C79.4823 45.6299 80.0423 45.8999 80.3123 46.3299C80.5523 46.7099 80.6623 47.2399 80.6823 48.0999H77.0423L77.0323 48.1099Z" fill="black"/>
<path d="M85.4523 45.9599C85.5023 45.2899 85.1923 44.6699 85.1923 44.6699L83.9523 45.0099C83.9523 45.0099 84.2223 45.5399 84.2223 46.6999V52.8299H85.4723V47.8499C85.4723 47.1999 85.5723 46.9599 85.9323 46.5899C86.2923 46.2199 86.7823 46.0199 87.2523 46.0199C87.3823 46.0199 87.5223 46.0499 87.6023 46.0799L88.1123 44.7199C88.1123 44.7199 87.8923 44.6399 87.6823 44.6399C86.8723 44.6399 86.0223 45.1499 85.4423 45.9599H85.4523Z" fill="black"/>
<path d="M93.0123 44.6999C92.1623 44.6999 91.3323 45.0999 90.5023 45.9299C90.5023 45.2799 90.2123 44.6899 90.2123 44.6899L89.0023 45.0199C89.0023 45.0199 89.3023 45.5599 89.3023 46.6899V52.8199H90.5123V46.8999C91.0823 46.2899 92.0723 45.7799 92.7123 45.7799C93.0823 45.7799 93.4123 45.9099 93.5923 46.1099C93.8123 46.3799 93.8823 46.5899 93.8823 47.4299V52.8099H95.1423V46.7799C95.1423 46.4599 95.0823 46.1399 94.9523 45.8599C94.6323 45.1599 93.8723 44.6999 93.0023 44.6999H93.0123Z" fill="black"/>
<path d="M105.552 44.6699C104.742 44.6699 103.762 45.1799 103.002 45.9999C102.712 45.1499 101.932 44.6699 101.152 44.6699C100.372 44.6699 99.3623 45.2799 98.8423 45.8699C98.8423 45.3099 98.5523 44.6899 98.5523 44.6899L97.3423 44.9799C97.3423 44.9799 97.6323 45.5199 97.6323 46.6699V52.8299H98.8323V46.8899C99.6623 46.1399 100.252 45.8399 100.862 45.8399C101.232 45.8399 101.482 45.9399 101.672 46.1599C101.852 46.3799 101.892 46.6999 101.892 47.1799V52.8299H103.152V47.0199C103.982 46.2499 104.542 45.7899 105.262 45.7899C105.932 45.7899 106.282 46.1899 106.282 46.9499V52.8199H107.562V46.8199C107.562 45.5599 106.752 44.6599 105.562 44.6599L105.552 44.6699Z" fill="black"/>
<path d="M112.872 44.6699C111.912 44.6699 111.132 45.0199 110.492 45.7699C109.822 46.5699 109.532 47.4299 109.532 48.7699C109.532 51.3999 110.852 52.9999 113.062 52.9999C114.082 52.9999 115.042 52.6499 115.742 52.0099L115.262 51.2099C114.702 51.7199 114.082 51.9599 113.312 51.9599C112.542 51.9599 111.782 51.6699 111.332 50.9899C111.062 50.5799 110.962 49.9999 110.962 49.2499V49.0599H115.922V48.8799C115.922 46.9799 115.702 46.2299 115.012 45.5299C114.472 44.9699 113.722 44.6699 112.862 44.6699H112.872ZM110.972 48.1099C111.032 46.4699 111.672 45.6299 112.802 45.6299C113.412 45.6299 113.962 45.8999 114.242 46.3299C114.482 46.7099 114.592 47.2399 114.612 48.0999H110.972V48.1099Z" fill="black"/>
<path d="M121.872 44.6999C121.022 44.6999 120.202 45.0999 119.362 45.9299C119.362 45.2799 119.072 44.6899 119.072 44.6899L117.862 45.0199C117.862 45.0199 118.162 45.5599 118.162 46.6899V52.8199H119.372V46.8999C119.942 46.2899 120.932 45.7799 121.572 45.7799C121.942 45.7799 122.272 45.9099 122.452 46.1099C122.672 46.3799 122.742 46.5899 122.742 47.4299V52.8099H124.002V46.7799C124.002 46.4599 123.942 46.1399 123.812 45.8599C123.492 45.1599 122.732 44.6999 121.862 44.6999H121.872Z" fill="black"/>
<path d="M128.732 52.1201C127.952 52.1201 127.712 51.8201 127.712 50.9401V45.8201H129.372L129.752 44.8801H127.752C127.752 43.8301 127.912 42.5801 127.912 42.5801L126.602 42.8701C126.602 42.8701 126.472 44.1201 126.472 44.8801H125.432V45.8201H126.472V51.2801C126.472 52.0801 126.682 52.5901 127.242 52.8601C127.542 53.0001 127.862 53.0801 128.282 53.0801C128.842 53.0801 129.282 52.9701 129.682 52.7601L129.502 51.9601C129.282 52.0701 129.072 52.1201 128.722 52.1201H128.732Z" fill="black"/>
<path d="M23.6523 30.59C23.5523 30.59 23.4723 30.64 23.4223 30.71C23.3223 30.69 23.2123 30.67 23.1023 30.66V30.07C23.2123 30.02 23.2823 29.92 23.2823 29.8C23.2823 29.64 23.1523 29.5 22.9823 29.5C22.8123 29.5 22.6823 29.63 22.6823 29.8C22.6823 29.91 22.7423 30.01 22.8423 30.06V30.63C22.7323 30.62 22.6323 30.61 22.5223 30.6C22.4723 30.5 22.3723 30.43 22.2523 30.43C22.0923 30.43 21.9523 30.56 21.9523 30.73C21.9523 30.9 22.0823 31.03 22.2523 31.03C22.3523 31.03 22.4523 30.98 22.5023 30.89C22.6223 30.9 22.7223 30.91 22.8323 30.93V31.8C22.7323 31.85 22.6623 31.95 22.6623 32.06C22.6623 32.22 22.7923 32.36 22.9623 32.36C23.1323 32.36 23.2623 32.23 23.2623 32.06C23.2623 31.94 23.1923 31.84 23.0823 31.79V30.96C23.1823 30.97 23.2823 30.99 23.3723 31C23.4123 31.12 23.5223 31.2 23.6523 31.2C23.8123 31.2 23.9523 31.07 23.9523 30.9C23.9523 30.73 23.8223 30.6 23.6523 30.6V30.59Z" fill="black"/>
<path d="M21.0823 30.42C20.9623 30.42 20.8623 30.49 20.8123 30.59C20.7023 30.6 20.6023 30.61 20.5023 30.62V30.05C20.5923 30 20.6523 29.9 20.6523 29.79C20.6523 29.63 20.5223 29.49 20.3523 29.49C20.1823 29.49 20.0523 29.62 20.0523 29.79C20.0523 29.91 20.1223 30.02 20.2323 30.06V30.65C20.1223 30.66 20.0123 30.68 19.9123 30.7C19.8623 30.63 19.7723 30.58 19.6823 30.58C19.5223 30.58 19.3823 30.71 19.3823 30.88C19.3823 31.05 19.5123 31.18 19.6823 31.18C19.8123 31.18 19.9223 31.09 19.9623 30.98C20.0523 30.96 20.1423 30.95 20.2423 30.94V31.77C20.1423 31.82 20.0723 31.92 20.0723 32.04C20.0723 32.2 20.2023 32.34 20.3723 32.34C20.5423 32.34 20.6723 32.21 20.6723 32.04C20.6723 31.93 20.6023 31.83 20.5123 31.78V30.91C20.6123 30.9 20.7223 30.89 20.8323 30.87C20.8823 30.95 20.9723 31.01 21.0823 31.01C21.2423 31.01 21.3823 30.88 21.3823 30.71C21.3823 30.54 21.2523 30.41 21.0823 30.41V30.42Z" fill="black"/>
<path d="M37.2624 54.1099C36.9424 54.2099 36.5523 54.2599 35.9723 54.2599H35.2423C32.7423 54.2099 30.1823 53.4699 28.6023 51.8599C30.7723 49.6599 28.2224 47.8599 26.8424 49.7199C26.4124 50.2999 26.0623 50.7099 25.7723 51.2799C25.5323 51.7299 25.7123 52.1899 26.2523 52.8899C26.5523 53.2799 27.2823 53.8699 27.8823 54.2599H15.4024C16.0024 53.8699 16.7424 53.2699 17.0324 52.8899C17.5724 52.1899 17.7524 51.7299 17.5124 51.2799C17.2124 50.7199 16.8723 50.3099 16.4423 49.7199C15.0623 47.8599 12.5124 49.6599 14.6824 51.8599C13.1124 53.4699 10.5424 54.2099 8.04235 54.2599H7.35235C6.76235 54.2599 6.38235 54.1999 6.05235 54.1099C5.53235 53.9899 5.42235 54.2099 5.70235 55.0999C5.89235 55.6999 6.05234 56.6699 6.11234 57.3299H37.2024C37.2724 56.6699 37.4223 55.6899 37.6123 55.0999C37.8923 54.2099 37.7724 53.9899 37.2624 54.1099ZM27.5324 49.7999C27.9424 49.2599 28.5324 49.3999 28.7824 49.8599C29.0424 50.3499 28.6624 50.9499 28.1524 51.4099C27.4424 50.6399 27.3624 50.0299 27.5424 49.7999H27.5324ZM26.5023 52.3499C26.2523 51.9999 26.1624 51.7899 26.2924 51.4499C26.4224 51.1199 26.6823 50.8199 26.9623 50.4099C27.3923 52.0999 29.9524 53.7199 31.8424 54.2599H28.8323C28.0523 53.8399 27.0723 53.1499 26.5023 52.3499ZM14.5023 49.8599C14.7523 49.3999 15.3423 49.2599 15.7523 49.7999C15.9223 50.0299 15.8523 50.6399 15.1423 51.4099C14.6323 50.9399 14.2424 50.3399 14.5124 49.8599H14.5023ZM16.3323 50.4099C16.6123 50.8199 16.8723 51.1199 17.0023 51.4499C17.1323 51.7899 17.0524 51.9899 16.7924 52.3499C16.2224 53.1499 15.2323 53.8399 14.4623 54.2599H11.4524C13.3424 53.7199 15.9023 52.0999 16.3323 50.4099ZM36.6724 56.8399H6.65235C6.52235 55.8799 6.33236 55.2699 6.17236 54.7499H37.1524C36.9924 55.2699 36.8024 55.8799 36.6724 56.8399Z" fill="black"/>
<path d="M10.0324 56.4601C10.0924 56.4601 10.1624 56.4601 10.2224 56.4601C10.2424 56.4601 10.2523 56.4601 10.2523 56.4401C10.2523 56.4301 10.2524 56.4201 10.2224 56.4201H10.1924C10.1424 56.4201 10.1224 56.4001 10.1224 56.3701C10.1224 56.3501 10.1224 56.3001 10.1524 56.2601L10.1924 56.1701C10.1924 56.1701 10.1924 56.1501 10.2124 56.1501H10.7324C10.7324 56.1501 10.7423 56.1501 10.7523 56.1601L10.8324 56.3801C10.8324 56.3801 10.8324 56.4201 10.8124 56.4201C10.7924 56.4201 10.7824 56.4201 10.7824 56.4401C10.7824 56.4501 10.8024 56.4501 10.8324 56.4501C10.9724 56.4501 11.1024 56.4501 11.1724 56.4501C11.2424 56.4501 11.2523 56.4501 11.2523 56.4301C11.2523 56.4101 11.2524 56.4101 11.2324 56.4101C11.2124 56.4101 11.1824 56.4101 11.1624 56.4101C11.1224 56.4101 11.0723 56.3801 11.0023 56.2201C10.8923 55.9501 10.6024 55.2201 10.5624 55.1301C10.5424 55.0901 10.5324 55.0701 10.5124 55.0701C10.4924 55.0701 10.4824 55.0901 10.4624 55.1401L10.0124 56.2501C9.98236 56.3401 9.94235 56.4001 9.86235 56.4101C9.85235 56.4101 9.82236 56.4101 9.81236 56.4101C9.80236 56.4101 9.79236 56.4101 9.79236 56.4301C9.79236 56.4401 9.80236 56.4501 9.82236 56.4501C9.91236 56.4501 10.0124 56.4501 10.0324 56.4501V56.4601ZM10.4624 55.4601C10.4624 55.4601 10.4624 55.4501 10.4724 55.4501C10.4724 55.4501 10.4724 55.4501 10.4724 55.4601L10.6924 56.0601H10.2424C10.2424 56.0601 10.2424 56.0601 10.2424 56.0501L10.4624 55.4601Z" fill="black"/>
<path d="M11.5324 55.1601C11.5924 55.1701 11.6024 55.2001 11.6124 55.2601C11.6124 55.3201 11.6124 55.3701 11.6124 55.6401V55.9001C11.6124 56.1601 11.6824 56.2901 11.7724 56.3701C11.9024 56.4901 12.0724 56.4901 12.1624 56.4901C12.2824 56.4901 12.4024 56.4701 12.5324 56.3601C12.6824 56.2301 12.7024 56.0201 12.7024 55.8201V55.6301C12.7024 55.3601 12.7024 55.3101 12.7024 55.2501C12.7024 55.1901 12.7224 55.1601 12.7724 55.1501C12.7924 55.1501 12.8024 55.1501 12.8224 55.1501C12.8424 55.1501 12.8524 55.1501 12.8524 55.1301C12.8524 55.1201 12.8424 55.1201 12.8124 55.1201C12.7424 55.1201 12.6324 55.1201 12.6124 55.1201C12.6124 55.1201 12.5024 55.1201 12.4124 55.1201C12.3824 55.1201 12.3724 55.1201 12.3724 55.1301C12.3724 55.1401 12.3824 55.1501 12.4024 55.1501C12.4224 55.1501 12.4524 55.1501 12.4624 55.1501C12.5224 55.1601 12.5324 55.1901 12.5424 55.2501C12.5424 55.3101 12.5424 55.3601 12.5424 55.6301V55.8501C12.5424 56.0301 12.5424 56.1901 12.4424 56.2901C12.3724 56.3601 12.2724 56.3901 12.2024 56.3901C12.1424 56.3901 12.0624 56.3901 11.9824 56.3201C11.8924 56.2501 11.8424 56.1401 11.8424 55.8801V55.6301C11.8424 55.3601 11.8424 55.3101 11.8424 55.2501C11.8424 55.1901 11.8624 55.1601 11.9124 55.1501C11.9324 55.1501 11.9424 55.1501 11.9624 55.1501C11.9824 55.1501 11.9924 55.1501 11.9924 55.1301C11.9924 55.1201 11.9824 55.1201 11.9524 55.1201C11.8924 55.1201 11.7724 55.1201 11.7324 55.1201C11.6824 55.1201 11.5624 55.1201 11.4724 55.1201C11.4424 55.1201 11.4324 55.1201 11.4324 55.1301C11.4324 55.1401 11.4424 55.1501 11.4624 55.1501C11.4924 55.1501 11.5224 55.1501 11.5324 55.1501V55.1601Z" fill="black"/>
<path d="M13.3723 55.1599C13.4323 55.1699 13.4423 55.1999 13.4423 55.2599C13.4423 55.3199 13.4423 55.3699 13.4423 55.6399V55.9499C13.4423 56.1099 13.4423 56.2599 13.4323 56.3299C13.4323 56.3799 13.4223 56.4199 13.3823 56.4299C13.3623 56.4299 13.3423 56.4299 13.3223 56.4299C13.3023 56.4299 13.2923 56.4299 13.2923 56.4499C13.2923 56.4599 13.3023 56.4699 13.3323 56.4699C13.4023 56.4699 13.5123 56.4699 13.5523 56.4699C13.6423 56.4699 13.8023 56.4899 13.9323 56.4899C14.2623 56.4899 14.4423 56.3599 14.5323 56.2799C14.6323 56.1799 14.7223 56.0099 14.7223 55.7799C14.7223 55.5699 14.6423 55.4199 14.5523 55.3399C14.3623 55.1399 14.0623 55.1399 13.8423 55.1399C13.7323 55.1399 13.6223 55.1399 13.5723 55.1399C13.5223 55.1399 13.4123 55.1399 13.3123 55.1399C13.2823 55.1399 13.2723 55.1399 13.2723 55.1499C13.2723 55.1599 13.2823 55.1699 13.3023 55.1699C13.3223 55.1699 13.3623 55.1699 13.3723 55.1699V55.1599ZM13.6823 55.6099C13.6823 55.4699 13.6823 55.3099 13.6823 55.2499C13.6823 55.2299 13.6823 55.2199 13.7023 55.2099C13.7123 55.2099 13.7823 55.1999 13.8123 55.1999C13.9523 55.1999 14.1523 55.2199 14.3123 55.3799C14.3923 55.4499 14.4823 55.5999 14.4823 55.8199C14.4823 55.9999 14.4423 56.1699 14.3323 56.2599C14.2223 56.3599 14.1023 56.3899 13.9223 56.3899C13.7823 56.3899 13.7123 56.3499 13.6923 56.3199C13.6823 56.2999 13.6723 56.2299 13.6723 56.1799C13.6723 56.1499 13.6723 56.0099 13.6723 55.8199V55.5999L13.6823 55.6099Z" fill="black"/>
<path d="M15.2123 56.4601C15.2623 56.4601 15.3423 56.4601 15.4023 56.4601C15.4223 56.4601 15.4323 56.4601 15.4323 56.4401C15.4323 56.4301 15.4323 56.4201 15.4023 56.4201H15.3723C15.3223 56.4201 15.3023 56.4001 15.3023 56.3701C15.3023 56.3501 15.3023 56.3001 15.3323 56.2601L15.3723 56.1701C15.3723 56.1701 15.3723 56.1501 15.3923 56.1501H15.9123C15.9123 56.1501 15.9223 56.1501 15.9323 56.1601L16.0123 56.3801C16.0123 56.3801 16.0123 56.4201 15.9923 56.4201C15.9723 56.4201 15.9723 56.4201 15.9723 56.4401C15.9723 56.4501 15.9923 56.4501 16.0223 56.4501C16.1623 56.4501 16.2923 56.4501 16.3623 56.4501C16.4323 56.4501 16.4423 56.4501 16.4423 56.4301C16.4423 56.4101 16.4423 56.4101 16.4223 56.4101C16.4023 56.4101 16.3723 56.4101 16.3523 56.4101C16.3123 56.4101 16.2623 56.3801 16.1923 56.2201C16.0823 55.9501 15.7923 55.2201 15.7523 55.1301C15.7323 55.0901 15.7223 55.0701 15.7023 55.0701C15.6823 55.0701 15.6723 55.0901 15.6523 55.1401L15.2023 56.2501C15.1723 56.3401 15.1323 56.4001 15.0523 56.4101C15.0423 56.4101 15.0123 56.4101 14.9923 56.4101C14.9823 56.4101 14.9723 56.4101 14.9723 56.4301C14.9723 56.4401 14.9823 56.4501 15.0023 56.4501C15.0923 56.4501 15.1923 56.4501 15.2123 56.4501V56.4601ZM15.6323 55.4601V55.4501C15.6323 55.4501 15.6323 55.4501 15.6323 55.4601L15.8523 56.0601H15.4023C15.4023 56.0601 15.4023 56.0601 15.4023 56.0501L15.6223 55.4601H15.6323Z" fill="black"/>
<path d="M16.6322 56.47C16.6322 56.47 16.7523 56.47 16.7823 56.47C16.8223 56.47 16.9423 56.47 16.9523 56.47H16.9823C16.9823 56.47 17.0222 56.47 17.0222 56.46C17.0222 56.45 17.0122 56.44 17.0022 56.44C16.9922 56.44 16.9722 56.44 16.9622 56.44C16.9422 56.44 16.9323 56.4299 16.9323 56.4099C16.9323 56.3899 16.9323 56.3699 16.9523 56.3399L17.2122 55.92C17.2922 56.05 17.3922 56.23 17.4922 56.4C17.5022 56.42 17.4922 56.44 17.4922 56.44C17.4722 56.44 17.4722 56.44 17.4722 56.46C17.4722 56.47 17.4823 56.4699 17.5323 56.4799C17.6723 56.4799 17.8122 56.4799 17.8522 56.4799H17.9023C17.9023 56.4799 17.9323 56.48 17.9323 56.46C17.9323 56.45 17.9222 56.44 17.9122 56.44C17.8922 56.44 17.8723 56.44 17.8423 56.44C17.7923 56.42 17.7722 56.3999 17.7422 56.3599C17.7022 56.3099 17.4122 55.82 17.3522 55.74L17.6422 55.3199C17.6922 55.2399 17.7322 55.1899 17.7722 55.1799C17.8022 55.1799 17.8222 55.17 17.8322 55.17C17.8522 55.17 17.8622 55.17 17.8622 55.15C17.8622 55.13 17.8522 55.14 17.8322 55.14C17.7622 55.14 17.6922 55.14 17.6622 55.14C17.6322 55.14 17.5523 55.14 17.4823 55.14C17.4623 55.14 17.4422 55.14 17.4422 55.15C17.4422 55.16 17.4522 55.17 17.4622 55.17C17.4722 55.17 17.5022 55.17 17.5222 55.17C17.5422 55.17 17.5522 55.1899 17.5522 55.1999C17.5522 55.2099 17.5523 55.2399 17.5323 55.2699C17.5023 55.3199 17.3423 55.57 17.2923 55.64C17.2223 55.52 17.1423 55.3899 17.0623 55.2499C17.0523 55.2299 17.0423 55.2099 17.0423 55.1999C17.0423 55.1899 17.0423 55.17 17.0623 55.17C17.0723 55.17 17.1022 55.17 17.1122 55.17C17.1322 55.17 17.1422 55.17 17.1422 55.15C17.1422 55.14 17.1322 55.14 17.1022 55.14C17.0322 55.14 16.9422 55.14 16.9122 55.14C16.8222 55.14 16.6822 55.14 16.6422 55.14C16.6222 55.14 16.6022 55.14 16.6022 55.15C16.6022 55.17 16.6023 55.17 16.6223 55.17C16.6423 55.17 16.6722 55.1699 16.6922 55.1799C16.7522 55.1999 16.7923 55.24 16.8423 55.31L17.1523 55.8199L16.8123 56.31C16.7523 56.39 16.7222 56.43 16.6622 56.44C16.6322 56.44 16.6123 56.44 16.5923 56.44C16.5723 56.44 16.5623 56.44 16.5623 56.46C16.5623 56.46 16.5623 56.47 16.5923 56.47H16.6223H16.6322Z" fill="black"/>
<path d="M19.8523 56.4601C19.9023 56.4601 19.9823 56.4601 20.0423 56.4601C20.0623 56.4601 20.0723 56.4601 20.0723 56.4401C20.0723 56.4301 20.0723 56.4201 20.0423 56.4201H20.0123C19.9523 56.4201 19.9423 56.4001 19.9423 56.3701C19.9423 56.3501 19.9423 56.3001 19.9723 56.2601L20.0123 56.1701C20.0123 56.1701 20.0123 56.1501 20.0323 56.1501H20.5523C20.5523 56.1501 20.5723 56.1501 20.5723 56.1601L20.6523 56.3801C20.6523 56.3801 20.6523 56.4201 20.6323 56.4201C20.6123 56.4201 20.6123 56.4201 20.6123 56.4401C20.6123 56.4501 20.6323 56.4501 20.6623 56.4501C20.8023 56.4501 20.9323 56.4501 21.0023 56.4501C21.0723 56.4501 21.0823 56.4501 21.0823 56.4301C21.0823 56.4101 21.0823 56.4101 21.0623 56.4101C21.0423 56.4101 21.0123 56.4101 20.9923 56.4101C20.9523 56.4101 20.9023 56.3801 20.8323 56.2201C20.7223 55.9501 20.4323 55.2201 20.3923 55.1301C20.3723 55.0901 20.3623 55.0701 20.3423 55.0701C20.3223 55.0701 20.3123 55.0901 20.2923 55.1401L19.8423 56.2501C19.8023 56.3401 19.7723 56.4001 19.6923 56.4101C19.6823 56.4101 19.6523 56.4101 19.6323 56.4101C19.6223 56.4101 19.6123 56.4101 19.6123 56.4301C19.6123 56.4401 19.6223 56.4501 19.6423 56.4501C19.7323 56.4501 19.8323 56.4501 19.8523 56.4501V56.4601ZM20.2823 55.4601V55.4501C20.2823 55.4501 20.2823 55.4501 20.2923 55.4601L20.5223 56.0601H20.0723C20.0723 56.0601 20.0723 56.0601 20.0723 56.0501L20.2923 55.4601H20.2823Z" fill="black"/>
<path d="M21.1723 55.3401C21.1723 55.3401 21.1823 55.3101 21.2023 55.2801C21.2323 55.2401 21.2723 55.2301 21.3723 55.2301H21.6323V55.9501C21.6323 56.1101 21.6323 56.2601 21.6323 56.3301C21.6323 56.3801 21.6123 56.4201 21.5823 56.4301C21.5623 56.4301 21.5423 56.4301 21.5223 56.4301C21.5023 56.4301 21.4923 56.4301 21.4923 56.4501C21.4923 56.4601 21.5023 56.4701 21.5323 56.4701C21.6023 56.4701 21.7123 56.4701 21.7523 56.4701C21.8023 56.4701 21.9123 56.4701 22.0323 56.4701C22.0523 56.4701 22.0623 56.4701 22.0623 56.4501C22.0623 56.4401 22.0623 56.4301 22.0323 56.4301C22.0023 56.4301 21.9623 56.4301 21.9423 56.4301C21.8923 56.4301 21.8823 56.3801 21.8723 56.3301C21.8723 56.2601 21.8723 56.1101 21.8723 55.9501V55.2201H22.0923C22.2523 55.2201 22.3023 55.2801 22.3023 55.3301V55.3501C22.3023 55.3501 22.3023 55.3901 22.3223 55.3901C22.3323 55.3901 22.3323 55.3801 22.3423 55.3601C22.3423 55.3101 22.3423 55.1901 22.3423 55.1601C22.3423 55.1301 22.3423 55.1201 22.3323 55.1201C22.3123 55.1201 22.2723 55.1301 22.1623 55.1301H21.4623C21.4023 55.1301 21.3323 55.1301 21.2823 55.1301C21.2423 55.1301 21.2223 55.1101 21.2023 55.1101C21.1923 55.1101 21.1823 55.1201 21.1823 55.1501C21.1823 55.1601 21.1423 55.3201 21.1423 55.3501C21.1423 55.3701 21.1423 55.3801 21.1623 55.3801C21.1823 55.3801 21.1823 55.3801 21.1823 55.3601L21.1723 55.3401Z" fill="black"/>
<path d="M24.4323 55.1601C24.4923 55.1701 24.5023 55.2001 24.5123 55.2601C24.5123 55.3201 24.5123 55.3701 24.5123 55.6401V55.9501C24.5123 56.1201 24.5123 56.2601 24.5023 56.3301C24.5023 56.3801 24.4923 56.4201 24.4523 56.4301C24.4323 56.4301 24.4123 56.4301 24.3923 56.4301C24.3723 56.4301 24.3623 56.4301 24.3623 56.4501C24.3623 56.4601 24.3723 56.4701 24.4023 56.4701C24.4723 56.4701 24.5823 56.4701 24.6323 56.4701C24.6823 56.4701 24.7923 56.4701 24.9023 56.4701C24.9323 56.4701 24.9423 56.4701 24.9423 56.4501C24.9423 56.4401 24.9423 56.4301 24.9123 56.4301C24.8923 56.4301 24.8523 56.4301 24.8223 56.4301C24.7723 56.4301 24.7623 56.3801 24.7523 56.3301C24.7523 56.2601 24.7523 56.1201 24.7523 55.9501V55.8101C24.7523 55.8101 24.7523 55.8001 24.7623 55.8001C24.7923 55.8001 24.9823 55.8001 25.0223 55.8001C25.0823 55.8001 25.1023 55.8401 25.1123 55.8601C25.1123 55.8801 25.1223 55.9001 25.1223 55.9101C25.1223 55.9201 25.1223 55.9401 25.1423 55.9401C25.1623 55.9401 25.1623 55.9201 25.1623 55.9101C25.1623 55.9101 25.1623 55.8201 25.1623 55.7801C25.1623 55.7301 25.1723 55.6801 25.1723 55.6701V55.6501C25.1623 55.6501 25.1523 55.6501 25.1523 55.6701C25.1323 55.6901 25.1123 55.7001 25.0723 55.7001H24.7623C24.7623 55.7001 24.7523 55.7001 24.7523 55.6901V55.2501C24.7523 55.2501 24.7523 55.2201 24.7723 55.2201H25.0423C25.1123 55.2201 25.1423 55.2501 25.1623 55.2801C25.1623 55.3101 25.1623 55.3301 25.1623 55.3501C25.1623 55.3701 25.1623 55.3801 25.1823 55.3801C25.2023 55.3801 25.2023 55.3701 25.2023 55.3501C25.2023 55.3301 25.2023 55.2301 25.2023 55.2101C25.2023 55.1601 25.2223 55.1401 25.2223 55.1301C25.2223 55.1201 25.2223 55.1201 25.2123 55.1201C25.2023 55.1201 25.1923 55.1201 25.1823 55.1201C25.1623 55.1201 25.1423 55.1201 25.1123 55.1201C25.0723 55.1201 24.7123 55.1201 24.6423 55.1201C24.5923 55.1201 24.4823 55.1201 24.3823 55.1201C24.3523 55.1201 24.3423 55.1201 24.3423 55.1401C24.3423 55.1401 24.3523 55.1501 24.3723 55.1501C24.3923 55.1501 24.4223 55.1501 24.4423 55.1501L24.4323 55.1601Z" fill="black"/>
<path d="M25.8123 55.1599C25.8123 55.1599 25.8723 55.1999 25.8723 55.2599C25.8723 55.3199 25.8723 55.3699 25.8723 55.6399V55.9499C25.8723 56.1299 25.8723 56.2699 25.8723 56.3399C25.8723 56.3899 25.8523 56.4199 25.8223 56.4299C25.8123 56.4299 25.7823 56.4299 25.7623 56.4299C25.7423 56.4299 25.7323 56.4299 25.7323 56.4499C25.7323 56.4599 25.7423 56.4699 25.7623 56.4699C25.8323 56.4699 25.9423 56.4699 25.9823 56.4699C26.0323 56.4699 26.1423 56.4699 26.2623 56.4699C26.2823 56.4699 26.3023 56.4699 26.3023 56.4499C26.3023 56.4399 26.3023 56.4299 26.2723 56.4299C26.2423 56.4299 26.2023 56.4299 26.1823 56.4299C26.1323 56.4299 26.1123 56.3899 26.1123 56.3499C26.1123 56.2799 26.1123 56.1299 26.1123 55.9599V55.6499C26.1123 55.3799 26.1123 55.3299 26.1123 55.2699C26.1123 55.2099 26.1323 55.1799 26.1823 55.1699C26.2023 55.1699 26.2123 55.1699 26.2323 55.1699C26.2523 55.1699 26.2623 55.1699 26.2623 55.1499C26.2623 55.1499 26.2523 55.1399 26.2223 55.1399C26.1523 55.1399 26.0523 55.1399 26.0023 55.1399C25.9523 55.1399 25.8423 55.1399 25.7723 55.1399C25.7423 55.1399 25.7323 55.1399 25.7323 55.1499C25.7323 55.1699 25.7323 55.1699 25.7623 55.1699C25.7823 55.1699 25.8023 55.1699 25.8223 55.1699L25.8123 55.1599Z" fill="black"/>
<path d="M26.8523 55.1599C26.9123 55.1699 26.9223 55.1999 26.9323 55.2599C26.9323 55.3199 26.9323 55.3699 26.9323 55.6399V55.9499C26.9323 56.1099 26.9323 56.2599 26.9223 56.3299C26.9223 56.3799 26.9023 56.4199 26.8723 56.4299C26.8523 56.4299 26.8323 56.4299 26.8123 56.4299C26.7923 56.4299 26.7823 56.4299 26.7823 56.4499C26.7823 56.4599 26.7923 56.4699 26.8223 56.4699C26.8923 56.4699 27.0023 56.4699 27.0423 56.4699C27.1323 56.4699 27.2923 56.4899 27.4223 56.4899C27.7523 56.4899 27.9323 56.3599 28.0223 56.2799C28.1223 56.1799 28.2123 56.0099 28.2123 55.7799C28.2123 55.5699 28.1323 55.4199 28.0423 55.3399C27.8523 55.1399 27.5523 55.1399 27.3323 55.1399C27.2223 55.1399 27.1123 55.1399 27.0623 55.1399C27.0123 55.1399 26.9023 55.1399 26.8023 55.1399C26.7723 55.1399 26.7623 55.1399 26.7623 55.1499C26.7623 55.1599 26.7723 55.1699 26.7923 55.1699C26.8123 55.1699 26.8523 55.1699 26.8623 55.1699L26.8523 55.1599ZM27.1623 55.6099V55.2499C27.1623 55.2499 27.1623 55.2199 27.1823 55.2099C27.1923 55.2099 27.2623 55.1999 27.3023 55.1999C27.4423 55.1999 27.6423 55.2199 27.8023 55.3799C27.8723 55.4499 27.9723 55.5999 27.9723 55.8199C27.9723 55.9999 27.9323 56.1699 27.8223 56.2599C27.7123 56.3599 27.5923 56.3899 27.4123 56.3899C27.2723 56.3899 27.2023 56.3499 27.1823 56.3199C27.1723 56.2999 27.1623 56.2299 27.1623 56.1799C27.1623 56.1499 27.1623 56.0099 27.1623 55.8199V55.5999V55.6099Z" fill="black"/>
<path d="M28.7523 55.1601C28.8123 55.1701 28.8223 55.2001 28.8323 55.2601C28.8323 55.3201 28.8323 55.3701 28.8323 55.6401V55.9501C28.8323 56.1101 28.8323 56.2601 28.8323 56.3301C28.8323 56.3801 28.8123 56.4201 28.7823 56.4301C28.7623 56.4301 28.7423 56.4301 28.7223 56.4301C28.7023 56.4301 28.6923 56.4301 28.6923 56.4501C28.6923 56.4601 28.7023 56.4701 28.7323 56.4701C28.8023 56.4701 28.9123 56.4701 28.9523 56.4701C29.0523 56.4701 29.1723 56.4801 29.4423 56.4801C29.5123 56.4801 29.5323 56.4801 29.5423 56.4301C29.5523 56.4001 29.5623 56.2701 29.5623 56.2401C29.5623 56.2201 29.5623 56.2001 29.5523 56.2001C29.5423 56.2001 29.5323 56.2101 29.5323 56.2301C29.5223 56.3001 29.5023 56.3401 29.4523 56.3601C29.4023 56.3801 29.3323 56.3801 29.2823 56.3801C29.1023 56.3801 29.0723 56.3501 29.0723 56.2301C29.0723 56.1801 29.0723 56.0101 29.0723 55.9501V55.8101C29.0723 55.8101 29.0723 55.7901 29.0823 55.7901C29.1223 55.7901 29.3023 55.7901 29.3323 55.7901C29.4023 55.7901 29.4223 55.8201 29.4323 55.8601C29.4323 55.8901 29.4323 55.9101 29.4323 55.9201C29.4323 55.9301 29.4323 55.9401 29.4523 55.9401C29.4723 55.9401 29.4723 55.9201 29.4723 55.9101C29.4723 55.9001 29.4723 55.8201 29.4723 55.7901C29.4723 55.7001 29.4823 55.6701 29.4823 55.6601C29.4823 55.6501 29.4823 55.6401 29.4723 55.6401C29.4723 55.6401 29.4623 55.6501 29.4423 55.6601C29.4223 55.6801 29.4023 55.6801 29.3523 55.6901C29.3123 55.6901 29.1023 55.6901 29.0723 55.6901C29.0623 55.6901 29.0623 55.6801 29.0623 55.6701V55.2201C29.0623 55.2201 29.0623 55.2001 29.0723 55.2001C29.1023 55.2001 29.2923 55.2001 29.3223 55.2001C29.4123 55.2101 29.4323 55.2301 29.4423 55.2701C29.4423 55.2901 29.4523 55.3201 29.4523 55.3401C29.4523 55.3601 29.4523 55.3701 29.4623 55.3701C29.4723 55.3701 29.4823 55.3601 29.4823 55.3501C29.4823 55.3301 29.4823 55.2501 29.4823 55.2301C29.4823 55.1501 29.5023 55.1201 29.5023 55.1101C29.5023 55.1001 29.5023 55.1001 29.4923 55.1001C29.4923 55.1001 29.4723 55.1001 29.4623 55.1001C29.4523 55.1001 29.4223 55.1101 29.3823 55.1101C29.3523 55.1101 28.9923 55.1101 28.9423 55.1101C28.8923 55.1101 28.7823 55.1101 28.6923 55.1101C28.6623 55.1101 28.6523 55.1101 28.6523 55.1201C28.6523 55.1301 28.6523 55.1401 28.6823 55.1401C28.7123 55.1401 28.7323 55.1401 28.7523 55.1401V55.1601Z" fill="black"/>
<path d="M30.1322 55.1599C30.1922 55.1699 30.2022 55.1999 30.2122 55.2599C30.2122 55.3199 30.2122 55.3699 30.2122 55.6399V55.9499C30.2122 56.1099 30.2123 56.2599 30.2023 56.3299C30.2023 56.3799 30.1923 56.4199 30.1523 56.4299C30.1323 56.4299 30.1123 56.4299 30.0923 56.4299C30.0723 56.4299 30.0623 56.4299 30.0623 56.4499C30.0623 56.4599 30.0722 56.4699 30.1022 56.4699C30.1722 56.4699 30.2823 56.4699 30.3223 56.4699C30.4623 56.4699 30.5823 56.4799 30.8423 56.4799C30.9323 56.4799 30.9423 56.4799 30.9523 56.4299C30.9623 56.3799 30.9823 56.2499 30.9823 56.2199C30.9823 56.1899 30.9822 56.1899 30.9722 56.1899C30.9622 56.1899 30.9523 56.1899 30.9523 56.2199C30.9523 56.2499 30.9323 56.2999 30.9023 56.3199C30.8623 56.3699 30.7922 56.3699 30.6922 56.3699C30.5522 56.3699 30.5023 56.3599 30.4823 56.3299C30.4423 56.2999 30.4422 56.1799 30.4422 55.9499V55.6399C30.4422 55.3699 30.4422 55.3199 30.4422 55.2599C30.4422 55.1999 30.4623 55.1699 30.5123 55.1599C30.5323 55.1599 30.5622 55.1599 30.5822 55.1599C30.6022 55.1599 30.6122 55.1599 30.6122 55.1399C30.6122 55.1299 30.6023 55.1299 30.5723 55.1299C30.5023 55.1299 30.3722 55.1299 30.3322 55.1299C30.2822 55.1299 30.1723 55.1299 30.0923 55.1299C30.0623 55.1299 30.0522 55.1299 30.0522 55.1399C30.0522 55.1499 30.0522 55.1599 30.0822 55.1599C30.1122 55.1599 30.1322 55.1599 30.1422 55.1599H30.1322Z" fill="black"/>
<path d="M31.4823 55.1599C31.4823 55.1599 31.5423 55.1999 31.5423 55.2599C31.5423 55.3199 31.5423 55.3699 31.5423 55.6399V55.9499C31.5423 56.1299 31.5423 56.2699 31.5423 56.3399C31.5423 56.3899 31.5223 56.4199 31.4923 56.4299C31.4723 56.4299 31.4523 56.4299 31.4323 56.4299C31.4123 56.4299 31.4023 56.4299 31.4023 56.4499C31.4023 56.4599 31.4123 56.4699 31.4323 56.4699C31.5023 56.4699 31.6123 56.4699 31.6523 56.4699C31.7023 56.4699 31.8123 56.4699 31.9323 56.4699C31.9523 56.4699 31.9623 56.4699 31.9623 56.4499C31.9623 56.4399 31.9623 56.4299 31.9323 56.4299C31.9023 56.4299 31.8723 56.4299 31.8423 56.4299C31.7923 56.4299 31.7723 56.3899 31.7723 56.3499C31.7723 56.2799 31.7723 56.1299 31.7723 55.9599V55.6499C31.7723 55.3799 31.7723 55.3299 31.7723 55.2699C31.7723 55.2099 31.7923 55.1799 31.8423 55.1699C31.8623 55.1699 31.8823 55.1699 31.8923 55.1699C31.9123 55.1699 31.9223 55.1699 31.9223 55.1499C31.9223 55.1499 31.9123 55.1399 31.8823 55.1399C31.8123 55.1399 31.7123 55.1399 31.6623 55.1399C31.6123 55.1399 31.5023 55.1399 31.4323 55.1399C31.4023 55.1399 31.3923 55.1399 31.3923 55.1499C31.3923 55.1699 31.4023 55.1699 31.4223 55.1699C31.4423 55.1699 31.4723 55.1699 31.4823 55.1699V55.1599Z" fill="black"/>
<path d="M32.7723 56.4901C32.8623 56.4901 32.9623 56.4701 33.0523 56.4201C33.1823 56.3401 33.2223 56.2201 33.2223 56.1101C33.2223 55.9401 33.1423 55.8201 32.9323 55.6601L32.8823 55.6201C32.7323 55.5101 32.6923 55.4501 32.6923 55.3601C32.6923 55.2501 32.7723 55.1801 32.9023 55.1801C33.0223 55.1801 33.0723 55.2301 33.0923 55.2701C33.1323 55.3201 33.1423 55.3701 33.1423 55.3901C33.1423 55.4101 33.1423 55.4201 33.1623 55.4201C33.1723 55.4201 33.1823 55.4101 33.1823 55.3701C33.1823 55.2301 33.1823 55.1801 33.1823 55.1601C33.1823 55.1401 33.1823 55.1401 33.1523 55.1401C33.1123 55.1301 33.0323 55.1101 32.9123 55.1101C32.6623 55.1101 32.5023 55.2501 32.5023 55.4501C32.5023 55.5901 32.5723 55.7201 32.7623 55.8701L32.8423 55.9401C32.9923 56.0501 33.0123 56.1401 33.0123 56.2301C33.0123 56.3201 32.9323 56.4301 32.7723 56.4301C32.6623 56.4301 32.5523 56.3801 32.5223 56.2501C32.5123 56.2201 32.5023 56.1801 32.5023 56.1601C32.5023 56.1501 32.5023 56.1301 32.4823 56.1301C32.4623 56.1301 32.4623 56.1501 32.4623 56.1801C32.4623 56.2101 32.4623 56.3201 32.4623 56.4101C32.4623 56.4501 32.4623 56.4601 32.4923 56.4701C32.5723 56.5001 32.6523 56.5101 32.7523 56.5101L32.7723 56.4901Z" fill="black"/>
<path d="M38.6624 32.1299C38.6624 32.1299 38.2024 32.4099 37.9424 32.5699C37.8424 33.7199 36.9524 35.4699 35.9224 36.3499H36.5924C37.3024 35.6599 38.4924 34.4099 38.6624 32.1299Z" fill="black"/>
<path d="M34.9224 29.99C35.0224 29.85 35.0623 29.87 34.8923 29.83C34.7623 29.8 34.7424 29.58 34.4524 29.66C34.1224 29.75 34.1524 29.98 34.0624 30.11C33.9424 30.2 33.9223 30.25 34.1023 30.25C34.2723 30.25 34.2324 30.42 34.5624 30.39C34.8624 30.36 34.8324 30.14 34.9224 30V29.99Z" fill="black"/>
<path d="M45.2823 31.05C45.1323 31.09 44.7723 31.19 44.5423 31.22C44.9823 30.79 45.2523 30.26 45.2523 29.82C45.0423 29.89 44.6523 30.03 44.3123 30.11C45.0023 29.52 45.3723 28.84 45.2123 27.94C45.0023 28.05 44.7023 28.22 44.4023 28.35C45.0023 27.42 44.9923 26.6 44.7523 26.12C44.4823 26.37 44.1523 26.67 43.8123 26.88C44.0323 25.81 44.0223 25.11 43.5723 24.64C43.1123 25.5 42.7223 26.14 42.0723 26.91C42.1223 26.2 42.0423 25.32 41.5823 24.86C41.5823 24.86 41.4523 25.85 41.1023 26.17C41.0123 25.2 40.7223 24.67 40.2723 24.15C40.2723 24.15 40.2423 25.16 39.9623 25.78C39.7323 24.93 39.3023 24.28 38.7423 23.66C38.7823 25.52 38.2623 29.04 36.7623 31.4C36.5923 32.8 36.4323 34.9 34.1523 36.15C33.8223 35.92 33.2523 35.62 32.4323 35.67C32.2223 34.62 33.6023 33.66 34.7923 32.89C35.9923 32.12 36.5123 31.45 36.4923 30.41C36.4623 29.28 35.6923 28.81 34.9023 28.78C33.7823 28.73 32.8723 29.75 32.6523 30.17C32.3223 30.32 31.3623 30.62 30.9723 30.73C30.5323 30.85 30.0423 31.03 29.7323 31.29C29.9123 31.4 30.4423 31.44 30.6423 31.42C31.0223 31.36 32.2323 31.14 33.3923 30.99C33.8123 31.22 34.4923 31.6 33.7723 32.1C32.7823 32.73 32.3623 32.9 30.9723 33.62C28.7723 34.77 29.4823 37.67 30.0223 37.88C30.0223 38.86 30.8923 40.63 31.4823 41.24C31.7523 42.47 31.4023 44.3 31.0223 45.06C30.7123 44.31 30.1923 42.58 29.8423 41.57C30.1923 39.66 29.6223 38.83 29.2223 38.5C29.2023 38.48 29.1823 38.48 29.1623 38.47V33.68H25.4723C25.4223 33.3 25.2423 33.06 24.9923 32.96C24.8623 32.1 24.6023 30.13 24.4523 28.67C26.1023 30.12 25.1723 32.52 27.1123 33.4C27.8523 32.56 27.8623 32.26 27.7423 31.46C28.4723 31.27 29.0223 30.65 29.2123 30.18C28.5223 30.51 27.4323 29.93 27.1223 29.48C28.3223 29.44 29.4323 28.54 30.5723 27.35C31.5923 26.28 32.9423 26.45 32.8323 27.28C33.5323 27.18 33.8123 26.21 33.5823 25.6C34.6123 25.27 35.4123 24.51 35.5323 23.32C34.1523 24.01 32.4023 22.87 31.0923 24.27C31.0923 22.42 31.0223 20.9 31.0023 20.42C31.0723 20.44 31.1523 20.46 31.2223 20.49C32.5523 20.95 32.8523 22.55 35.5923 20.74C34.1223 20.91 34.0523 19.66 33.3723 19.64C34.3923 19.06 34.4523 17.74 34.4523 17.74C33.6023 18.43 31.6223 18.47 31.2323 18.7C30.7223 19.01 30.0723 19.38 29.6423 19.62C28.5023 20.24 29.2923 23.62 29.1823 24.86C28.5723 23.02 27.3223 23.29 26.6723 22.24C26.1823 23.12 26.7023 24.6 26.9023 25.02C26.1923 25.6 26.3823 26.66 26.5523 26.95C27.1623 26.51 28.0923 26.62 28.3823 27.36C27.6123 27.83 26.3323 27.92 25.4323 27.12C25.4623 26.87 25.3523 26.57 25.0523 26.35C25.1123 25.97 25.0523 25.63 24.8723 25.33H24.8923C25.8523 23.97 25.9223 21.35 26.7123 20.6C26.7823 21.52 27.2723 22.28 27.7523 22.38C27.3623 21.75 27.3623 20.49 27.3923 19.92C27.4023 19.65 26.9123 19.45 26.7923 19.44C26.5823 19.43 26.3223 19.86 26.0523 20.13C25.8123 18.85 25.9423 18.3 26.0723 17.74C26.6123 18.72 27.3423 18.93 27.7223 18.88C26.4223 17.84 26.6523 16.9 26.2523 16.85C26.0223 16.82 25.8623 16.85 25.7523 16.85C25.2923 16.85 25.2323 17.73 25.1723 18.14C24.8723 17.59 24.5823 17.13 24.0823 16.5C23.6023 15.27 23.0223 15.58 22.4223 15.02C22.8823 15.72 22.5123 16.15 23.5823 16.66C23.8623 16.93 24.1823 17.34 24.4023 17.68C24.2223 17.92 24.1023 18.06 23.9323 18.22C23.8023 18.42 23.7323 19.18 23.3223 19.76C23.9323 19.49 24.1723 19.12 24.3923 18.75C26.3323 20.21 24.7523 23.95 24.3123 24.77C23.8823 24.48 23.3423 24.32 22.8423 24.23L22.7923 24.06L22.3323 22.59H22.5423C22.7823 22.59 22.8423 22.43 22.8023 22.3L24.1423 22.71L24.7323 22.89L24.3723 22.39L23.7523 21.53L24.3723 20.67L24.7323 20.17L24.1423 20.35L22.9423 20.72C22.8523 20.45 22.6323 20.31 22.3823 20.28L22.7923 18.91L22.9623 18.32L22.4723 18.68L21.6123 19.3L20.7523 18.68L20.2623 18.32L20.4323 18.91L20.8423 20.28C20.5923 20.31 20.3723 20.45 20.2823 20.72L19.0823 20.35L18.4923 20.17L18.8523 20.67L19.4723 21.53L18.8523 22.39L18.4923 22.89L19.0823 22.71L20.4223 22.3C20.3823 22.43 20.4323 22.59 20.6823 22.59H20.8923L20.4423 24.06L20.3923 24.23C19.8823 24.32 19.3223 24.49 18.8923 24.79C17.5823 22.26 17.9523 19.69 19.0523 18.84C19.0323 19.38 19.5023 20.11 19.7223 20.26C19.5723 19.7 19.8323 18.71 19.5423 18.47C19.3423 18.3 19.0323 18.21 18.7023 18.22C18.9223 17.85 19.2323 17.4 19.7523 16.71C20.5223 16.35 20.7423 15.45 20.9323 15C20.0923 15.3 19.4823 15.74 19.3523 16.44C19.0523 16.83 18.7323 17.29 18.3623 17.84C18.3823 17.18 18.0123 16.95 17.5323 16.91C16.1223 17.21 16.2323 18.22 15.0223 18.92C15.8523 19.21 17.1423 17.4 17.5823 17.59C17.6523 18.7 17.4023 19.58 17.4023 20.18C17.1923 19.95 17.0823 19.79 16.9023 19.75C16.7323 19.72 16.2623 19.76 15.9323 20.12C15.8423 20.68 15.8623 21.74 15.3423 23.01C16.1323 22.29 16.5023 20.88 16.6223 20.47C16.8223 20.75 17.0423 21.36 17.0923 21.88C17.1823 22.89 17.8123 24.58 18.3323 25.39C18.1923 25.67 18.1423 25.99 18.1923 26.34C17.8123 26.62 17.7523 27 17.8523 27.28C17.0923 27.67 16.1823 27.99 15.7023 28.15C15.5123 26.59 17.0023 26.65 17.1123 27.07C17.7223 26.34 17.2923 25.29 16.8423 25.18C17.3023 23.93 16.8423 23.16 16.4523 22.7C16.3523 24.02 14.8823 24.23 14.7023 25.25C14.6423 24.44 14.5923 22.26 14.5323 21.2C14.4123 19.22 11.9223 18.53 11.5423 18.53C9.91231 18.61 9.76231 18.4 9.79231 17.64C8.96231 18.58 9.24231 19.42 9.94231 19.82C9.84231 20.38 8.9423 20.83 8.3923 20.95C9.7123 22.18 11.2523 21.45 11.9923 20.75C12.0423 20.7 12.1023 20.65 12.1523 20.61C12.4223 21.08 12.6123 21.93 12.6123 22.42C11.3723 22.35 11.1523 23.31 11.1523 23.66C12.7223 23.01 12.9023 26.02 13.3123 26.51C12.9123 26.48 12.2023 25.55 11.1523 25.48C9.89231 25.4 9.44231 26.07 8.93231 26.05C9.03231 26.94 10.1123 27.44 10.8123 27.55C10.4523 28.46 10.7723 29.08 11.5123 29.31C11.5123 28.48 12.5623 28.22 13.7023 28.88C15.0623 29.67 15.7523 29.74 16.8523 29.41C16.6723 29.8 16.1823 29.84 15.5723 30.43C14.7223 31.26 14.7023 32.35 13.7623 32.75C14.8623 33.28 16.5323 32.54 16.7723 32.12C17.2323 32.41 17.8223 32.23 17.9923 31.95C17.3623 30.55 18.1623 29.64 18.7223 29.39C18.5723 30.72 18.3723 32.23 18.2623 32.95C18.0123 33.05 17.8423 33.28 17.7823 33.67H14.3823C13.9223 33.21 13.3123 33.38 12.8823 33.89C12.5223 34.18 11.6923 34.74 11.1223 34.93C10.3523 34.28 9.14231 33.7 8.27231 32.83C8.27231 32.83 9.43231 32.82 9.97231 32.6C10.1123 32.51 10.4923 31.92 10.3323 31.35C10.1523 31.29 9.89231 31.15 9.63231 31.01C9.31231 30.83 9.00231 30.64 8.86231 30.53C8.35231 30.15 8.15231 29.81 7.27231 29.59C7.33231 29.19 7.41231 29.28 7.80231 29.02C8.29231 28.69 8.56231 28.29 8.76231 27.9C8.91231 27.59 8.74231 26.96 8.35231 27.77C8.21231 28.05 7.83231 28.43 7.40231 28.55C7.43231 28.3 7.45232 28.16 7.45232 28.02C8.73232 27.12 8.60231 26.32 8.51231 25.57C8.45231 25.14 8.02231 24.96 8.04231 25.41C8.05231 25.71 8.32232 26.55 7.45232 27.05C7.43232 26.67 7.3323 26.51 7.2523 26.31C8.0323 25.28 7.70231 24.29 7.37231 23.84C7.16231 23.55 6.65231 23.45 6.88231 23.91C7.07231 24.28 7.38231 25.3 6.80231 25.71C6.60231 25.46 6.37231 25.37 6.29231 25.03C6.35231 23.92 6.2823 23.24 6.1423 22.84C6.0023 22.47 5.65231 22.24 5.68231 22.78C5.71231 23.4 5.77231 24.18 5.71231 24.23C5.65231 24.28 4.83231 23.51 4.49231 23.28C4.15231 23.05 3.75231 23.13 4.14231 23.6C4.49231 24 5.54231 24.78 5.41231 25.03C5.33231 25.19 4.57231 24.57 4.18231 24.44C3.79231 24.31 3.67231 24.51 4.00231 24.78C4.54231 25.22 4.89232 25.51 5.78232 25.81C6.66232 26.11 7.10231 27.33 6.83231 29.07C6.82231 29.15 6.67231 29.14 6.58231 29.11C6.54231 28.45 6.42231 27.65 6.26231 27.3C6.05231 26.84 5.64231 26.83 5.79231 27.45C5.91231 27.95 5.98231 28.48 5.90231 29.14C5.17231 29.02 4.89231 28.82 4.59231 28.64C4.56231 28.31 4.73231 27.75 4.76231 27.25C4.79231 26.76 4.50231 26.45 4.34231 27.07C4.18231 27.66 4.08231 27.94 3.98231 28.37C3.77231 28.3 3.55231 28.21 3.45231 28.09C3.40231 28.04 3.45231 27.37 3.40231 26.89C3.34231 26.35 3.14231 26.36 2.98231 26.84C2.91231 27.06 2.85231 27.35 2.83231 27.71C2.57231 27.56 2.40231 27.26 2.37231 27.02C2.41231 26.45 2.50231 25.85 2.57231 25.47C2.62231 25.2 2.44231 24.65 2.22231 25.32C2.07231 25.8 2.03231 26.19 1.93231 26.53C1.75231 26.52 1.50231 25.44 1.38231 24.75C1.32231 24.43 1.06231 24.08 1.01231 24.78C0.962314 25.55 1.11231 26.33 1.31231 26.67C0.94231 26.63 0.582312 25.96 0.322312 25.57C0.092312 25.22 -0.0176877 25.58 0.00231227 25.72C0.222312 27.09 1.32231 27.58 1.81231 27.68C2.58231 28.78 4.05231 29.25 5.28231 29.79C3.67231 29.77 3.24231 30.42 2.51231 30C2.54231 30.61 2.84231 30.89 3.14231 31.03C3.35231 31.13 3.55231 31.16 3.65231 31.18C3.78231 31.92 4.49231 31.88 5.08231 31.92C4.93231 33.36 5.10231 35.26 6.37231 36.68C6.33231 37.41 6.28231 38.37 6.29231 39.01C5.25231 39.97 4.33231 41.98 3.97231 43.1C3.70231 43.93 3.29231 44.58 2.66231 44.89C3.18231 45.44 3.95231 45.17 4.39231 44.86C4.42231 45.35 4.53231 45.69 4.61231 45.98C4.31231 46.42 4.11231 46.73 4.14231 47.26C3.80231 47.36 3.57231 47.56 3.39231 47.79C3.28231 47.93 3.41231 48.59 3.53231 48.87C3.95231 49.79 3.62231 51.88 3.55231 52.5C3.72231 52.51 4.04231 52.52 4.11231 52.26C4.21231 52.36 4.47231 52.54 4.58231 52.94C4.55231 53.11 4.45231 53.75 4.78231 53.83C5.05231 53.9 6.21231 53.86 6.36231 53.66C6.25231 53.53 6.04232 53.22 5.92232 52.91C5.92232 52.59 5.89232 52.21 5.81232 52.05C5.68232 51.82 5.34231 51.28 5.13231 51.07C5.08231 50.69 5.04231 48.99 5.23231 48.33C5.53231 48.12 7.57231 46.6 7.99231 45.16C8.37231 45.28 8.25231 46.3 8.25231 47.61C8.25231 47.96 8.68231 48.15 8.94231 48.18C9.49231 48.25 10.2823 48.77 11.1623 50.08C11.3323 49.9 11.5523 49.73 11.5523 49.73C11.6723 49.88 11.8023 50.26 11.8823 50.5C11.9823 50.68 12.6923 50.79 13.2323 50.62C13.4123 50.56 13.5223 50.53 13.6323 50.34C12.9423 49.13 12.5223 48.33 11.6323 47.66C11.2223 47.35 10.6723 47.2 10.2123 46.9C10.5223 46.32 11.3623 43.62 10.8523 42.63C10.6823 42.3 10.0323 41.98 9.25231 42.12C9.90231 41.34 11.2323 39.78 11.4123 39.3C11.5623 39.48 12.3523 39.36 12.9323 39.58C13.1423 39.66 13.7423 40.44 13.7723 40.7C13.8223 41.18 13.8523 41.74 13.5123 43.05C13.7423 43.02 13.7123 43 13.9423 42.91C13.9823 43.26 13.8723 43.53 13.5723 44.06C13.6523 44.53 13.8623 45.26 14.0823 45.4C14.1423 45.23 14.2323 45.05 14.3323 44.86C14.7323 46.78 15.6823 48.48 17.1823 49.93C18.9723 51.66 20.9723 52.47 21.5423 52.67L21.6323 52.7L21.7223 52.67C22.2923 52.46 24.3023 51.66 26.0823 49.93C27.9923 48.08 29.0123 45.83 29.1323 43.22C29.2623 43.61 29.5723 44.54 29.8723 45.39C30.0823 45.99 30.2823 46.54 30.4123 46.83C30.5623 47.15 31.6323 47.2 31.7523 46.83C31.9223 46.34 32.0523 45.97 32.3223 45.39C32.5223 44.95 32.8023 44.39 33.2423 43.57C33.5323 44.07 33.9123 44.85 34.1323 45.39C34.2323 45.64 34.3023 45.83 34.3123 45.92C34.4023 46.75 34.3523 49.66 34.1323 51.41C31.7323 50.75 31.0523 51.93 31.2623 52.8C31.6123 52.41 32.0623 52.46 32.3323 52.67C32.2623 53.31 32.4423 53.77 33.0923 53.96C33.7823 52.14 36.2623 52.54 36.4923 52.69C36.5023 52.34 36.8323 51.45 35.5623 51.27C35.6123 49.69 35.7723 47.77 35.8323 47.36C35.8923 46.96 35.9423 46.71 35.7423 46.08C35.6823 45.89 35.6123 45.66 35.5423 45.38C35.3723 44.74 35.2023 43.91 35.1923 43.01C35.4123 43.23 35.9423 43.4 36.3023 43.32C36.5823 44.51 36.9823 44.17 37.1923 44.66C37.3023 44.92 37.3223 45.16 37.3523 45.37C37.3823 45.57 37.4123 45.76 37.5223 45.92C38.3723 45.95 39.1023 45.74 39.6223 45.37C39.7823 45.26 39.9223 45.13 40.0423 44.99C39.8323 43.72 39.4723 43.1 38.8123 42.33C38.6423 41.29 38.1523 40.34 37.4923 39.5C38.3323 39.22 39.1823 38.55 39.6223 38.07C40.0223 38.04 40.4823 37.71 40.5223 37.05C40.7523 37.02 40.9523 37.01 41.1323 36.97C41.1123 36.79 41.0623 36.52 41.0323 36.36C41.3423 36.36 41.6423 36.36 41.9223 36.32C41.8323 36.08 41.7323 35.83 41.6423 35.65C41.9523 35.65 42.3323 35.63 42.6423 35.61C42.4823 35.3 42.3523 35.03 42.2623 34.76C42.6123 34.72 43.1623 34.64 43.6123 34.53C43.4723 34.38 43.3023 34.22 43.0523 33.98C44.2223 33.64 44.7323 32.82 44.7923 32.46C44.6223 32.46 44.2623 32.53 44.0523 32.52C44.7023 32.14 45.1423 31.61 45.2123 31.04L45.2823 31.05ZM23.0123 21.15L23.7223 20.93L23.3723 21.41L23.2823 21.53L23.3723 21.65L23.7223 22.13L22.8223 21.85C22.9023 21.66 22.9723 21.45 23.0123 21.15ZM19.6023 22.13L19.9523 21.65L20.0423 21.53L19.9523 21.41L19.6023 20.93L20.3123 21.15C20.3523 21.46 20.4223 21.66 20.5023 21.85L19.6023 22.13ZM39.2023 25.71C39.4923 26.19 39.7123 27.06 39.7123 27.79C40.0823 27.42 40.3223 26.83 40.4423 26.4C40.6023 26.73 40.5823 27.59 40.5523 27.98C40.9623 27.63 41.2223 27.15 41.4723 26.66C41.5223 27.01 41.5323 27.32 41.4723 27.67C40.5923 28.61 39.1423 29.86 37.6123 31.13C38.4423 29.42 38.9523 28 39.2023 25.72V25.71ZM24.4923 32.92C24.2223 32.96 23.9223 33.09 23.6423 33.28C22.9223 33.75 22.1023 33.78 21.6623 32.93C21.2223 33.78 20.4023 33.75 19.6823 33.28C19.3923 33.09 19.1023 32.97 18.8323 32.92C18.9523 32.09 19.1623 30.52 19.3123 29.2C20.2423 28.78 21.3823 28.68 21.6623 29.75C21.9423 28.68 23.0923 28.78 24.0123 29.2C24.1623 30.52 24.3623 32.09 24.4923 32.92ZM21.6623 27.04C22.5623 27.04 23.3223 27.28 23.8523 27.49C23.8623 27.65 23.8723 27.84 23.8923 28.05C23.2823 27.87 22.4723 27.74 21.6523 27.74C20.8323 27.74 20.0323 27.87 19.4223 28.05C19.4423 27.83 19.4523 27.65 19.4623 27.49C19.9923 27.29 20.7523 27.04 21.6523 27.04H21.6623ZM20.0223 26.16C20.4323 26.06 20.8523 25.99 21.2723 25.96L21.5723 26.53C21.1923 26.53 20.8423 26.58 20.5223 26.64L20.0223 26.15V26.16ZM22.9623 26.08C23.4023 26.17 23.8223 26.29 24.1823 26.45L24.3523 27.13C24.0823 27.02 23.7023 26.87 23.2523 26.74L22.9623 26.07V26.08ZM31.7223 19.07C32.2023 19.09 33.0323 19.03 33.5323 18.78C33.0123 19.42 32.9523 19.65 32.1123 19.74C33.2023 19.84 33.6623 20.81 34.2023 20.97C32.3723 21.53 32.1923 19.71 30.5223 19.82C31.0823 19.42 31.4323 19.24 31.7223 19.07ZM27.0423 26.23C27.1023 25.64 27.4623 25.24 27.6523 25.18C27.1623 24.61 27.0523 23.89 27.0023 23.38C27.8123 23.73 29.0223 24.68 29.2323 26.32L29.7623 25.97C29.6023 23.1 29.6323 23.11 29.6123 21.16C29.6123 20.89 29.6223 20.25 30.4923 20.32C30.5323 21.04 30.6423 22.97 30.6023 25.64H30.9123C31.1923 24.89 32.1823 24.02 33.3323 24.09C34.1223 24.14 34.3923 24.13 34.8423 23.93C34.4723 24.82 33.1323 25.21 32.7923 25.27C33.3423 25.72 33.1623 26.35 33.0323 26.5C32.5523 25.68 31.0223 25.96 29.5123 27.66C29.4023 27.79 29.2623 27.93 29.0923 28.08C29.2123 26.05 27.5423 26.01 27.0523 26.22L27.0423 26.23ZM25.2223 27.59C25.9423 28.31 27.4023 28.55 28.5123 27.92C28.5123 28.11 28.4623 28.33 28.3823 28.57C27.7623 28.9 26.9523 29.07 26.0423 28.76C26.1623 29.69 27.2323 30.38 28.2523 30.66C27.9123 30.93 27.4823 31.03 27.1823 31C27.3723 31.54 27.4823 32.26 27.0823 32.82C26.5723 32.48 26.3023 32.15 26.1123 30.84C25.9323 29.64 25.1223 28.43 24.4323 28.03C24.4223 27.92 24.4123 27.8 24.4023 27.7C24.7423 27.83 25.0423 27.75 25.2423 27.59H25.2223ZM22.4223 21.89H21.8623L21.9323 20.89C22.7823 20.52 22.7023 21.29 22.4223 21.89ZM21.6623 23.67L22.3323 24.16C22.0423 24.13 21.8023 24.13 21.6623 24.13C21.5223 24.13 21.2823 24.13 20.9923 24.16L21.6623 23.67ZM21.0623 23.59L21.3723 22.59H21.9523L22.2623 23.59L21.7823 23.24L21.6623 23.15L21.5423 23.24L21.0623 23.59ZM21.5423 19.74L21.6623 19.83L21.7823 19.74L22.2723 19.39L21.9923 20.33C21.9923 20.33 21.9723 20.33 21.9623 20.34C21.9123 20.22 21.7923 20.14 21.6623 20.14C21.5323 20.14 21.4123 20.22 21.3623 20.34C21.3623 20.34 21.3423 20.34 21.3323 20.33L21.0523 19.39L21.5423 19.74ZM20.9023 21.89C20.6323 21.3 20.5523 20.52 21.3923 20.89L21.4623 21.89H20.9023ZM19.0723 25.54C19.5423 24.97 20.7623 24.77 21.6623 24.77C22.5623 24.77 23.7923 24.97 24.2623 25.54C24.3723 25.68 24.4423 25.83 24.4523 26.01C23.6423 25.65 22.6123 25.44 21.6623 25.44C20.7123 25.44 19.6823 25.66 18.8723 26.01C18.8823 25.83 18.9523 25.67 19.0623 25.54H19.0723ZM18.6123 26.72C18.6123 26.72 18.6823 26.68 18.7123 26.66L19.1823 27.05C19.0823 27.09 18.9923 27.13 18.9123 27.16L18.7723 27.22C18.5723 27.3 18.4423 27.23 18.3923 27.14C18.3423 27.04 18.3723 26.87 18.6223 26.72H18.6123ZM9.56232 21.08C10.4923 20.62 10.3923 19.94 10.9323 19.6C10.5923 19.55 9.91232 19.4 9.92232 18.92C10.8523 19.37 11.1523 18.54 12.8923 19.66C11.7423 20.02 10.8523 21.44 9.56232 21.08ZM13.2623 28.16C12.7023 27.93 11.8523 27.79 11.3723 28.46C11.1123 28.01 11.5023 27.33 11.7323 27.12C10.5123 27.14 9.8223 26.77 9.6423 26.4C10.0923 26.15 11.2323 25.74 12.1623 26.42C12.8023 26.89 13.1323 27.12 13.8923 27.37C14.1723 27.09 14.0623 27.22 14.1523 27.14C13.5323 26.71 13.2523 23.39 12.0323 23.26C12.2023 22.84 12.8423 22.88 13.3523 23.01C13.3923 22.27 13.0823 21.04 12.6223 20.33C13.3323 19.96 13.8223 20.36 14.0623 21.24C14.3223 22.18 14.0123 24.52 14.6323 26.63L15.0123 26.27C14.8223 25.04 16.1723 24.59 16.4723 23.98C16.5823 24.81 16.4123 25.18 16.1823 25.48C16.6723 25.54 16.8923 26.02 16.8123 26.35C15.6323 26.18 14.9523 27.36 15.2123 28.3C14.3423 28.49 13.7423 28.35 13.2623 28.15V28.16ZM17.4423 31.73C17.2923 31.79 16.8423 31.78 16.7023 31.47C16.6023 31.96 15.6023 32.53 14.8723 32.45C15.2723 32.02 15.5423 31.04 16.3323 30.52C17.1223 30 17.4723 29.64 17.7523 28.76C17.3823 28.93 15.4923 29.42 14.9523 28.84C16.0823 28.67 17.4023 28.08 18.1823 27.63C18.3823 27.76 18.6423 27.81 18.9423 27.7C18.9123 28.03 18.8723 28.44 18.8323 28.88C17.8923 29.09 17.0523 30.32 17.4423 31.72V31.73ZM13.1223 34.44C13.5623 34.12 13.7123 33.98 14.1323 34.03V34.43C13.6023 34.47 12.8423 35.07 12.1823 36.64C12.0923 36.54 12.0223 36.5 11.9323 36.45C11.9923 36.02 11.8523 35.66 11.5823 35.34C11.8523 35.16 12.6623 34.78 13.1223 34.45V34.44ZM14.1323 35.03V38.53C13.9423 38.45 13.7223 38.36 13.5123 38.21C13.1923 37.99 13.1123 37.67 12.7023 37.25C12.7823 36.33 13.6223 35.25 14.1323 35.03ZM4.39231 31C4.24231 30.82 4.16231 30.61 4.08231 30.55C4.69231 30.17 5.45231 30.48 5.91231 30.04C6.21231 30.21 6.64231 30.04 6.83231 30.01C7.47231 29.92 8.26231 30.58 8.85231 31C9.10231 31.18 9.31232 31.31 9.45232 31.33C9.29232 31.83 9.33231 31.93 9.76231 32.02C9.74231 32.17 9.6223 32.27 9.1423 32.22C8.6523 32.17 8.07232 32.18 7.81232 32.21C6.36232 32.96 5.8923 31.76 5.8923 31.01C5.8923 31.01 5.88231 31.01 5.87231 31.01C5.03231 31.48 4.63231 31.28 4.40231 31.01L4.39231 31ZM10.2523 42.9C10.7623 43.54 10.0323 46.21 9.77231 46.69C9.53231 47.12 9.97232 47.4 10.2023 47.46C11.2723 47.73 12.3223 48.75 12.6723 49.52L12.3023 49.67C11.5023 48.59 11.2923 48.94 11.0923 49.15C10.8923 48.79 9.93231 47.72 9.32231 47.66C8.76231 47.61 8.76231 47.27 8.80231 46.98C8.88231 46.41 8.84232 45.57 8.78232 45.11C8.70232 44.74 8.3823 44.29 8.1423 44.27C8.2623 43.98 8.11231 43.07 8.88231 42.69C9.46231 42.4 10.1423 42.76 10.2623 42.91L10.2523 42.9ZM14.7023 43.12C14.6523 43.24 14.6023 43.36 14.5923 43.46C14.5023 43.46 14.4323 43.43 14.3823 43.32C14.5523 42.7 14.6023 42.38 14.5623 42.25C14.4223 42.3 14.3123 42.29 14.2423 42.26C14.4123 41.26 14.3023 40.64 14.1923 40.25C14.1823 40.2 14.1623 40.15 14.1323 40.09V40.12C13.9623 39.72 13.5223 39.25 13.3523 39.17C13.0523 39.01 12.8023 38.84 12.2223 38.77C11.0123 37.75 10.6823 38.37 9.82231 38.26C9.70231 38.11 9.48232 37.9 9.48232 37.9L9.10231 38.17C9.10231 38.17 9.47231 38.63 9.54231 38.94C9.54231 38.94 10.3323 38.8 10.9223 38.94C10.6923 39.7 9.63231 40.73 8.61231 41.87C7.52231 43.09 7.51231 43.36 7.54231 44.32C7.57231 45.45 6.00231 47.15 4.81231 47.95C4.71231 48.24 4.57231 50.75 4.73231 51.13C4.81231 51.27 5.15231 51.67 5.36231 51.98C5.45231 52.12 5.43231 52.47 5.48231 52.8C5.32231 52.82 5.20231 52.8 5.08231 52.74C5.01231 52.39 4.72231 51.92 4.19231 51.58C4.32231 50.18 4.46231 49.43 3.97231 48.04C3.93231 47.92 4.58231 47.55 4.58231 47.55C4.58231 47.55 4.80231 46.52 5.40231 46.02C4.98231 44.94 4.92231 43.47 4.92231 43.47C4.92231 43.47 4.67231 43.81 4.24231 44.08C5.35231 40.55 5.5823 41.55 6.8923 38.97C7.8023 34.85 5.41231 34.02 5.76231 32.59C6.59231 33.38 7.03231 33.13 7.71231 32.94C8.32231 33.46 9.22231 34.62 10.0523 34.91C11.3923 35.37 11.3823 36.63 11.1723 37.21C11.7323 37.21 12.1823 37.41 12.3923 37.74C13.1723 38.95 13.7223 38.86 14.1823 39.14C14.2723 39.2 14.3623 39.27 14.4523 39.37C14.6923 39.66 14.4523 40.48 14.7423 41.21C14.7523 41.24 14.7623 41.28 14.7723 41.31C14.9323 41.77 15.0023 42.27 15.0023 42.43C14.9823 42.59 14.8323 42.86 14.7223 43.11L14.7023 43.12ZM21.4423 52C20.6723 51.69 19.0523 50.92 17.5823 49.5C16.0023 47.97 15.0723 46.15 14.7823 44.07C15.1423 43.48 15.4823 42.9 15.4623 42.48C15.4423 42.06 15.3523 41.67 15.2523 41.33H21.4323V52H21.4423ZM15.1423 40.89C15.0623 40.62 15.0023 40.38 15.0223 40.22C15.1423 39.16 14.9823 39.07 14.6823 38.82V34.22H28.6523V38.34C28.3523 38.37 28.0423 38.54 27.8123 38.92C28.4523 38.85 28.6623 39.66 28.6423 40.5C28.6423 40.63 28.6423 40.76 28.6223 40.89H15.1523H15.1423ZM25.7423 49.49C24.2723 50.91 22.6523 51.68 21.8823 51.99V47.08C22.7223 46.44 23.3023 46.01 24.8323 46.01C26.3623 46.01 27.0023 46.6 27.4623 47.28C27.0123 48.07 26.4423 48.8 25.7423 49.48V49.49ZM25.9723 45.1V45.68C25.6423 45.59 25.2623 45.55 24.8223 45.55C24.3823 45.55 24.0223 45.58 23.6923 45.64V45.1H25.9623H25.9723ZM24.2223 44.63C24.2423 43.64 24.4423 42.92 24.8323 42.41C25.2123 42.92 25.4123 43.65 25.4423 44.63H24.2323H24.2223ZM27.7023 46.83C27.4123 46.44 27.0223 46.08 26.4523 45.84V44.64H25.9123C25.8823 43.39 25.5823 42.49 25.0023 41.89L24.8323 41.72L24.6623 41.89C24.0823 42.49 23.7823 43.39 23.7523 44.64H23.2323V45.77C22.7023 45.94 22.3023 46.19 21.8823 46.5V41.33H28.5523C28.4323 41.92 28.1623 42.33 27.6623 42.33C27.7023 42.94 28.1823 43.23 28.6123 43.21C28.5423 44.51 28.2423 45.72 27.6923 46.83H27.7023ZM31.8323 45.35C31.7123 45.66 31.6223 45.98 31.5423 46.33C31.4723 46.65 30.7723 46.57 30.6823 46.33C30.6023 46.14 30.4623 45.78 30.3023 45.35C29.9023 44.3 29.3523 42.81 29.2223 42.18C29.1623 42.28 29.1023 42.36 29.0323 42.44C29.0123 42.46 29.0023 42.48 28.9823 42.5C28.9223 42.57 28.8623 42.62 28.7923 42.66C28.7823 42.66 28.7723 42.66 28.7623 42.67C28.6223 42.74 28.4723 42.73 28.3223 42.59C28.5723 42.48 28.7423 42.24 28.8623 41.94C28.8623 41.94 28.8623 41.92 28.8723 41.91C28.9223 41.77 28.9723 41.61 29.0023 41.45C29.0023 41.45 29.0023 41.45 29.0023 41.44C29.0623 41.1 29.0723 40.73 29.0523 40.38C29.0523 40.2 29.0223 40.03 29.0023 39.87C28.9223 39.34 28.7723 38.92 28.6223 38.87C28.6823 38.81 28.7523 38.8 28.8123 38.8C28.8323 38.8 28.8523 38.81 28.8723 38.82C28.9123 38.83 28.9523 38.85 28.9923 38.88C29.0123 38.9 29.0323 38.91 29.0523 38.93C29.4223 39.34 29.6923 40.61 29.4323 41.63C29.7723 42.6 30.4423 44.57 30.7123 45.37C30.7723 45.54 30.8123 45.66 30.8223 45.71C30.9023 45.96 31.2123 45.94 31.2923 45.71C31.3223 45.63 31.3523 45.51 31.4023 45.37C31.6623 44.51 32.2123 42.67 32.1223 41.53C32.6623 41.63 32.8123 42.12 33.0023 42.76C32.5623 43.83 32.1423 44.56 31.8423 45.37L31.8323 45.35ZM41.8523 32.16C42.6823 32.14 43.3423 32.04 44.0623 31.83C43.5223 32.39 42.7423 32.92 41.8123 33.03C42.7523 33.03 42.9223 33.1 43.8123 33C43.5323 33.3 42.6523 33.67 41.5923 33.72C41.8023 33.94 42.1523 34.11 42.3823 34.22C42.0823 34.29 41.6623 34.3 41.2823 34.32C41.4523 34.62 41.7123 35 41.8123 35.16C41.5123 35.16 41.2323 35.14 40.8923 35.12C41.0623 35.44 41.1023 35.59 41.2623 35.86C41.0323 35.86 40.5923 35.86 40.3523 35.83C40.4323 36.05 40.5623 36.35 40.6323 36.52C40.4923 36.52 40.2723 36.52 40.1423 36.52C39.1223 37.93 37.6923 39.42 35.0123 39.27C35.0923 39.5 35.1423 39.74 35.1623 39.74C35.5623 39.76 36.3623 39.69 36.9523 39.59C37.3623 40.04 38.1023 41.13 38.4923 42.79C38.7923 42.97 39.2623 43.79 39.4923 44.82C39.0123 45.1 38.5823 45.23 37.9623 45.3C37.7323 43.98 37.0523 43.93 36.7223 42.84C36.2623 42.9 35.6023 42.54 35.4123 41.9H34.8123C34.6923 43.17 34.9723 44.34 35.2023 45.33C35.3123 45.8 35.4023 46.23 35.4423 46.61C35.5223 47.38 35.2023 50.36 35.1923 51.59C35.7623 51.57 36.1923 51.71 36.1723 52.18C35.2823 51.9 33.7323 52.07 33.0023 53.28C32.8323 53.18 32.7123 52.68 33.0023 52.53C32.6523 52.16 32.3623 51.9 31.7323 52.07C32.0023 51.62 32.6323 51.33 34.5323 51.81C34.7223 51.16 34.8923 46.99 34.8623 46.1C34.8623 45.95 34.7723 45.67 34.6323 45.31C34.1723 44.15 33.1723 42.16 32.9323 40.82C32.6023 40.82 32.1223 40.89 31.9623 40.72C31.5523 40.31 30.6623 38.99 30.4823 37.71C30.1723 37.19 29.6623 35.22 31.2023 34.11C32.2723 33.34 34.7223 32.4 34.7023 31.51C34.7023 30.97 33.7823 30.57 33.4723 30.35C33.1623 30.18 33.2723 30.02 33.5423 29.76C34.9823 28.35 36.6923 29.73 35.6923 31.44C34.9523 32.7 31.2323 33.79 32.0823 36.15C32.8923 36.21 33.2923 36.51 33.6023 36.92C34.3423 36.66 37.2123 35.39 37.4923 31.75C38.2123 31.3 38.9523 30.81 39.6523 30.23C39.7823 31.15 39.6323 37.04 34.3123 38.4C34.4523 38.9 35.5923 39.04 36.2723 38.14C36.9223 38.29 37.7123 37.76 37.7323 37.25C38.3123 37.25 38.9423 36.6 38.8423 36C39.5623 35.76 39.9023 34.81 39.5923 34.09C40.2123 33.81 40.4223 33.07 40.1523 32.35C40.6523 32.01 40.8023 31.15 40.3823 30.6C40.6323 30.14 40.5723 29.75 40.3823 29.45C41.3423 28.56 42.5723 27.42 43.3423 26.04C43.4023 26.99 42.9023 27.78 42.3223 28.64C43.3423 27.99 43.5723 27.83 44.2023 27.34C44.0223 28.43 42.7723 29.42 42.3423 29.91C42.9323 29.67 43.8423 29.24 44.5223 28.87C43.9323 30.06 42.9223 30.74 42.3123 31.12C43.1523 30.97 43.7423 30.84 44.2923 30.65C43.8023 31.2 42.8923 31.81 41.8623 32.12L41.8523 32.16Z" fill="black"/>
<path d="M38.7823 43.9701C38.7423 43.8401 38.5722 43.6601 38.3622 43.3401C38.1222 43.4001 37.8722 43.4101 37.5522 43.4001C37.7422 43.8201 37.7422 44.0701 37.7422 44.0501C38.0322 44.1101 38.3923 44.0701 38.7823 43.9701Z" fill="black"/>
<path d="M7.45238 31.31C7.73238 31.28 7.86237 31.14 8.11237 31.23C8.08237 31.15 7.94237 31.15 7.91237 31.08C7.91237 31.06 7.91237 31.03 7.91237 31C7.88237 30.74 7.79238 30.53 7.37238 30.46C7.27238 30.68 6.89237 30.84 6.68237 30.97C6.74237 30.97 6.79238 30.99 6.84238 31C7.11238 31.09 7.07237 31.35 7.46237 31.31H7.45238Z" fill="black"/>
<path d="M28.0323 36.42C28.0323 35.44 27.3223 34.55 26.2223 34.55C25.2123 34.55 23.9623 35.04 23.8823 35.92C22.4023 36.78 21.7023 37.56 21.9223 38.3C21.4223 38.84 21.8023 39.83 23.2823 39.2C22.8923 39.59 22.7423 40.07 22.7423 40.47H27.7123C27.1923 37.74 28.0223 38.22 28.0223 36.42H28.0323ZM26.5423 36.13C26.2823 36.07 25.1923 36.01 24.8223 36.83C24.6123 36.83 24.3823 36.75 24.2523 36.62C24.1123 36.81 23.8923 36.93 23.5823 37.01C23.8423 37.55 24.3923 37.46 24.7223 37.2C24.7123 37.27 24.7123 37.35 24.7123 37.43C24.7123 38.76 26.1323 39.1 27.0023 38.6C26.8623 39.03 26.9223 39.58 26.9823 39.95H23.5423C23.6023 39.59 24.0623 39.16 24.4423 38.89L24.1323 38.41C23.7623 38.57 23.4123 38.72 23.0023 38.83C22.0523 39.08 22.1023 38.4 23.0923 38.12V37.85H22.4623C22.6123 37.17 23.9223 36.32 24.5023 36.11C24.4723 35.38 25.4323 35.14 26.2023 35.13C27.1623 35.1 27.3823 36.13 27.3823 36.44C27.3823 36.86 27.2723 37.8 26.7423 38.09C25.9723 38.51 25.3223 37.93 25.3223 37.4C25.3223 36.82 25.7223 36.49 26.4123 36.57C27.1023 36.64 27.0523 36.26 26.5223 36.13H26.5423Z" fill="black"/>
<path d="M24.9123 46.69L25.3623 47.21L24.5723 47.88L24.2223 47.47C24.2223 47.47 24.3523 47.36 24.5423 47.2C24.2623 46.88 23.8723 46.61 23.3223 46.73C23.1223 47.26 23.3423 47.68 23.6123 48C23.8023 47.84 23.9323 47.72 23.9323 47.72L24.2823 48.12L23.3123 48.94L23.6223 49.29L24.5623 48.45L24.8723 48.81C24.8723 48.81 24.6723 49.11 24.9623 49.44C25.1823 49.25 25.5523 48.92 25.7723 48.73C25.4823 48.4 25.1623 48.55 25.1623 48.55L24.8423 48.19L25.6123 47.5L26.0623 48.02C26.1723 47.62 26.0723 47.24 25.8723 47.02C25.6723 46.78 25.3123 46.64 24.9023 46.69H24.9123Z" fill="black"/>
<path d="M17.1123 45.3001C17.1123 45.3001 17.0423 45.3201 17.0023 45.3301C16.9423 45.6101 16.9323 45.9801 16.9823 46.2701C17.0423 46.2901 17.0923 46.3001 17.1523 46.3201C17.0223 46.7001 16.7823 47.3101 16.6523 47.5901C16.8223 47.6901 17.0023 47.7801 17.2623 47.8401C17.2623 47.8401 17.2123 48.0601 17.1423 48.2801C17.4923 48.4001 18.1623 48.4701 18.6023 48.4701C19.0423 48.4701 19.7123 48.3901 20.0623 48.2801C19.9923 48.0601 19.9423 47.8401 19.9423 47.8401C20.2023 47.7801 20.3823 47.7001 20.5523 47.5901C20.4223 47.3101 20.1823 46.7001 20.0523 46.3201C20.1123 46.3001 20.1623 46.2801 20.2223 46.2701C20.2723 45.9801 20.2623 45.6101 20.2023 45.3301C20.1723 45.3301 20.1323 45.3101 20.0923 45.3001C20.3223 44.8101 20.6623 44.0101 20.8123 43.7201C20.9723 43.3901 21.1123 42.2001 19.8523 42.3901C19.7323 41.6801 18.9323 41.6101 18.5923 41.9201C18.2423 41.6001 17.4623 41.6801 17.3323 42.3901C16.0723 42.2001 16.2123 43.3901 16.3723 43.7201C16.5123 44.0101 16.8523 44.8101 17.0923 45.3001H17.1123ZM19.4923 47.5401C19.5323 47.7001 19.5723 47.8701 19.6023 47.9801C19.3323 48.0401 18.9023 48.0701 18.6123 48.0701C18.3223 48.0701 17.8923 48.0401 17.6223 47.9801C17.6523 47.8601 17.6923 47.7001 17.7323 47.5401C17.5323 47.5201 17.3223 47.4401 17.1523 47.3901C17.2323 47.1001 17.3723 46.8101 17.4723 46.4101C17.8423 46.4901 18.1923 46.5301 18.6023 46.5301C19.0123 46.5301 19.3723 46.5001 19.7323 46.4101C19.8423 46.8101 19.9723 47.1001 20.0623 47.3901C19.9023 47.4501 19.6823 47.5201 19.4823 47.5401H19.4923ZM17.3723 45.6401C17.5723 45.5601 18.3723 45.5301 18.6123 45.5301C18.8523 45.5301 19.6523 45.5701 19.8523 45.6401C19.8723 45.7501 19.8823 45.8901 19.8523 46.0001C19.5423 46.0901 19.0123 46.1401 18.6023 46.1401C18.1923 46.1401 17.6623 46.0901 17.3523 46.0001C17.3323 45.8901 17.3323 45.7401 17.3523 45.6401H17.3723ZM19.8623 43.0701C20.0123 42.6801 20.6823 42.8501 20.4023 43.5201C20.1023 44.2401 19.8023 44.9901 19.7123 45.2101C19.5523 45.1901 19.3823 45.1701 19.2023 45.1601C19.4123 44.5301 19.6623 43.6201 19.8623 43.0601V43.0701ZM18.6123 42.4701C18.6623 42.1401 19.6023 42.0701 19.4323 42.8101C19.2523 43.5501 19.0323 44.4101 18.8623 45.1701C18.7823 45.1701 18.7023 45.1701 18.6223 45.1701C18.5423 45.1701 18.4623 45.1701 18.3823 45.1701C18.2123 44.4201 17.9823 43.5601 17.8123 42.8101C17.6323 42.0801 18.5823 42.1401 18.6223 42.4701H18.6123ZM17.3623 43.0701C17.5723 43.6401 17.8123 44.5401 18.0223 45.1701C17.8423 45.1701 17.6723 45.2001 17.5123 45.2201C17.4223 44.9901 17.1223 44.2501 16.8223 43.5301C16.5423 42.8601 17.2123 42.6901 17.3623 43.0801V43.0701Z" fill="black"/>
<path d="M20.8623 38.18C20.6923 37.51 20.2623 36.68 20.0023 36C20.4723 35.63 20.8423 35.13 21.0923 34.27C19.1723 35.23 17.3723 34.87 15.7623 34.29C15.9523 34.91 16.4323 35.52 16.7723 35.74C16.4823 36.16 15.9823 36.46 15.3923 36.78V39.99C16.9223 41.48 18.5023 39.92 19.0123 39.88C19.1923 39.86 19.1923 40.03 19.5623 40.14C19.9423 40.26 21.1123 39.83 21.1923 39.48C21.2823 39.09 21.3723 38.52 20.8623 38.18ZM18.7823 38.27C18.1523 38.3 17.3423 38.5 16.9023 37.06C16.6723 37.17 16.4423 37.33 16.4423 37.33C16.7023 38.27 17.1823 38.91 18.4423 38.78C18.5123 39.08 18.5723 39.25 18.7223 39.5C18.2023 39.81 16.9023 40.58 15.9023 39.69V37.1C16.6623 36.67 17.0523 36.35 17.4523 35.72C17.1523 35.57 16.8023 35.31 16.5423 34.94C17.9823 35.34 18.7123 35.56 20.4123 34.94C20.1323 35.38 19.7223 35.64 19.3723 35.86C19.7523 36.49 20.1423 37.22 20.2723 37.8C19.7623 37.76 19.1923 37.89 18.7723 38.26L18.7823 38.27ZM20.6723 39.21C20.5423 39.4 19.7223 39.65 19.5223 39.53C19.1823 39.32 19.0123 38.88 19.0923 38.68C19.1923 38.43 20.0923 38.18 20.3823 38.28C20.6723 38.37 20.7923 39.05 20.6823 39.21H20.6723Z" fill="black"/>
<path d="M18.4823 36.5C18.1323 36.52 17.9323 36.6 17.5723 36.5C17.8223 36.75 17.7623 37.2 18.0923 37.36C18.3323 37.47 18.6323 37.34 18.9323 37.38C18.8723 37.25 18.8123 37.15 18.8523 36.96C18.9223 36.58 18.6323 36.49 18.4923 36.5H18.4823Z" fill="black"/>
</svg>
