<svg width="148" height="72" viewBox="0 0 148 72" fill="none" xmlns="http://www.w3.org/2000/svg">
<g clip-path="url(#clip0_1051_4708)">
<path fill-rule="evenodd" clip-rule="evenodd" d="M11.5292 20.7368H0V23.3117H4.3216V35.9926H7.2076V23.3117H11.5292V20.7368ZM27.5798 35.9926H30.6582L25.2266 20.7368H21.756L16.2948 35.9926H19.3732L20.6164 32.3089H26.3366L27.5798 35.9926ZM21.4008 29.9349L23.3914 24.0484H23.569L25.5596 29.9349H21.4082H21.4008ZM48.174 31.8103C48.174 28.6252 45.3768 27.6056 43.9338 27.1666L43.1716 26.9284C41.884 26.534 40.552 26.1024 40.552 24.7926C40.552 23.6838 41.4918 22.9619 42.846 22.9619C44.3112 22.9619 45.0734 23.8103 45.2066 25.0084H48.0482C47.9594 22.4187 45.9762 20.521 42.8312 20.521C39.886 20.521 37.6586 22.2029 37.6586 24.9266C37.6586 27.4568 39.627 28.6103 41.4992 29.1759L42.3724 29.4363C43.771 29.8531 45.2806 30.3517 45.2806 31.8996C45.2806 33.2317 44.1854 33.7749 42.8756 33.7749C41.1292 33.7749 40.145 32.8596 40.0118 31.334H37.1702C37.2812 34.2512 39.22 36.2159 42.8682 36.2159C45.6876 36.2159 48.174 34.8019 48.174 31.8103ZM72.9196 20.7368H69.4046L64.7722 31.2001H64.5946L59.9474 20.7368H56.4102V35.9926H59.2296V25.8568H59.4072L63.2256 34.2438H66.1338L69.93 25.8568H70.1076V35.9926H72.927V20.7368H72.9196ZM91.501 35.9926H94.5794L89.1478 20.7368H85.6772L80.216 35.9926H83.2944L84.5376 32.3089H90.2578L91.501 35.9926ZM85.322 29.9349L87.3126 24.0484H87.4902L89.4808 29.9349H85.3294H85.322ZM111.903 20.7368V30.9991H111.725L104.851 20.7368H101.905V35.9926H104.725V25.7973H104.902L111.784 35.9926H114.73V20.7368H111.91H111.903ZM123.454 35.9926H126.34V20.7368H123.454V35.9926ZM144.922 35.9926H148L142.561 20.7368H139.09L133.629 35.9926H136.708L137.951 32.3089H143.671L144.914 35.9926H144.922ZM138.743 29.9349L140.733 24.0484H140.911L142.901 29.9349H138.75H138.743ZM39.8786 51.4791C38.1544 51.4791 37.111 50.2661 37.111 48.614C37.111 46.9619 38.221 45.7043 39.8786 45.7043C41.1514 45.7043 42.1652 46.3815 42.3576 47.6243H41.218C41.0404 47.0438 40.5668 46.6866 39.886 46.6866C38.8796 46.6866 38.2062 47.5275 38.2062 48.6215C38.2062 49.7154 38.9314 50.5043 39.886 50.5043C40.6186 50.5043 41.1292 50.147 41.3068 49.5963H42.4464C42.2614 50.8019 41.181 51.4791 39.8786 51.4791ZM49.3506 48.5917C49.3506 47.4977 48.5884 46.6791 47.5598 46.6791C46.5312 46.6791 45.769 47.4977 45.769 48.5917C45.769 49.6856 46.5312 50.5043 47.5672 50.5043C48.6032 50.5043 49.3506 49.6856 49.3506 48.5917ZM44.6812 48.5917C44.6812 46.947 45.8948 45.7043 47.5598 45.7043C49.2248 45.7043 50.4384 46.947 50.4384 48.5917C50.4384 50.2363 49.2322 51.4791 47.5598 51.4791C45.8874 51.4791 44.6812 50.2438 44.6812 48.5917ZM59.126 51.3973H58.09V47.6689H58.0234L56.6248 50.7573H55.5518L54.1458 47.6689H54.0792V51.3973H53.0432V45.7787H54.3456L56.055 49.6261H56.1216L57.8236 45.7787H59.1186V51.3973H59.126ZM65.823 50.4745V51.3973H61.975V45.7787H65.749V46.7015H63.0184V48.1005H65.3716V49.001H63.0184V50.4745H65.8304H65.823ZM75.7612 48.5545C75.7612 47.468 75.2432 46.7238 74.0666 46.7238H73.2008V50.4447H74.0666C75.2506 50.4447 75.7612 49.641 75.7612 48.5545ZM76.849 48.5843C76.849 50.3033 75.8278 51.3898 74.111 51.3898H72.1426V45.7712H74.111C75.8278 45.7712 76.849 46.8354 76.849 48.5768M83.8938 48.5768C83.8938 47.4829 83.1316 46.6643 82.103 46.6643C81.0744 46.6643 80.3122 47.4829 80.3122 48.5768C80.3122 49.6708 81.0744 50.4894 82.1104 50.4894C83.1464 50.4894 83.8938 49.6708 83.8938 48.5768ZM79.2244 48.5768C79.2244 46.9322 80.438 45.6894 82.103 45.6894C83.768 45.6894 84.9816 46.9322 84.9816 48.5768C84.9816 50.2215 83.7754 51.4643 82.103 51.4643C80.4306 51.4643 79.2244 50.2289 79.2244 48.5768ZM94.1206 45.7712L92.8996 51.3898H91.723L90.613 47.5349H90.5464L89.4512 51.3898H88.2746L87.0462 45.7712H88.0748L88.9036 49.827H88.9702L90.021 46.1656H91.1458L92.1818 49.827H92.2484L93.092 45.7712H94.1132H94.1206ZM101.239 45.7712V51.3898H100.152L97.6208 47.6391H97.5542V51.3898H96.5182V45.7712H97.606L100.137 49.5517H100.203V45.7712H101.239ZM108.861 46.7387V48.2345H111.222V49.1573H108.861V51.3898H107.803V45.7712H111.592V46.7387H108.869H108.861ZM118.4 48.5768C118.4 47.4829 117.638 46.6643 116.609 46.6643C115.581 46.6643 114.818 47.4829 114.818 48.5768C114.818 49.6708 115.581 50.4894 116.617 50.4894C117.653 50.4894 118.4 49.6708 118.4 48.5768ZM113.731 48.5768C113.731 46.9322 114.944 45.6894 116.609 45.6894C118.274 45.6894 119.488 46.9322 119.488 48.5768C119.488 50.2215 118.282 51.4643 116.609 51.4643C114.937 51.4643 113.731 50.2289 113.731 48.5768ZM123.129 48.294H124.194C124.742 48.294 125.067 47.9517 125.067 47.4754C125.067 46.9768 124.734 46.6643 124.194 46.6643H123.129V48.294ZM125.215 51.3824L124.039 49.1945H123.121V51.3824H122.085V45.7638H124.313C125.437 45.7638 126.133 46.4261 126.133 47.4159C126.133 48.1749 125.719 48.7405 125.045 48.9936L126.34 51.3749H125.215V51.3824ZM135.62 49.1498L134.887 46.9843H134.821L134.088 49.1498H135.612H135.62ZM135.908 50.028H133.799L133.341 51.3824H132.208L134.221 45.7638H135.501L137.507 51.3824H136.375L135.916 50.028H135.908ZM139.823 51.3824H140.881V45.7638H139.823V51.3824ZM144.766 48.294H145.832C146.379 48.294 146.705 47.9517 146.705 47.4754C146.705 46.9768 146.372 46.6643 145.832 46.6643H144.766V48.294ZM146.853 51.3824L145.676 49.1945H144.759V51.3824H143.723V45.7638H145.95C147.075 45.7638 147.771 46.4261 147.771 47.4159C147.771 48.1749 147.356 48.7405 146.683 48.9936L147.978 51.3749H146.853V51.3824Z" fill="black"/>
</g>
<defs>
<clipPath id="clip0_1051_4708">
<rect width="148" height="32" fill="white" transform="translate(0 20)"/>
</clipPath>
</defs>
</svg>
