<svg width="120" height="72" viewBox="0 0 120 72" fill="none" xmlns="http://www.w3.org/2000/svg">
<g clip-path="url(#clip0_1051_4277)">
<path d="M110.72 37.0085L112.599 32.0899L114.474 37.0085H110.72ZM114.548 29.2942H110.647L105.193 42.6313H108.573L109.815 39.3785H115.384L116.628 42.6313H120.007L114.548 29.2942ZM87.0248 40.3142C84.8222 40.3142 83.0403 38.3313 83.0403 35.8856C83.0403 33.4399 84.8222 31.457 87.0248 31.457C89.2274 31.457 91.0079 33.4399 91.0079 35.8856C91.0079 38.3313 89.2231 40.3142 87.0248 40.3142ZM87.0248 28.8413C85.6293 28.8416 84.2653 29.2549 83.1052 30.0289C81.945 30.803 81.0409 31.903 80.507 33.19C79.9732 34.4769 79.8337 35.8929 80.1061 37.259C80.3785 38.6251 81.0506 39.8799 82.0375 40.8647C83.0243 41.8495 84.2816 42.5202 85.6502 42.7918C87.0189 43.0634 88.4375 42.9239 89.7267 42.3908C91.0159 41.8577 92.1178 40.955 92.8931 39.7968C93.6683 38.6387 94.0821 37.2771 94.0821 35.8842C94.0817 34.0162 93.338 32.2248 92.0146 30.904C90.6911 29.5833 88.8963 28.8413 87.0248 28.8413ZM59.1763 40.3142C56.9765 40.3142 55.1932 38.3313 55.1932 35.8856C55.1932 33.4399 56.9765 31.457 59.1763 31.457C61.376 31.457 63.1608 33.4399 63.1608 35.8856C63.1608 38.3313 61.3775 40.3142 59.1763 40.3142ZM59.1763 28.8413C57.7808 28.8416 56.4168 29.2549 55.2566 30.0289C54.0965 30.803 53.1923 31.903 52.6585 33.19C52.1247 34.4769 51.9852 35.8929 52.2576 37.259C52.53 38.6251 53.2021 39.8799 54.1889 40.8647C55.1758 41.8495 56.433 42.5202 57.8017 42.7918C59.1704 43.0634 60.589 42.9239 61.8782 42.3908C63.1674 41.8577 64.2693 40.955 65.0446 39.7968C65.8198 38.6387 66.2336 37.2771 66.2336 35.8842C66.2336 34.9592 66.051 34.0432 65.6963 33.1887C65.3417 32.3341 64.8218 31.5576 64.1665 30.9036C63.5111 30.2496 62.7331 29.7309 61.8769 29.377C61.0207 29.0232 60.103 28.8411 59.1763 28.8413ZM76.6199 29.2985L73.1635 34.6927L69.7014 29.2985H66.3195L71.6722 37.6599V42.6313H74.6491V37.6613L80.0019 29.2985H76.6199ZM105.905 29.2985H94.4886V31.8556H98.7192V42.6313H101.699V31.8556H105.913L105.905 29.2985ZM40.0696 31.8556H44.3017V42.6313H47.28V31.8556H51.4935V29.2985H40.0739L40.0696 31.8556Z" fill="black"/>
<path d="M32.0592 20H0V52H32.0592V20Z" fill="black"/>
<path d="M21.3765 29.02C19.8895 28.5429 18.0375 28.2615 16.0309 28.2615C14.0244 28.2615 12.1667 28.5472 10.6839 29.02C6.72663 30.29 4.00732 32.9315 4.00732 35.9743C4.00732 40.26 9.39011 43.7386 16.0295 43.7386C22.6689 43.7386 28.0517 40.2629 28.0517 35.9743C28.0517 32.9272 25.3324 30.2915 21.3765 29.02V29.02ZM16.0309 40.4C15.0391 40.4 14.2305 38.4558 14.1832 36.0129C14.7786 36.0658 15.3969 36.0943 16.0309 36.0943C16.665 36.0943 17.2818 36.0658 17.8786 36.0129C17.83 38.4558 17.0199 40.4 16.0309 40.4ZM14.3135 34.0986C14.584 32.3843 15.2524 31.1686 16.0309 31.1686C16.8095 31.1686 17.4822 32.3843 17.7484 34.0986C17.1974 34.1486 16.6206 34.1758 16.0309 34.1758C15.4413 34.1758 14.8588 34.1486 14.3135 34.0986ZM18.8104 33.97C18.4082 31.2772 17.319 29.3472 16.0367 29.3472C14.7543 29.3472 13.6637 31.2772 13.2615 33.97C10.8185 33.5886 9.11103 32.7229 9.11103 31.7143C9.11103 30.3543 12.211 29.2529 16.0352 29.2529C19.8594 29.2529 22.9537 30.36 22.9537 31.7143C22.9537 32.7229 21.2477 33.5886 18.8032 33.97H18.8104ZM5.76056 35.6843C5.76056 34.37 6.26721 33.1386 7.1517 32.08C7.14142 32.1534 7.13616 32.2274 7.13595 32.3015C7.13595 33.9543 9.62483 35.36 13.0927 35.8729C13.0927 35.9972 13.0927 36.1229 13.0927 36.2486C13.0927 39.3229 13.9514 41.9272 15.1278 42.82C9.88102 42.5 5.76485 39.4243 5.76485 35.6772L5.76056 35.6843ZM16.9383 42.82C18.1191 41.9229 18.9735 39.3186 18.9735 36.2486C18.9735 36.1229 18.9735 35.9972 18.9735 35.8729C22.4413 35.3558 24.9302 33.95 24.9302 32.3015C24.9295 32.2274 24.9238 32.1534 24.913 32.08C25.7975 33.1386 26.3042 34.3658 26.3042 35.6843C26.3042 39.4329 22.1894 42.5086 16.9426 42.8272" fill="white"/>
</g>
<defs>
<clipPath id="clip0_1051_4277">
<rect width="120" height="32" fill="white" transform="translate(0 20)"/>
</clipPath>
</defs>
</svg>
