<svg width="100" height="72" viewBox="0 0 100 72" fill="none" xmlns="http://www.w3.org/2000/svg">
<g clip-path="url(#clip0_1051_4266)">
<path fill-rule="evenodd" clip-rule="evenodd" d="M49.7271 21.1329C43.9401 21.2802 39.316 26.1912 39.3965 32.0079C39.4617 36.7247 42.4931 40.6466 46.7235 42.0041L47.7636 37.309C45.6378 36.414 44.1246 34.2939 44.1246 31.8522C44.1246 28.1631 47.5154 25.1938 51.2775 26.0215C53.6004 26.5324 55.4052 28.4434 55.8237 30.7957C56.3337 33.663 54.713 36.2791 52.2775 37.3044L53.3169 41.9958C57.5881 40.616 60.6467 36.6291 60.6467 31.8522C60.6467 25.8183 55.7678 20.9795 49.7271 21.1329Z" fill="black"/>
<path fill-rule="evenodd" clip-rule="evenodd" d="M45.7086 46.5845H0.742996C0.417538 46.5845 0.181641 46.8519 0.181641 47.1486V50.3864C0.181641 50.6836 0.417538 50.9503 0.742996 50.9503H44.7413L45.7086 46.5845Z" fill="black"/>
<path fill-rule="evenodd" clip-rule="evenodd" d="M99.3579 46.5845H54.3335L55.3009 50.9503H99.3579C99.6831 50.9503 99.9192 50.6836 99.9192 50.3864V47.1486C99.9192 46.8519 99.6831 46.5845 99.3579 46.5845Z" fill="black"/>
<path fill-rule="evenodd" clip-rule="evenodd" d="M5.19129 25.7925H0.96492C0.639645 25.7925 0.403564 25.5257 0.403564 25.2284V21.9906C0.403564 21.6934 0.639645 21.4265 0.96492 21.4265H14.0884C14.4138 21.4265 14.6497 21.6934 14.6497 21.9906V25.2284C14.6497 25.5257 14.4138 25.7925 14.0884 25.7925H9.86199V41.6542C9.86199 41.95 9.59587 42.2182 9.30008 42.2182H5.75338C5.45741 42.2182 5.19129 41.95 5.19129 41.6542V25.7925Z" fill="black"/>
<path fill-rule="evenodd" clip-rule="evenodd" d="M19.1243 21.9907C19.1243 21.6934 19.3609 21.4268 19.6864 21.4268H28.5235C32.071 21.4268 34.9677 24.3079 34.9677 27.8416C34.9677 30.5747 33.164 32.773 30.5928 33.8127L34.6422 41.3571C34.8494 41.7428 34.6422 42.2184 34.1395 42.2184H30.2089C29.9723 42.2184 29.7948 42.069 29.7356 41.9501L25.8043 34.0794H23.7647V41.6543C23.7647 41.9501 23.4992 42.2184 23.2034 42.2184H19.6864C19.3609 42.2184 19.1243 41.9501 19.1243 41.6543V21.9907ZM28.1397 30.308C29.3517 30.308 30.3856 29.1785 30.3856 27.9314C30.3856 26.683 29.3517 25.6737 28.1397 25.6737H23.7647V30.308H28.1397Z" fill="black"/>
<path fill-rule="evenodd" clip-rule="evenodd" d="M62.2182 22.1981C62.0407 21.8123 62.2774 21.4268 62.7211 21.4268H66.6515C66.8882 21.4268 67.0953 21.6051 67.1545 21.7529L72.0316 32.5947H72.209L77.0854 21.7529C77.1446 21.6051 77.3517 21.4268 77.5884 21.4268H81.5195C81.9625 21.4268 82.1992 21.8123 82.0217 22.1981L72.7407 42.188C72.6521 42.3664 72.4746 42.5157 72.2387 42.5157H71.9427C71.7061 42.5157 71.5286 42.3664 71.44 42.188L62.2182 22.1981Z" fill="black"/>
<path fill-rule="evenodd" clip-rule="evenodd" d="M86.2783 21.9907C86.2783 21.6934 86.515 21.4268 86.8404 21.4268H99.077C99.4018 21.4268 99.6384 21.6934 99.6384 21.9907V25.2287C99.6384 25.5259 99.4018 25.7926 99.077 25.7926H90.8893V29.4758H97.6285C97.9243 29.4758 98.1904 29.7425 98.1904 30.0397V33.2777C98.1904 33.604 97.9243 33.8416 97.6285 33.8416H90.8893V37.8524H99.077C99.4018 37.8524 99.6384 38.1193 99.6384 38.4165V41.6543C99.6384 41.9501 99.4018 42.2184 99.077 42.2184H86.8404C86.515 42.2184 86.2783 41.9501 86.2783 41.6543V21.9907Z" fill="black"/>
</g>
<defs>
<clipPath id="clip0_1051_4266">
<rect width="100" height="30" fill="white" transform="translate(0 21)"/>
</clipPath>
</defs>
</svg>
